<svg width="76" height="13" viewBox="0 0 76 13" fill="none" xmlns="http://www.w3.org/2000/svg">
<mask id="path-1-outside-1_23_13" maskUnits="userSpaceOnUse" x="-2" y="-2" width="80" height="17" fill="black">
<rect fill="white" x="-2" y="-2" width="80" height="17"/>
<path d="M5.6755 12H2.1715C1.63817 12 1.28083 11.9627 1.0995 11.888C0.918167 11.8133 0.8275 11.696 0.8275 11.536V1.248C0.8275 0.735999 2.36883 0.48 5.4515 0.48C7.22217 0.48 8.4435 0.650666 9.1155 0.992C9.79817 1.344 10.2355 1.792 10.4275 2.336C10.5342 2.656 10.5875 3.02933 10.5875 3.456C10.5875 4.288 10.4435 4.912 10.1555 5.328C9.87817 5.744 9.57417 5.97867 9.2435 6.032C9.74483 6.13867 10.1608 6.384 10.4915 6.768C10.8222 7.152 10.9875 7.80267 10.9875 8.72C10.9875 9.78667 10.6622 10.576 10.0115 11.088C9.44617 11.536 8.58217 11.8187 7.4195 11.936C6.92883 11.9787 6.3475 12 5.6755 12ZM5.6915 5.024C6.2355 5.024 6.5075 4.66133 6.5075 3.936C6.5075 3.57333 6.43283 3.30667 6.2835 3.136C6.14483 2.95467 5.98483 2.864 5.8035 2.864H5.2915V5.024H5.6915ZM5.2915 9.616H5.6915C6.2355 9.616 6.5075 9.25333 6.5075 8.528C6.5075 8.16533 6.43283 7.89867 6.2835 7.728C6.14483 7.54667 5.98483 7.456 5.8035 7.456H5.2915V9.616ZM16.5248 11.184C16.5034 11.4933 16.3381 11.7067 16.0288 11.824C15.7301 11.9413 15.1861 12 14.3968 12C13.6074 12 12.9461 11.9307 12.4128 11.792C11.8901 11.6427 11.6288 11.456 11.6288 11.232C11.6288 10.976 12.1034 9.344 13.0528 6.336C14.0021 3.31733 14.5461 1.57867 14.6848 1.12C14.7381 0.981333 15.1648 0.869333 15.9648 0.783999C16.7754 0.687999 17.6394 0.639999 18.5568 0.639999C19.4848 0.639999 19.9968 0.8 20.0928 1.12C22.1088 7.81867 23.1168 11.2213 23.1168 11.328C23.1168 11.4347 23.0528 11.5413 22.9248 11.648C22.6261 11.8827 22.0341 12 21.1488 12C19.2608 12 18.2954 11.776 18.2528 11.328L18.1408 10.288H16.6048L16.5248 11.184ZM17.8048 7.248L17.5648 4.368H17.2128L16.9408 7.248H17.8048ZM25.2653 12C24.7319 12 24.3746 11.9733 24.1933 11.92C24.0119 11.856 23.9213 11.7547 23.9213 11.616V1.664C23.9213 1.42933 24.2306 1.2 24.8493 0.976C25.4679 0.741333 26.1613 0.624 26.9293 0.624C27.6119 0.624 28.0599 0.768 28.2733 1.056C28.3479 1.16267 28.3853 1.26933 28.3853 1.376V8.464C29.6866 8.37867 30.6679 8.336 31.3293 8.336C31.5533 8.336 31.6653 8.69333 31.6653 9.408C31.6653 10.112 31.6173 10.72 31.5213 11.232C31.4253 11.744 31.2973 12 31.1373 12H25.2653ZM37.0404 11.184C37.019 11.4933 36.8537 11.7067 36.5444 11.824C36.2457 11.9413 35.7017 12 34.9124 12C34.123 12 33.4617 11.9307 32.9284 11.792C32.4057 11.6427 32.1444 11.456 32.1444 11.232C32.1444 10.976 32.619 9.344 33.5684 6.336C34.5177 3.31733 35.0617 1.57867 35.2004 1.12C35.2537 0.981333 35.6804 0.869333 36.4804 0.783999C37.291 0.687999 38.155 0.639999 39.0724 0.639999C40.0004 0.639999 40.5124 0.8 40.6084 1.12C42.6244 7.81867 43.6324 11.2213 43.6324 11.328C43.6324 11.4347 43.5684 11.5413 43.4404 11.648C43.1417 11.8827 42.5497 12 41.6644 12C39.7764 12 38.811 11.776 38.7684 11.328L38.6564 10.288H37.1204L37.0404 11.184ZM38.3204 7.248L38.0804 4.368H37.7284L37.4564 7.248H38.3204ZM48.9009 11.536C48.9009 11.6747 48.5702 11.7867 47.9089 11.872C47.2582 11.9573 46.6075 12 45.9569 12C45.3062 12 44.8902 11.9627 44.7089 11.888C44.5275 11.8133 44.4369 11.696 44.4369 11.536V1.712C44.4369 1.44533 44.7409 1.2 45.3489 0.976C45.9675 0.752 46.6662 0.639999 47.4449 0.639999C47.7222 0.639999 47.9302 0.650666 48.0689 0.672C48.4315 0.725333 48.6875 0.954666 48.8369 1.36L50.3729 5.488H50.4369V1.712C50.4369 1.44533 50.7409 1.2 51.3489 0.976C51.9569 0.752 52.6502 0.639999 53.4289 0.639999C54.1009 0.639999 54.5275 0.767999 54.7089 1.024C54.8369 1.20533 54.9009 1.37067 54.9009 1.52V11.536C54.9009 11.6747 54.5702 11.7867 53.9089 11.872C53.2582 11.9573 52.5382 12 51.7489 12C50.9702 12 50.5435 11.8987 50.4689 11.696L48.9809 7.76H48.9009V11.536ZM64.2029 11.888C63.7762 11.984 63.3389 12.048 62.8909 12.08C62.4535 12.1227 62.0215 12.144 61.5949 12.144C61.1789 12.144 60.8535 12.1333 60.6189 12.112C60.3949 12.0907 60.0962 12.0373 59.7229 11.952C59.3495 11.8667 59.0082 11.7493 58.6989 11.6C58.3895 11.4507 58.0589 11.232 57.7069 10.944C57.3655 10.656 57.0775 10.3147 56.8429 9.92C56.2989 9.00267 56.0269 7.81867 56.0269 6.368C56.0269 5.39733 56.1762 4.53867 56.4749 3.792C56.7842 3.04533 57.1522 2.46933 57.5789 2.064C58.0162 1.65867 58.5122 1.33333 59.0669 1.088C59.9629 0.682666 60.8642 0.48 61.7709 0.48C63.0722 0.48 64.0055 0.586666 64.5709 0.799999C64.8269 0.895999 65.0562 1.04533 65.2589 1.248C65.4615 1.45067 65.5629 1.744 65.5629 2.128C65.5629 2.512 65.4669 2.99733 65.2749 3.584C65.0935 4.17067 64.8269 4.464 64.4749 4.464C64.3682 4.464 63.9735 4.37867 63.2909 4.208C62.6082 4.03733 62.1442 3.952 61.8989 3.952C61.5255 3.952 61.2055 4.16 60.9389 4.576C60.6829 4.992 60.5549 5.584 60.5549 6.352C60.5549 7.12 60.6669 7.71733 60.8909 8.144C61.1255 8.57067 61.4295 8.784 61.8029 8.784C62.0695 8.784 62.5495 8.67733 63.2429 8.464C63.9469 8.24 64.3575 8.128 64.4749 8.128C64.8055 8.128 65.0615 8.432 65.2429 9.04C65.4349 9.648 65.5309 10.1387 65.5309 10.512C65.5309 10.8853 65.4135 11.184 65.1789 11.408C64.9549 11.6213 64.6295 11.7813 64.2029 11.888ZM74.7989 12H68.0149C67.4922 12 67.1402 11.9627 66.9589 11.888C66.7775 11.8133 66.6869 11.696 66.6869 11.536V1.408C66.6869 1.13067 66.8095 0.933333 67.0549 0.815999C67.3109 0.698666 67.7642 0.639999 68.4149 0.639999H74.8469C75.0709 0.639999 75.1829 1.01333 75.1829 1.76C75.1829 2.496 75.1349 3.06133 75.0389 3.456C74.9429 3.84 74.8149 4.032 74.6549 4.032C73.9615 4.032 72.7935 3.96267 71.1509 3.824V4.896C72.7295 4.832 73.7589 4.8 74.2389 4.8C74.5269 4.8 74.6709 5.136 74.6709 5.808C74.6709 6.48 74.6122 6.992 74.4949 7.344C74.3882 7.68533 74.2389 7.856 74.0469 7.856L71.1509 7.792V8.816C73.0069 8.67733 74.2869 8.608 74.9909 8.608C75.2149 8.608 75.3269 8.98133 75.3269 9.728C75.3269 10.4747 75.2789 11.04 75.1829 11.424C75.0869 11.808 74.9589 12 74.7989 12Z"/>
</mask>
<path d="M5.6755 12H2.1715C1.63817 12 1.28083 11.9627 1.0995 11.888C0.918167 11.8133 0.8275 11.696 0.8275 11.536V1.248C0.8275 0.735999 2.36883 0.48 5.4515 0.48C7.22217 0.48 8.4435 0.650666 9.1155 0.992C9.79817 1.344 10.2355 1.792 10.4275 2.336C10.5342 2.656 10.5875 3.02933 10.5875 3.456C10.5875 4.288 10.4435 4.912 10.1555 5.328C9.87817 5.744 9.57417 5.97867 9.2435 6.032C9.74483 6.13867 10.1608 6.384 10.4915 6.768C10.8222 7.152 10.9875 7.80267 10.9875 8.72C10.9875 9.78667 10.6622 10.576 10.0115 11.088C9.44617 11.536 8.58217 11.8187 7.4195 11.936C6.92883 11.9787 6.3475 12 5.6755 12ZM5.6915 5.024C6.2355 5.024 6.5075 4.66133 6.5075 3.936C6.5075 3.57333 6.43283 3.30667 6.2835 3.136C6.14483 2.95467 5.98483 2.864 5.8035 2.864H5.2915V5.024H5.6915ZM5.2915 9.616H5.6915C6.2355 9.616 6.5075 9.25333 6.5075 8.528C6.5075 8.16533 6.43283 7.89867 6.2835 7.728C6.14483 7.54667 5.98483 7.456 5.8035 7.456H5.2915V9.616ZM16.5248 11.184C16.5034 11.4933 16.3381 11.7067 16.0288 11.824C15.7301 11.9413 15.1861 12 14.3968 12C13.6074 12 12.9461 11.9307 12.4128 11.792C11.8901 11.6427 11.6288 11.456 11.6288 11.232C11.6288 10.976 12.1034 9.344 13.0528 6.336C14.0021 3.31733 14.5461 1.57867 14.6848 1.12C14.7381 0.981333 15.1648 0.869333 15.9648 0.783999C16.7754 0.687999 17.6394 0.639999 18.5568 0.639999C19.4848 0.639999 19.9968 0.8 20.0928 1.12C22.1088 7.81867 23.1168 11.2213 23.1168 11.328C23.1168 11.4347 23.0528 11.5413 22.9248 11.648C22.6261 11.8827 22.0341 12 21.1488 12C19.2608 12 18.2954 11.776 18.2528 11.328L18.1408 10.288H16.6048L16.5248 11.184ZM17.8048 7.248L17.5648 4.368H17.2128L16.9408 7.248H17.8048ZM25.2653 12C24.7319 12 24.3746 11.9733 24.1933 11.92C24.0119 11.856 23.9213 11.7547 23.9213 11.616V1.664C23.9213 1.42933 24.2306 1.2 24.8493 0.976C25.4679 0.741333 26.1613 0.624 26.9293 0.624C27.6119 0.624 28.0599 0.768 28.2733 1.056C28.3479 1.16267 28.3853 1.26933 28.3853 1.376V8.464C29.6866 8.37867 30.6679 8.336 31.3293 8.336C31.5533 8.336 31.6653 8.69333 31.6653 9.408C31.6653 10.112 31.6173 10.72 31.5213 11.232C31.4253 11.744 31.2973 12 31.1373 12H25.2653ZM37.0404 11.184C37.019 11.4933 36.8537 11.7067 36.5444 11.824C36.2457 11.9413 35.7017 12 34.9124 12C34.123 12 33.4617 11.9307 32.9284 11.792C32.4057 11.6427 32.1444 11.456 32.1444 11.232C32.1444 10.976 32.619 9.344 33.5684 6.336C34.5177 3.31733 35.0617 1.57867 35.2004 1.12C35.2537 0.981333 35.6804 0.869333 36.4804 0.783999C37.291 0.687999 38.155 0.639999 39.0724 0.639999C40.0004 0.639999 40.5124 0.8 40.6084 1.12C42.6244 7.81867 43.6324 11.2213 43.6324 11.328C43.6324 11.4347 43.5684 11.5413 43.4404 11.648C43.1417 11.8827 42.5497 12 41.6644 12C39.7764 12 38.811 11.776 38.7684 11.328L38.6564 10.288H37.1204L37.0404 11.184ZM38.3204 7.248L38.0804 4.368H37.7284L37.4564 7.248H38.3204ZM48.9009 11.536C48.9009 11.6747 48.5702 11.7867 47.9089 11.872C47.2582 11.9573 46.6075 12 45.9569 12C45.3062 12 44.8902 11.9627 44.7089 11.888C44.5275 11.8133 44.4369 11.696 44.4369 11.536V1.712C44.4369 1.44533 44.7409 1.2 45.3489 0.976C45.9675 0.752 46.6662 0.639999 47.4449 0.639999C47.7222 0.639999 47.9302 0.650666 48.0689 0.672C48.4315 0.725333 48.6875 0.954666 48.8369 1.36L50.3729 5.488H50.4369V1.712C50.4369 1.44533 50.7409 1.2 51.3489 0.976C51.9569 0.752 52.6502 0.639999 53.4289 0.639999C54.1009 0.639999 54.5275 0.767999 54.7089 1.024C54.8369 1.20533 54.9009 1.37067 54.9009 1.52V11.536C54.9009 11.6747 54.5702 11.7867 53.9089 11.872C53.2582 11.9573 52.5382 12 51.7489 12C50.9702 12 50.5435 11.8987 50.4689 11.696L48.9809 7.76H48.9009V11.536ZM64.2029 11.888C63.7762 11.984 63.3389 12.048 62.8909 12.08C62.4535 12.1227 62.0215 12.144 61.5949 12.144C61.1789 12.144 60.8535 12.1333 60.6189 12.112C60.3949 12.0907 60.0962 12.0373 59.7229 11.952C59.3495 11.8667 59.0082 11.7493 58.6989 11.6C58.3895 11.4507 58.0589 11.232 57.7069 10.944C57.3655 10.656 57.0775 10.3147 56.8429 9.92C56.2989 9.00267 56.0269 7.81867 56.0269 6.368C56.0269 5.39733 56.1762 4.53867 56.4749 3.792C56.7842 3.04533 57.1522 2.46933 57.5789 2.064C58.0162 1.65867 58.5122 1.33333 59.0669 1.088C59.9629 0.682666 60.8642 0.48 61.7709 0.48C63.0722 0.48 64.0055 0.586666 64.5709 0.799999C64.8269 0.895999 65.0562 1.04533 65.2589 1.248C65.4615 1.45067 65.5629 1.744 65.5629 2.128C65.5629 2.512 65.4669 2.99733 65.2749 3.584C65.0935 4.17067 64.8269 4.464 64.4749 4.464C64.3682 4.464 63.9735 4.37867 63.2909 4.208C62.6082 4.03733 62.1442 3.952 61.8989 3.952C61.5255 3.952 61.2055 4.16 60.9389 4.576C60.6829 4.992 60.5549 5.584 60.5549 6.352C60.5549 7.12 60.6669 7.71733 60.8909 8.144C61.1255 8.57067 61.4295 8.784 61.8029 8.784C62.0695 8.784 62.5495 8.67733 63.2429 8.464C63.9469 8.24 64.3575 8.128 64.4749 8.128C64.8055 8.128 65.0615 8.432 65.2429 9.04C65.4349 9.648 65.5309 10.1387 65.5309 10.512C65.5309 10.8853 65.4135 11.184 65.1789 11.408C64.9549 11.6213 64.6295 11.7813 64.2029 11.888ZM74.7989 12H68.0149C67.4922 12 67.1402 11.9627 66.9589 11.888C66.7775 11.8133 66.6869 11.696 66.6869 11.536V1.408C66.6869 1.13067 66.8095 0.933333 67.0549 0.815999C67.3109 0.698666 67.7642 0.639999 68.4149 0.639999H74.8469C75.0709 0.639999 75.1829 1.01333 75.1829 1.76C75.1829 2.496 75.1349 3.06133 75.0389 3.456C74.9429 3.84 74.8149 4.032 74.6549 4.032C73.9615 4.032 72.7935 3.96267 71.1509 3.824V4.896C72.7295 4.832 73.7589 4.8 74.2389 4.8C74.5269 4.8 74.6709 5.136 74.6709 5.808C74.6709 6.48 74.6122 6.992 74.4949 7.344C74.3882 7.68533 74.2389 7.856 74.0469 7.856L71.1509 7.792V8.816C73.0069 8.67733 74.2869 8.608 74.9909 8.608C75.2149 8.608 75.3269 8.98133 75.3269 9.728C75.3269 10.4747 75.2789 11.04 75.1829 11.424C75.0869 11.808 74.9589 12 74.7989 12Z" fill="white"/>
<path d="M5.6755 12H2.1715C1.63817 12 1.28083 11.9627 1.0995 11.888C0.918167 11.8133 0.8275 11.696 0.8275 11.536V1.248C0.8275 0.735999 2.36883 0.48 5.4515 0.48C7.22217 0.48 8.4435 0.650666 9.1155 0.992C9.79817 1.344 10.2355 1.792 10.4275 2.336C10.5342 2.656 10.5875 3.02933 10.5875 3.456C10.5875 4.288 10.4435 4.912 10.1555 5.328C9.87817 5.744 9.57417 5.97867 9.2435 6.032C9.74483 6.13867 10.1608 6.384 10.4915 6.768C10.8222 7.152 10.9875 7.80267 10.9875 8.72C10.9875 9.78667 10.6622 10.576 10.0115 11.088C9.44617 11.536 8.58217 11.8187 7.4195 11.936C6.92883 11.9787 6.3475 12 5.6755 12ZM5.6915 5.024C6.2355 5.024 6.5075 4.66133 6.5075 3.936C6.5075 3.57333 6.43283 3.30667 6.2835 3.136C6.14483 2.95467 5.98483 2.864 5.8035 2.864H5.2915V5.024H5.6915ZM5.2915 9.616H5.6915C6.2355 9.616 6.5075 9.25333 6.5075 8.528C6.5075 8.16533 6.43283 7.89867 6.2835 7.728C6.14483 7.54667 5.98483 7.456 5.8035 7.456H5.2915V9.616ZM16.5248 11.184C16.5034 11.4933 16.3381 11.7067 16.0288 11.824C15.7301 11.9413 15.1861 12 14.3968 12C13.6074 12 12.9461 11.9307 12.4128 11.792C11.8901 11.6427 11.6288 11.456 11.6288 11.232C11.6288 10.976 12.1034 9.344 13.0528 6.336C14.0021 3.31733 14.5461 1.57867 14.6848 1.12C14.7381 0.981333 15.1648 0.869333 15.9648 0.783999C16.7754 0.687999 17.6394 0.639999 18.5568 0.639999C19.4848 0.639999 19.9968 0.8 20.0928 1.12C22.1088 7.81867 23.1168 11.2213 23.1168 11.328C23.1168 11.4347 23.0528 11.5413 22.9248 11.648C22.6261 11.8827 22.0341 12 21.1488 12C19.2608 12 18.2954 11.776 18.2528 11.328L18.1408 10.288H16.6048L16.5248 11.184ZM17.8048 7.248L17.5648 4.368H17.2128L16.9408 7.248H17.8048ZM25.2653 12C24.7319 12 24.3746 11.9733 24.1933 11.92C24.0119 11.856 23.9213 11.7547 23.9213 11.616V1.664C23.9213 1.42933 24.2306 1.2 24.8493 0.976C25.4679 0.741333 26.1613 0.624 26.9293 0.624C27.6119 0.624 28.0599 0.768 28.2733 1.056C28.3479 1.16267 28.3853 1.26933 28.3853 1.376V8.464C29.6866 8.37867 30.6679 8.336 31.3293 8.336C31.5533 8.336 31.6653 8.69333 31.6653 9.408C31.6653 10.112 31.6173 10.72 31.5213 11.232C31.4253 11.744 31.2973 12 31.1373 12H25.2653ZM37.0404 11.184C37.019 11.4933 36.8537 11.7067 36.5444 11.824C36.2457 11.9413 35.7017 12 34.9124 12C34.123 12 33.4617 11.9307 32.9284 11.792C32.4057 11.6427 32.1444 11.456 32.1444 11.232C32.1444 10.976 32.619 9.344 33.5684 6.336C34.5177 3.31733 35.0617 1.57867 35.2004 1.12C35.2537 0.981333 35.6804 0.869333 36.4804 0.783999C37.291 0.687999 38.155 0.639999 39.0724 0.639999C40.0004 0.639999 40.5124 0.8 40.6084 1.12C42.6244 7.81867 43.6324 11.2213 43.6324 11.328C43.6324 11.4347 43.5684 11.5413 43.4404 11.648C43.1417 11.8827 42.5497 12 41.6644 12C39.7764 12 38.811 11.776 38.7684 11.328L38.6564 10.288H37.1204L37.0404 11.184ZM38.3204 7.248L38.0804 4.368H37.7284L37.4564 7.248H38.3204ZM48.9009 11.536C48.9009 11.6747 48.5702 11.7867 47.9089 11.872C47.2582 11.9573 46.6075 12 45.9569 12C45.3062 12 44.8902 11.9627 44.7089 11.888C44.5275 11.8133 44.4369 11.696 44.4369 11.536V1.712C44.4369 1.44533 44.7409 1.2 45.3489 0.976C45.9675 0.752 46.6662 0.639999 47.4449 0.639999C47.7222 0.639999 47.9302 0.650666 48.0689 0.672C48.4315 0.725333 48.6875 0.954666 48.8369 1.36L50.3729 5.488H50.4369V1.712C50.4369 1.44533 50.7409 1.2 51.3489 0.976C51.9569 0.752 52.6502 0.639999 53.4289 0.639999C54.1009 0.639999 54.5275 0.767999 54.7089 1.024C54.8369 1.20533 54.9009 1.37067 54.9009 1.52V11.536C54.9009 11.6747 54.5702 11.7867 53.9089 11.872C53.2582 11.9573 52.5382 12 51.7489 12C50.9702 12 50.5435 11.8987 50.4689 11.696L48.9809 7.76H48.9009V11.536ZM64.2029 11.888C63.7762 11.984 63.3389 12.048 62.8909 12.08C62.4535 12.1227 62.0215 12.144 61.5949 12.144C61.1789 12.144 60.8535 12.1333 60.6189 12.112C60.3949 12.0907 60.0962 12.0373 59.7229 11.952C59.3495 11.8667 59.0082 11.7493 58.6989 11.6C58.3895 11.4507 58.0589 11.232 57.7069 10.944C57.3655 10.656 57.0775 10.3147 56.8429 9.92C56.2989 9.00267 56.0269 7.81867 56.0269 6.368C56.0269 5.39733 56.1762 4.53867 56.4749 3.792C56.7842 3.04533 57.1522 2.46933 57.5789 2.064C58.0162 1.65867 58.5122 1.33333 59.0669 1.088C59.9629 0.682666 60.8642 0.48 61.7709 0.48C63.0722 0.48 64.0055 0.586666 64.5709 0.799999C64.8269 0.895999 65.0562 1.04533 65.2589 1.248C65.4615 1.45067 65.5629 1.744 65.5629 2.128C65.5629 2.512 65.4669 2.99733 65.2749 3.584C65.0935 4.17067 64.8269 4.464 64.4749 4.464C64.3682 4.464 63.9735 4.37867 63.2909 4.208C62.6082 4.03733 62.1442 3.952 61.8989 3.952C61.5255 3.952 61.2055 4.16 60.9389 4.576C60.6829 4.992 60.5549 5.584 60.5549 6.352C60.5549 7.12 60.6669 7.71733 60.8909 8.144C61.1255 8.57067 61.4295 8.784 61.8029 8.784C62.0695 8.784 62.5495 8.67733 63.2429 8.464C63.9469 8.24 64.3575 8.128 64.4749 8.128C64.8055 8.128 65.0615 8.432 65.2429 9.04C65.4349 9.648 65.5309 10.1387 65.5309 10.512C65.5309 10.8853 65.4135 11.184 65.1789 11.408C64.9549 11.6213 64.6295 11.7813 64.2029 11.888ZM74.7989 12H68.0149C67.4922 12 67.1402 11.9627 66.9589 11.888C66.7775 11.8133 66.6869 11.696 66.6869 11.536V1.408C66.6869 1.13067 66.8095 0.933333 67.0549 0.815999C67.3109 0.698666 67.7642 0.639999 68.4149 0.639999H74.8469C75.0709 0.639999 75.1829 1.01333 75.1829 1.76C75.1829 2.496 75.1349 3.06133 75.0389 3.456C74.9429 3.84 74.8149 4.032 74.6549 4.032C73.9615 4.032 72.7935 3.96267 71.1509 3.824V4.896C72.7295 4.832 73.7589 4.8 74.2389 4.8C74.5269 4.8 74.6709 5.136 74.6709 5.808C74.6709 6.48 74.6122 6.992 74.4949 7.344C74.3882 7.68533 74.2389 7.856 74.0469 7.856L71.1509 7.792V8.816C73.0069 8.67733 74.2869 8.608 74.9909 8.608C75.2149 8.608 75.3269 8.98133 75.3269 9.728C75.3269 10.4747 75.2789 11.04 75.1829 11.424C75.0869 11.808 74.9589 12 74.7989 12Z" fill="#553216"/>
<path d="M1.0995 11.888L1.861 10.0386H1.861L1.0995 11.888ZM9.1155 0.992L10.0321 -0.78564L10.0212 -0.791158L9.1155 0.992ZM10.4275 2.336L12.3249 1.70355L12.3193 1.6869L12.3135 1.67036L10.4275 2.336ZM10.1555 5.328L8.51112 4.18958L8.50113 4.204L8.4914 4.2186L10.1555 5.328ZM9.2435 6.032L8.92504 4.05752L8.82728 7.98821L9.2435 6.032ZM10.4915 6.768L12.007 5.46295L12.007 5.46295L10.4915 6.768ZM10.0115 11.088L8.77471 9.51625L8.76934 9.52051L10.0115 11.088ZM7.4195 11.936L7.59276 13.9285L7.60655 13.9273L7.62032 13.9259L7.4195 11.936ZM6.2835 3.136L4.69478 4.3509L4.73488 4.40333L4.77835 4.45301L6.2835 3.136ZM5.2915 2.864V0.863999H3.2915V2.864H5.2915ZM5.2915 5.024H3.2915V7.024H5.2915V5.024ZM5.2915 9.616H3.2915V11.616H5.2915V9.616ZM6.2835 7.728L4.69478 8.9429L4.73488 8.99533L4.77835 9.04501L6.2835 7.728ZM5.2915 7.456V5.456H3.2915V7.456H5.2915ZM5.6755 10H2.1715V14H5.6755V10ZM2.1715 10C1.94448 10 1.7966 9.99174 1.71132 9.98283C1.66993 9.9785 1.66074 9.97578 1.67563 9.97888C1.6852 9.98087 1.75644 9.99559 1.861 10.0386L0.338 13.7374C0.695584 13.8846 1.05683 13.9362 1.29568 13.9612C1.56773 13.9896 1.86519 14 2.1715 14V10ZM1.861 10.0386C1.99292 10.093 2.25103 10.2273 2.47807 10.5211C2.72529 10.841 2.8275 11.2107 2.8275 11.536H-1.1725C-1.1725 12.0213 -1.02495 12.5296 -0.68707 12.9669C-0.369364 13.378 0.0247441 13.6084 0.338 13.7374L1.861 10.0386ZM2.8275 11.536V1.248H-1.1725V11.536H2.8275ZM2.8275 1.248C2.8275 1.73536 2.62899 2.12459 2.41603 2.37218C2.23016 2.58828 2.05068 2.68105 2.00845 2.70209C1.93366 2.73936 1.98997 2.69832 2.31119 2.64497C2.91398 2.54485 3.93594 2.48 5.4515 2.48V-1.52C3.88439 -1.52 2.59435 -1.45685 1.65581 -1.30097C1.20636 -1.22632 0.684674 -1.10736 0.224552 -0.878092C-0.155599 -0.688675 -1.1725 -0.0644501 -1.1725 1.248H2.8275ZM5.4515 2.48C7.22354 2.48 8.00594 2.67163 8.20977 2.77516L10.0212 -0.791158C8.88106 -1.37029 7.2208 -1.52 5.4515 -1.52V2.48ZM8.19892 2.76961C8.39107 2.86868 8.48524 2.949 8.52435 2.98907C8.55763 3.02316 8.55023 3.02633 8.54152 3.00164L12.3135 1.67036C11.9019 0.504198 11.014 -0.279313 10.0321 -0.785607L8.19892 2.76961ZM8.53013 2.96845C8.55356 3.03873 8.5875 3.19003 8.5875 3.456H12.5875C12.5875 2.86863 12.5148 2.27327 12.3249 1.70355L8.53013 2.96845ZM8.5875 3.456C8.5875 3.763 8.56032 3.97 8.53072 4.09828C8.50114 4.22645 8.47827 4.23703 8.51112 4.18958L11.7999 6.46642C12.4255 5.56281 12.5875 4.45696 12.5875 3.456H8.5875ZM8.4914 4.2186C8.43896 4.29726 8.43427 4.28155 8.4974 4.23282C8.57023 4.1766 8.71575 4.09127 8.92504 4.05752L9.56197 8.00648C10.6645 7.82866 11.386 7.08786 11.8196 6.4374L8.4914 4.2186ZM8.82728 7.98821C8.90613 8.00499 8.9342 8.02454 8.97596 8.07305L12.007 5.46295C11.3875 4.74346 10.5835 4.27235 9.65972 4.07579L8.82728 7.98821ZM8.97596 8.07304C8.88477 7.96714 8.89493 7.9178 8.9251 8.03654C8.95504 8.15437 8.9875 8.37138 8.9875 8.72H12.9875C12.9875 7.6699 12.8194 6.40633 12.007 5.46295L8.97596 8.07304ZM8.9875 8.72C8.9875 9.36588 8.81017 9.48836 8.77472 9.51626L11.2483 12.6597C12.5142 11.6636 12.9875 10.2075 12.9875 8.72H8.9875ZM8.76934 9.52051C8.63633 9.62591 8.21464 9.8456 7.21869 9.94611L7.62032 13.9259C8.9497 13.7917 10.256 13.4461 11.2537 12.6555L8.76934 9.52051ZM7.24624 9.94352C6.82961 9.97975 6.30889 10 5.6755 10V14C6.38611 14 7.02806 13.9776 7.59276 13.9285L7.24624 9.94352ZM5.6915 7.024C6.45148 7.024 7.31225 6.74033 7.9035 5.952C8.41359 5.27188 8.5075 4.49098 8.5075 3.936H4.5075C4.5075 4.10635 4.46541 3.86946 4.7035 3.552C4.83695 3.37407 5.02144 3.22384 5.23622 3.12838C5.43942 3.03807 5.60741 3.024 5.6915 3.024V7.024ZM8.5075 3.936C8.5075 3.36301 8.40026 2.51797 7.78865 1.81899L4.77835 4.45301C4.61788 4.26962 4.55125 4.09496 4.52557 4.00326C4.50129 3.91653 4.5075 3.88408 4.5075 3.936H8.5075ZM7.87222 1.9211C7.46316 1.38618 6.76634 0.863999 5.8035 0.863999V4.864C5.54345 4.864 5.2897 4.79457 5.07347 4.67204C4.8701 4.5568 4.75072 4.42404 4.69478 4.3509L7.87222 1.9211ZM5.8035 0.863999H5.2915V4.864H5.8035V0.863999ZM3.2915 2.864V5.024H7.2915V2.864H3.2915ZM5.2915 7.024H5.6915V3.024H5.2915V7.024ZM5.2915 11.616H5.6915V7.616H5.2915V11.616ZM5.6915 11.616C6.45148 11.616 7.31225 11.3323 7.9035 10.544C8.41359 9.86388 8.5075 9.08298 8.5075 8.528H4.5075C4.5075 8.69835 4.46541 8.46146 4.7035 8.144C4.83695 7.96607 5.02144 7.81584 5.23622 7.72038C5.43942 7.63007 5.60741 7.616 5.6915 7.616V11.616ZM8.5075 8.528C8.5075 7.95501 8.40026 7.10997 7.78865 6.41099L4.77835 9.04501C4.61788 8.86162 4.55125 8.68696 4.52557 8.59526C4.50129 8.50853 4.5075 8.47608 4.5075 8.528H8.5075ZM7.87222 6.5131C7.46316 5.97818 6.76633 5.456 5.8035 5.456V9.456C5.54345 9.456 5.2897 9.38657 5.07348 9.26404C4.87011 9.1488 4.75072 9.01604 4.69478 8.9429L7.87222 6.5131ZM5.8035 5.456H5.2915V9.456H5.8035V5.456ZM3.2915 7.456V9.616H7.2915V7.456H3.2915ZM16.5247 11.184L14.5327 11.0061L14.5309 11.0262L14.5295 11.0464L16.5247 11.184ZM16.0288 11.824L15.3194 9.95401L15.3084 9.95819L15.2974 9.9625L16.0288 11.824ZM12.4128 11.792L11.8633 13.715L11.8863 13.7216L11.9095 13.7276L12.4128 11.792ZM13.0527 6.336L14.96 6.93794L14.9606 6.936L13.0527 6.336ZM14.6847 1.12L12.8181 0.402041L12.7916 0.470752L12.7703 0.541221L14.6847 1.12ZM15.9648 0.783999L16.1769 2.77272L16.1884 2.77149L16.1999 2.77012L15.9648 0.783999ZM20.0928 1.12L18.1771 1.6947L18.1776 1.69637L20.0928 1.12ZM22.9248 11.648L24.1604 13.2206L24.183 13.2029L24.2051 13.1844L22.9248 11.648ZM18.2528 11.328L20.2437 11.1384L20.2426 11.1261L20.2413 11.1139L18.2528 11.328ZM18.1408 10.288L20.1293 10.0739L19.9369 8.288H18.1408V10.288ZM16.6047 10.288V8.288H14.7754L14.6127 10.1101L16.6047 10.288ZM17.8048 7.248V9.248H19.9783L19.7978 7.08191L17.8048 7.248ZM17.5648 4.368L19.5578 4.20191L19.405 2.368H17.5648V4.368ZM17.2127 4.368V2.368H15.3927L15.2216 4.17995L17.2127 4.368ZM16.9408 7.248L14.9496 7.05995L14.743 9.248H16.9408V7.248ZM14.5295 11.0464C14.5419 10.8661 14.609 10.6024 14.8039 10.3509C14.9928 10.1071 15.2075 9.99647 15.3194 9.95401L16.7381 13.694C17.1594 13.5342 17.6113 13.2583 17.9656 12.8011C18.3259 12.3363 18.4862 11.8113 18.52 11.3216L14.5295 11.0464ZM15.2974 9.9625C15.3901 9.92608 15.3829 9.9459 15.1823 9.96753C15.0051 9.98665 14.7482 10 14.3968 10V14C15.1746 14 16.0696 13.9568 16.7601 13.6855L15.2974 9.9625ZM14.3968 10C13.7107 10 13.2311 9.93828 12.916 9.85635L11.9095 13.7276C12.661 13.923 13.5041 14 14.3968 14V10ZM12.9622 9.86895C12.7903 9.81984 12.8468 9.81222 12.9872 9.91253C13.1395 10.0213 13.6287 10.4486 13.6287 11.232H9.62875C9.62875 12.2394 10.2487 12.8721 10.6623 13.1675C11.064 13.4544 11.5125 13.6148 11.8633 13.715L12.9622 9.86895ZM13.6287 11.232C13.6287 11.4157 13.5983 11.5338 13.613 11.4595C13.6186 11.4314 13.6318 11.3714 13.6574 11.2696C13.7079 11.0686 13.7891 10.7736 13.9052 10.3746C14.1361 9.58046 14.4868 8.43746 14.96 6.93794L11.1455 5.73406C10.6694 7.24254 10.308 8.41954 10.0643 9.25745C9.94305 9.67444 9.84622 10.0234 9.77811 10.2944C9.74437 10.4286 9.71311 10.5616 9.689 10.6835C9.67402 10.7592 9.62875 10.9843 9.62875 11.232H13.6287ZM14.9606 6.936C15.9077 3.92452 16.4564 2.17113 16.5992 1.69878L12.7703 0.541221C12.6358 0.986203 12.0965 2.71015 11.1449 5.736L14.9606 6.936ZM16.5514 1.83796C16.414 2.19532 16.2025 2.42774 16.0602 2.55584C15.9172 2.68454 15.7884 2.75837 15.7206 2.79382C15.5912 2.86136 15.5124 2.87699 15.5525 2.86646C15.6203 2.84869 15.8097 2.81189 16.1769 2.77272L15.7526 -1.20472C15.3198 -1.15855 14.8959 -1.09669 14.537 -1.00246C14.3637 -0.95699 14.1183 -0.882023 13.8689 -0.751818C13.694 -0.660451 13.1019 -0.335858 12.8181 0.402041L16.5514 1.83796ZM16.1999 2.77012C16.9237 2.68441 17.7086 2.64 18.5568 2.64V-1.36C17.5703 -1.36 16.6271 -1.30842 15.7296 -1.20212L16.1999 2.77012ZM18.5568 2.64C18.7343 2.64 18.8642 2.6478 18.9539 2.65777C19.0476 2.66817 19.0686 2.67784 19.0402 2.66896C19.0184 2.66215 18.8775 2.61718 18.7035 2.47976C18.5102 2.32716 18.2891 2.06796 18.1771 1.6947L22.0084 0.545305C21.6756 -0.564201 20.7293 -0.993954 20.2333 -1.14896C19.6932 -1.31773 19.0984 -1.36 18.5568 -1.36V2.64ZM18.1776 1.69637C19.1854 5.04505 19.9404 7.56702 20.4431 9.26407C20.6947 10.1134 20.8818 10.7517 21.0055 11.1821C21.0677 11.3987 21.1116 11.5548 21.139 11.6562C21.1532 11.7086 21.1597 11.7343 21.1615 11.7415C21.1627 11.7466 21.1587 11.7308 21.1532 11.7034C21.1505 11.6902 21.1444 11.6591 21.1382 11.6177C21.1354 11.5987 21.1168 11.4809 21.1168 11.328H25.1168C25.1168 11.1718 25.0977 11.049 25.0938 11.0234C25.0866 10.9755 25.079 10.9363 25.0744 10.9133C25.0649 10.8664 25.055 10.8245 25.0484 10.7972C25.0344 10.7396 25.0173 10.6747 25 10.6108C24.9644 10.4795 24.9138 10.3 24.85 10.0779C24.7217 9.63101 24.5308 8.97995 24.2784 8.12793C23.7731 6.42231 23.0161 3.89362 22.0079 0.543626L18.1776 1.69637ZM21.1168 11.328C21.1168 10.5731 21.5729 10.1711 21.6444 10.1116L24.2051 13.1844C24.5326 12.9116 25.1168 12.2963 25.1168 11.328H21.1168ZM21.6891 10.0754C21.8001 9.98816 21.8867 9.95146 21.9107 9.94199C21.9359 9.932 21.9266 9.93852 21.8679 9.95016C21.7442 9.97469 21.5154 10 21.1488 10V14C21.6675 14 22.1773 13.9666 22.6456 13.8738C23.0876 13.7862 23.6594 13.6143 24.1604 13.2206L21.6891 10.0754ZM21.1488 10C20.2463 10 19.7166 9.9431 19.4608 9.88376C19.3241 9.85205 19.4059 9.85042 19.5672 9.9579C19.7573 10.0847 20.1792 10.4608 20.2437 11.1384L16.2618 11.5176C16.3476 12.4192 16.9062 12.9913 17.3484 13.2861C17.7616 13.5616 18.2107 13.7 18.5567 13.7802C19.2663 13.9449 20.1632 14 21.1488 14V10ZM20.2413 11.1139L20.1293 10.0739L16.1522 10.5021L16.2642 11.5421L20.2413 11.1139ZM18.1408 8.288H16.6047V12.288H18.1408V8.288ZM14.6127 10.1101L14.5327 11.0061L18.5168 11.3619L18.5968 10.4659L14.6127 10.1101ZM19.7978 7.08191L19.5578 4.20191L15.5717 4.53409L15.8117 7.41409L19.7978 7.08191ZM17.5648 2.368H17.2127V6.368H17.5648V2.368ZM15.2216 4.17995L14.9496 7.05995L18.9319 7.43605L19.2039 4.55605L15.2216 4.17995ZM16.9408 9.248H17.8048V5.248H16.9408V9.248ZM24.1933 11.92L23.5276 13.806L23.5778 13.8237L23.6289 13.8387L24.1933 11.92ZM24.8493 0.976L25.5301 2.85653L25.5444 2.85137L25.5586 2.84599L24.8493 0.976ZM28.2733 1.056L29.9117 -0.0909256L29.8963 -0.1129L29.8804 -0.134454L28.2733 1.056ZM28.3853 8.464H26.3853V10.5994L28.5161 10.4597L28.3853 8.464ZM25.2652 10C25.0268 10 24.8577 9.99387 24.7461 9.98555C24.6911 9.98144 24.663 9.97773 24.6561 9.9767C24.644 9.97491 24.685 9.97992 24.7576 10.0013L23.6289 13.8387C24.1284 13.9856 24.7693 14 25.2652 14V10ZM24.8589 10.034C24.9615 10.0702 25.2272 10.1802 25.4797 10.4624C25.7696 10.7864 25.9212 11.204 25.9212 11.616H21.9212C21.9212 12.1667 22.1182 12.7043 22.4988 13.1296C22.8419 13.5131 23.2437 13.7058 23.5276 13.806L24.8589 10.034ZM25.9212 11.616V1.664H21.9212V11.616H25.9212ZM25.9212 1.664C25.9212 2.06959 25.7817 2.39081 25.6434 2.5984C25.5157 2.78988 25.3867 2.8912 25.3444 2.92262C25.2712 2.9769 25.2936 2.94215 25.5301 2.85653L24.1684 -0.904532C23.7862 -0.766155 23.3447 -0.574235 22.9621 -0.290624C22.6247 -0.0404493 21.9212 0.594922 21.9212 1.664H25.9212ZM25.5586 2.84599C25.9174 2.7099 26.3653 2.624 26.9293 2.624V-1.376C25.9572 -1.376 25.0185 -1.22723 24.1399 -0.893995L25.5586 2.84599ZM26.9293 2.624C27.1478 2.624 27.2063 2.64925 27.1652 2.63606C27.1148 2.61986 26.876 2.52974 26.6661 2.24645L29.8804 -0.134454C29.057 -1.246 27.7112 -1.376 26.9293 -1.376V2.624ZM26.6348 2.20293C26.5268 2.0487 26.3853 1.76286 26.3853 1.376H30.3853C30.3853 0.775802 30.169 0.276635 29.9117 -0.0909256L26.6348 2.20293ZM26.3853 1.376V8.464H30.3853V1.376H26.3853ZM28.5161 10.4597C29.8071 10.3751 30.7355 10.336 31.3293 10.336V6.336C30.6004 6.336 29.5661 6.38227 28.2544 6.46829L28.5161 10.4597ZM31.3293 10.336C30.7779 10.336 30.3154 10.088 30.0192 9.77305C29.7742 9.5125 29.6919 9.26319 29.6728 9.20217C29.6356 9.08351 29.6653 9.10463 29.6653 9.408H33.6653C33.6653 8.99671 33.6389 8.48182 33.4897 8.00583C33.3744 7.63792 32.8414 6.336 31.3293 6.336V10.336ZM29.6653 9.408C29.6653 10.0283 29.6224 10.5068 29.5555 10.8634L33.487 11.6006C33.6121 10.9332 33.6653 10.1957 33.6653 9.408H29.6653ZM29.5555 10.8634C29.5186 11.0601 29.5034 11.0355 29.5644 10.9136C29.5961 10.8502 29.6995 10.6554 29.9225 10.4572C30.1741 10.2336 30.5917 10 31.1373 10V14C32.4389 14 33.0146 12.9574 33.1421 12.7024C33.3311 12.3245 33.4279 11.9159 33.487 11.6006L29.5555 10.8634ZM31.1373 10H25.2652V14H31.1373V10ZM37.0404 11.184L35.0483 11.0061L35.0465 11.0262L35.0451 11.0464L37.0404 11.184ZM36.5444 11.824L35.8351 9.95401L35.824 9.95819L35.8131 9.9625L36.5444 11.824ZM32.9284 11.792L32.3789 13.715L32.4019 13.7216L32.4251 13.7276L32.9284 11.792ZM33.5684 6.336L35.4756 6.93794L35.4763 6.936L33.5684 6.336ZM35.2004 1.12L33.3337 0.402041L33.3073 0.470752L33.286 0.541221L35.2004 1.12ZM36.4804 0.783999L36.6925 2.77272L36.704 2.77149L36.7156 2.77012L36.4804 0.783999ZM40.6084 1.12L38.6927 1.6947L38.6932 1.69637L40.6084 1.12ZM43.4404 11.648L44.676 13.2206L44.6986 13.2029L44.7207 13.1844L43.4404 11.648ZM38.7684 11.328L40.7594 11.1384L40.7582 11.1261L40.7569 11.1139L38.7684 11.328ZM38.6564 10.288L40.6449 10.0739L40.4526 8.288H38.6564V10.288ZM37.1204 10.288V8.288H35.291L35.1283 10.1101L37.1204 10.288ZM38.3204 7.248V9.248H40.494L40.3135 7.08191L38.3204 7.248ZM38.0804 4.368L40.0735 4.20191L39.9206 2.368H38.0804V4.368ZM37.7284 4.368V2.368H35.9084L35.7372 4.17995L37.7284 4.368ZM37.4564 7.248L35.4652 7.05995L35.2586 9.248H37.4564V7.248ZM35.0451 11.0464C35.0576 10.8661 35.1246 10.6024 35.3195 10.3509C35.5085 10.1071 35.7231 9.99647 35.8351 9.95401L37.2537 13.694C37.675 13.5342 38.1269 13.2583 38.4812 12.8011C38.8415 12.3363 39.0019 11.8113 39.0356 11.3216L35.0451 11.0464ZM35.8131 9.9625C35.9058 9.92608 35.8985 9.9459 35.6979 9.96753C35.5207 9.98665 35.2638 10 34.9124 10V14C35.6903 14 36.5852 13.9568 37.2757 13.6855L35.8131 9.9625ZM34.9124 10C34.2263 10 33.7468 9.93828 33.4316 9.85635L32.4251 13.7276C33.1767 13.923 34.0198 14 34.9124 14V10ZM33.4778 9.86895C33.3059 9.81984 33.3624 9.81222 33.5028 9.91253C33.6551 10.0213 34.1444 10.4486 34.1444 11.232H30.1444C30.1444 12.2394 30.7643 12.8721 31.1779 13.1675C31.5797 13.4544 32.0282 13.6148 32.3789 13.715L33.4778 9.86895ZM34.1444 11.232C34.1444 11.4157 34.1139 11.5338 34.1286 11.4595C34.1342 11.4314 34.1474 11.3714 34.173 11.2696C34.2236 11.0686 34.3047 10.7736 34.4208 10.3746C34.6518 9.58046 35.0024 8.43746 35.4756 6.93794L31.6611 5.73406C31.185 7.24254 30.8237 8.41954 30.58 9.25745C30.4587 9.67444 30.3618 10.0234 30.2937 10.2944C30.26 10.4286 30.2287 10.5616 30.2046 10.6835C30.1896 10.7592 30.1444 10.9843 30.1444 11.232H34.1444ZM35.4763 6.936C36.4233 3.92452 36.972 2.17113 37.1148 1.69878L33.286 0.541221C33.1514 0.986203 32.6121 2.71015 31.6605 5.736L35.4763 6.936ZM37.0671 1.83796C36.9296 2.19532 36.7181 2.42774 36.5758 2.55584C36.4328 2.68454 36.3041 2.75837 36.2362 2.79382C36.1069 2.86136 36.0281 2.87699 36.0682 2.86646C36.1359 2.84869 36.3253 2.81189 36.6925 2.77272L36.2682 -1.20472C35.8354 -1.15855 35.4115 -1.09669 35.0526 -1.00246C34.8794 -0.95699 34.6339 -0.882023 34.3846 -0.751818C34.2096 -0.660451 33.6175 -0.335858 33.3337 0.402041L37.0671 1.83796ZM36.7156 2.77012C37.4393 2.68441 38.2242 2.64 39.0724 2.64V-1.36C38.0859 -1.36 37.1428 -1.30842 36.2452 -1.20212L36.7156 2.77012ZM39.0724 2.64C39.2499 2.64 39.3798 2.6478 39.4695 2.65777C39.5632 2.66817 39.5843 2.67784 39.5558 2.66896C39.534 2.66215 39.3931 2.61718 39.2191 2.47976C39.0258 2.32716 38.8047 2.06796 38.6927 1.6947L42.524 0.545305C42.1912 -0.564201 41.2449 -0.993954 40.7489 -1.14896C40.2089 -1.31773 39.614 -1.36 39.0724 -1.36V2.64ZM38.6932 1.69637C39.701 5.04505 40.456 7.56702 40.9587 9.26407C41.2103 10.1134 41.3974 10.7517 41.5211 11.1821C41.5833 11.3987 41.6272 11.5548 41.6546 11.6562C41.6688 11.7086 41.6753 11.7343 41.6771 11.7415C41.6783 11.7466 41.6743 11.7308 41.6688 11.7034C41.6662 11.6902 41.66 11.6591 41.6538 11.6177C41.651 11.5987 41.6324 11.4809 41.6324 11.328H45.6324C45.6324 11.1718 45.6133 11.049 45.6094 11.0234C45.6022 10.9755 45.5946 10.9363 45.59 10.9133C45.5806 10.8664 45.5707 10.8245 45.564 10.7972C45.55 10.7396 45.5329 10.6747 45.5156 10.6108C45.4801 10.4795 45.4295 10.3 45.3657 10.0779C45.2373 9.63101 45.0464 8.97995 44.794 8.12793C44.2887 6.42231 43.5317 3.89362 42.5235 0.543626L38.6932 1.69637ZM41.6324 11.328C41.6324 10.5731 42.0885 10.1711 42.16 10.1116L44.7207 13.1844C45.0482 12.9116 45.6324 12.2963 45.6324 11.328H41.6324ZM42.2047 10.0754C42.3157 9.98816 42.4023 9.95146 42.4263 9.94199C42.4515 9.932 42.4423 9.93852 42.3835 9.95016C42.2598 9.97469 42.031 10 41.6644 10V14C42.1831 14 42.693 13.9666 43.1612 13.8738C43.6032 13.7862 44.175 13.6143 44.676 13.2206L42.2047 10.0754ZM41.6644 10C40.7619 10 40.2322 9.9431 39.9765 9.88376C39.8398 9.85205 39.9216 9.85042 40.0828 9.9579C40.2729 10.0847 40.6948 10.4608 40.7594 11.1384L36.7774 11.5176C36.8633 12.4192 37.4218 12.9913 37.864 13.2861C38.2772 13.5616 38.7263 13.7 39.0723 13.7802C39.7819 13.9449 40.6788 14 41.6644 14V10ZM40.7569 11.1139L40.6449 10.0739L36.6679 10.5021L36.7799 11.5421L40.7569 11.1139ZM38.6564 8.288H37.1204V12.288H38.6564V8.288ZM35.1283 10.1101L35.0483 11.0061L39.0325 11.3619L39.1124 10.4659L35.1283 10.1101ZM40.3135 7.08191L40.0735 4.20191L36.0873 4.53409L36.3273 7.41409L40.3135 7.08191ZM38.0804 2.368H37.7284V6.368H38.0804V2.368ZM35.7372 4.17995L35.4652 7.05995L39.4475 7.43605L39.7195 4.55605L35.7372 4.17995ZM37.4564 9.248H38.3204V5.248H37.4564V9.248ZM47.9089 11.872L47.6529 9.88844L47.6488 9.88898L47.9089 11.872ZM44.7089 11.888L45.4704 10.0386L44.7089 11.888ZM45.3489 0.976L44.668 -0.904561L44.6575 -0.900687L45.3489 0.976ZM48.0689 0.672L47.7647 2.64879L47.7779 2.65072L48.0689 0.672ZM48.8369 1.36L46.9602 2.05141L46.9624 2.05747L48.8369 1.36ZM50.3729 5.488L48.4984 6.18547L48.9831 7.488H50.3729V5.488ZM50.4369 5.488V7.488H52.4369V5.488H50.4369ZM51.3489 0.976L52.0403 2.85269V2.85269L51.3489 0.976ZM54.7089 1.024L56.3428 -0.129366L56.3409 -0.132037L54.7089 1.024ZM53.9089 11.872L53.6529 9.88844L53.6488 9.88898L53.9089 11.872ZM50.4689 11.696L52.3456 11.0046L52.3426 10.9967L52.3397 10.9888L50.4689 11.696ZM48.9809 7.76L50.8517 7.05275L50.3629 5.76H48.9809V7.76ZM48.9009 7.76V5.76H46.9009V7.76H48.9009ZM46.9009 11.536C46.9009 10.6812 47.4295 10.1937 47.6307 10.0412C47.8384 9.8837 48.0093 9.83039 48.0113 9.82971C48.0378 9.82073 47.9479 9.85038 47.6529 9.88844L48.1648 13.8556C48.5311 13.8083 48.9373 13.7393 49.2945 13.6183C49.4618 13.5616 49.7567 13.449 50.0471 13.2288C50.3309 13.0137 50.9009 12.4602 50.9009 11.536H46.9009ZM47.6488 9.88898C47.0836 9.9631 46.5198 10 45.9569 10V14C46.6953 14 47.4328 13.9516 48.1689 13.855L47.6488 9.88898ZM45.9569 10C45.6623 10 45.4611 9.99126 45.3356 9.98001C45.2736 9.97444 45.251 9.97005 45.2575 9.97126C45.2618 9.97207 45.2816 9.97588 45.3132 9.98448C45.3433 9.99268 45.3989 10.0092 45.4704 10.0386L43.9474 13.7374C44.3358 13.8973 44.7432 13.9429 44.9781 13.964C45.2687 13.9901 45.6008 14 45.9569 14V10ZM45.4704 10.0386C45.6023 10.093 45.8604 10.2273 46.0874 10.5211C46.3347 10.841 46.4369 11.2107 46.4369 11.536H42.4369C42.4369 12.0213 42.5844 12.5296 42.9223 12.9669C43.24 13.378 43.6341 13.6084 43.9474 13.7374L45.4704 10.0386ZM46.4369 11.536V1.712H42.4369V11.536H46.4369ZM46.4369 1.712C46.4369 2.42367 46.0134 2.80974 45.9209 2.8844C45.8284 2.95907 45.8247 2.93213 46.0403 2.85269L44.6575 -0.900687C44.2651 -0.756128 43.8054 -0.548403 43.4088 -0.228396C43.0123 0.091593 42.4369 0.733666 42.4369 1.712H46.4369ZM46.0298 2.85653C46.3942 2.72459 46.8568 2.64 47.4449 2.64V-1.36C46.4756 -1.36 45.5409 -1.22059 44.668 -0.904532L46.0298 2.85653ZM47.4449 2.64C47.5598 2.64 47.6456 2.64225 47.7064 2.64537C47.7719 2.64873 47.7858 2.65198 47.7648 2.64874L48.373 -1.30474C48.0783 -1.35009 47.7459 -1.36 47.4449 -1.36V2.64ZM47.7779 2.65072C47.5981 2.62427 47.3825 2.53858 47.1984 2.37367C47.0286 2.2216 46.97 2.07804 46.9602 2.05141L50.7136 0.668589C50.3653 -0.276574 49.5898 -1.12584 48.3599 -1.30672L47.7779 2.65072ZM46.9624 2.05747L48.4984 6.18547L52.2473 4.79053L50.7113 0.662532L46.9624 2.05747ZM50.3729 7.488H50.4369V3.488H50.3729V7.488ZM52.4369 5.488V1.712H48.4369V5.488H52.4369ZM52.4369 1.712C52.4369 2.42367 52.0134 2.80974 51.9209 2.8844C51.8284 2.95907 51.8247 2.93213 52.0403 2.85269L50.6575 -0.900687C50.2651 -0.756128 49.8054 -0.548403 49.4088 -0.228396C49.0123 0.0915928 48.4369 0.733666 48.4369 1.712H52.4369ZM52.0403 2.85269C52.3873 2.72485 52.8399 2.64 53.4289 2.64V-1.36C52.4606 -1.36 51.5265 -1.22085 50.6575 -0.900686L52.0403 2.85269ZM53.4289 2.64C53.6585 2.64 53.7203 2.66428 53.6782 2.65165C53.6392 2.63997 53.3328 2.54141 53.0768 2.18004L56.3409 -0.132037C55.9036 -0.74941 55.2932 -1.03997 54.8276 -1.17965C54.3588 -1.32029 53.8712 -1.36 53.4289 -1.36V2.64ZM53.0749 2.17736C53.0745 2.17673 52.9009 1.94011 52.9009 1.52H56.9009C56.9009 0.801219 56.5993 0.233938 56.3428 -0.129364L53.0749 2.17736ZM52.9009 1.52V11.536H56.9009V1.52H52.9009ZM52.9009 11.536C52.9009 10.6812 53.4295 10.1937 53.6307 10.0412C53.8384 9.8837 54.0093 9.83039 54.0113 9.82971C54.0378 9.82073 53.9479 9.85038 53.6529 9.88844L54.1648 13.8556C54.5311 13.8083 54.9373 13.7393 55.2945 13.6183C55.4618 13.5616 55.7567 13.449 56.0471 13.2288C56.3309 13.0137 56.9009 12.4602 56.9009 11.536H52.9009ZM53.6488 9.88898C53.0996 9.96101 52.468 10 51.7489 10V14C52.6084 14 53.4169 13.9537 54.1689 13.855L53.6488 9.88898ZM51.7489 10C51.4151 10 51.2954 9.97537 51.307 9.97813C51.3129 9.97953 51.4475 10.0094 51.6279 10.1188C51.8148 10.2322 52.1599 10.5008 52.3456 11.0046L48.5922 12.3874C48.8151 12.9926 49.2416 13.3498 49.5539 13.5392C49.8596 13.7246 50.1635 13.8178 50.3827 13.8699C50.821 13.974 51.304 14 51.7489 14V10ZM52.3397 10.9888L50.8517 7.05275L47.1101 8.46725L48.5981 12.4032L52.3397 10.9888ZM48.9809 5.76H48.9009V9.76H48.9809V5.76ZM46.9009 7.76V11.536H50.9009V7.76H46.9009ZM64.2029 11.888L64.6419 13.8392L64.665 13.834L64.6879 13.8283L64.2029 11.888ZM62.8909 12.08L62.7484 10.0851L62.7225 10.0869L62.6967 10.0895L62.8909 12.08ZM60.6189 12.112L60.4293 14.103L60.4378 14.1038L60.6189 12.112ZM59.7229 11.952L59.2772 13.9017L59.7229 11.952ZM58.6989 11.6L57.8294 13.4011L58.6989 11.6ZM57.7069 10.944L56.4171 12.4726L56.4287 12.4823L56.4404 12.4919L57.7069 10.944ZM56.8429 9.92L55.1226 10.9402L55.1238 10.9422L56.8429 9.92ZM56.4749 3.792L54.6272 3.02652L54.6225 3.03784L54.6179 3.04922L56.4749 3.792ZM57.5789 2.064L56.2193 0.597138L56.2103 0.605514L56.2014 0.614001L57.5789 2.064ZM59.0669 1.088L59.8759 2.91707L59.8836 2.91367L59.8912 2.91022L59.0669 1.088ZM64.5709 0.799999L63.8648 2.67121L63.8686 2.67266L64.5709 0.799999ZM65.2589 1.248L66.6731 -0.166214V-0.166217L65.2589 1.248ZM65.2749 3.584L63.3741 2.96192L63.3689 2.97761L63.3641 2.99339L65.2749 3.584ZM60.9389 4.576L59.2551 3.49667L59.2452 3.51215L59.2356 3.52781L60.9389 4.576ZM60.8909 8.144L59.1201 9.07367L59.1291 9.09084L59.1384 9.10784L60.8909 8.144ZM63.2429 8.464L63.831 10.3756L63.8402 10.3727L63.8493 10.3699L63.2429 8.464ZM65.2429 9.04L63.3263 9.61161L63.3309 9.62697L63.3357 9.64226L65.2429 9.04ZM65.1789 11.408L66.5582 12.8563L66.5598 12.8547L65.1789 11.408ZM63.7639 9.93678C63.4374 10.0102 63.0993 10.06 62.7484 10.0851L63.0334 14.0749C63.5785 14.036 64.115 13.9578 64.6419 13.8392L63.7639 9.93678ZM62.6967 10.0895C62.322 10.126 61.9548 10.144 61.5949 10.144V14.144C62.0883 14.144 62.5851 14.1193 63.0851 14.0705L62.6967 10.0895ZM61.5949 10.144C61.2012 10.144 60.9457 10.1335 60.7999 10.1202L60.4378 14.1038C60.7614 14.1332 61.1566 14.144 61.5949 14.144V10.144ZM60.8085 10.121C60.7097 10.1116 60.5072 10.0797 60.1685 10.0023L59.2772 13.9017C59.6852 13.995 60.08 14.0697 60.4293 14.103L60.8085 10.121ZM60.1685 10.0023C59.9251 9.94664 59.728 9.87597 59.5684 9.7989L57.8294 13.4011C58.2884 13.6227 58.774 13.7867 59.2772 13.9017L60.1685 10.0023ZM59.5684 9.7989C59.4381 9.73598 59.2402 9.61441 58.9734 9.39608L56.4404 12.4919C56.8776 12.8496 57.341 13.1654 57.8294 13.4011L59.5684 9.7989ZM58.9966 9.41542C58.8304 9.27517 58.686 9.10643 58.5619 8.89785L55.1238 10.9422C55.4691 11.5229 55.9007 12.0368 56.4171 12.4726L58.9966 9.41542ZM58.5631 8.89985C58.2567 8.38316 58.0269 7.58411 58.0269 6.368H54.0269C54.0269 8.05322 54.341 9.62218 55.1226 10.9402L58.5631 8.89985ZM58.0269 6.368C58.0269 5.60042 58.145 5.0018 58.3318 4.53478L54.6179 3.04922C54.2074 4.07553 54.0269 5.19424 54.0269 6.368H58.0269ZM58.3226 4.55748C58.5624 3.97873 58.7934 3.66885 58.9564 3.514L56.2014 0.614001C55.511 1.26982 55.0061 2.11193 54.6272 3.02652L58.3226 4.55748ZM58.9384 3.53086C59.2107 3.27847 59.52 3.0745 59.8759 2.91707L58.2579 -0.741071C57.5044 -0.40783 56.8217 0.0388627 56.2193 0.597138L58.9384 3.53086ZM59.8912 2.91022C60.5504 2.61201 61.1719 2.48 61.7709 2.48V-1.52C60.5565 -1.52 59.3754 -1.24668 58.2425 -0.734217L59.8912 2.91022ZM61.7709 2.48C63.0444 2.48 63.6631 2.59511 63.8648 2.6712L65.277 -1.0712C64.348 -1.42177 63.1 -1.52 61.7709 -1.52V2.48ZM63.8686 2.67266C63.8648 2.67122 63.8603 2.6693 63.8556 2.66691C63.8509 2.66453 63.8468 2.66213 63.8435 2.66C63.8364 2.65536 63.8369 2.65449 63.8447 2.66221L66.6731 -0.166217C66.2785 -0.560791 65.8093 -0.871577 65.2731 -1.07266L63.8686 2.67266ZM63.8447 2.66221C63.7143 2.53182 63.6365 2.38875 63.5965 2.27304C63.5597 2.16654 63.5629 2.10756 63.5629 2.128H67.5629C67.5629 1.39945 67.3645 0.525182 66.6731 -0.166214L63.8447 2.66221ZM63.5629 2.128C63.5629 2.21211 63.5352 2.46968 63.3741 2.96192L67.1757 4.20608C67.3986 3.52498 67.5629 2.81189 67.5629 2.128H63.5629ZM63.3641 2.99339C63.3172 3.14503 63.3166 3.05531 63.459 2.89865C63.5405 2.80904 63.6733 2.69322 63.866 2.60184C64.0642 2.50789 64.2751 2.464 64.4749 2.464V6.464C66.2667 6.464 66.9631 4.89472 67.1857 4.17461L63.3641 2.99339ZM64.4749 2.464C64.5762 2.464 64.6476 2.47281 64.6585 2.47411C64.6794 2.4766 64.6873 2.47819 64.6765 2.47636C64.6547 2.47265 64.6059 2.46342 64.5215 2.44517C64.3549 2.40913 64.1093 2.35105 63.7759 2.26771L62.8058 6.14828C63.1551 6.23561 63.4482 6.30553 63.6762 6.35483C63.8024 6.3821 64.1614 6.464 64.4749 6.464V2.464ZM63.7759 2.26771C63.1267 2.1054 62.4287 1.952 61.8989 1.952V5.952C61.8534 5.952 61.8433 5.94867 61.885 5.95368C61.9219 5.95813 61.9818 5.96696 62.0691 5.98301C62.245 6.01536 62.4876 6.06873 62.8058 6.14828L63.7759 2.26771ZM61.8989 1.952C60.6294 1.952 59.7564 2.71474 59.2551 3.49667L62.6226 5.65533C62.646 5.61882 62.6062 5.69564 62.4689 5.78489C62.3121 5.88678 62.1082 5.952 61.8989 5.952V1.952ZM59.2356 3.52781C58.7044 4.39088 58.5549 5.40741 58.5549 6.352H62.5549C62.5549 6.07423 62.5785 5.88064 62.6057 5.75467C62.6329 5.62888 62.6574 5.59948 62.6422 5.62419L59.2356 3.52781ZM58.5549 6.352C58.5549 7.27142 58.6818 8.23889 59.1201 9.07367L62.6617 7.21433C62.6627 7.21629 62.633 7.15901 62.6046 7.00742C62.5764 6.85713 62.5549 6.64303 62.5549 6.352H58.5549ZM59.1384 9.10784C59.6007 9.94836 60.4749 10.784 61.8029 10.784V6.784C62.025 6.784 62.2573 6.85605 62.4437 6.98689C62.6069 7.10143 62.6575 7.20588 62.6433 7.18016L59.1384 9.10784ZM61.8029 10.784C62.4128 10.784 63.1672 10.5798 63.831 10.3756L62.6547 6.55244C62.3375 6.65005 62.099 6.71385 61.929 6.75163C61.8449 6.77031 61.7902 6.77979 61.76 6.7841C61.7253 6.78906 61.7451 6.784 61.8029 6.784V10.784ZM63.8493 10.3699C64.1909 10.2611 64.4392 10.1868 64.6051 10.1415C64.6893 10.1186 64.7331 10.1084 64.7469 10.1055C64.7536 10.104 64.7383 10.1075 64.7077 10.112C64.688 10.1149 64.5992 10.128 64.4749 10.128V6.128C64.2172 6.128 63.9897 6.17708 63.9169 6.19253C63.7987 6.2176 63.6738 6.24944 63.5526 6.28247C63.3079 6.34922 62.9988 6.44285 62.6365 6.55815L63.8493 10.3699ZM64.4749 10.128C64.2376 10.128 64 10.0702 63.7887 9.96075C63.5866 9.85601 63.4567 9.72935 63.3851 9.64427C63.2622 9.49844 63.2726 9.43166 63.3263 9.61161L67.1595 8.46839C67.0318 8.04034 66.8235 7.51756 66.4447 7.06773C66.0211 6.56475 65.3498 6.128 64.4749 6.128V10.128ZM63.3357 9.64226C63.5032 10.1726 63.5309 10.4374 63.5309 10.512H67.5309C67.5309 9.83991 67.3666 9.12345 67.15 8.43774L63.3357 9.64226ZM63.5309 10.512C63.5309 10.4887 63.5349 10.4031 63.5814 10.2847C63.6302 10.1604 63.7074 10.0477 63.7979 9.96129L66.5598 12.8547C67.2506 12.1954 67.5309 11.3419 67.5309 10.512H63.5309ZM63.7996 9.95972C63.8573 9.9047 63.8952 9.88788 63.8842 9.8933C63.872 9.8993 63.8218 9.92172 63.7178 9.94771L64.6879 13.8283C65.3167 13.6711 66 13.3879 66.5582 12.8563L63.7996 9.95972ZM66.9589 11.888L67.7204 10.0386L66.9589 11.888ZM67.0549 0.815999L66.2216 -1.00213L66.2067 -0.995321L66.192 -0.988268L67.0549 0.815999ZM75.0389 3.456L76.9792 3.94108L76.9822 3.9287L75.0389 3.456ZM71.1509 3.824L71.3191 1.83109L69.1509 1.64805V3.824H71.1509ZM71.1509 4.896H69.1509V6.97872L71.2319 6.89436L71.1509 4.896ZM74.4949 7.344L72.5975 6.71154L72.5915 6.72944L72.5859 6.74745L74.4949 7.344ZM74.0469 7.856L74.0027 9.85551L74.0248 9.856H74.0469V7.856ZM71.1509 7.792L71.1951 5.79249L69.1509 5.74731V7.792H71.1509ZM71.1509 8.816H69.1509V10.971L71.2999 10.8104L71.1509 8.816ZM74.7989 10H68.0149V14H74.7989V10ZM68.0149 10C67.7942 10 67.6513 9.9918 67.5698 9.98316C67.5303 9.97897 67.5223 9.97642 67.5379 9.97969C67.5486 9.98194 67.6183 9.99662 67.7204 10.0386L66.1974 13.7374C66.5518 13.8833 66.9087 13.9355 67.1479 13.9608C67.4184 13.9895 67.7129 14 68.0149 14V10ZM67.7204 10.0386C67.8523 10.093 68.1104 10.2273 68.3374 10.5211C68.5847 10.841 68.6869 11.2107 68.6869 11.536H64.6869C64.6869 12.0213 64.8344 12.5296 65.1723 12.9669C65.49 13.378 65.8841 13.6084 66.1974 13.7374L67.7204 10.0386ZM68.6869 11.536V1.408H64.6869V11.536H68.6869ZM68.6869 1.408C68.6869 1.56959 68.6484 1.83289 68.4774 2.10787C68.305 2.38527 68.0796 2.54286 67.9178 2.62027L66.192 -0.988268C65.7848 -0.793532 65.3754 -0.478601 65.0803 -0.00386882C64.7867 0.468441 64.6869 0.969075 64.6869 1.408H68.6869ZM67.8882 2.63413C67.848 2.65255 67.8167 2.664 67.7975 2.67045C67.7782 2.67697 67.7669 2.6798 67.7655 2.68014C67.7644 2.68041 67.7881 2.67464 67.8436 2.66746C67.9579 2.65267 68.1427 2.64 68.4149 2.64V-1.36C67.758 -1.36 66.9104 -1.31785 66.2216 -1.00213L67.8882 2.63413ZM68.4149 2.64H74.8469V-1.36H68.4149V2.64ZM74.8469 2.64C74.2638 2.64 73.7935 2.36595 73.5073 2.04793C73.2726 1.78718 73.1979 1.54375 73.1832 1.4947C73.1532 1.39471 73.1829 1.43774 73.1829 1.76H77.1829C77.1829 1.33559 77.1565 0.818619 77.0145 0.345303C76.9438 0.109582 76.7991 -0.27385 76.4805 -0.627931C76.1102 -1.03928 75.542 -1.36 74.8469 -1.36V2.64ZM73.1829 1.76C73.1829 2.44306 73.1351 2.82063 73.0955 2.9833L76.9822 3.9287C77.1346 3.30204 77.1829 2.54894 77.1829 1.76H73.1829ZM73.0986 2.97093C73.0723 3.07597 73.0842 2.96248 73.2068 2.7786C73.3373 2.58287 73.8008 2.032 74.6549 2.032V6.032C75.669 6.032 76.2765 5.38513 76.535 4.9974C76.7856 4.62152 76.9094 4.22003 76.9792 3.94107L73.0986 2.97093ZM74.6549 2.032C74.0542 2.032 72.9608 1.96968 71.3191 1.83109L70.9826 5.81691C72.6262 5.95566 73.8689 6.032 74.6549 6.032V2.032ZM69.1509 3.824V4.896H73.1509V3.824H69.1509ZM71.2319 6.89436C72.8201 6.82997 73.807 6.8 74.2389 6.8V2.8C73.7107 2.8 72.639 2.83403 71.0699 2.89764L71.2319 6.89436ZM74.2389 6.8C73.8912 6.8 73.5163 6.68774 73.2 6.4417C72.9121 6.2178 72.7788 5.96629 72.7246 5.83984C72.6346 5.62981 72.6709 5.55382 72.6709 5.808H76.6709C76.6709 5.39018 76.6352 4.81019 76.4012 4.26416C76.275 3.96971 76.0516 3.5922 75.6558 3.2843C75.2314 2.95426 74.7306 2.8 74.2389 2.8V6.8ZM72.6709 5.808C72.6709 6.08937 72.6584 6.30658 72.6399 6.46832C72.6307 6.5481 72.6208 6.60805 72.6121 6.65079C72.6033 6.69406 72.5972 6.71258 72.5975 6.71154L76.3922 7.97646C76.6117 7.31793 76.6709 6.55039 76.6709 5.808H72.6709ZM72.5859 6.74745C72.5729 6.78898 72.6139 6.62107 72.7977 6.41099C72.8998 6.29434 73.0594 6.14965 73.2884 6.03515C73.5253 5.91673 73.7864 5.856 74.0469 5.856V9.856C74.8253 9.856 75.4292 9.47794 75.808 9.04501C76.1412 8.66427 76.3102 8.24035 76.4038 7.94055L72.5859 6.74745ZM74.0911 5.85649L71.1951 5.79249L71.1067 9.79151L74.0027 9.85551L74.0911 5.85649ZM69.1509 7.792V8.816H73.1509V7.792H69.1509ZM71.2999 10.8104C73.1612 10.6714 74.3714 10.608 74.9909 10.608V6.608C74.2024 6.608 72.8526 6.68329 71.0019 6.82156L71.2999 10.8104ZM74.9909 10.608C74.4078 10.608 73.9375 10.3339 73.6513 10.0159C73.4166 9.75518 73.3419 9.51175 73.3272 9.4627C73.2972 9.36271 73.3269 9.40574 73.3269 9.728H77.3269C77.3269 9.30359 77.3005 8.78662 77.1585 8.3133C77.0878 8.07758 76.9431 7.69415 76.6245 7.34007C76.2542 6.92872 75.686 6.608 74.9909 6.608V10.608ZM73.3269 9.728C73.3269 10.4282 73.2781 10.7969 73.2426 10.9389L77.1232 11.9091C77.2797 11.2831 77.3269 10.5211 77.3269 9.728H73.3269ZM73.2426 10.9389C73.2163 11.044 73.2282 10.9305 73.3508 10.7466C73.4813 10.5509 73.9448 10 74.7989 10V14C75.813 14 76.4205 13.3531 76.679 12.9654C76.9296 12.5895 77.0534 12.188 77.1232 11.9091L73.2426 10.9389Z" fill="white" mask="url(#path-1-outside-1_23_13)"/>
</svg>
