<svg width="97" height="149" viewBox="0 0 97 149" fill="none" xmlns="http://www.w3.org/2000/svg">
<mask id="mask0_135_211" style="mask-type:alpha" maskUnits="userSpaceOnUse" x="0" y="0" width="96" height="96">
<circle cx="48" cy="48" r="47" fill="url(#paint0_linear_135_211)" stroke="white" stroke-width="2"/>
</mask>
<g mask="url(#mask0_135_211)">
<circle cx="48" cy="48" r="47" fill="url(#paint1_linear_135_211)" stroke="white" stroke-width="2"/>
<mask id="mask1_135_211" style="mask-type:alpha" maskUnits="userSpaceOnUse" x="5" y="9" width="97" height="98">
<path d="M97.5847 43.1848C100.271 47.8384 101.546 53.0766 101.66 58.4945C101.75 62.7769 101.115 67.1716 99.8784 71.4787C98.0891 77.7114 95.8143 81.7929 91.883 87.0529C87.9479 92.3179 82.3547 98.7599 77.0269 101.836C70.7277 104.878 66.2675 106.018 58.5866 106.277C52.622 106.477 50.0197 105.494 43.8169 103.846C30.1433 98.3526 26.0903 86.3716 15.4914 77.2151C13.6716 74.0632 9.92486 81.5979 8.766 78.2338C6.63934 72.0601 5.6023 65.7373 5.56945 60.0298C5.5124 50.1172 8.48443 42.0606 14.038 39.8648C15.7589 38.0511 20.0886 36.294 25.9358 34.8409C30.3847 33.7353 35.7121 32.8057 41.4373 32.161C55.8596 30.5371 56.7555 6.50842 68.5409 10.2429C74.5585 12.1497 95.2812 39.195 97.5847 43.1848Z" fill="url(#paint2_linear_135_211)"/>
</mask>
<g mask="url(#mask1_135_211)">
<g clip-path="url(#clip0_135_211)">
<path d="M21.6296 114.625C20.1517 116.702 18.5393 118.679 16.8028 120.544C16.3733 121.019 15.9017 121.462 15.4528 121.924C15.004 122.386 14.5243 122.822 14.03 123.246C13.0528 124.117 12.0235 124.928 10.9477 125.674C8.74702 127.246 6.27714 128.403 3.6601 129.086C2.30186 129.433 0.902045 129.59 -0.499277 129.552C-1.92162 129.518 -3.32942 129.257 -4.66971 128.78C-7.31991 127.796 -9.59304 126.003 -11.1666 123.654C-11.9351 122.53 -12.5509 121.308 -12.9979 120.021C-13.4439 118.757 -13.7385 117.445 -13.8757 116.112C-14.1426 113.481 -13.8506 110.824 -13.0188 108.315C-12.1985 105.854 -10.9333 103.565 -9.28627 101.561L-7.48755 102.955C-8.84989 104.797 -9.86523 106.872 -10.4838 109.077C-11.0817 111.241 -11.2164 113.506 -10.8791 115.725C-10.7133 116.81 -10.4181 117.872 -9.99991 118.887C-9.59752 119.884 -9.06235 120.822 -8.4089 121.677C-7.17308 123.351 -5.4398 124.591 -3.45668 125.221C-1.47402 125.791 0.633754 125.753 2.595 125.114C4.66771 124.444 6.60062 123.4 8.29869 122.036C9.19088 121.348 10.0395 120.606 10.8396 119.813C11.2542 119.423 11.6375 118.999 12.0323 118.588C12.4272 118.177 12.8082 117.743 13.17 117.295C14.6638 115.517 16.0376 113.642 17.2826 111.681L21.6296 114.625Z" fill="#9B6540"/>
<path d="M21.6296 114.625C20.1517 116.702 18.5393 118.679 16.8028 120.544C16.3733 121.019 15.9017 121.462 15.4528 121.924C15.004 122.386 14.5243 122.822 14.03 123.246C13.0528 124.117 12.0235 124.928 10.9477 125.674C8.74702 127.246 6.27714 128.403 3.6601 129.086C2.30186 129.433 0.902045 129.59 -0.499277 129.552C-1.92162 129.518 -3.32942 129.257 -4.66971 128.78C-7.31991 127.796 -9.59304 126.003 -11.1666 123.654C-11.9351 122.53 -12.5509 121.308 -12.9979 120.021C-13.4439 118.757 -13.7385 117.445 -13.8757 116.112C-14.1426 113.481 -13.8506 110.824 -13.0188 108.315C-12.1985 105.854 -10.9333 103.565 -9.28627 101.561L-7.48755 102.955C-8.84989 104.797 -9.86523 106.872 -10.4838 109.077C-11.0817 111.241 -11.2164 113.506 -10.8791 115.725C-10.7133 116.81 -10.4181 117.872 -9.99991 118.887C-9.59752 119.884 -9.06235 120.822 -8.4089 121.677C-7.17308 123.351 -5.4398 124.591 -3.45668 125.221C-1.47402 125.791 0.633754 125.753 2.595 125.114C4.66771 124.444 6.60062 123.4 8.29869 122.036C9.19088 121.348 10.0395 120.606 10.8396 119.813C11.2542 119.423 11.6375 118.999 12.0323 118.588C12.4272 118.177 12.8082 117.743 13.17 117.295C14.6638 115.517 16.0376 113.642 17.2826 111.681L21.6296 114.625Z" stroke="#553216" stroke-width="2.93" stroke-miterlimit="10"/>
<path d="M81.9786 86.9618C81.9786 86.9618 95.5891 96.5939 98.7205 97.8109C101.852 99.028 111.368 105.355 116.074 107.11C120.78 108.865 112.824 114.914 109.757 113.85C106.691 112.786 97.2748 103.686 94.9189 103.337C92.5629 102.988 79.6049 102.479 79.6049 102.479L81.9786 86.9618Z" fill="#9B6540"/>
<path d="M79.6081 102.485C79.6081 102.485 88.3258 102.83 92.7572 103.146C93.908 100.826 94.6872 98.34 95.0665 95.7784C89.9194 92.5848 81.9766 86.9587 81.9766 86.9587L79.6081 102.485Z" fill="#9B6540"/>
<path d="M79.6081 102.485C79.6081 102.485 88.3258 102.83 92.7572 103.146C93.908 100.826 94.6872 98.34 95.0665 95.7784C89.9194 92.5848 81.9766 86.9587 81.9766 86.9587L79.6081 102.485Z" fill="#6D4B33"/>
<path d="M81.9786 86.9618C81.9786 86.9618 95.5891 96.5939 98.7205 97.8109C101.852 99.028 111.368 105.355 116.074 107.11C120.78 108.865 112.824 114.914 109.757 113.85C106.691 112.786 97.2748 103.686 94.9189 103.337C92.5629 102.988 79.6049 102.479 79.6049 102.479L81.9786 86.9618Z" stroke="#553216" stroke-width="2.93" stroke-miterlimit="10"/>
<path d="M60.6413 67.3136C34.1974 63.1789 30.2914 78.2734 27.4393 87.9019C24.5872 97.5304 13.4484 110.011 15.4906 119.394C16.7717 125.269 25.6913 132.139 40.1973 121.745C54.7033 111.351 72.4131 118.541 83.9372 102.252C95.4613 85.9628 81.5266 64.1198 60.6413 67.3136Z" fill="#9B6540"/>
<path d="M83.2776 98.892C70.7137 116.409 51.6614 108.85 35.9283 120.1C30.0446 124.292 25.0343 125.92 20.9888 125.97C25.2391 127.996 31.7728 127.774 40.1922 121.736C54.7062 111.321 72.408 118.532 83.9321 102.243C87.5388 97.1433 88.6499 91.5012 87.8383 86.2537C87.569 90.8182 85.9851 95.2073 83.2776 98.892Z" fill="#6D4B33"/>
<path d="M60.6413 67.3136C34.1974 63.1789 30.2914 78.2734 27.4393 87.9019C24.5872 97.5304 13.4484 110.011 15.4906 119.394C16.7717 125.269 25.6913 132.139 40.1973 121.745C54.7033 111.351 72.4131 118.541 83.9372 102.252C95.4613 85.9628 81.5266 64.1198 60.6413 67.3136Z" stroke="#553216" stroke-width="2.93" stroke-miterlimit="10"/>
<path d="M54.0828 98.0071C54.0828 98.0071 64.4594 120.696 66.158 120.987C67.8565 121.279 81.8807 116.604 82.3137 116.982C82.7466 117.36 77.9269 125.35 77.9269 125.35C77.9269 125.35 85.8644 127.704 88.1805 126.387C88.1805 126.387 88.8421 114.052 88.191 111.864C87.54 109.676 74.8522 111.949 74.8522 111.949C74.8522 111.949 78.8287 103.965 76.7623 99.3186C74.6959 94.6723 54.0828 98.0071 54.0828 98.0071Z" fill="#9B6540"/>
<path d="M50.8207 60.9272C27.6742 74.2909 37.9332 89.3957 53.1577 91.9227C68.3822 94.4498 69.9828 94.3923 69.9828 94.3923C69.9828 94.3923 71.9238 88.5215 75.9563 79.4159C79.9888 70.3103 80.3629 46.8404 50.8207 60.9272Z" fill="#6D4B33"/>
<path d="M57.6824 105.688C59.8205 108.702 61.2688 112.044 63.0358 115.221C63.4723 116.019 63.91 116.812 64.367 117.589C64.8239 118.367 65.2902 119.147 65.8023 119.841C65.9192 120.005 66.0465 120.161 66.1835 120.309L66.2702 120.39C66.2925 120.429 66.307 120.412 66.3203 120.429C66.3336 120.445 66.3065 120.405 66.2822 120.411L66.2527 120.408C66.2824 120.412 66.3125 120.413 66.3424 120.412C66.7598 120.381 67.1742 120.319 67.582 120.225C68.4514 120.037 69.3291 119.808 70.2034 119.574C71.9549 119.103 73.7064 118.605 75.4543 118.1C77.2023 117.596 78.9511 117.079 80.7489 116.634C80.9754 116.578 81.2019 116.523 81.4484 116.468L81.8068 116.4C81.8708 116.387 81.9412 116.379 82.0086 116.371C82.1095 116.361 82.2111 116.359 82.3122 116.367L82.3823 116.378C82.4198 116.386 82.4566 116.396 82.4922 116.41C82.6235 116.455 82.7365 116.542 82.8139 116.658C82.8352 116.688 82.8537 116.72 82.869 116.753C82.8845 116.78 82.8914 116.792 82.9017 116.81C82.9164 116.849 82.9276 116.889 82.9351 116.93C82.9436 116.98 82.9467 117.032 82.9443 117.083C82.9412 117.187 82.9256 117.289 82.8979 117.388C82.8609 117.522 82.8157 117.653 82.7626 117.781C82.6718 118.016 82.572 118.228 82.4692 118.443C82.0588 119.288 81.6148 120.089 81.1679 120.891C80.269 122.488 79.3327 124.054 78.3665 125.609L78.075 124.863C78.8959 125.101 79.7384 125.314 80.5783 125.509C81.4182 125.704 82.2657 125.87 83.1113 126.006C83.9508 126.147 84.7983 126.235 85.6488 126.27C86.0592 126.287 86.4703 126.274 86.8788 126.232C87.2472 126.2 87.607 126.103 87.9412 125.945L87.6851 126.355C87.8036 124.013 87.8911 121.667 87.9475 119.319C87.9728 118.146 87.9832 116.975 87.9789 115.806C87.9745 115.221 87.9514 114.63 87.9356 114.058L87.887 113.196C87.858 112.919 87.8357 112.626 87.8013 112.359L87.7335 112.001C87.713 111.958 87.6822 111.921 87.6438 111.894C87.4579 111.768 87.25 111.679 87.0311 111.631C86.4919 111.509 85.9417 111.442 85.3889 111.431C84.2337 111.398 83.0776 111.432 81.9265 111.534C79.6045 111.725 77.2762 112.044 74.9787 112.436L74.0689 112.671L74.4357 111.716C74.7704 110.843 75.1097 109.944 75.4141 109.053C75.7184 108.162 76.0252 107.261 76.2714 106.352C76.3443 106.127 76.3974 105.881 76.4541 105.67C76.5108 105.458 76.5652 105.208 76.6133 104.982C76.7393 104.511 76.8086 104.074 76.9005 103.599C77.0663 102.656 77.1801 101.704 77.2413 100.747C77.6111 101.679 77.794 102.674 77.7796 103.676C77.7531 104.673 77.6218 105.664 77.3879 106.633C77.1726 107.598 76.8921 108.548 76.5483 109.475C76.2143 110.406 75.8041 111.307 75.322 112.171L74.7821 111.449C77.1224 111.048 79.4617 110.735 81.8293 110.532C83.0219 110.427 84.2197 110.391 85.4164 110.425C86.041 110.441 86.6622 110.52 87.2706 110.662C87.6188 110.743 87.9473 110.892 88.2363 111.102C88.4327 111.255 88.5797 111.462 88.6591 111.697C88.7005 111.872 88.7298 112.026 88.7659 112.192C88.8207 112.514 88.84 112.809 88.8738 113.115L88.9278 114.014C88.9466 114.612 88.9638 115.206 88.9669 115.796C88.9753 116.981 88.9654 118.162 88.9374 119.339C88.8847 121.699 88.7968 124.055 88.6738 126.408L88.6584 126.691L88.4229 126.827C87.9722 127.055 87.4823 127.195 86.9794 127.239C86.5216 127.29 86.0606 127.306 85.6004 127.288C84.7082 127.25 83.8193 127.156 82.9386 127.008C82.0618 126.867 81.1985 126.693 80.3385 126.498C79.4785 126.303 78.6325 126.084 77.774 125.836L77.1576 125.663L77.4803 125.08C78.3836 123.505 79.2882 121.925 80.1638 120.35C80.5941 119.553 81.0209 118.75 81.3922 117.948C81.4836 117.748 81.5613 117.552 81.6437 117.357C81.6783 117.266 81.7094 117.168 81.7271 117.102C81.7447 117.037 81.7358 117.042 81.7346 117.074C81.7335 117.096 81.7353 117.118 81.7401 117.139C81.7436 117.166 81.7509 117.192 81.7618 117.218L81.7841 117.256C81.7975 117.283 81.8124 117.309 81.8289 117.334C81.8922 117.425 81.982 117.493 82.086 117.531L82.1535 117.552L82.1817 117.559C82.2266 117.561 82.1817 117.559 82.1519 117.577L82.0128 117.597L81.7078 117.654C81.4962 117.701 81.2786 117.751 81.0616 117.809C77.572 118.718 74.0773 119.826 70.5413 120.758C69.6529 120.989 68.7623 121.209 67.8481 121.395C67.3637 121.504 66.8709 121.572 66.375 121.597C66.2922 121.597 66.2095 121.592 66.1273 121.581C65.9934 121.562 65.8642 121.518 65.7463 121.452C65.606 121.361 65.4773 121.254 65.3631 121.132C65.1898 120.945 65.029 120.747 64.8818 120.54C64.349 119.774 63.8585 118.979 63.4126 118.16C62.9531 117.364 62.531 116.55 62.1072 115.734C60.4428 112.465 58.6983 109.251 57.6824 105.688Z" fill="#553216"/>
<path d="M36.3425 102.565C50.0685 113.196 50.2599 133.088 50.5087 134.586C50.7575 136.084 68.3433 135.272 68.3433 135.272C68.3433 135.272 67.5786 142.65 63.7221 143.255C59.8657 143.859 44.1635 138.873 44.1635 138.873C44.1635 138.873 40.5004 133.217 31.363 129.143C22.2256 125.069 15.9227 119.296 19.9532 112.135C23.9837 104.974 36.3425 102.565 36.3425 102.565Z" fill="#9B6540"/>
<path d="M50.6546 55.8476C24.7802 70.7862 34.6773 84.9473 50.8427 86.295C67.0082 87.6428 67.8436 87.1207 67.8436 87.1207C67.8436 87.1207 71.265 81.5281 76.2843 72.2384C81.3036 62.9486 83.4576 39.7112 50.6546 55.8476Z" fill="#FF2222"/>
<path d="M79.1447 59.9736C73.1639 55.5838 71.5089 70.7421 62.2789 76.0711C52.9804 81.4396 38.9962 75.3464 39.9243 82.7924C42.7702 84.699 46.5879 85.9412 50.8397 86.2967C67.0103 87.6535 67.8406 87.1224 67.8406 87.1224C67.8406 87.1224 71.2619 81.5298 76.2812 72.2401C77.9956 69.068 79.3752 64.2766 79.1447 59.9736Z" fill="#912343"/>
<path d="M53.1925 85.972C53.5818 85.9579 53.9817 85.9138 54.3856 85.9112L54.9842 85.8876C55.1825 85.8847 55.3804 85.8687 55.5766 85.8397C55.9731 85.7897 56.3648 85.7384 56.7587 85.6978C56.9576 85.6704 57.1412 85.6718 57.3498 85.6268L57.9351 85.5115L59.1028 85.2826L60.2465 84.9641C60.4376 84.9094 60.6325 84.8684 60.8184 84.8048L61.3803 84.6076C61.7482 84.4668 62.1337 84.3634 62.4938 84.1953C63.9683 83.5971 65.3734 82.8405 66.6845 81.9388C68.0277 81.0483 69.2732 80.0187 70.4006 78.8671C69.5608 80.2962 68.461 81.5554 67.1579 82.5797C65.8601 83.6238 64.4323 84.4949 62.9102 85.1712C61.387 85.8504 59.7865 86.3407 58.1442 86.631L57.5316 86.7541C57.3272 86.7926 57.1198 86.8051 56.9115 86.8299C56.4997 86.8809 56.0805 86.9122 55.67 86.9584C55.4639 86.9831 55.2564 86.994 55.0489 86.9911L54.4263 87.0007C54.0105 87.0102 53.5955 87.0074 53.1821 87.0075L53.1925 85.972Z" fill="#553216"/>
<path d="M60.4381 81.3236C61.3526 80.732 62.2732 80.1647 63.1887 79.5885C64.1042 79.0122 64.9423 78.3296 65.8178 77.7048L67.0493 76.6639L67.6692 76.147C67.7687 76.0578 67.8764 75.9758 67.9712 75.8852L68.2564 75.6013L69.388 74.463L69.6703 74.1808L69.9246 73.871L70.4386 73.2602C71.8192 71.6538 72.9128 69.8216 73.6715 67.844C74.0289 66.8619 74.2797 65.8443 74.4194 64.8086C74.4632 64.5534 74.491 64.2957 74.5026 64.0371C74.5087 63.7791 74.5456 63.5194 74.5286 63.2628C74.5117 63.0063 74.5284 62.7462 74.4825 62.4944C74.464 62.2469 74.4307 62.0006 74.3827 61.757L75.3854 61.5041C75.4491 61.7948 75.4931 62.0894 75.517 62.3861C75.5559 62.6737 75.5482 62.9564 75.5623 63.2424C75.5764 63.5284 75.5392 63.8083 75.5332 64.094C75.5235 64.3769 75.4951 64.6589 75.4481 64.9381C75.293 66.0548 75.0121 67.1504 74.6108 68.204C73.7747 70.2693 72.5731 72.1669 71.0636 73.8057L70.5082 74.4205L70.2303 74.724L69.9263 75.0029L68.7032 76.1066L68.3974 76.3825C68.2949 76.4735 68.1808 76.5513 68.0748 76.6363L67.4199 77.1336C66.9846 77.4605 66.5514 77.7981 66.1126 78.119C65.18 78.6932 64.2655 79.2848 63.3286 79.8376C62.3662 80.3257 61.4069 80.8398 60.4381 81.3236Z" fill="#553216"/>
<path d="M61.9813 77.8687C68.6069 74.0435 71.5027 66.6552 68.4493 61.3666C65.396 56.0781 57.5497 54.8918 50.9241 58.7171C44.2986 62.5423 41.4027 69.9306 44.4561 75.2191C47.5095 80.5077 55.3558 81.694 61.9813 77.8687Z" fill="#553216"/>
<path d="M50.6546 55.8476C24.7802 70.7862 34.6773 84.9473 50.8427 86.295C67.0082 87.6428 67.8436 87.1207 67.8436 87.1207C67.8436 87.1207 71.265 81.5281 76.2843 72.2384C81.3036 62.9486 83.4576 39.7112 50.6546 55.8476Z" stroke="#553216" stroke-width="3" stroke-miterlimit="10"/>
<path d="M61.8249 35.9509C66.5986 27.9637 76.0836 31.3797 76.0836 31.3797C76.0836 31.3797 75.4548 40.3288 67.3563 41.0493C59.2577 41.7699 61.8249 35.9509 61.8249 35.9509Z" fill="#9B6540"/>
<path d="M61.8249 35.951C61.8249 35.951 59.2309 41.7855 67.3503 41.0529C67.8004 41.0122 68.2475 40.9426 68.6888 40.8445C67.7443 36.3376 69.8859 32.9347 72.2196 30.6771C69.0429 30.5038 64.6269 31.2686 61.8249 35.951Z" fill="#6D4B33"/>
<path d="M64.6155 36.2955C67.0695 32.1876 73.137 33.2438 73.137 33.2438C73.137 33.2438 71.6218 38.5508 67.444 38.9157C63.2663 39.2806 64.6155 36.2955 64.6155 36.2955Z" fill="#FFB39C"/>
<path d="M64.6155 36.2955C67.0695 32.1876 73.137 33.2438 73.137 33.2438C73.137 33.2438 71.6218 38.5508 67.444 38.9157C63.2663 39.2806 64.6155 36.2955 64.6155 36.2955Z" stroke="#553216" stroke-width="2.3" stroke-miterlimit="10"/>
<path d="M61.8249 35.9509C66.5986 27.9637 76.0836 31.3797 76.0836 31.3797C76.0836 31.3797 75.4548 40.3288 67.3563 41.0493C59.2577 41.7699 61.8249 35.9509 61.8249 35.9509Z" stroke="#553216" stroke-width="2.26" stroke-miterlimit="10"/>
<path d="M33.4246 63.8438C27.6324 53.1918 32.4207 42.8271 42.3572 37.0902C52.2938 31.3533 64.0081 33.033 69.7449 42.9696C70.9008 44.9749 71.7132 47.1593 72.1486 49.4325C73.4179 50.1775 74.475 51.2355 75.2187 52.5056C78.6491 58.4472 75.4704 66.9248 64.6699 72.4528C52.6391 78.6038 40.3192 76.8803 33.4246 63.8438Z" fill="#9B6540"/>
<path d="M33.5421 55.3448L31.4822 58.951C31.9236 60.6563 32.5761 62.2999 33.4245 63.8437C35.7817 68.2983 38.7705 71.4302 42.1648 73.3779L43.4585 73.5532C43.4585 73.5532 35.6686 68.3914 33.5421 55.3448Z" fill="#6D4B33"/>
<path d="M53.5538 64.5248C58.2677 61.8032 59.8828 55.7755 57.1612 51.0615C54.4396 46.3476 48.4119 44.7325 43.698 47.4541C38.984 50.1757 37.3689 56.2034 40.0905 60.9173C42.8121 65.6313 48.8398 67.2464 53.5538 64.5248Z" fill="#6D4B33"/>
<path d="M65.7413 57.4884C70.4552 54.7668 72.0703 48.7391 69.3487 44.0252C66.6271 39.3112 60.5994 37.6961 55.8855 40.4177C51.1715 43.1393 49.5564 49.167 52.278 53.881C54.9996 58.5949 61.0273 60.21 65.7413 57.4884Z" fill="#6D4B33"/>
<path d="M33.4246 63.8438C27.6324 53.1918 32.4207 42.8271 42.3572 37.0902C52.2938 31.3533 64.0081 33.033 69.7449 42.9696C70.9008 44.9749 71.7132 47.1593 72.1486 49.4325C73.4179 50.1775 74.475 51.2355 75.2187 52.5056C78.6491 58.4472 75.4704 66.9248 64.6699 72.4528C52.6391 78.6038 40.3192 76.8803 33.4246 63.8438Z" stroke="#553216" stroke-width="3" stroke-miterlimit="10"/>
<path d="M43.899 71.7963C42.9701 67.2406 48.4866 68.2652 53.7283 67.2025C58.97 66.1399 61.1819 63.7539 62.1147 68.3232C63.0476 72.8925 60.312 77.0636 55.0601 78.1361C49.8082 79.2086 44.8249 76.3537 43.899 71.7963Z" fill="#9B6540"/>
<path d="M60.7228 65.5613C60.7228 65.5613 53.5759 68.5428 49.1599 69.1009C44.7439 69.6589 43.2126 69.3545 43.2126 69.3545C43.2126 69.3545 48.4844 76.5783 54.3507 74.2567C56.0361 73.6047 57.5335 72.545 58.7092 71.1726C59.8848 69.8002 60.7019 68.1578 61.0874 66.3923L60.7228 65.5613Z" fill="#553216"/>
<path d="M54.8981 72.7124C53.9122 71.9771 52.7925 71.4408 51.6015 71.1336C54.9623 70.2625 56.9736 71.1643 58.0747 72.0868C57.0983 73.1552 55.888 73.9832 54.5384 74.5061C51.9188 75.5455 49.4373 74.3388 47.6809 72.9559C51.8102 70.6275 54.8981 72.7124 54.8981 72.7124Z" fill="#F37F8A"/>
<path fill-rule="evenodd" clip-rule="evenodd" d="M44.999 71.3401C44.3542 70.7306 43.7591 70.0706 43.2195 69.3663C43.2195 69.3663 44.7468 69.6571 49.1668 69.1127C52.9751 68.6312 58.816 66.3481 60.3355 65.7371C55.8348 70.3072 50.5912 72.468 44.999 71.3401Z" fill="white"/>
<path fill-rule="evenodd" clip-rule="evenodd" d="M45.4862 71.337C44.3734 70.2703 43.2195 69.3663 43.2195 69.3663C43.2195 69.3663 44.7468 69.6571 49.1668 69.1127C52.9751 68.6312 58.816 66.3481 60.3355 65.7371C57.06 70.3431 50.7482 72.5404 45.4862 71.337Z" stroke="#553216" stroke-width="2.73" stroke-miterlimit="10"/>
<path d="M62.3006 69.3886C62.4221 70.4864 62.3041 71.5974 61.9548 72.6451C61.5901 73.7121 61.0051 74.6904 60.2378 75.5166C58.6791 77.1632 56.6562 78.2964 54.438 78.7658C53.3171 79.0161 52.1575 79.0396 51.0275 78.8348C49.9076 78.6238 48.839 78.1989 47.8801 77.5832C45.9931 76.376 44.6015 74.5323 43.9577 72.3867C44.9413 74.2707 46.449 75.8299 48.2988 76.8763C50.0989 77.8815 52.203 78.1981 54.2192 77.7672C56.2576 77.342 58.1437 76.3753 59.679 74.9687C60.4375 74.2542 61.0565 73.4049 61.5043 72.464C61.9502 71.4942 62.2198 70.4529 62.3006 69.3886Z" fill="#553216"/>
<path d="M41.9326 68.9963C44.6245 69.0322 47.4696 76.707 55.0705 74.0438C60.6503 72.0864 61.2003 66.168 61.2003 66.168" stroke="#553216" stroke-width="2.73" stroke-miterlimit="10"/>
<path fill-rule="evenodd" clip-rule="evenodd" d="M50.5797 66.1624C51.1604 68.2559 49.1889 70.6383 46.2007 71.4731C43.2125 72.308 40.2929 71.3064 39.7156 69.1911C39.1383 67.0758 41.1065 64.7152 44.0947 63.8804C47.0829 63.0455 49.9914 64.0693 50.5797 66.1624Z" fill="#9B6540"/>
<path d="M50.6745 66.712C50.8045 67.1814 50.8066 67.677 50.6804 68.1475C50.5553 68.6269 50.346 69.0802 50.0622 69.4863C49.484 70.2891 48.7142 70.9344 47.8228 71.3635C46.9483 71.7924 45.995 72.0371 45.022 72.0822C44.062 72.1453 43.1032 71.9442 42.2495 71.5006C43.1491 71.5734 44.0544 71.519 44.9388 71.3392C45.79 71.1611 46.6155 70.8768 47.3958 70.4931C48.1636 70.1131 48.8643 69.6105 49.4703 69.0051C50.095 68.3806 50.515 67.5808 50.6745 66.712Z" fill="#553216"/>
<path d="M40.1788 66.5784C40.5745 65.6409 41.2489 64.8476 42.1107 64.3064C42.9689 63.7403 43.9391 63.3659 44.9551 63.2087C45.4674 63.1305 45.9865 63.1066 46.5039 63.1373C47.0209 63.1748 47.5305 63.2817 48.019 63.4551C48.5103 63.6245 48.9685 63.8777 49.3733 64.2036C49.7693 64.5273 50.0758 64.9469 50.2639 65.4225C49.5934 64.7697 48.7392 64.3377 47.816 64.1845C47.3701 64.1031 46.9181 64.0595 46.4648 64.0543C45.0895 64.0529 43.7312 64.3579 42.4884 64.9469C41.6278 65.3493 40.8458 65.9018 40.1788 66.5784Z" fill="#553216"/>
<path d="M40.5013 67.068C46.611 62.8132 50.5365 65.3645 49.3434 66.582C48.1503 67.7996 44.1916 65.2117 40.5013 67.068Z" fill="#B27A54"/>
<path d="M58.0708 14.5704C72.6717 12.6437 72.2069 20.9337 56.1566 28.4672C56.1566 28.4672 56.3082 33.1775 59.9726 35.0767C59.9726 35.0767 73.1546 30.1691 76.3486 20.9951C79.5426 11.821 67.1821 9.70356 58.0708 14.5704Z" fill="white"/>
<path d="M58.0708 14.5704C72.6717 12.6437 72.2069 20.9337 56.1566 28.4672C56.1566 28.4672 56.3082 33.1775 59.9726 35.0767C59.9726 35.0767 73.1546 30.1691 76.3486 20.9951C79.5426 11.821 67.1821 9.70356 58.0708 14.5704Z" fill="white"/>
<path fill-rule="evenodd" clip-rule="evenodd" d="M76.3426 20.9985C73.1486 30.1725 59.9666 35.0801 59.9666 35.0801C58.4952 34.2775 57.3697 32.9626 56.8037 31.3849C68.7258 28.5363 79.6977 16.3584 71.665 12.4697C75.5898 13.5188 77.9577 16.3533 76.3426 20.9985Z" fill="#B3CEFF"/>
<path d="M58.0708 14.5704C72.6717 12.6437 72.2069 20.9337 56.1566 28.4672C56.1566 28.4672 56.3082 33.1775 59.9726 35.0767C59.9726 35.0767 73.1546 30.1691 76.3486 20.9951C79.5426 11.821 67.1821 9.70356 58.0708 14.5704Z" stroke="#553216" stroke-width="2.26" stroke-miterlimit="10"/>
<path d="M36.7765 44.478C38.2426 47.7059 37.6626 51.1214 35.4728 52.1274C33.283 53.1333 30.3103 51.3237 28.8442 48.0958C27.378 44.8679 27.958 41.4523 30.1432 40.4452C32.3283 39.438 35.3027 41.2505 36.7765 44.478Z" fill="#9B6540"/>
<path d="M35.4727 52.1274C34.6523 52.772 33.4029 52.7699 32.4488 52.3429C31.483 51.9231 30.6239 51.2915 29.935 50.4949C29.2465 49.7149 28.6927 48.8255 28.2965 47.8634C27.8847 46.8988 27.6479 45.8685 27.5972 44.8208C27.5302 43.7408 27.753 42.6625 28.2425 41.6975C28.504 41.1981 28.8736 40.7633 29.3244 40.4249C29.7845 40.0861 30.3213 39.8663 30.8869 39.7852C31.9872 39.6713 33.0919 39.954 34.0024 40.5822C34.4497 40.861 34.8517 41.2067 35.1944 41.6072C35.5301 42.0104 35.7778 42.4794 35.9217 42.984C35.0531 42.3884 34.3735 41.7552 33.5801 41.2553C32.8266 40.7502 31.9176 40.5308 31.0167 40.6365C30.595 40.7042 30.197 40.8765 29.8592 41.1378C29.5098 41.3995 29.2252 41.7379 29.0271 42.127C28.6156 42.9506 28.4297 43.8685 28.4882 44.7874C28.5156 45.7353 28.7112 46.6709 29.0658 47.5504C29.4092 48.4413 29.8895 49.2731 30.4893 50.0159C31.083 50.7524 31.8337 51.347 32.6866 51.7564C33.554 52.1671 34.528 52.2968 35.4727 52.1274Z" fill="#553216"/>
<path d="M17.7224 37.8655C8.75038 49.5486 16.1621 53.2911 30.7145 43.1561C30.7145 43.1561 34.7209 45.6409 34.5305 49.7656C34.5305 49.7656 23.6923 58.726 14.1504 56.9051C4.60845 55.0842 8.94897 43.3244 17.7224 37.8655Z" fill="white"/>
<path d="M17.7224 37.8655C8.75038 49.5486 16.1621 53.2911 30.7145 43.1561C30.7145 43.1561 34.7209 45.6409 34.5305 49.7656C34.5305 49.7656 23.6923 58.726 14.1504 56.9051C4.60845 55.0842 8.94897 43.3244 17.7224 37.8655Z" fill="white"/>
<path fill-rule="evenodd" clip-rule="evenodd" d="M14.1533 56.9035C23.6953 58.7244 34.5334 49.764 34.5334 49.764C34.5757 48.0881 33.9995 46.4553 32.9147 45.1772C24.4867 54.0777 8.45435 57.4908 9.10303 48.5898C8.05216 52.5117 9.31998 55.9813 14.1533 56.9035Z" fill="#B3CEFF"/>
<path d="M17.7224 37.8655C8.75038 49.5486 16.1621 53.2911 30.7145 43.1561C30.7145 43.1561 34.7209 45.6409 34.5305 49.7656C34.5305 49.7656 23.6923 58.726 14.1504 56.9051C4.60845 55.0842 8.94897 43.3244 17.7224 37.8655Z" stroke="#553216" stroke-width="2.26" stroke-miterlimit="10"/>
<path d="M54.2705 34.3778C56.3329 37.2615 59.5808 38.467 61.5439 37.0752C63.507 35.6834 63.4262 32.2042 61.3697 29.3171C59.3133 26.43 56.0564 25.2297 54.0916 26.6185C52.1268 28.0073 52.2094 31.4895 54.2705 34.3778Z" fill="#9B6540"/>
<path d="M62.0299 36.6435C63.475 35.0499 63.2391 31.9425 61.3756 29.3137C59.3132 26.43 56.0623 25.2263 54.0975 26.6151C52.1327 28.0039 52.2152 31.486 54.2763 34.3744" stroke="#553216" stroke-width="2.26" stroke-miterlimit="10"/>
<path d="M64.3779 55.4095C68.0331 53.2991 69.2855 48.6252 67.1752 44.9699C65.0648 41.3147 60.3908 40.0623 56.7356 42.1726C53.0803 44.283 51.828 48.9569 53.9383 52.6122C56.0487 56.2674 60.7226 57.5198 64.3779 55.4095Z" fill="#B3CEFF"/>
<path d="M63.0989 55.0668C66.3063 53.215 67.4654 49.2178 65.6877 46.1388C63.9101 43.0598 59.8689 42.065 56.6615 43.9168C53.4541 45.7686 52.2951 49.7658 54.0727 52.8447C55.8504 55.9237 59.8915 56.9185 63.0989 55.0668Z" fill="white"/>
<path d="M61.8396 52.2521C62.6925 51.7596 62.7959 50.342 62.0706 49.0857C61.3453 47.8295 60.0659 47.2102 59.213 47.7026C58.3601 48.1951 58.2567 49.6127 58.982 50.8689C59.7073 52.1252 60.9867 52.7445 61.8396 52.2521Z" fill="#553216"/>
<path d="M64.3779 55.4095C68.0331 53.2991 69.2855 48.6252 67.1752 44.9699C65.0648 41.3147 60.3908 40.0623 56.7356 42.1726C53.0803 44.283 51.828 48.9569 53.9383 52.6122C56.0487 56.2674 60.7226 57.5198 64.3779 55.4095Z" stroke="#553216" stroke-width="2.26" stroke-miterlimit="10"/>
<path d="M68.0306 43.0848C66.782 42.0877 65.3418 41.3579 63.7994 40.9405C62.2876 40.53 60.6948 40.5219 59.1789 40.9171C57.6806 41.3061 56.3272 42.1207 55.2819 43.2624C54.7734 43.8324 54.3544 44.4764 54.0393 45.1723C53.7349 45.882 53.5332 46.6316 53.4404 47.3983L52.6646 47.3215C52.7861 45.5974 53.4716 43.9612 54.6153 42.6654C55.7702 41.3849 57.2908 40.4903 58.9711 40.1029C60.6271 39.707 62.3597 39.7704 63.9823 40.2864C65.5762 40.8036 66.9836 41.7765 68.0306 43.0848Z" fill="#553216"/>
<path d="M52.7837 62.1034C56.4389 59.9931 57.6913 55.3191 55.5809 51.6639C53.4706 48.0086 48.7966 46.7562 45.1414 48.8666C41.4861 50.977 40.2337 55.6509 42.3441 59.3062C44.4545 62.9614 49.1284 64.2138 52.7837 62.1034Z" fill="#B3CEFF"/>
<path d="M51.2948 61.7069C54.4297 59.8969 55.5038 55.8883 53.6939 52.7533C51.8839 49.6184 47.8753 48.5443 44.7403 50.3542C41.6053 52.1642 40.5312 56.1729 42.3412 59.3078C44.1512 62.4428 48.1598 63.5169 51.2948 61.7069Z" fill="white"/>
<path d="M52.7837 62.1034C56.4389 59.9931 57.6913 55.3191 55.5809 51.6639C53.4706 48.0086 48.7966 46.7562 45.1414 48.8666C41.4861 50.977 40.2337 55.6509 42.3441 59.3062C44.4545 62.9614 49.1284 64.2138 52.7837 62.1034Z" stroke="#553216" stroke-width="2.26" stroke-miterlimit="10"/>
<path d="M40.2959 59.0975C39.6894 57.5336 39.5563 55.8257 39.9132 54.1867C40.2767 52.5232 41.0881 50.9907 42.2599 49.7552C43.4335 48.4952 44.9657 47.6259 46.6493 47.2647C48.3451 46.9232 50.1062 47.1497 51.6604 47.9093L51.339 48.6195C50.6282 48.3178 49.8784 48.1177 49.1117 48.0253C48.3516 47.9501 47.5844 47.991 46.8364 48.1464C45.3265 48.4763 43.9441 49.2357 42.8559 50.3333C41.7494 51.4512 40.9558 52.8401 40.5545 54.3611C40.1447 55.9055 40.0567 57.5177 40.2959 59.0975Z" fill="#553216"/>
<path d="M50.304 58.8962C51.1569 58.4038 51.2603 56.9862 50.535 55.7299C49.8096 54.4736 48.5302 53.8544 47.6774 54.3468C46.8245 54.8392 46.721 56.2568 47.4464 57.5131C48.1717 58.7694 49.4511 59.3886 50.304 58.8962Z" fill="#553216"/>
<path fill-rule="evenodd" clip-rule="evenodd" d="M37.1013 51.6364L44.0152 43.129C34.2735 43.0413 37.1013 51.6364 37.1013 51.6364Z" fill="#553216"/>
<path fill-rule="evenodd" clip-rule="evenodd" d="M60.9215 37.8837L50.0969 39.6177C54.9037 31.1304 60.9215 37.8837 60.9215 37.8837Z" fill="#553216"/>
<path d="M63.8836 51.056C61.9422 52.1533 60.4003 53.8398 59.481 55.8716C57.2629 55.6505 55.0321 56.1421 53.1123 57.2749C48.5748 59.8946 48.2359 64.2441 50.4546 68.087C52.6733 71.9298 56.6095 73.8111 61.147 71.1914C63.088 70.0952 64.6291 68.409 65.5467 66.3776C67.7658 66.5973 69.9974 66.1053 71.9184 64.9726C76.4558 62.3529 76.7917 58.005 74.5731 54.1622C72.3544 50.3193 68.4211 48.4363 63.8836 51.056Z" fill="#FFB39C"/>
<path d="M71.4141 61.7856C69.4934 62.9189 67.2616 63.411 65.0424 63.1905C64.1244 65.2217 62.5834 66.9078 60.6428 68.0044C56.1053 70.6241 52.1707 68.7458 49.9503 64.8999C49.6269 64.3442 49.3549 63.7602 49.1377 63.155C49.0898 64.8918 49.5474 66.6052 50.4547 68.0869C52.6734 71.9297 56.6096 73.811 61.1471 71.1913C63.0881 70.0951 64.6292 68.409 65.5468 66.3775C67.7659 66.5972 69.9975 66.1052 71.9185 64.9725C75.7792 62.7435 76.5959 59.2629 75.3888 55.9053C75.2716 58.1671 74.0495 60.264 71.4141 61.7856Z" fill="#E58A76"/>
<path d="M63.8836 51.056C61.9422 52.1533 60.4003 53.8398 59.481 55.8716C57.2629 55.6505 55.0321 56.1421 53.1123 57.2749C48.5748 59.8946 48.2359 64.2441 50.4546 68.087C52.6733 71.9298 56.6095 73.8111 61.147 71.1914C63.088 70.0952 64.6291 68.409 65.5467 66.3776C67.7658 66.5973 69.9974 66.1053 71.9184 64.9726C76.4558 62.3529 76.7917 58.005 74.5731 54.1622C72.3544 50.3193 68.4211 48.4363 63.8836 51.056Z" stroke="#553216" stroke-width="3" stroke-miterlimit="10"/>
<path d="M61.1843 60.7355C61.7114 63.4522 58.7706 66.3108 54.6132 67.1171C50.4557 67.9234 46.6597 66.3745 46.1361 63.6638C45.6125 60.953 48.5486 58.0932 52.7043 57.2839C56.86 56.4746 60.6508 58.0145 61.1843 60.7355Z" fill="#FFB39C"/>
<path d="M54.6084 67.1158C53.5977 67.6167 52.4725 67.8412 51.347 67.7666C51.062 67.7553 50.7782 67.7238 50.4977 67.6726C50.3605 67.6484 50.2204 67.626 50.0797 67.5958L49.6647 67.4897C49.3863 67.4168 49.1119 67.3298 48.8424 67.229C48.5715 67.1205 48.3067 66.9974 48.0491 66.8602C47.5182 66.5831 47.0344 66.2239 46.6157 65.7957C46.193 65.3356 45.8768 64.7879 45.6896 64.1918C45.513 63.5959 45.4706 62.9683 45.5654 62.354C45.6603 61.7398 45.8901 61.1542 46.2383 60.6394C46.8757 59.6661 47.7332 58.8564 48.7415 58.2759C49.7099 57.7017 50.7598 57.2778 51.8555 57.0187C52.9387 56.7562 54.0565 56.6662 55.1677 56.752C56.2702 56.8245 57.3432 57.1387 58.3106 57.6722C57.2778 57.4221 56.2152 57.3172 55.1534 57.3605C54.111 57.4014 53.0771 57.566 52.0735 57.8507C51.0818 58.1315 50.1387 58.5621 49.2769 59.1275C48.4317 59.6579 47.7179 60.3731 47.1892 61.2192C46.9455 61.6179 46.7809 62.0598 46.7044 62.5207C46.6222 62.9618 46.651 63.4165 46.7884 63.8436C47.1203 64.723 47.7646 65.4492 48.5981 65.8834C49.4862 66.3602 50.4571 66.6632 51.4587 66.7759C52.4484 66.9478 53.493 67.0085 54.6084 67.1158Z" fill="#553216"/>
<path d="M57.9981 61.0486C58.2363 62.2666 56.411 63.6424 53.9247 64.1278C51.4384 64.6133 49.2324 64.0147 48.9943 62.7967C48.7561 61.5787 50.5814 60.2029 53.0694 59.7204C55.5575 59.2379 57.7617 59.8336 57.9981 61.0486Z" fill="#553216"/>
<path d="M63.7006 58.746C65.4075 60.2291 68.6285 59.3155 70.8948 56.7072C73.1612 54.0988 73.6105 50.7667 71.9122 49.2986C70.214 47.8305 66.9844 48.7292 64.718 51.3375C62.4516 53.9458 61.9984 57.2643 63.7006 58.746Z" fill="#FFB39C"/>
<path d="M70.9001 56.7161C71.2382 55.849 71.5888 55.0862 71.8902 54.3C72.2078 53.556 72.3813 52.7584 72.4015 51.9497C72.44 51.2095 72.1975 50.482 71.7225 49.913C71.4723 49.6548 71.1698 49.453 70.8352 49.3212C70.5007 49.1894 70.1418 49.1306 69.7827 49.1488C68.9831 49.1734 68.1996 49.3797 67.4916 49.7521C66.7461 50.1219 66.0619 50.604 65.4629 51.1817C64.2101 52.3643 63.2696 53.8386 62.7254 55.4732C62.7174 54.5657 62.9173 53.6684 63.3098 52.8502C63.6964 52.0199 64.2147 51.2576 64.8446 50.5927C65.4796 49.9089 66.2168 49.3277 67.0299 48.8698C67.8606 48.3846 68.7929 48.0995 69.753 48.037C70.2732 47.9982 70.7955 48.0756 71.2821 48.2635C71.7687 48.4514 72.2074 48.7452 72.5665 49.1236C72.9218 49.5115 73.1879 49.9725 73.3463 50.4741C73.4836 50.9573 73.5439 51.459 73.525 51.9609C73.5058 52.4411 73.4298 52.9173 73.2986 53.3796C73.2392 53.6079 73.1656 53.8322 73.0782 54.0513C73 54.2713 72.9056 54.4853 72.7959 54.6914C72.376 55.5375 71.7168 56.2415 70.9001 56.7161Z" fill="#553216"/>
<path d="M65.2237 56.6266C66.0003 57.2832 67.7076 56.5638 69.0576 55.0053C70.4077 53.4467 70.8962 51.6422 70.1315 50.9787C69.3668 50.3151 67.6506 51.0397 66.2975 52.6C64.9445 54.1602 64.459 55.963 65.2237 56.6266Z" fill="#553216"/>
<path d="M32.4079 53.0223C23.1039 53.1628 21.318 63.0821 21.318 63.0821C21.318 63.0821 29.3826 67.0121 34.0558 60.3588C38.7291 53.7056 32.4079 53.0223 32.4079 53.0223Z" fill="#9B6540"/>
<path d="M31.3139 55.6096C26.5264 55.6826 24.4014 61.4688 24.4014 61.4688C24.4014 61.4688 29.758 62.8084 32.1599 59.3745C34.5618 55.9406 31.3139 55.6096 31.3139 55.6096Z" fill="#FFB39C"/>
<path d="M31.3139 55.6096C26.5264 55.6826 24.4014 61.4688 24.4014 61.4688C24.4014 61.4688 29.758 62.8084 32.1599 59.3745C34.5618 55.9406 31.3139 55.6096 31.3139 55.6096Z" stroke="#553216" stroke-width="2.3" stroke-miterlimit="10"/>
<path d="M32.408 53.0224C31.736 53.2355 31.0836 53.3378 30.4408 53.4983C29.7972 53.6341 29.1676 53.8299 28.5604 54.0831C27.3528 54.5941 26.2601 55.3426 25.3473 56.284C24.4318 57.2191 23.6683 58.2917 23.0843 59.4628C22.4788 60.6297 22.0195 61.8668 21.7168 63.1461L21.5066 62.7269C22.1225 62.9791 22.7556 63.1875 23.4009 63.3504C24.0503 63.5086 24.709 63.6262 25.3731 63.7024C26.6885 63.8606 28.0222 63.7554 29.2966 63.3929C30.5645 63.0245 31.7244 62.3549 32.6773 61.441C32.9231 61.2196 33.1359 60.9616 33.3684 60.724C33.6009 60.4864 33.8085 60.2195 34.0191 59.9508C34.4502 59.4237 34.8602 58.8809 35.2843 58.3141C35.1227 59.0046 34.8577 59.6668 34.4984 60.2783C34.3268 60.5801 34.1279 60.8897 33.9165 61.1707C32.8079 62.6138 31.2911 63.6903 29.563 64.2606C28.1702 64.6787 26.705 64.7987 25.2627 64.6128C24.5535 64.5338 23.8525 64.3932 23.1677 64.1926C22.4713 64.0053 21.7937 63.7537 21.1438 63.4411L20.8798 63.3074L20.9319 63.0189C21.0647 62.3294 21.253 61.6517 21.495 60.9925C21.7269 60.3365 22.0051 59.6977 22.3273 59.081C22.9666 57.8375 23.8003 56.704 24.797 55.7233C25.8098 54.7478 27.0088 53.9866 28.3225 53.4851C29.6253 53.0151 31.0436 52.6971 32.408 53.0224Z" fill="#553216"/>
</g>
</g>
<path d="M109.006 74.2459C108.921 74.5494 108.868 74.8611 108.848 75.176L108.817 75.3313C108.827 75.7556 108.898 76.1766 109.027 76.5815C109.021 78.7812 108.811 80.9748 108.402 83.1341C108.004 85.6883 107.413 88.2076 106.635 90.6706C105.751 93.1915 104.736 95.6638 103.594 98.0774C102.47 100.636 101.371 103.21 100.169 105.738C99.044 108.127 97.7683 110.441 96.3497 112.666C95.2048 114.771 93.5378 116.542 91.5091 117.81C90.6657 118.209 89.7301 118.376 88.7989 118.292C87.8677 118.209 86.9746 117.877 86.2116 117.333C86.6989 117.451 87.2078 117.442 87.6894 117.306C88.1711 117.17 88.6094 116.913 88.9627 116.559C88.9874 116.538 89.006 116.51 89.0166 116.48C89.0273 116.449 89.0296 116.416 89.0233 116.384C89.0171 116.352 89.0025 116.322 88.981 116.297C88.9596 116.273 88.932 116.254 88.9012 116.244C86.1465 115.247 83.81 113.338 82.2785 110.834C80.7471 108.329 80.1126 105.379 80.4801 102.472C81.4888 100.201 82.7321 98.0433 84.1897 96.0338C86.2007 92.7046 88.0417 89.2746 89.7054 85.7569C90.5163 84.0969 91.3205 82.4255 92.1068 80.7492C92.7844 79.3038 93.4024 77.7558 94.0933 76.3331C92.8073 75.5552 91.5213 74.7772 90.2581 73.986C87.0434 72.0721 83.9641 69.9374 81.0423 67.5972C79.7341 66.6964 78.7126 65.4361 78.1013 63.9687C77.7105 62.4485 77.7793 60.8482 78.2989 59.3715C79.5093 56.0233 81.3011 52.9184 83.5916 50.1998C83.645 50.014 83.712 49.8325 83.792 49.6566C84.2951 48.9932 84.8424 48.3647 85.4301 47.7755C85.897 47.2589 86.4296 46.8061 87.0144 46.4287C87.4819 46.3387 87.942 46.2143 88.3909 46.0564C88.7103 46.1206 89.0126 46.2524 89.2776 46.443C89.5425 46.6336 89.7641 46.8785 89.9275 47.1614C90.8793 48.5693 91.6354 50.1 92.1748 51.7112C92.8881 53.5046 93.4881 55.3408 93.9713 57.2088C94.3169 58.7075 94.4245 60.2505 94.2899 61.7807C94.2313 61.9749 94.159 62.1646 94.0735 62.3485C92.7953 62.6027 91.4887 62.5991 90.2067 62.7946C89.8832 62.9745 89.5444 63.1253 89.1942 63.2452C88.7905 63.4413 88.3622 63.5823 87.9207 63.6645C88.098 63.8355 88.2242 64.0528 88.2849 64.2916C88.3246 64.36 88.3378 64.3828 88.2178 64.4373C87.9922 64.5622 87.7509 64.6561 87.5002 64.7167C90.0323 65.6554 92.5692 66.5761 95.1873 67.2972C96.5772 67.6794 97.9737 68.073 99.3797 68.4306C100.634 68.9108 101.928 69.277 103.246 69.5248C104.188 69.4478 105.136 69.5138 106.06 69.7206C106.949 70.0757 107.703 70.7063 108.212 71.5203C108.776 72.3138 109.056 73.2748 109.006 74.2459Z" fill="#4D3415"/>
<path d="M88.6384 54.4506C88.0831 53.024 87.7253 51.5287 87.5748 50.0064C87.5426 49.5067 87.6893 45.5794 88.8609 46.5001C89.8247 47.4288 90.5492 48.5781 90.9718 49.8483C91.5509 51.1763 92.0645 52.5317 92.5109 53.9098C93.0455 55.3526 93.4563 56.8381 93.739 58.35C93.8828 59.538 93.903 60.7372 93.7993 61.9284C91.3383 60.0399 89.532 57.4227 88.6384 54.4506Z" fill="#373938"/>
<path d="M84.0613 54.379C83.7661 53.5693 83.6656 52.702 83.768 51.8477C83.8703 50.9934 84.1726 50.1764 84.6503 49.4631C85.4764 48.4874 86.3965 47.5957 87.3973 46.8009C87.1253 47.5999 87.0081 48.4441 87.0517 49.2885C87.1432 50.9315 87.49 52.5511 88.0795 54.089C89.0047 57.2346 90.8808 60.0186 93.4484 62.0558C92.4009 62.2371 91.3146 62.2732 90.2339 62.3975C90.2272 62.3715 90.2135 62.3478 90.1942 62.3291C87.2153 60.5575 85.0209 57.7128 84.0613 54.379Z" fill="#626361"/>
<g style="mix-blend-mode:multiply">
<path d="M84.4093 54.116C84.8063 55.5447 85.5633 56.8484 86.6073 57.9016C88.0484 59.0773 88.8462 58.3092 89.3726 57.0735C90.3181 59.0368 91.7247 60.7421 93.4712 62.0425C92.4236 62.2239 91.3373 62.26 90.2567 62.3843C90.25 62.3583 90.2362 62.3346 90.217 62.3159C87.2189 60.5384 85.0133 57.6752 84.0576 54.3202C83.8446 53.5395 83.7488 52.7318 83.7735 51.9238C84.0544 52.7211 84.1699 53.4164 84.4093 54.116Z" fill="#626361"/>
</g>
<path d="M107.526 77.2091C107.436 77.368 107.824 77.5393 107.92 77.3919C108.155 77.0166 108.364 76.6254 108.545 76.2211C108.555 78.3042 108.376 80.3831 108.01 82.432C107.628 84.9227 107.069 87.3821 106.337 89.7915C105.606 92.1372 104.506 94.3457 103.618 96.6301C102.73 98.9144 101.761 100.956 100.793 103.103C99.799 105.328 98.6898 107.498 97.4705 109.607C96.3431 111.807 94.9543 113.863 93.3344 115.728C91.4363 117.684 88.9821 118.682 86.5302 117.072C84.7593 115.835 83.295 114.207 82.2511 112.314C80.8452 109.779 80.2644 106.869 80.5901 103.994C80.985 102.341 81.7071 100.786 82.7137 99.4217C83.6031 97.9753 84.5284 96.5385 85.3866 95.0644C87.2362 91.9017 88.9024 88.6321 90.4835 85.3204C91.2764 83.6555 92.0807 81.9841 92.849 80.3031C93.4066 79.095 94.0388 77.8589 94.516 76.5908C95.5495 77.1952 96.6057 77.7864 97.6619 78.3776L96.2681 77.3878C95.7632 77.0406 95.2582 76.6935 94.7486 76.3643C94.7045 76.3422 94.6633 76.315 94.6256 76.2832L94.1831 75.9913C93.056 75.304 91.8835 74.6431 90.8131 73.923C87.7257 72.101 84.7589 70.0804 81.9312 67.8739C80.5705 66.7582 78.9091 65.5426 78.5456 63.7411C78.2416 62.0593 78.4389 60.3272 79.1129 58.7616C80.2839 56.114 81.6898 53.5781 83.3139 51.1844C83.1996 52.2333 83.3002 53.2955 83.6095 54.3059C84.6137 57.6801 86.8298 60.5659 89.8285 62.4043C89.4503 62.636 89.0387 62.8082 88.608 62.9147C88.2707 63.0737 87.9142 63.1884 87.5473 63.2562C87.2456 63.0502 86.9099 62.8639 86.666 62.7311L86.5762 62.707C86.74 62.9099 86.8931 63.1213 87.0348 63.3403L87.5171 63.7006C88.1261 64.2008 87.1627 64.318 86.7864 64.3231C86.7705 64.3242 86.7551 64.3289 86.7413 64.3369C86.7276 64.3449 86.7158 64.3559 86.707 64.3692C86.1888 64.3651 85.683 64.2776 85.129 64.2639C84.824 64.2537 84.5197 64.2268 84.2175 64.1832C84.4388 64.3292 84.6648 64.4572 84.9087 64.59C85.1527 64.7227 85.7304 64.6465 86.1643 64.7147C86.5351 64.7714 86.9116 64.7784 87.2838 64.7356C89.3729 65.6397 91.5063 66.4365 93.6755 67.1229C96.149 67.8823 98.7132 68.4059 101.154 69.2912C102.057 69.6559 103.019 69.8518 103.992 69.8691C105.168 69.8571 106.365 69.8024 107.262 70.7456C108.984 72.7187 108.679 75.015 107.526 77.2091Z" fill="#B07A4B"/>
<path d="M85.8184 95.3164C87.6775 92.1376 89.3502 88.8547 90.9347 85.5358L90.9349 85.5354C91.0681 85.2558 91.2016 84.9758 91.3354 84.6955C91.9968 83.3092 92.6626 81.9136 93.3033 80.5117C93.4459 80.203 93.5954 79.8882 93.7473 79.5685C94.0944 78.8376 94.4536 78.0816 94.768 77.3154C95.6433 77.8206 96.531 78.3175 97.4154 78.8126L97.4177 78.8139L97.9514 77.9699L96.5576 76.9801L96.5577 76.9801L96.5514 76.9758L96.5485 76.9738C96.0455 76.628 95.5356 76.2774 95.0198 75.9443L94.9969 75.9294L94.9724 75.9172C94.9639 75.9129 94.9559 75.9076 94.9485 75.9014L94.9258 75.8822L94.901 75.8658L94.4584 75.5739L94.451 75.569L94.4434 75.5644C94.0864 75.3467 93.7296 75.1343 93.3756 74.9237C92.5917 74.4572 91.8215 73.9988 91.0922 73.5081L91.0799 73.4999L91.0672 73.4923C88.0002 71.6824 85.0527 69.6752 82.2435 67.4834C82.1309 67.3911 82.0177 67.2992 81.9045 67.2074C81.3181 66.7313 80.732 66.2556 80.2281 65.7215C79.6325 65.0904 79.1937 64.419 79.0367 63.647C78.7516 62.0641 78.9376 60.4344 79.5712 58.9616C80.5036 56.8537 81.5865 54.8174 82.8112 52.8684C82.8659 53.4033 82.9727 53.9332 83.1308 54.4503C84.084 57.6517 86.0914 60.4283 88.8107 62.3343C88.7047 62.3706 88.597 62.4024 88.4879 62.4294L88.4398 62.4413L88.3949 62.4624C88.1556 62.5752 87.9054 62.6628 87.6483 62.724C87.3782 62.5517 87.1048 62.4007 86.905 62.292L86.8528 62.2636L86.7954 62.2482L86.7056 62.2241L85.2219 61.8264L86.1872 63.0212C86.3401 63.2105 86.4829 63.4076 86.615 63.6119L86.6637 63.6871L86.7356 63.7408L86.8431 63.8211C86.82 63.8222 86.7987 63.8229 86.7797 63.8231L86.7652 63.8233L86.7508 63.8243C86.6885 63.8288 86.6273 63.8429 86.5696 63.8659C86.3805 63.8589 86.1875 63.8417 85.9775 63.8223L85.9427 63.819C85.6959 63.7962 85.4264 63.7712 85.1435 63.7641C84.8576 63.7545 84.5722 63.7292 84.2888 63.6883L83.9422 64.6006C84.1814 64.7584 84.4221 64.8944 84.6697 65.0291C84.8113 65.1062 84.9652 65.1362 85.0813 65.1516C85.2041 65.1678 85.3347 65.1733 85.452 65.1764C85.5048 65.1778 85.5552 65.1788 85.6035 65.1798C85.7913 65.1836 85.9475 65.1868 86.0867 65.2087L86.0888 65.209C86.4583 65.2654 86.8328 65.2778 87.2046 65.246C89.2712 66.1356 91.3806 66.9211 93.5247 67.5997L93.5288 67.6009C94.521 67.9055 95.5294 68.173 96.5277 68.4379C96.7851 68.5061 97.0419 68.5743 97.2975 68.6428C98.5477 68.9779 99.7786 69.3248 100.975 69.7582C101.933 70.1436 102.952 70.3507 103.983 70.369L103.983 70.3692L103.997 70.3691L104.062 70.3684C105.261 70.3559 106.186 70.3462 106.892 71.0826C107.667 71.9744 107.976 72.9211 107.972 73.8922C107.967 74.8787 107.638 75.9192 107.085 76.9721C106.951 77.2179 107.022 77.4631 107.126 77.6118C107.219 77.7443 107.346 77.8251 107.447 77.8709C107.551 77.9182 107.685 77.9538 107.828 77.9473C107.88 77.945 107.944 77.9358 108.011 77.9141C107.944 79.3998 107.78 80.8797 107.518 82.3439L107.517 82.3439L107.516 82.3561C107.137 84.8228 106.584 87.2584 105.859 89.6445C105.4 91.1176 104.804 92.509 104.198 93.9263C103.845 94.7513 103.488 95.5851 103.152 96.4489C102.452 98.2501 101.702 99.8963 100.936 101.579C100.738 102.015 100.538 102.453 100.338 102.898L100.337 102.899C99.3496 105.108 98.2483 107.263 97.0377 109.356L97.0313 109.367L97.0255 109.379C95.9185 111.539 94.5556 113.558 92.9661 115.39C92.0598 116.321 91.0526 116.991 90.0174 117.253C88.9984 117.51 87.9179 117.383 86.8105 116.658C85.1051 115.466 83.6947 113.897 82.6889 112.073L82.6883 112.072C81.3378 109.636 80.7771 106.842 81.0836 104.08C81.4644 102.504 82.1554 101.021 83.1161 99.7185L83.1286 99.7015L83.1396 99.6836C83.4178 99.2312 83.7012 98.777 83.9861 98.3205C84.6041 97.3302 85.2284 96.3298 85.8184 95.3164ZM85.8184 95.3164C85.8183 95.3165 85.8183 95.3167 85.8182 95.3168L85.3866 95.0644L85.8187 95.316C85.8186 95.3161 85.8185 95.3163 85.8184 95.3164Z" fill="#B07A4B" stroke="#553216"/>
<g style="mix-blend-mode:multiply" opacity="0.4">
<path d="M107.526 77.2092C107.436 77.3681 107.823 77.5394 107.92 77.3919C108.155 77.0167 108.364 76.6255 108.545 76.2211C108.555 78.3043 108.376 80.3832 108.01 82.432C107.628 84.9228 107.069 87.3822 106.337 89.7916C105.605 92.1373 104.506 94.3458 103.618 96.6302C102.73 98.9145 101.761 100.956 100.793 103.103C99.7988 105.328 98.6897 107.498 97.4704 109.607C96.3429 111.808 94.9542 113.863 93.3343 115.728C91.4362 117.684 88.982 118.682 86.5301 117.072C84.7592 115.835 83.2949 114.207 82.2509 112.314C81.1725 110.277 80.5645 108.025 80.4722 105.724C80.6857 106.927 81.05 108.098 81.5563 109.211C82.733 111.76 84.7483 114.264 87.7445 114.644C87.7756 114.644 87.8062 114.636 87.8334 114.621C87.8606 114.606 87.8836 114.584 87.9001 114.558C87.9166 114.532 87.9262 114.502 87.9279 114.47C87.9296 114.439 87.9234 114.408 87.9099 114.38C87.1253 113.215 86.4415 111.985 85.866 110.703C86.3929 111.362 87.0517 111.903 87.7996 112.291C88.5475 112.679 89.3678 112.905 90.2071 112.955C90.2382 112.955 90.2688 112.947 90.296 112.932C90.3232 112.917 90.3462 112.895 90.3627 112.869C90.3792 112.843 90.3888 112.813 90.3905 112.781C90.3922 112.75 90.386 112.719 90.3725 112.691C90.0156 112.143 89.6102 111.628 89.1611 111.153C88.8168 110.743 88.0205 109.711 88.2738 109.077C88.4651 108.743 88.6806 108.424 88.9184 108.123C89.2709 107.476 89.6821 106.826 90.0611 106.224C91.9057 103.667 93.6083 101.009 95.1612 98.2624C98.0506 92.9455 99.9492 87.142 100.764 81.1349C100.774 81.0873 100.766 81.0378 100.742 80.9957C100.717 80.9536 100.678 80.922 100.632 80.9068C98.2006 80.5013 95.8899 79.5494 93.8733 78.1227C94.1184 77.6043 94.3433 77.0773 94.548 76.5417C95.5815 77.1461 96.6377 77.7373 97.6939 78.3285L96.3001 77.3387C95.7952 76.9916 95.2902 76.6444 94.7806 76.3152C94.7366 76.2932 94.6953 76.2659 94.6577 76.2341L94.2151 75.9422C93.9759 75.7914 93.73 75.6292 93.4795 75.4851C96.8371 76.7156 100.487 76.8803 103.932 75.957C104.143 77.0357 104.271 78.129 104.313 79.2268C104.323 79.3738 104.479 79.5119 104.622 79.3674C107.122 76.8795 105.896 73.0175 103.452 70.8991C103.431 70.8743 103.404 70.8555 103.373 70.8447C103.342 70.8339 103.309 70.8314 103.277 70.8376C103.245 70.8437 103.216 70.8582 103.191 70.8796C103.167 70.901 103.149 70.9285 103.138 70.9594C102.787 71.8953 102.592 72.8926 102.156 73.7864C102.03 73.1357 101.743 72.5264 101.321 72.0146C100.899 71.5028 100.356 71.105 99.7422 70.8577C97.8885 70.0963 95.9915 69.4464 94.0615 68.9113C91.5171 68.056 88.9444 67.3086 86.4586 66.2667C85.6671 65.9487 84.9117 65.6403 84.1391 65.2503L83.2749 64.8068C82.9279 64.6271 83.4033 64.0614 83.5139 63.8599C84.1254 62.8493 84.893 61.9767 85.5669 61.0213C85.5902 60.9791 85.5972 60.9297 85.5865 60.8825C85.5759 60.8353 85.5484 60.7935 85.5092 60.7652C84.546 60.2493 83.7057 59.5296 83.0466 58.6563C82.3876 57.7829 81.9258 56.7769 81.6932 55.7083C81.5967 55.3069 81.4605 54.8372 81.3715 54.3704C82.0293 53.2567 82.7231 52.1525 83.4121 51.0664C83.2978 52.1153 83.3984 53.1775 83.7077 54.188C84.7119 57.5621 86.928 60.4479 89.9267 62.2863C89.5485 62.5181 89.1369 62.6902 88.7062 62.7967C88.3688 62.9557 88.0123 63.0704 87.6454 63.1382C87.3438 62.9322 87.0081 62.7459 86.7642 62.6131L86.6743 62.5891C86.8382 62.7919 86.9913 63.0033 87.133 63.2223L87.6153 63.5826C88.2242 64.0828 87.2608 64.2 86.8845 64.2051C86.8687 64.2062 86.8533 64.211 86.8395 64.2189C86.8257 64.2269 86.814 64.238 86.8051 64.2512C86.287 64.2471 85.7812 64.1596 85.2271 64.1459C84.9222 64.1357 84.6179 64.1088 84.3157 64.0652C84.537 64.2112 84.763 64.3392 85.0069 64.472C85.2509 64.6048 85.8285 64.5285 86.2625 64.5967C86.6333 64.6534 87.0097 64.6604 87.3819 64.6176C89.4711 65.5217 91.6045 66.3185 93.7737 67.0049C96.2472 67.7643 98.8114 68.288 101.252 69.1732C102.155 69.5379 103.118 69.7338 104.09 69.7511C105.266 69.7391 106.463 69.6845 107.36 70.6276C108.983 72.7188 108.679 75.0151 107.526 77.2092Z" fill="#8E653F"/>
</g>
<circle cx="48" cy="48" r="47" stroke="white" stroke-width="2"/>
</g>
<mask id="mask2_135_211" style="mask-type:alpha" maskUnits="userSpaceOnUse" x="76" y="45" width="20" height="26">
<path d="M95.3565 58.2731L90.5069 46.7087C90.1776 45.9234 89.6075 45.1642 88.7567 45.1284C85.0701 44.9732 79.995 51.9957 77.2046 56.7586C76.737 57.5568 76.5932 58.4969 76.7636 59.4061L77.7056 64.4298C77.8946 65.4379 78.4636 66.3348 79.2951 66.9353L83.3 69.8277C85.2598 71.2432 88.0177 70.61 89.1638 68.4814L90.1332 66.6812C90.3755 66.2312 90.7018 65.8318 91.0943 65.5047L94.2284 62.8929C95.5784 61.768 96.0361 59.8937 95.3565 58.2731Z" fill="#D9D9D9"/>
</mask>
<g mask="url(#mask2_135_211)">
<path d="M109.006 74.2459C108.921 74.5494 108.868 74.8611 108.848 75.176L108.817 75.3313C108.827 75.7556 108.898 76.1766 109.027 76.5815C109.021 78.7812 108.811 80.9748 108.402 83.1341C108.004 85.6883 107.413 88.2076 106.635 90.6706C105.751 93.1915 104.736 95.6638 103.594 98.0774C102.47 100.636 101.371 103.21 100.169 105.738C99.044 108.127 97.7683 110.441 96.3497 112.666C95.2048 114.771 93.5378 116.542 91.5091 117.81C90.6657 118.209 89.7301 118.376 88.7989 118.292C87.8677 118.209 86.9746 117.877 86.2116 117.333C86.6989 117.451 87.2078 117.442 87.6894 117.306C88.1711 117.17 88.6094 116.913 88.9627 116.559C88.9874 116.538 89.006 116.51 89.0166 116.48C89.0273 116.449 89.0296 116.416 89.0233 116.384C89.0171 116.352 89.0025 116.322 88.981 116.297C88.9596 116.273 88.932 116.254 88.9012 116.244C86.1465 115.247 83.81 113.338 82.2785 110.834C80.7471 108.329 80.1126 105.379 80.4801 102.472C81.4888 100.201 82.7321 98.0433 84.1897 96.0338C86.2007 92.7046 88.0417 89.2746 89.7054 85.7569C90.5163 84.0969 91.3205 82.4255 92.1068 80.7492C92.7844 79.3038 93.4024 77.7558 94.0933 76.3331C92.8073 75.5552 91.5213 74.7772 90.2581 73.986C87.0434 72.0721 83.9641 69.9374 81.0423 67.5972C79.7341 66.6964 78.7126 65.4361 78.1013 63.9687C77.7105 62.4485 77.7793 60.8482 78.2989 59.3715C79.5093 56.0233 81.3011 52.9184 83.5916 50.1998C83.645 50.014 83.712 49.8325 83.792 49.6566C84.2951 48.9932 84.8424 48.3647 85.4301 47.7755C85.897 47.2589 86.4296 46.8061 87.0144 46.4287C87.4819 46.3387 87.942 46.2143 88.3909 46.0564C88.7103 46.1206 89.0126 46.2524 89.2776 46.443C89.5425 46.6336 89.7641 46.8785 89.9275 47.1614C90.8793 48.5693 91.6354 50.1 92.1748 51.7112C92.8881 53.5046 93.4881 55.3408 93.9713 57.2088C94.3169 58.7075 94.4245 60.2505 94.2899 61.7807C94.2313 61.9749 94.159 62.1646 94.0735 62.3485C92.7953 62.6027 91.4887 62.5991 90.2067 62.7946C89.8832 62.9745 89.5444 63.1253 89.1942 63.2452C88.7905 63.4413 88.3622 63.5823 87.9207 63.6645C88.098 63.8355 88.2242 64.0528 88.2849 64.2916C88.3246 64.36 88.3378 64.3828 88.2178 64.4373C87.9922 64.5622 87.7509 64.6561 87.5002 64.7167C90.0323 65.6554 92.5692 66.5761 95.1873 67.2972C96.5772 67.6794 97.9737 68.073 99.3797 68.4306C100.634 68.9108 101.928 69.277 103.246 69.5248C104.188 69.4478 105.136 69.5138 106.06 69.7206C106.949 70.0757 107.703 70.7063 108.212 71.5203C108.776 72.3138 109.056 73.2748 109.006 74.2459Z" fill="#4D3415"/>
<path d="M88.6384 54.4506C88.0831 53.024 87.7253 51.5287 87.5748 50.0064C87.5426 49.5067 87.6893 45.5794 88.8609 46.5001C89.8247 47.4288 90.5492 48.5781 90.9718 49.8483C91.5509 51.1763 92.0645 52.5317 92.5109 53.9098C93.0455 55.3526 93.4563 56.8381 93.739 58.35C93.8828 59.538 93.903 60.7372 93.7993 61.9284C91.3383 60.0399 89.532 57.4227 88.6384 54.4506Z" fill="#373938"/>
<path d="M84.0613 54.379C83.7661 53.5693 83.6656 52.702 83.768 51.8477C83.8703 50.9934 84.1726 50.1764 84.6503 49.4631C85.4764 48.4874 86.3965 47.5957 87.3973 46.8009C87.1253 47.5999 87.0081 48.4441 87.0517 49.2885C87.1432 50.9315 87.49 52.5511 88.0795 54.089C89.0047 57.2346 90.8808 60.0186 93.4484 62.0558C92.4009 62.2371 91.3146 62.2732 90.2339 62.3975C90.2272 62.3715 90.2135 62.3478 90.1942 62.3291C87.2153 60.5575 85.0209 57.7128 84.0613 54.379Z" fill="#626361"/>
<g style="mix-blend-mode:multiply">
<path d="M84.409 54.1161C84.8061 55.5448 85.5631 56.8486 86.607 57.9017C88.0481 59.0775 88.8459 58.3093 89.3723 57.0737C90.3178 59.0369 91.7245 60.7423 93.4709 62.0427C92.4234 62.224 91.3371 62.2601 90.2564 62.3844C90.2498 62.3584 90.236 62.3347 90.2167 62.316C87.2187 60.5386 85.0131 57.6753 84.0574 54.3203C83.8443 53.5396 83.7485 52.7319 83.7732 51.9239C84.0542 52.7213 84.1697 53.4165 84.409 54.1161Z" fill="#626361"/>
</g>
<path d="M107.525 77.2093C107.436 77.3681 107.823 77.5394 107.92 77.392C108.155 77.0167 108.363 76.6255 108.544 76.2212C108.555 78.3043 108.376 80.3832 108.01 82.4321C107.628 84.9228 107.068 87.3823 106.337 89.7916C105.605 92.1373 104.506 94.3459 103.618 96.6302C102.73 98.9145 101.761 100.956 100.793 103.103C99.7987 105.328 98.6896 107.498 97.4703 109.607C96.3428 111.808 94.9541 113.863 93.3342 115.728C91.4361 117.684 88.9819 118.682 86.53 117.072C84.7591 115.835 83.2947 114.207 82.2508 112.314C80.845 109.779 80.2642 106.869 80.5899 103.994C80.9847 102.341 81.7069 100.787 82.7134 99.4218C83.6028 97.9754 84.5281 96.5386 85.3863 95.0645C87.236 91.9018 88.9022 88.6322 90.4832 85.3205C91.2762 83.6557 92.0804 81.9842 92.8487 80.3032C93.4063 79.0951 94.0386 77.859 94.5158 76.5909C95.5493 77.1953 96.6055 77.7865 97.6617 78.3777L96.2679 77.3879C95.7629 77.0408 95.258 76.6936 94.7483 76.3644C94.7043 76.3424 94.663 76.3151 94.6254 76.2833L94.1829 75.9914C93.0557 75.3042 91.8832 74.6433 90.8128 73.9231C87.7255 72.1011 84.7586 70.0805 81.931 67.874C80.5702 66.7583 78.9088 65.5427 78.5454 63.7412C78.2413 62.0594 78.4386 60.3273 79.1126 58.7617C80.2836 56.1141 81.6896 53.5782 83.3137 51.1845C83.1994 52.2334 83.3 53.2956 83.6093 54.3061C84.6135 57.6802 86.8296 60.566 89.8282 62.4044C89.4501 62.6362 89.0385 62.8083 88.6077 62.9148C88.2704 63.0738 87.9139 63.1885 87.547 63.2563C87.2454 63.0503 86.9097 62.864 86.6657 62.7312L86.5759 62.7072C86.7398 62.91 86.8929 63.1214 87.0346 63.3404L87.5168 63.7007C88.1258 64.2009 87.1624 64.3182 86.7861 64.3232C86.7702 64.3243 86.7548 64.3291 86.7411 64.337C86.7273 64.345 86.7156 64.3561 86.7067 64.3693C86.1886 64.3652 85.6828 64.2777 85.1287 64.264C84.8237 64.2538 84.5195 64.2269 84.2173 64.1834C84.4386 64.3293 84.6645 64.4573 84.9085 64.5901C85.1525 64.7229 85.7301 64.6467 86.1641 64.7149C86.5349 64.7715 86.9113 64.7785 87.2835 64.7357C89.3727 65.6398 91.5061 66.4366 93.6753 67.1231C96.1488 67.8824 98.713 68.4061 101.153 69.2913C102.057 69.6561 103.019 69.8519 103.992 69.8692C105.168 69.8572 106.365 69.8026 107.261 70.7457C108.983 72.7189 108.678 75.0151 107.525 77.2093Z" fill="#B07A4B"/>
<path d="M85.8182 95.3165C87.6772 92.1377 89.35 88.8548 90.9345 85.5359L90.9347 85.5355C91.0678 85.2559 91.2014 84.9759 91.3352 84.6956C91.9966 83.3093 92.6624 81.9138 93.3031 80.5119C93.4456 80.2031 93.5952 79.8883 93.747 79.5686C94.0942 78.8378 94.4533 78.0817 94.7677 77.3155C95.643 77.8208 96.5308 78.3177 97.4151 78.8127L97.4175 78.814L97.9512 77.97L96.5574 76.9803L96.5574 76.9802L96.5512 76.9759L96.5482 76.9739C96.0453 76.6281 95.5353 76.2775 95.0196 75.9444L94.9966 75.9296L94.9722 75.9173C94.9637 75.9131 94.9556 75.9078 94.9483 75.9015L94.9255 75.8823L94.9007 75.866L94.4582 75.574L94.4508 75.5691L94.4432 75.5645C94.0861 75.3468 93.7294 75.1345 93.3754 74.9238C92.5915 74.4573 91.8212 73.9989 91.092 73.5082L91.0797 73.5L91.067 73.4925C87.9999 71.6825 85.0525 69.6753 82.2433 67.4835C82.1306 67.3912 82.0175 67.2993 81.9043 67.2075C81.3179 66.7315 80.7318 66.2557 80.2278 65.7217C79.6323 65.0905 79.1935 64.4191 79.0365 63.6472C78.7513 62.0642 78.9374 60.4345 79.5709 58.9617C80.5033 56.8538 81.5862 54.8175 82.8109 52.8685C82.8656 53.4034 82.9724 53.9333 83.1306 54.4504C84.0838 57.6518 86.0911 60.4284 88.8105 62.3344C88.7045 62.3708 88.5968 62.4025 88.4877 62.4295L88.4395 62.4414L88.3946 62.4625C88.1554 62.5753 87.9052 62.6629 87.648 62.7241C87.3779 62.5518 87.1046 62.4008 86.9048 62.2921L86.8526 62.2637L86.7952 62.2483L86.7054 62.2242L85.2217 61.8265L86.187 63.0214C86.3398 63.2106 86.4826 63.4077 86.6148 63.612L86.6635 63.6873L86.7353 63.7409L86.8428 63.8213C86.8198 63.8223 86.7985 63.823 86.7794 63.8232L86.765 63.8234L86.7505 63.8245C86.6882 63.8289 86.6271 63.843 86.5693 63.866C86.3802 63.859 86.1872 63.8418 85.9772 63.8224L85.9425 63.8192C85.6957 63.7963 85.4261 63.7713 85.1433 63.7642C84.8573 63.7546 84.572 63.7293 84.2886 63.6885L83.942 64.6007C84.1811 64.7585 84.4219 64.8945 84.6695 65.0292C84.811 65.1063 84.965 65.1363 85.081 65.1517C85.2038 65.1679 85.3345 65.1734 85.4518 65.1765C85.5045 65.1779 85.5549 65.1789 85.6032 65.1799C85.791 65.1837 85.9473 65.1869 86.0865 65.2088L86.0886 65.2091C86.458 65.2656 86.8325 65.278 87.2043 65.2461C89.271 66.1357 91.3803 66.9213 93.5244 67.5998L93.5286 67.601C94.5208 67.9056 95.5291 68.1731 96.5274 68.438C96.7849 68.5063 97.0416 68.5744 97.2973 68.6429C98.5474 68.978 99.7784 69.3249 100.975 69.7584C101.933 70.1438 102.952 70.3508 103.983 70.3692L103.983 70.3694L103.997 70.3692L104.061 70.3686C105.26 70.356 106.186 70.3464 106.892 71.0827C107.667 71.9746 107.976 72.9212 107.972 73.8923C107.967 74.8788 107.638 75.9194 107.085 76.9723C106.951 77.2181 107.022 77.4632 107.126 77.612C107.218 77.7445 107.346 77.8252 107.447 77.871C107.551 77.9183 107.684 77.9539 107.827 77.9475C107.88 77.9451 107.944 77.9359 108.011 77.9142C107.944 79.3999 107.779 80.8798 107.517 82.344L107.517 82.344L107.515 82.3563C107.137 84.8229 106.583 87.2586 105.859 89.6446C105.399 91.1177 104.804 92.5091 104.198 93.9264C103.845 94.7514 103.488 95.5852 103.152 96.449C102.451 98.2503 101.702 99.8964 100.936 101.579C100.737 102.015 100.538 102.454 100.337 102.898L100.337 102.899C99.3493 105.108 98.2481 107.263 97.0374 109.356L97.0311 109.367L97.0253 109.379C95.9183 111.54 94.5553 113.558 92.9658 115.39C92.0596 116.321 91.0523 116.991 90.0171 117.253C88.9982 117.51 87.9176 117.383 86.8103 116.658C85.1049 115.466 83.6945 113.897 82.6887 112.073L82.6881 112.072C81.3375 109.636 80.7768 106.842 81.0833 104.08C81.4641 102.504 82.1551 101.021 83.1158 99.7186L83.1283 99.7016L83.1394 99.6837C83.4175 99.2313 83.701 98.7771 83.9858 98.3207C84.6038 97.3303 85.2282 96.3299 85.8182 95.3165ZM85.8182 95.3165C85.8181 95.3167 85.818 95.3168 85.8179 95.317L85.3863 95.0645L85.8184 95.3161C85.8183 95.3162 85.8183 95.3164 85.8182 95.3165Z" fill="#B07A4B" stroke="#553216"/>
<g style="mix-blend-mode:multiply" opacity="0.4">
<path d="M107.526 77.2092C107.436 77.3681 107.823 77.5394 107.92 77.3919C108.155 77.0167 108.364 76.6255 108.545 76.2211C108.555 78.3043 108.376 80.3832 108.01 82.432C107.628 84.9228 107.069 87.3822 106.337 89.7916C105.605 92.1373 104.506 94.3458 103.618 96.6302C102.73 98.9145 101.761 100.956 100.793 103.103C99.7988 105.328 98.6897 107.498 97.4704 109.607C96.3429 111.808 94.9542 113.863 93.3343 115.728C91.4362 117.684 88.982 118.682 86.5301 117.072C84.7592 115.835 83.2949 114.207 82.2509 112.314C81.1725 110.277 80.5645 108.025 80.4722 105.724C80.6857 106.927 81.05 108.098 81.5563 109.211C82.733 111.76 84.7483 114.264 87.7445 114.644C87.7756 114.644 87.8062 114.636 87.8334 114.621C87.8606 114.606 87.8836 114.584 87.9001 114.558C87.9166 114.532 87.9262 114.502 87.9279 114.47C87.9296 114.439 87.9234 114.408 87.9099 114.38C87.1253 113.215 86.4415 111.985 85.866 110.703C86.3929 111.362 87.0517 111.903 87.7996 112.291C88.5475 112.679 89.3678 112.905 90.2071 112.955C90.2382 112.955 90.2688 112.947 90.296 112.932C90.3232 112.917 90.3462 112.895 90.3627 112.869C90.3792 112.843 90.3888 112.813 90.3905 112.781C90.3922 112.75 90.386 112.719 90.3725 112.691C90.0156 112.143 89.6102 111.628 89.1611 111.153C88.8168 110.743 88.0205 109.711 88.2738 109.077C88.4651 108.743 88.6806 108.424 88.9184 108.123C89.2709 107.476 89.6821 106.826 90.0611 106.224C91.9057 103.667 93.6083 101.009 95.1612 98.2624C98.0506 92.9455 99.9492 87.142 100.764 81.1349C100.774 81.0873 100.766 81.0378 100.742 80.9957C100.717 80.9536 100.678 80.922 100.632 80.9068C98.2006 80.5013 95.8899 79.5494 93.8733 78.1227C94.1184 77.6043 94.3433 77.0773 94.548 76.5417C95.5815 77.1461 96.6377 77.7373 97.6939 78.3285L96.3001 77.3387C95.7952 76.9916 95.2902 76.6444 94.7806 76.3152C94.7366 76.2932 94.6953 76.2659 94.6577 76.2341L94.2151 75.9422C93.9759 75.7914 93.73 75.6292 93.4795 75.4851C96.8371 76.7156 100.487 76.8803 103.932 75.957C104.143 77.0357 104.271 78.129 104.313 79.2268C104.323 79.3738 104.479 79.5119 104.622 79.3674C107.122 76.8795 105.896 73.0175 103.452 70.8991C103.431 70.8743 103.404 70.8555 103.373 70.8447C103.342 70.8339 103.309 70.8314 103.277 70.8376C103.245 70.8437 103.216 70.8582 103.191 70.8796C103.167 70.901 103.149 70.9285 103.138 70.9594C102.787 71.8953 102.592 72.8926 102.156 73.7864C102.03 73.1357 101.743 72.5264 101.321 72.0146C100.899 71.5028 100.356 71.105 99.7422 70.8577C97.8885 70.0963 95.9915 69.4464 94.0615 68.9113C91.5171 68.056 88.9444 67.3086 86.4586 66.2667C85.6671 65.9487 84.9117 65.6403 84.1391 65.2503L83.2749 64.8068C82.9279 64.6271 83.4033 64.0614 83.5139 63.8599C84.1254 62.8493 84.893 61.9767 85.5669 61.0213C85.5902 60.9791 85.5972 60.9297 85.5865 60.8825C85.5759 60.8353 85.5484 60.7935 85.5092 60.7652C84.546 60.2493 83.7057 59.5296 83.0466 58.6563C82.3876 57.7829 81.9258 56.7769 81.6932 55.7083C81.5967 55.3069 81.4605 54.8372 81.3715 54.3704C82.0293 53.2567 82.7231 52.1525 83.4121 51.0664C83.2978 52.1153 83.3984 53.1775 83.7077 54.188C84.7119 57.5621 86.928 60.4479 89.9267 62.2863C89.5485 62.5181 89.1369 62.6902 88.7062 62.7967C88.3688 62.9557 88.0123 63.0704 87.6454 63.1382C87.3438 62.9322 87.0081 62.7459 86.7642 62.6131L86.6743 62.5891C86.8382 62.7919 86.9913 63.0033 87.133 63.2223L87.6153 63.5826C88.2242 64.0828 87.2608 64.2 86.8845 64.2051C86.8687 64.2062 86.8533 64.211 86.8395 64.2189C86.8257 64.2269 86.814 64.238 86.8051 64.2512C86.287 64.2471 85.7812 64.1596 85.2271 64.1459C84.9222 64.1357 84.6179 64.1088 84.3157 64.0652C84.537 64.2112 84.763 64.3392 85.0069 64.472C85.2509 64.6048 85.8285 64.5285 86.2625 64.5967C86.6333 64.6534 87.0097 64.6604 87.3819 64.6176C89.4711 65.5217 91.6045 66.3185 93.7737 67.0049C96.2472 67.7643 98.8114 68.288 101.252 69.1732C102.155 69.5379 103.118 69.7338 104.09 69.7511C105.266 69.7391 106.463 69.6845 107.36 70.6276C108.983 72.7188 108.679 75.0151 107.526 77.2092Z" fill="#8E653F"/>
</g>
</g>
<mask id="mask3_135_211" style="mask-type:alpha" maskUnits="userSpaceOnUse" x="8" y="68" width="22" height="22">
<path d="M29.5 75C24.7 66.6 13.8333 67.5 9 69L8 77.5L14.5 84L21 85V85.5L28 89.5L29.5 75Z" fill="#D9D9D9"/>
</mask>
<g mask="url(#mask3_135_211)">
<path d="M15.3966 100.824C15.6455 100.963 15.8793 101.128 16.0942 101.317L16.2138 101.396C16.4793 101.674 16.7043 101.988 16.8819 102.329C18.2976 103.73 19.8388 104.996 21.4858 106.113C23.3792 107.488 25.3733 108.718 27.4509 109.791C29.6333 110.834 31.868 111.761 34.1461 112.57C36.5054 113.482 38.8593 114.421 41.249 115.263C43.5005 116.067 45.8003 116.726 48.1343 117.237C50.2159 117.846 52.417 117.908 54.5262 117.415C55.3214 117.129 56.0258 116.635 56.5667 115.984C57.1076 115.333 57.4655 114.549 57.6033 113.711C57.3677 114.099 57.0368 114.42 56.6423 114.642C56.2478 114.865 55.8027 114.982 55.3497 114.983C55.3204 114.985 55.291 114.979 55.2645 114.967C55.2379 114.954 55.2152 114.934 55.1987 114.91C55.1821 114.885 55.1723 114.857 55.1703 114.827C55.1682 114.798 55.1739 114.768 55.1869 114.742C56.3062 112.337 56.5734 109.619 55.9441 107.037C55.3148 104.455 53.8268 102.164 51.7266 100.543C49.6251 99.7402 47.4464 99.1601 45.226 98.8122C41.8053 97.9767 38.4286 96.9677 35.1087 95.7891C33.5256 95.2494 31.9394 94.6981 30.3616 94.1322C29.0013 93.644 27.6132 93.0521 26.259 92.5869C26.581 91.2649 26.903 89.9428 27.202 88.6269C28.0266 85.3416 28.6231 82.0023 28.9872 78.6329C29.2445 77.2182 29.0881 75.7578 28.5368 74.4283C27.8108 73.2069 26.7399 72.2291 25.4604 71.6194C22.5388 70.2581 19.402 69.4251 16.1947 69.159C16.0414 69.0746 15.8821 69.0016 15.7182 68.9407C14.9712 68.8399 14.2184 68.7897 13.4649 68.7906C12.8352 68.7604 12.2045 68.813 11.5889 68.9473C11.2326 69.1898 10.8589 69.4056 10.4709 69.5928C10.3082 69.8388 10.1997 70.117 10.1528 70.4087C10.1059 70.7005 10.1216 70.9991 10.1988 71.2846C10.4944 72.7945 10.9939 74.2572 11.6834 75.6323C12.3788 77.2353 13.1739 78.7929 14.0642 80.2959C14.8052 81.4748 15.7267 82.5291 16.7947 83.4199C16.9567 83.5064 17.1247 83.5811 17.2972 83.6437C18.2767 82.9858 19.1087 82.1449 20.0528 81.4471C20.3748 81.3543 20.688 81.2332 20.9886 81.0851C21.3723 80.9512 21.7362 80.7664 22.0709 80.5356C22.0674 80.7586 22.1263 80.9783 22.2408 81.1697C22.2593 81.2389 22.2655 81.262 22.3771 81.2197C22.6013 81.1548 22.8157 81.0599 23.0147 80.9377C22.0001 83.1621 20.9709 85.378 19.7617 87.5187C19.1194 88.6547 18.4802 89.8022 17.8119 90.9329C17.3193 92.0442 16.7279 93.1084 16.0451 94.1127C15.3942 94.6679 14.8308 95.3188 14.3739 96.0434C14.0337 96.841 13.9568 97.7277 14.1544 98.5738C14.3031 99.4428 14.7411 100.236 15.3966 100.824Z" fill="#4D3415"/>
<path d="M15.6995 75.1121C15.1386 73.8447 14.4075 72.6602 13.5267 71.5915C13.2266 71.2517 10.6127 68.8379 10.4553 70.1777C10.4358 71.3893 10.7106 72.5882 11.2559 73.6705C11.7384 74.8902 12.2802 76.0854 12.8795 77.2518C13.464 78.5163 14.155 79.7286 14.9446 80.8755C15.6152 81.7264 16.3719 82.5052 17.2025 83.1993C17.5622 80.414 17.0362 77.5835 15.6995 75.1121Z" fill="#373938"/>
<path d="M18.5765 72.1292C18.2453 71.4227 17.7529 70.8043 17.1394 70.3245C16.5258 69.8446 15.8084 69.5169 15.0456 69.3679C13.8919 69.2749 12.7321 69.2959 11.583 69.4307C12.2694 69.7663 12.886 70.2302 13.4 70.7975C14.3959 71.9053 15.2139 73.1622 15.8244 74.5226C17.2522 77.1251 17.8406 80.1069 17.5083 83.0556C18.2936 82.4991 19.0106 81.8251 19.7804 81.211C19.768 81.1901 19.7616 81.1661 19.7619 81.1418C20.5272 78.0988 20.1031 74.8739 18.5765 72.1292Z" fill="#626361"/>
<g style="mix-blend-mode:multiply">
<path d="M18.1857 72.1845C18.849 73.3517 19.2022 74.6701 19.2114 76.0125C19.0456 77.6882 18.0432 77.7096 16.9141 77.2583C17.5702 79.1188 17.7663 81.1106 17.4855 83.0618C18.2708 82.5053 18.9877 81.8313 19.7576 81.2172C19.7452 81.1963 19.7388 81.1723 19.7391 81.148C20.513 78.089 20.084 74.8451 18.5413 72.0893C18.1763 71.454 17.7191 70.8767 17.1849 70.3766C17.5171 71.0661 17.8896 71.5842 18.1857 72.1845Z" fill="#626361"/>
</g>
<path d="M18.2432 101.766C18.4025 101.81 18.2649 102.168 18.1087 102.136C17.7178 102.047 17.3335 101.931 16.9584 101.789C18.2884 103.126 19.7369 104.339 21.2857 105.412C23.1281 106.758 25.0634 107.97 27.0769 109.039C29.0493 110.067 31.1685 110.772 33.2017 111.661C35.2348 112.55 37.1635 113.232 39.1596 113.982C41.2221 114.764 43.3234 115.439 45.455 116.003C47.5874 116.685 49.7932 117.106 52.0248 117.258C54.492 117.288 56.6998 116.351 57.2321 113.749C57.5695 111.823 57.4599 109.844 56.9117 107.965C56.1824 105.443 54.6861 103.213 52.6327 101.585C51.3201 100.784 49.8613 100.254 48.3427 100.029C46.8465 99.6756 45.3335 99.3519 43.8396 98.9613C40.6288 98.1286 37.4665 97.1099 34.3316 96.0097C32.7569 95.4553 31.1706 94.9041 29.6012 94.3236C28.4699 93.91 27.2728 93.5263 26.1543 93.0228C25.8822 94.072 25.5871 95.1273 25.292 96.1827L25.5469 94.6561C25.6466 94.1104 25.7462 93.5647 25.8605 93.0274C25.8744 92.985 25.8833 92.9412 25.8869 92.8967L25.9822 92.4263C26.2609 91.2641 26.5856 90.0896 26.807 88.9428C27.6093 85.7981 28.2073 82.6038 28.597 79.3801C28.75 77.7944 29.0309 75.9519 28.1069 74.5682C27.2218 73.2991 25.9842 72.3196 24.5491 71.7524C22.1023 70.8131 19.577 70.0959 17.0038 69.6095C17.7499 70.206 18.3673 70.9489 18.8182 71.7927C20.3422 74.5918 20.779 77.8568 20.0438 80.9552C20.434 80.8605 20.8073 80.7063 21.1508 80.4979C21.4682 80.3829 21.7695 80.2274 22.0473 80.0352C22.1077 79.7101 22.2025 79.3757 22.2731 79.1344L22.315 79.0614C22.3405 79.2961 22.3784 79.5293 22.4285 79.7601L22.3517 80.2997C22.2839 81.0099 22.9743 80.4665 23.2178 80.2283C23.2287 80.2188 23.2416 80.2119 23.2555 80.2082C23.2694 80.2045 23.284 80.204 23.2981 80.2067C23.6264 79.8716 23.8933 79.4912 24.2383 79.1268C24.4265 78.9246 24.6035 78.7122 24.7686 78.4904C24.7209 78.7256 24.6587 78.9524 24.5882 79.1937C24.5176 79.4351 24.0998 79.7571 23.8664 80.0792C23.666 80.3533 23.4301 80.5994 23.1649 80.8109C22.411 82.7289 21.56 84.6068 20.6152 86.4373C19.5229 88.5095 18.2215 90.4894 17.2312 92.6208C16.8881 93.4337 16.3995 94.1762 15.7895 94.8114C15.0307 95.5585 14.2312 96.2917 14.264 97.4693C14.4305 99.8345 16.0989 101.105 18.2432 101.766Z" fill="#B07A4B"/>
<path d="M27.3098 108.596C25.3179 107.538 23.4033 106.34 21.5806 105.009L21.5706 105.001L21.5705 105.001C20.483 104.248 19.4458 103.424 18.4654 102.537C18.501 102.514 18.5314 102.489 18.5561 102.466C18.6583 102.373 18.7242 102.258 18.7626 102.155C18.7997 102.056 18.8313 101.914 18.8035 101.759C18.7721 101.584 18.6504 101.365 18.3859 101.287C17.3618 100.971 16.4917 100.521 15.863 99.9008C15.2452 99.2918 14.8402 98.5 14.7635 97.4451C14.743 96.543 15.3259 95.9693 16.1063 95.2011L16.1403 95.1677L16.1503 95.1579L16.1501 95.1577C16.8005 94.4805 17.3217 93.6894 17.6883 92.8236C18.1731 91.7813 18.7356 90.7716 19.3186 89.7557C19.4378 89.5482 19.5579 89.34 19.6784 89.1313C20.1461 88.3215 20.6189 87.5025 21.0575 86.6704L21.0595 86.6666L21.0595 86.6666C21.9923 84.8594 22.8344 83.0064 23.5827 81.1144C23.8398 80.8956 24.0705 80.6472 24.27 80.3743L24.2713 80.3726C24.3441 80.2721 24.439 80.1727 24.5561 80.0502C24.5865 80.0183 24.6185 79.9848 24.652 79.9494C24.725 79.8719 24.8064 79.7831 24.876 79.6918C24.9415 79.606 25.0247 79.4825 25.0681 79.3341C25.1398 79.0888 25.2067 78.8459 25.2586 78.5897L24.3675 78.1919C24.2137 78.3984 24.0489 78.5963 23.8736 78.7847C23.6965 78.9719 23.5396 79.1619 23.3969 79.3346L23.3765 79.3592C23.2571 79.5037 23.1476 79.6353 23.0348 79.7579C22.9958 79.7755 22.9589 79.7973 22.9246 79.8229L22.9361 79.7417L22.9171 79.6541C22.8708 79.4405 22.8357 79.2246 22.8121 79.0073L22.646 77.4802L21.8814 78.8125L21.8394 78.8855L21.8099 78.937L21.7932 78.9941C21.7367 79.1872 21.6609 79.4524 21.5993 79.7304C21.4036 79.85 21.1963 79.9496 20.9805 80.0278L20.9338 80.0447L20.8914 80.0704C20.8323 80.1063 20.7722 80.1403 20.7112 80.1724C21.2001 77.2288 20.6939 74.193 19.2583 71.5553C19.0475 71.1612 18.8028 70.7876 18.5275 70.4386C20.5124 70.893 22.464 71.4876 24.3676 72.2183C25.7084 72.7488 26.8654 73.664 27.6938 74.85C28.082 75.4335 28.2315 76.1338 28.2561 76.9141C28.2769 77.5752 28.2083 78.2514 28.1393 78.9317C28.126 79.063 28.1126 79.1945 28.0999 79.3261C27.7128 82.5263 27.119 85.6973 26.3225 88.8192L26.3188 88.8335L26.316 88.848C26.1655 89.6281 25.9683 90.4129 25.7672 91.2133C25.6763 91.5753 25.5846 91.9404 25.496 92.3097L25.4939 92.3183L25.4921 92.3271L25.3969 92.7975L25.391 92.8266L25.3886 92.8562C25.3882 92.8612 25.3872 92.8661 25.3857 92.8707L25.3771 92.8967L25.3714 92.9234C25.2557 93.4678 25.1549 94.0196 25.0557 94.563L25.055 94.5663L25.0537 94.5738L25.0537 94.5738L24.7988 96.1003L25.7736 96.3173L25.7742 96.3151C26.0164 95.4489 26.2596 94.5791 26.4903 93.7116C27.1689 93.9913 27.8675 94.238 28.542 94.4762C28.8437 94.5828 29.1406 94.6876 29.4287 94.7929C29.429 94.793 29.4292 94.7931 29.4295 94.7932L29.6012 94.3236C30.9065 94.8064 32.2234 95.2689 33.5356 95.7299C33.8012 95.8231 34.0665 95.9164 34.3316 96.0097L27.3098 108.596ZM27.3098 108.596C28.5468 109.241 29.8155 109.746 31.1104 110.261C31.8657 110.561 32.6299 110.865 33.4019 111.203C35.0038 111.903 36.5373 112.473 38.106 113.055C38.5129 113.207 38.9221 113.359 39.3355 113.514L39.3369 113.515C41.3832 114.291 43.468 114.96 45.5828 115.519L45.5952 115.522L45.6073 115.526C47.6969 116.195 49.8582 116.608 52.0447 116.758C53.215 116.771 54.278 116.553 55.0969 116.062C55.9014 115.579 56.5017 114.816 56.7408 113.656C57.0635 111.807 56.9578 109.908 56.4317 108.105L56.4314 108.104C55.7337 105.692 54.3055 103.557 52.3461 101.996C51.0973 101.238 49.7114 100.737 48.2692 100.523L48.2484 100.52L48.2279 100.515C47.7606 100.405 47.2885 100.297 46.8139 100.188C45.7835 99.9524 44.7417 99.7139 43.714 99.4453M27.3098 108.596L43.714 99.4453M43.714 99.4453C43.7137 99.4452 43.7134 99.4451 43.7131 99.445L43.8396 98.9613L43.714 99.4453Z" fill="#B07A4B" stroke="#553216"/>
<g style="mix-blend-mode:multiply" opacity="0.4">
<path d="M18.2434 101.766C18.4027 101.81 18.265 102.168 18.1088 102.136C17.718 102.047 17.3337 101.931 16.9586 101.789C18.2886 103.126 19.737 104.339 21.2859 105.412C23.1283 106.758 25.0636 107.97 27.0771 109.039C29.0494 110.067 31.1686 110.772 33.2018 111.661C35.235 112.55 37.1636 113.232 39.1597 113.982C41.2223 114.764 43.3236 115.439 45.4551 116.003C47.5875 116.684 49.7934 117.106 52.0249 117.257C54.4922 117.288 56.6999 116.351 57.2323 113.749C57.5697 111.823 57.46 109.844 56.9119 107.965C56.2933 105.972 55.236 104.143 53.8185 102.615C54.454 103.52 54.9733 104.502 55.3639 105.537C56.2483 107.92 56.5684 110.813 54.8986 112.978C54.8788 112.998 54.8543 113.013 54.8273 113.02C54.8003 113.028 54.7717 113.029 54.7442 113.023C54.7168 113.017 54.6913 113.004 54.6702 112.985C54.6492 112.966 54.6332 112.942 54.6237 112.916C54.377 111.668 54.0243 110.444 53.5694 109.256C53.6558 110.015 53.5823 110.783 53.3537 111.511C53.125 112.238 52.7463 112.909 52.2421 113.48C52.2223 113.5 52.1978 113.514 52.1708 113.522C52.1438 113.53 52.1152 113.531 52.0877 113.525C52.0603 113.518 52.0348 113.505 52.0137 113.487C51.9927 113.468 51.9767 113.444 51.9672 113.417C51.8435 112.838 51.7721 112.249 51.754 111.658C51.7107 111.175 51.557 110.005 50.9879 109.762C50.6518 109.672 50.3097 109.607 49.9642 109.567C49.324 109.38 48.6441 109.229 48.0162 109.088C45.1969 108.638 42.4038 108.034 39.6498 107.276C34.3926 105.735 29.4558 103.247 25.0803 99.9344C25.0436 99.9103 25.017 99.8734 25.0056 99.8309C24.9942 99.7883 24.9988 99.7431 25.0185 99.7038C26.3109 97.8845 27.1757 95.7939 27.5479 93.5886C27.0587 93.4148 26.5769 93.2226 26.1024 93.012C25.8303 94.0612 25.5352 95.1165 25.2401 96.1719L25.495 94.6453C25.5947 94.0996 25.6943 93.5539 25.8086 93.0166C25.8225 92.9743 25.8314 92.9304 25.835 92.8859L25.9303 92.4155C25.9863 92.1657 26.0392 91.9044 26.1067 91.6515C24.7522 94.592 22.5273 97.0393 19.7349 98.6604C20.292 99.485 20.9121 100.265 21.5895 100.993C21.6777 101.093 21.6667 101.282 21.4823 101.282C18.2897 101.297 16.5942 98.0436 16.7952 95.1228C16.7928 95.0933 16.7982 95.0638 16.8109 95.0372C16.8236 95.0106 16.843 94.9878 16.8673 94.9712C16.8916 94.9547 16.9199 94.9449 16.9492 94.9429C16.9786 94.9409 17.0079 94.9467 17.0343 94.9598C17.8594 95.3319 18.6236 95.8439 19.4761 96.1345C19.1389 95.6381 18.9312 95.0648 18.8721 94.4673C18.813 93.8699 18.9044 93.2675 19.1378 92.7155C19.833 91.0397 20.6273 89.4073 21.5164 87.827C22.5924 85.648 23.7557 83.5197 24.6745 81.2591C24.9758 80.5481 25.2603 79.8664 25.5034 79.1215L25.7707 78.2837C25.877 77.9463 25.2103 77.8901 25.0104 77.8325C23.9714 77.5795 22.9213 77.5148 21.8778 77.3372C21.8358 77.3252 21.7996 77.2981 21.7761 77.2611C21.7526 77.2242 21.7434 77.1798 21.7502 77.1366C22.0342 76.189 22.109 75.1902 21.9694 74.2095C21.8298 73.2289 21.4792 72.2901 20.9419 71.4584C20.746 71.1402 20.5315 70.7528 20.2888 70.3976C19.154 70.1085 18.0024 69.8486 16.8654 69.5972C17.6115 70.1937 18.2289 70.9366 18.6798 71.7803C20.2039 74.5795 20.6406 77.8445 19.9054 80.9428C20.2956 80.8481 20.669 80.6939 21.0124 80.4856C21.3298 80.3706 21.6311 80.2151 21.9089 80.0229C21.9693 79.6978 22.0641 79.3634 22.1347 79.122L22.1766 79.049C22.2022 79.2838 22.24 79.517 22.2901 79.7477L22.2133 80.2873C22.1455 80.9976 22.8359 80.4542 23.0794 80.2159C23.0903 80.2065 23.1032 80.1996 23.1171 80.1959C23.131 80.1921 23.1456 80.1916 23.1597 80.1944C23.488 79.8593 23.7549 79.4788 24.0999 79.1145C24.2881 78.9123 24.4651 78.6998 24.6302 78.4781C24.5825 78.7133 24.5203 78.9401 24.4498 79.1814C24.3792 79.4228 23.9614 79.7448 23.728 80.0669C23.5276 80.341 23.2917 80.587 23.0265 80.7986C22.2726 82.7166 21.4216 84.5945 20.4768 86.4249C19.3845 88.4971 18.0831 90.4771 17.0928 92.6085C16.7497 93.4214 16.2611 94.1638 15.6511 94.7991C14.8923 95.5461 14.0929 96.2794 14.1256 97.457C14.4307 99.8344 16.099 101.105 18.2434 101.766Z" fill="#8E653F"/>
</g>
</g>
<path d="M48.2558 99.2442L49.7929 97.7071C50.4229 97.0771 49.9767 96 49.0858 96H46.2038C45.3446 96 44.8854 97.0119 45.4512 97.6585L46.7961 99.1956C47.1771 99.6309 47.8468 99.6532 48.2558 99.2442Z" fill="#553216"/>
<path d="M48.4999 99.5C50.1666 101.833 53.1999 108.1 51.9999 114.5C50.7999 120.9 46.1666 128.5 43.9999 131.5C42.3332 133.667 39.4999 140.1 41.4999 148.5" stroke="#553216" stroke-width="2"/>
<defs>
<linearGradient id="paint0_linear_135_211" x1="48" y1="0" x2="48" y2="96" gradientUnits="userSpaceOnUse">
<stop stop-color="#FCBC3F"/>
<stop offset="1" stop-color="#F33C35"/>
</linearGradient>
<linearGradient id="paint1_linear_135_211" x1="48" y1="0" x2="48" y2="96" gradientUnits="userSpaceOnUse">
<stop stop-color="#FCBC3F"/>
<stop offset="1" stop-color="#F33C35"/>
</linearGradient>
<linearGradient id="paint2_linear_135_211" x1="38.3171" y1="33.9619" x2="78.0047" y2="102.703" gradientUnits="userSpaceOnUse">
<stop stop-color="#FCBC3F"/>
<stop offset="1" stop-color="#F33C35"/>
</linearGradient>
<clipPath id="clip0_135_211">
<rect width="130.638" height="120.71" fill="white" transform="translate(-41.7997 71.698) rotate(-30)"/>
</clipPath>
</defs>
</svg>
