<svg width="235" height="38" viewBox="0 0 235 38" fill="none" xmlns="http://www.w3.org/2000/svg">
<mask id="path-1-outside-1_33_117" maskUnits="userSpaceOnUse" x="-6" y="-7" width="247" height="51" fill="black">
<rect fill="white" x="-6" y="-7" width="247" height="51"/>
<path d="M13.4828 35.608C13.4828 36.024 12.5068 36.36 10.5547 36.616C8.60275 36.872 6.65075 37 4.69875 37C2.74675 37 1.49875 36.888 0.95475 36.664C0.41075 36.44 0.13875 36.088 0.13875 35.608V4.744C0.13875 3.208 4.74675 2.44 13.9628 2.44C19.5308 2.44 23.2108 2.824 25.0028 3.592C27.1788 4.488 28.6508 5.704 29.4188 7.24C30.4428 9.224 30.9548 11.768 30.9548 14.872C30.9548 19.128 30.2188 22.216 28.7468 24.136C27.6908 25.544 26.6348 26.456 25.5788 26.872C24.5228 27.288 23.6428 27.592 22.9388 27.784C22.2668 27.944 21.4188 28.072 20.3948 28.168C18.9868 28.296 17.0668 28.36 14.6348 28.36L13.4828 28.312V35.608ZM13.5308 20.344H14.6828C15.2908 20.344 15.7708 20.264 16.1228 20.104C16.4748 19.912 16.7788 19.432 17.0348 18.664C17.3228 17.864 17.4668 16.76 17.4668 15.352C17.4668 13.912 17.3068 12.824 16.9868 12.088C16.6988 11.32 16.3948 10.872 16.0748 10.744C15.7868 10.584 15.4348 10.504 15.0188 10.504H13.5308V20.344ZM42.9563 37.432C40.0443 37.432 37.7563 36.744 36.0923 35.368C35.4203 34.792 34.8283 33.944 34.3163 32.824C33.8363 31.704 33.5963 30.392 33.5963 28.888C33.5963 27.384 33.9483 26.072 34.6523 24.952C35.3883 23.832 36.2683 22.968 37.2923 22.36C38.3163 21.752 39.5163 21.256 40.8923 20.872C42.9723 20.328 45.2603 20.056 47.7563 20.056H49.3403C49.3403 18.744 48.8923 17.816 47.9963 17.272C47.6123 17.048 47.0203 16.936 46.2203 16.936C45.4523 16.936 44.5083 17.144 43.3883 17.56C42.3003 17.976 41.3883 18.408 40.6523 18.856C39.9163 19.272 39.4203 19.48 39.1643 19.48C38.5883 19.48 37.8043 18.728 36.8123 17.224C35.8203 15.688 35.3242 14.296 35.3242 13.048C35.3242 12.632 35.9163 12.088 37.1003 11.416C38.2843 10.744 39.9483 10.136 42.0923 9.592C44.2683 9.016 46.3803 8.728 48.4283 8.728C50.4763 8.728 52.2363 8.904 53.7083 9.256C55.2123 9.576 56.4283 9.976 57.3563 10.456C58.3163 10.936 59.1163 11.576 59.7563 12.376C60.4283 13.176 60.9243 13.896 61.2443 14.536C61.5963 15.176 61.8523 16.008 62.0123 17.032C62.2363 18.216 62.3483 19.672 62.3483 21.4V35.848C62.3483 36.2 61.4843 36.488 59.7563 36.712C58.0603 36.904 56.3643 37 54.6683 37C53.0043 37 51.9163 36.952 51.4043 36.856C50.9243 36.76 50.6363 36.648 50.5403 36.52C50.4443 36.392 50.3643 36.168 50.3003 35.848L49.9163 33.112H49.5323C48.7323 35.992 46.5403 37.432 42.9563 37.432ZM49.3883 29.464V23.848C48.5563 23.848 47.8843 24.2 47.3723 24.904C46.8603 25.608 46.6043 26.408 46.6043 27.304C46.6043 29.416 47.0843 30.472 48.0443 30.472C48.4603 30.472 48.7803 30.376 49.0043 30.184C49.2603 29.96 49.3883 29.72 49.3883 29.464ZM78.6713 21.832V35.848C78.6713 36.2 77.7593 36.488 75.9353 36.712C74.1433 36.904 72.2713 37 70.3193 37C68.3993 37 67.1513 36.92 66.5753 36.76C65.9993 36.568 65.7113 36.264 65.7113 35.848V12.184C65.7113 11.576 66.5913 10.92 68.3513 10.216C70.1433 9.512 72.0793 9.16 74.1593 9.16C76.2713 9.16 77.4553 9.736 77.7113 10.888L78.1913 13.096H78.5273C78.9753 11.88 80.0473 10.856 81.7433 10.024C83.4393 9.16 85.1353 8.728 86.8313 8.728C88.5273 8.728 89.7113 9 90.3833 9.544C91.0873 10.088 91.4393 10.792 91.4393 11.656C91.4393 12.488 91.3753 13.56 91.2473 14.872C91.1193 16.184 90.7993 17.608 90.2873 19.144C89.8073 20.68 89.1673 21.448 88.3673 21.448C88.0473 21.448 87.0393 21.208 85.3433 20.728C83.6473 20.248 82.2393 20.008 81.1193 20.008C80.0313 20.008 79.3433 20.168 79.0553 20.488C78.7993 20.808 78.6713 21.256 78.6713 21.832ZM112.7 36.568C112.124 37.112 110.812 37.384 108.764 37.384C106.716 37.384 105.02 37.256 103.676 37C102.332 36.712 101.052 36.168 99.8363 35.368C97.5003 33.8 96.3323 30.536 96.3323 25.576V18.088H93.9323C93.5803 18.088 93.2763 17.72 93.0203 16.984C92.7643 16.248 92.6363 15.24 92.6363 13.96C92.6363 12.68 92.8283 11.56 93.2123 10.6C93.6283 9.608 94.1563 9.112 94.7963 9.112H96.3323V3.304C96.3323 2.312 97.2923 1.512 99.2122 0.903998C101.164 0.295999 103.068 -0.00800133 104.924 -0.00800133C107.836 -0.00800133 109.292 0.711999 109.292 2.152V9.112H112.844C113.676 9.112 114.092 10.312 114.092 12.712C114.092 14.28 113.9 15.576 113.516 16.6C113.164 17.592 112.7 18.088 112.124 18.088H109.292V26.872C109.292 27.736 109.66 28.36 110.396 28.744C111.132 29.096 111.772 29.272 112.316 29.272C112.892 29.272 113.244 29.544 113.372 30.088C113.5 30.632 113.564 31.448 113.564 32.536C113.564 34.68 113.276 36.024 112.7 36.568ZM145.937 21.064V35.848C145.937 36.2 145.025 36.488 143.201 36.712C141.377 36.904 139.489 37 137.537 37C135.617 37 134.369 36.92 133.793 36.76C133.249 36.568 132.977 36.264 132.977 35.848V20.584C132.977 19.144 132.913 18.2 132.785 17.752C132.689 17.304 132.593 16.904 132.497 16.552C132.273 15.944 131.873 15.64 131.297 15.64C130.401 15.64 129.953 16.072 129.953 16.936V35.848C129.953 36.2 129.041 36.488 127.217 36.712C125.425 36.904 123.553 37 121.601 37C119.681 37 118.433 36.92 117.857 36.76C117.281 36.568 116.993 36.264 116.993 35.848V12.184C116.993 11.512 117.905 10.84 119.729 10.168C121.585 9.496 123.537 9.16 125.585 9.16C127.633 9.16 128.785 9.752 129.041 10.936L129.473 13.048H129.809C130.737 11.192 132.337 9.896 134.609 9.16C135.537 8.872 136.561 8.728 137.681 8.728C140.913 8.728 143.089 9.704 144.209 11.656C145.361 13.576 145.937 16.712 145.937 21.064ZM161.913 26.152C161.913 28.232 162.905 29.272 164.889 29.272C166.041 29.272 167.545 28.888 169.401 28.12C171.257 27.32 172.233 26.92 172.329 26.92C172.937 26.92 173.737 27.832 174.729 29.656C175.721 31.48 176.217 32.824 176.217 33.688C176.217 34.936 174.937 35.88 172.377 36.52C169.817 37.16 167.305 37.48 164.841 37.48C162.409 37.48 160.361 37.288 158.697 36.904C157.065 36.52 155.721 36.04 154.665 35.464C153.641 34.856 152.729 34.12 151.929 33.256C151.161 32.392 150.585 31.576 150.201 30.808C149.817 30.008 149.513 29.128 149.289 28.168C148.969 26.76 148.809 25.304 148.809 23.8C148.809 17.976 150.329 13.96 153.369 11.752C154.873 10.632 156.553 9.848 158.409 9.4C160.265 8.952 162.457 8.728 164.985 8.728C173.081 8.728 177.129 11.544 177.129 17.176C177.129 23.16 172.585 26.152 163.497 26.152H161.913ZM161.817 19.144V22.312C162.745 22.312 163.497 21.944 164.073 21.208C164.681 20.472 164.985 19.576 164.985 18.52C164.985 16.6 164.489 15.64 163.497 15.64C162.377 15.64 161.817 16.808 161.817 19.144ZM192.953 21.832V35.848C192.953 36.2 192.041 36.488 190.217 36.712C188.425 36.904 186.553 37 184.601 37C182.681 37 181.433 36.92 180.857 36.76C180.281 36.568 179.993 36.264 179.993 35.848V12.184C179.993 11.576 180.873 10.92 182.633 10.216C184.425 9.512 186.361 9.16 188.441 9.16C190.553 9.16 191.737 9.736 191.993 10.888L192.473 13.096H192.809C193.257 11.88 194.329 10.856 196.025 10.024C197.721 9.16 199.417 8.728 201.113 8.728C202.809 8.728 203.993 9 204.665 9.544C205.369 10.088 205.721 10.792 205.721 11.656C205.721 12.488 205.657 13.56 205.529 14.872C205.401 16.184 205.081 17.608 204.569 19.144C204.089 20.68 203.449 21.448 202.649 21.448C202.329 21.448 201.321 21.208 199.625 20.728C197.929 20.248 196.521 20.008 195.401 20.008C194.313 20.008 193.625 20.168 193.337 20.488C193.081 20.808 192.953 21.256 192.953 21.832ZM221.174 37.432C215.862 37.432 211.974 36.92 209.51 35.896C208.262 35.352 207.638 34.824 207.638 34.312C207.638 33 208.022 31.464 208.79 29.704C209.558 27.944 210.23 27.064 210.806 27.064C211.126 27.064 212.198 27.416 214.022 28.12C215.878 28.824 217.43 29.176 218.678 29.176C219.958 29.176 220.79 29.096 221.174 28.936C221.59 28.776 221.798 28.472 221.798 28.024C221.798 27.544 221.478 27.176 220.838 26.92C220.198 26.632 219.398 26.44 218.438 26.344C217.478 26.248 216.438 26.056 215.318 25.768C214.23 25.48 213.206 25.112 212.246 24.664C211.286 24.216 210.486 23.48 209.846 22.456C209.206 21.4 208.886 20.28 208.886 19.096C208.886 17.88 208.918 16.984 208.982 16.408C209.046 15.8 209.302 14.968 209.75 13.912C210.23 12.824 210.886 11.944 211.718 11.272C212.582 10.6 213.894 9.992 215.654 9.448C217.446 8.904 219.446 8.632 221.654 8.632C223.862 8.632 225.702 8.712 227.174 8.872C228.678 9 229.846 9.176 230.677 9.4C231.542 9.624 232.246 9.88 232.79 10.168C233.718 10.648 234.182 11.176 234.182 11.752C234.182 13 233.734 14.44 232.838 16.072C231.942 17.704 231.222 18.52 230.677 18.52C230.166 18.52 229.03 18.248 227.27 17.704C225.51 17.128 224.214 16.84 223.382 16.84C222.038 16.84 221.366 17.224 221.366 17.992C221.366 18.472 221.814 18.84 222.71 19.096C223.638 19.32 224.742 19.56 226.022 19.816C227.302 20.072 228.582 20.44 229.862 20.92C231.174 21.368 232.278 22.2 233.174 23.416C234.102 24.632 234.566 26.168 234.566 28.024C234.566 34.296 230.102 37.432 221.174 37.432Z"/>
</mask>
<path d="M13.4828 35.608C13.4828 36.024 12.5068 36.36 10.5547 36.616C8.60275 36.872 6.65075 37 4.69875 37C2.74675 37 1.49875 36.888 0.95475 36.664C0.41075 36.44 0.13875 36.088 0.13875 35.608V4.744C0.13875 3.208 4.74675 2.44 13.9628 2.44C19.5308 2.44 23.2108 2.824 25.0028 3.592C27.1788 4.488 28.6508 5.704 29.4188 7.24C30.4428 9.224 30.9548 11.768 30.9548 14.872C30.9548 19.128 30.2188 22.216 28.7468 24.136C27.6908 25.544 26.6348 26.456 25.5788 26.872C24.5228 27.288 23.6428 27.592 22.9388 27.784C22.2668 27.944 21.4188 28.072 20.3948 28.168C18.9868 28.296 17.0668 28.36 14.6348 28.36L13.4828 28.312V35.608ZM13.5308 20.344H14.6828C15.2908 20.344 15.7708 20.264 16.1228 20.104C16.4748 19.912 16.7788 19.432 17.0348 18.664C17.3228 17.864 17.4668 16.76 17.4668 15.352C17.4668 13.912 17.3068 12.824 16.9868 12.088C16.6988 11.32 16.3948 10.872 16.0748 10.744C15.7868 10.584 15.4348 10.504 15.0188 10.504H13.5308V20.344ZM42.9563 37.432C40.0443 37.432 37.7563 36.744 36.0923 35.368C35.4203 34.792 34.8283 33.944 34.3163 32.824C33.8363 31.704 33.5963 30.392 33.5963 28.888C33.5963 27.384 33.9483 26.072 34.6523 24.952C35.3883 23.832 36.2683 22.968 37.2923 22.36C38.3163 21.752 39.5163 21.256 40.8923 20.872C42.9723 20.328 45.2603 20.056 47.7563 20.056H49.3403C49.3403 18.744 48.8923 17.816 47.9963 17.272C47.6123 17.048 47.0203 16.936 46.2203 16.936C45.4523 16.936 44.5083 17.144 43.3883 17.56C42.3003 17.976 41.3883 18.408 40.6523 18.856C39.9163 19.272 39.4203 19.48 39.1643 19.48C38.5883 19.48 37.8043 18.728 36.8123 17.224C35.8203 15.688 35.3242 14.296 35.3242 13.048C35.3242 12.632 35.9163 12.088 37.1003 11.416C38.2843 10.744 39.9483 10.136 42.0923 9.592C44.2683 9.016 46.3803 8.728 48.4283 8.728C50.4763 8.728 52.2363 8.904 53.7083 9.256C55.2123 9.576 56.4283 9.976 57.3563 10.456C58.3163 10.936 59.1163 11.576 59.7563 12.376C60.4283 13.176 60.9243 13.896 61.2443 14.536C61.5963 15.176 61.8523 16.008 62.0123 17.032C62.2363 18.216 62.3483 19.672 62.3483 21.4V35.848C62.3483 36.2 61.4843 36.488 59.7563 36.712C58.0603 36.904 56.3643 37 54.6683 37C53.0043 37 51.9163 36.952 51.4043 36.856C50.9243 36.76 50.6363 36.648 50.5403 36.52C50.4443 36.392 50.3643 36.168 50.3003 35.848L49.9163 33.112H49.5323C48.7323 35.992 46.5403 37.432 42.9563 37.432ZM49.3883 29.464V23.848C48.5563 23.848 47.8843 24.2 47.3723 24.904C46.8603 25.608 46.6043 26.408 46.6043 27.304C46.6043 29.416 47.0843 30.472 48.0443 30.472C48.4603 30.472 48.7803 30.376 49.0043 30.184C49.2603 29.96 49.3883 29.72 49.3883 29.464ZM78.6713 21.832V35.848C78.6713 36.2 77.7593 36.488 75.9353 36.712C74.1433 36.904 72.2713 37 70.3193 37C68.3993 37 67.1513 36.92 66.5753 36.76C65.9993 36.568 65.7113 36.264 65.7113 35.848V12.184C65.7113 11.576 66.5913 10.92 68.3513 10.216C70.1433 9.512 72.0793 9.16 74.1593 9.16C76.2713 9.16 77.4553 9.736 77.7113 10.888L78.1913 13.096H78.5273C78.9753 11.88 80.0473 10.856 81.7433 10.024C83.4393 9.16 85.1353 8.728 86.8313 8.728C88.5273 8.728 89.7113 9 90.3833 9.544C91.0873 10.088 91.4393 10.792 91.4393 11.656C91.4393 12.488 91.3753 13.56 91.2473 14.872C91.1193 16.184 90.7993 17.608 90.2873 19.144C89.8073 20.68 89.1673 21.448 88.3673 21.448C88.0473 21.448 87.0393 21.208 85.3433 20.728C83.6473 20.248 82.2393 20.008 81.1193 20.008C80.0313 20.008 79.3433 20.168 79.0553 20.488C78.7993 20.808 78.6713 21.256 78.6713 21.832ZM112.7 36.568C112.124 37.112 110.812 37.384 108.764 37.384C106.716 37.384 105.02 37.256 103.676 37C102.332 36.712 101.052 36.168 99.8363 35.368C97.5003 33.8 96.3323 30.536 96.3323 25.576V18.088H93.9323C93.5803 18.088 93.2763 17.72 93.0203 16.984C92.7643 16.248 92.6363 15.24 92.6363 13.96C92.6363 12.68 92.8283 11.56 93.2123 10.6C93.6283 9.608 94.1563 9.112 94.7963 9.112H96.3323V3.304C96.3323 2.312 97.2923 1.512 99.2122 0.903998C101.164 0.295999 103.068 -0.00800133 104.924 -0.00800133C107.836 -0.00800133 109.292 0.711999 109.292 2.152V9.112H112.844C113.676 9.112 114.092 10.312 114.092 12.712C114.092 14.28 113.9 15.576 113.516 16.6C113.164 17.592 112.7 18.088 112.124 18.088H109.292V26.872C109.292 27.736 109.66 28.36 110.396 28.744C111.132 29.096 111.772 29.272 112.316 29.272C112.892 29.272 113.244 29.544 113.372 30.088C113.5 30.632 113.564 31.448 113.564 32.536C113.564 34.68 113.276 36.024 112.7 36.568ZM145.937 21.064V35.848C145.937 36.2 145.025 36.488 143.201 36.712C141.377 36.904 139.489 37 137.537 37C135.617 37 134.369 36.92 133.793 36.76C133.249 36.568 132.977 36.264 132.977 35.848V20.584C132.977 19.144 132.913 18.2 132.785 17.752C132.689 17.304 132.593 16.904 132.497 16.552C132.273 15.944 131.873 15.64 131.297 15.64C130.401 15.64 129.953 16.072 129.953 16.936V35.848C129.953 36.2 129.041 36.488 127.217 36.712C125.425 36.904 123.553 37 121.601 37C119.681 37 118.433 36.92 117.857 36.76C117.281 36.568 116.993 36.264 116.993 35.848V12.184C116.993 11.512 117.905 10.84 119.729 10.168C121.585 9.496 123.537 9.16 125.585 9.16C127.633 9.16 128.785 9.752 129.041 10.936L129.473 13.048H129.809C130.737 11.192 132.337 9.896 134.609 9.16C135.537 8.872 136.561 8.728 137.681 8.728C140.913 8.728 143.089 9.704 144.209 11.656C145.361 13.576 145.937 16.712 145.937 21.064ZM161.913 26.152C161.913 28.232 162.905 29.272 164.889 29.272C166.041 29.272 167.545 28.888 169.401 28.12C171.257 27.32 172.233 26.92 172.329 26.92C172.937 26.92 173.737 27.832 174.729 29.656C175.721 31.48 176.217 32.824 176.217 33.688C176.217 34.936 174.937 35.88 172.377 36.52C169.817 37.16 167.305 37.48 164.841 37.48C162.409 37.48 160.361 37.288 158.697 36.904C157.065 36.52 155.721 36.04 154.665 35.464C153.641 34.856 152.729 34.12 151.929 33.256C151.161 32.392 150.585 31.576 150.201 30.808C149.817 30.008 149.513 29.128 149.289 28.168C148.969 26.76 148.809 25.304 148.809 23.8C148.809 17.976 150.329 13.96 153.369 11.752C154.873 10.632 156.553 9.848 158.409 9.4C160.265 8.952 162.457 8.728 164.985 8.728C173.081 8.728 177.129 11.544 177.129 17.176C177.129 23.16 172.585 26.152 163.497 26.152H161.913ZM161.817 19.144V22.312C162.745 22.312 163.497 21.944 164.073 21.208C164.681 20.472 164.985 19.576 164.985 18.52C164.985 16.6 164.489 15.64 163.497 15.64C162.377 15.64 161.817 16.808 161.817 19.144ZM192.953 21.832V35.848C192.953 36.2 192.041 36.488 190.217 36.712C188.425 36.904 186.553 37 184.601 37C182.681 37 181.433 36.92 180.857 36.76C180.281 36.568 179.993 36.264 179.993 35.848V12.184C179.993 11.576 180.873 10.92 182.633 10.216C184.425 9.512 186.361 9.16 188.441 9.16C190.553 9.16 191.737 9.736 191.993 10.888L192.473 13.096H192.809C193.257 11.88 194.329 10.856 196.025 10.024C197.721 9.16 199.417 8.728 201.113 8.728C202.809 8.728 203.993 9 204.665 9.544C205.369 10.088 205.721 10.792 205.721 11.656C205.721 12.488 205.657 13.56 205.529 14.872C205.401 16.184 205.081 17.608 204.569 19.144C204.089 20.68 203.449 21.448 202.649 21.448C202.329 21.448 201.321 21.208 199.625 20.728C197.929 20.248 196.521 20.008 195.401 20.008C194.313 20.008 193.625 20.168 193.337 20.488C193.081 20.808 192.953 21.256 192.953 21.832ZM221.174 37.432C215.862 37.432 211.974 36.92 209.51 35.896C208.262 35.352 207.638 34.824 207.638 34.312C207.638 33 208.022 31.464 208.79 29.704C209.558 27.944 210.23 27.064 210.806 27.064C211.126 27.064 212.198 27.416 214.022 28.12C215.878 28.824 217.43 29.176 218.678 29.176C219.958 29.176 220.79 29.096 221.174 28.936C221.59 28.776 221.798 28.472 221.798 28.024C221.798 27.544 221.478 27.176 220.838 26.92C220.198 26.632 219.398 26.44 218.438 26.344C217.478 26.248 216.438 26.056 215.318 25.768C214.23 25.48 213.206 25.112 212.246 24.664C211.286 24.216 210.486 23.48 209.846 22.456C209.206 21.4 208.886 20.28 208.886 19.096C208.886 17.88 208.918 16.984 208.982 16.408C209.046 15.8 209.302 14.968 209.75 13.912C210.23 12.824 210.886 11.944 211.718 11.272C212.582 10.6 213.894 9.992 215.654 9.448C217.446 8.904 219.446 8.632 221.654 8.632C223.862 8.632 225.702 8.712 227.174 8.872C228.678 9 229.846 9.176 230.677 9.4C231.542 9.624 232.246 9.88 232.79 10.168C233.718 10.648 234.182 11.176 234.182 11.752C234.182 13 233.734 14.44 232.838 16.072C231.942 17.704 231.222 18.52 230.677 18.52C230.166 18.52 229.03 18.248 227.27 17.704C225.51 17.128 224.214 16.84 223.382 16.84C222.038 16.84 221.366 17.224 221.366 17.992C221.366 18.472 221.814 18.84 222.71 19.096C223.638 19.32 224.742 19.56 226.022 19.816C227.302 20.072 228.582 20.44 229.862 20.92C231.174 21.368 232.278 22.2 233.174 23.416C234.102 24.632 234.566 26.168 234.566 28.024C234.566 34.296 230.102 37.432 221.174 37.432Z" fill="white"/>
<path d="M13.4828 35.608C13.4828 36.024 12.5068 36.36 10.5547 36.616C8.60275 36.872 6.65075 37 4.69875 37C2.74675 37 1.49875 36.888 0.95475 36.664C0.41075 36.44 0.13875 36.088 0.13875 35.608V4.744C0.13875 3.208 4.74675 2.44 13.9628 2.44C19.5308 2.44 23.2108 2.824 25.0028 3.592C27.1788 4.488 28.6508 5.704 29.4188 7.24C30.4428 9.224 30.9548 11.768 30.9548 14.872C30.9548 19.128 30.2188 22.216 28.7468 24.136C27.6908 25.544 26.6348 26.456 25.5788 26.872C24.5228 27.288 23.6428 27.592 22.9388 27.784C22.2668 27.944 21.4188 28.072 20.3948 28.168C18.9868 28.296 17.0668 28.36 14.6348 28.36L13.4828 28.312V35.608ZM13.5308 20.344H14.6828C15.2908 20.344 15.7708 20.264 16.1228 20.104C16.4748 19.912 16.7788 19.432 17.0348 18.664C17.3228 17.864 17.4668 16.76 17.4668 15.352C17.4668 13.912 17.3068 12.824 16.9868 12.088C16.6988 11.32 16.3948 10.872 16.0748 10.744C15.7868 10.584 15.4348 10.504 15.0188 10.504H13.5308V20.344ZM42.9563 37.432C40.0443 37.432 37.7563 36.744 36.0923 35.368C35.4203 34.792 34.8283 33.944 34.3163 32.824C33.8363 31.704 33.5963 30.392 33.5963 28.888C33.5963 27.384 33.9483 26.072 34.6523 24.952C35.3883 23.832 36.2683 22.968 37.2923 22.36C38.3163 21.752 39.5163 21.256 40.8923 20.872C42.9723 20.328 45.2603 20.056 47.7563 20.056H49.3403C49.3403 18.744 48.8923 17.816 47.9963 17.272C47.6123 17.048 47.0203 16.936 46.2203 16.936C45.4523 16.936 44.5083 17.144 43.3883 17.56C42.3003 17.976 41.3883 18.408 40.6523 18.856C39.9163 19.272 39.4203 19.48 39.1643 19.48C38.5883 19.48 37.8043 18.728 36.8123 17.224C35.8203 15.688 35.3242 14.296 35.3242 13.048C35.3242 12.632 35.9163 12.088 37.1003 11.416C38.2843 10.744 39.9483 10.136 42.0923 9.592C44.2683 9.016 46.3803 8.728 48.4283 8.728C50.4763 8.728 52.2363 8.904 53.7083 9.256C55.2123 9.576 56.4283 9.976 57.3563 10.456C58.3163 10.936 59.1163 11.576 59.7563 12.376C60.4283 13.176 60.9243 13.896 61.2443 14.536C61.5963 15.176 61.8523 16.008 62.0123 17.032C62.2363 18.216 62.3483 19.672 62.3483 21.4V35.848C62.3483 36.2 61.4843 36.488 59.7563 36.712C58.0603 36.904 56.3643 37 54.6683 37C53.0043 37 51.9163 36.952 51.4043 36.856C50.9243 36.76 50.6363 36.648 50.5403 36.52C50.4443 36.392 50.3643 36.168 50.3003 35.848L49.9163 33.112H49.5323C48.7323 35.992 46.5403 37.432 42.9563 37.432ZM49.3883 29.464V23.848C48.5563 23.848 47.8843 24.2 47.3723 24.904C46.8603 25.608 46.6043 26.408 46.6043 27.304C46.6043 29.416 47.0843 30.472 48.0443 30.472C48.4603 30.472 48.7803 30.376 49.0043 30.184C49.2603 29.96 49.3883 29.72 49.3883 29.464ZM78.6713 21.832V35.848C78.6713 36.2 77.7593 36.488 75.9353 36.712C74.1433 36.904 72.2713 37 70.3193 37C68.3993 37 67.1513 36.92 66.5753 36.76C65.9993 36.568 65.7113 36.264 65.7113 35.848V12.184C65.7113 11.576 66.5913 10.92 68.3513 10.216C70.1433 9.512 72.0793 9.16 74.1593 9.16C76.2713 9.16 77.4553 9.736 77.7113 10.888L78.1913 13.096H78.5273C78.9753 11.88 80.0473 10.856 81.7433 10.024C83.4393 9.16 85.1353 8.728 86.8313 8.728C88.5273 8.728 89.7113 9 90.3833 9.544C91.0873 10.088 91.4393 10.792 91.4393 11.656C91.4393 12.488 91.3753 13.56 91.2473 14.872C91.1193 16.184 90.7993 17.608 90.2873 19.144C89.8073 20.68 89.1673 21.448 88.3673 21.448C88.0473 21.448 87.0393 21.208 85.3433 20.728C83.6473 20.248 82.2393 20.008 81.1193 20.008C80.0313 20.008 79.3433 20.168 79.0553 20.488C78.7993 20.808 78.6713 21.256 78.6713 21.832ZM112.7 36.568C112.124 37.112 110.812 37.384 108.764 37.384C106.716 37.384 105.02 37.256 103.676 37C102.332 36.712 101.052 36.168 99.8363 35.368C97.5003 33.8 96.3323 30.536 96.3323 25.576V18.088H93.9323C93.5803 18.088 93.2763 17.72 93.0203 16.984C92.7643 16.248 92.6363 15.24 92.6363 13.96C92.6363 12.68 92.8283 11.56 93.2123 10.6C93.6283 9.608 94.1563 9.112 94.7963 9.112H96.3323V3.304C96.3323 2.312 97.2923 1.512 99.2122 0.903998C101.164 0.295999 103.068 -0.00800133 104.924 -0.00800133C107.836 -0.00800133 109.292 0.711999 109.292 2.152V9.112H112.844C113.676 9.112 114.092 10.312 114.092 12.712C114.092 14.28 113.9 15.576 113.516 16.6C113.164 17.592 112.7 18.088 112.124 18.088H109.292V26.872C109.292 27.736 109.66 28.36 110.396 28.744C111.132 29.096 111.772 29.272 112.316 29.272C112.892 29.272 113.244 29.544 113.372 30.088C113.5 30.632 113.564 31.448 113.564 32.536C113.564 34.68 113.276 36.024 112.7 36.568ZM145.937 21.064V35.848C145.937 36.2 145.025 36.488 143.201 36.712C141.377 36.904 139.489 37 137.537 37C135.617 37 134.369 36.92 133.793 36.76C133.249 36.568 132.977 36.264 132.977 35.848V20.584C132.977 19.144 132.913 18.2 132.785 17.752C132.689 17.304 132.593 16.904 132.497 16.552C132.273 15.944 131.873 15.64 131.297 15.64C130.401 15.64 129.953 16.072 129.953 16.936V35.848C129.953 36.2 129.041 36.488 127.217 36.712C125.425 36.904 123.553 37 121.601 37C119.681 37 118.433 36.92 117.857 36.76C117.281 36.568 116.993 36.264 116.993 35.848V12.184C116.993 11.512 117.905 10.84 119.729 10.168C121.585 9.496 123.537 9.16 125.585 9.16C127.633 9.16 128.785 9.752 129.041 10.936L129.473 13.048H129.809C130.737 11.192 132.337 9.896 134.609 9.16C135.537 8.872 136.561 8.728 137.681 8.728C140.913 8.728 143.089 9.704 144.209 11.656C145.361 13.576 145.937 16.712 145.937 21.064ZM161.913 26.152C161.913 28.232 162.905 29.272 164.889 29.272C166.041 29.272 167.545 28.888 169.401 28.12C171.257 27.32 172.233 26.92 172.329 26.92C172.937 26.92 173.737 27.832 174.729 29.656C175.721 31.48 176.217 32.824 176.217 33.688C176.217 34.936 174.937 35.88 172.377 36.52C169.817 37.16 167.305 37.48 164.841 37.48C162.409 37.48 160.361 37.288 158.697 36.904C157.065 36.52 155.721 36.04 154.665 35.464C153.641 34.856 152.729 34.12 151.929 33.256C151.161 32.392 150.585 31.576 150.201 30.808C149.817 30.008 149.513 29.128 149.289 28.168C148.969 26.76 148.809 25.304 148.809 23.8C148.809 17.976 150.329 13.96 153.369 11.752C154.873 10.632 156.553 9.848 158.409 9.4C160.265 8.952 162.457 8.728 164.985 8.728C173.081 8.728 177.129 11.544 177.129 17.176C177.129 23.16 172.585 26.152 163.497 26.152H161.913ZM161.817 19.144V22.312C162.745 22.312 163.497 21.944 164.073 21.208C164.681 20.472 164.985 19.576 164.985 18.52C164.985 16.6 164.489 15.64 163.497 15.64C162.377 15.64 161.817 16.808 161.817 19.144ZM192.953 21.832V35.848C192.953 36.2 192.041 36.488 190.217 36.712C188.425 36.904 186.553 37 184.601 37C182.681 37 181.433 36.92 180.857 36.76C180.281 36.568 179.993 36.264 179.993 35.848V12.184C179.993 11.576 180.873 10.92 182.633 10.216C184.425 9.512 186.361 9.16 188.441 9.16C190.553 9.16 191.737 9.736 191.993 10.888L192.473 13.096H192.809C193.257 11.88 194.329 10.856 196.025 10.024C197.721 9.16 199.417 8.728 201.113 8.728C202.809 8.728 203.993 9 204.665 9.544C205.369 10.088 205.721 10.792 205.721 11.656C205.721 12.488 205.657 13.56 205.529 14.872C205.401 16.184 205.081 17.608 204.569 19.144C204.089 20.68 203.449 21.448 202.649 21.448C202.329 21.448 201.321 21.208 199.625 20.728C197.929 20.248 196.521 20.008 195.401 20.008C194.313 20.008 193.625 20.168 193.337 20.488C193.081 20.808 192.953 21.256 192.953 21.832ZM221.174 37.432C215.862 37.432 211.974 36.92 209.51 35.896C208.262 35.352 207.638 34.824 207.638 34.312C207.638 33 208.022 31.464 208.79 29.704C209.558 27.944 210.23 27.064 210.806 27.064C211.126 27.064 212.198 27.416 214.022 28.12C215.878 28.824 217.43 29.176 218.678 29.176C219.958 29.176 220.79 29.096 221.174 28.936C221.59 28.776 221.798 28.472 221.798 28.024C221.798 27.544 221.478 27.176 220.838 26.92C220.198 26.632 219.398 26.44 218.438 26.344C217.478 26.248 216.438 26.056 215.318 25.768C214.23 25.48 213.206 25.112 212.246 24.664C211.286 24.216 210.486 23.48 209.846 22.456C209.206 21.4 208.886 20.28 208.886 19.096C208.886 17.88 208.918 16.984 208.982 16.408C209.046 15.8 209.302 14.968 209.75 13.912C210.23 12.824 210.886 11.944 211.718 11.272C212.582 10.6 213.894 9.992 215.654 9.448C217.446 8.904 219.446 8.632 221.654 8.632C223.862 8.632 225.702 8.712 227.174 8.872C228.678 9 229.846 9.176 230.677 9.4C231.542 9.624 232.246 9.88 232.79 10.168C233.718 10.648 234.182 11.176 234.182 11.752C234.182 13 233.734 14.44 232.838 16.072C231.942 17.704 231.222 18.52 230.677 18.52C230.166 18.52 229.03 18.248 227.27 17.704C225.51 17.128 224.214 16.84 223.382 16.84C222.038 16.84 221.366 17.224 221.366 17.992C221.366 18.472 221.814 18.84 222.71 19.096C223.638 19.32 224.742 19.56 226.022 19.816C227.302 20.072 228.582 20.44 229.862 20.92C231.174 21.368 232.278 22.2 233.174 23.416C234.102 24.632 234.566 26.168 234.566 28.024C234.566 34.296 230.102 37.432 221.174 37.432Z" fill="#2B2B2B"/>
<path d="M13.4828 35.608C13.4828 36.024 12.5068 36.36 10.5547 36.616C8.60275 36.872 6.65075 37 4.69875 37C2.74675 37 1.49875 36.888 0.95475 36.664C0.41075 36.44 0.13875 36.088 0.13875 35.608V4.744C0.13875 3.208 4.74675 2.44 13.9628 2.44C19.5308 2.44 23.2108 2.824 25.0028 3.592C27.1788 4.488 28.6508 5.704 29.4188 7.24C30.4428 9.224 30.9548 11.768 30.9548 14.872C30.9548 19.128 30.2188 22.216 28.7468 24.136C27.6908 25.544 26.6348 26.456 25.5788 26.872C24.5228 27.288 23.6428 27.592 22.9388 27.784C22.2668 27.944 21.4188 28.072 20.3948 28.168C18.9868 28.296 17.0668 28.36 14.6348 28.36L13.4828 28.312V35.608ZM13.5308 20.344H14.6828C15.2908 20.344 15.7708 20.264 16.1228 20.104C16.4748 19.912 16.7788 19.432 17.0348 18.664C17.3228 17.864 17.4668 16.76 17.4668 15.352C17.4668 13.912 17.3068 12.824 16.9868 12.088C16.6988 11.32 16.3948 10.872 16.0748 10.744C15.7868 10.584 15.4348 10.504 15.0188 10.504H13.5308V20.344ZM42.9563 37.432C40.0443 37.432 37.7563 36.744 36.0923 35.368C35.4203 34.792 34.8283 33.944 34.3163 32.824C33.8363 31.704 33.5963 30.392 33.5963 28.888C33.5963 27.384 33.9483 26.072 34.6523 24.952C35.3883 23.832 36.2683 22.968 37.2923 22.36C38.3163 21.752 39.5163 21.256 40.8923 20.872C42.9723 20.328 45.2603 20.056 47.7563 20.056H49.3403C49.3403 18.744 48.8923 17.816 47.9963 17.272C47.6123 17.048 47.0203 16.936 46.2203 16.936C45.4523 16.936 44.5083 17.144 43.3883 17.56C42.3003 17.976 41.3883 18.408 40.6523 18.856C39.9163 19.272 39.4203 19.48 39.1643 19.48C38.5883 19.48 37.8043 18.728 36.8123 17.224C35.8203 15.688 35.3242 14.296 35.3242 13.048C35.3242 12.632 35.9163 12.088 37.1003 11.416C38.2843 10.744 39.9483 10.136 42.0923 9.592C44.2683 9.016 46.3803 8.728 48.4283 8.728C50.4763 8.728 52.2363 8.904 53.7083 9.256C55.2123 9.576 56.4283 9.976 57.3563 10.456C58.3163 10.936 59.1163 11.576 59.7563 12.376C60.4283 13.176 60.9243 13.896 61.2443 14.536C61.5963 15.176 61.8523 16.008 62.0123 17.032C62.2363 18.216 62.3483 19.672 62.3483 21.4V35.848C62.3483 36.2 61.4843 36.488 59.7563 36.712C58.0603 36.904 56.3643 37 54.6683 37C53.0043 37 51.9163 36.952 51.4043 36.856C50.9243 36.76 50.6363 36.648 50.5403 36.52C50.4443 36.392 50.3643 36.168 50.3003 35.848L49.9163 33.112H49.5323C48.7323 35.992 46.5403 37.432 42.9563 37.432ZM49.3883 29.464V23.848C48.5563 23.848 47.8843 24.2 47.3723 24.904C46.8603 25.608 46.6043 26.408 46.6043 27.304C46.6043 29.416 47.0843 30.472 48.0443 30.472C48.4603 30.472 48.7803 30.376 49.0043 30.184C49.2603 29.96 49.3883 29.72 49.3883 29.464ZM78.6713 21.832V35.848C78.6713 36.2 77.7593 36.488 75.9353 36.712C74.1433 36.904 72.2713 37 70.3193 37C68.3993 37 67.1513 36.92 66.5753 36.76C65.9993 36.568 65.7113 36.264 65.7113 35.848V12.184C65.7113 11.576 66.5913 10.92 68.3513 10.216C70.1433 9.512 72.0793 9.16 74.1593 9.16C76.2713 9.16 77.4553 9.736 77.7113 10.888L78.1913 13.096H78.5273C78.9753 11.88 80.0473 10.856 81.7433 10.024C83.4393 9.16 85.1353 8.728 86.8313 8.728C88.5273 8.728 89.7113 9 90.3833 9.544C91.0873 10.088 91.4393 10.792 91.4393 11.656C91.4393 12.488 91.3753 13.56 91.2473 14.872C91.1193 16.184 90.7993 17.608 90.2873 19.144C89.8073 20.68 89.1673 21.448 88.3673 21.448C88.0473 21.448 87.0393 21.208 85.3433 20.728C83.6473 20.248 82.2393 20.008 81.1193 20.008C80.0313 20.008 79.3433 20.168 79.0553 20.488C78.7993 20.808 78.6713 21.256 78.6713 21.832ZM112.7 36.568C112.124 37.112 110.812 37.384 108.764 37.384C106.716 37.384 105.02 37.256 103.676 37C102.332 36.712 101.052 36.168 99.8363 35.368C97.5003 33.8 96.3323 30.536 96.3323 25.576V18.088H93.9323C93.5803 18.088 93.2763 17.72 93.0203 16.984C92.7643 16.248 92.6363 15.24 92.6363 13.96C92.6363 12.68 92.8283 11.56 93.2123 10.6C93.6283 9.608 94.1563 9.112 94.7963 9.112H96.3323V3.304C96.3323 2.312 97.2923 1.512 99.2122 0.903998C101.164 0.295999 103.068 -0.00800133 104.924 -0.00800133C107.836 -0.00800133 109.292 0.711999 109.292 2.152V9.112H112.844C113.676 9.112 114.092 10.312 114.092 12.712C114.092 14.28 113.9 15.576 113.516 16.6C113.164 17.592 112.7 18.088 112.124 18.088H109.292V26.872C109.292 27.736 109.66 28.36 110.396 28.744C111.132 29.096 111.772 29.272 112.316 29.272C112.892 29.272 113.244 29.544 113.372 30.088C113.5 30.632 113.564 31.448 113.564 32.536C113.564 34.68 113.276 36.024 112.7 36.568ZM145.937 21.064V35.848C145.937 36.2 145.025 36.488 143.201 36.712C141.377 36.904 139.489 37 137.537 37C135.617 37 134.369 36.92 133.793 36.76C133.249 36.568 132.977 36.264 132.977 35.848V20.584C132.977 19.144 132.913 18.2 132.785 17.752C132.689 17.304 132.593 16.904 132.497 16.552C132.273 15.944 131.873 15.64 131.297 15.64C130.401 15.64 129.953 16.072 129.953 16.936V35.848C129.953 36.2 129.041 36.488 127.217 36.712C125.425 36.904 123.553 37 121.601 37C119.681 37 118.433 36.92 117.857 36.76C117.281 36.568 116.993 36.264 116.993 35.848V12.184C116.993 11.512 117.905 10.84 119.729 10.168C121.585 9.496 123.537 9.16 125.585 9.16C127.633 9.16 128.785 9.752 129.041 10.936L129.473 13.048H129.809C130.737 11.192 132.337 9.896 134.609 9.16C135.537 8.872 136.561 8.728 137.681 8.728C140.913 8.728 143.089 9.704 144.209 11.656C145.361 13.576 145.937 16.712 145.937 21.064ZM161.913 26.152C161.913 28.232 162.905 29.272 164.889 29.272C166.041 29.272 167.545 28.888 169.401 28.12C171.257 27.32 172.233 26.92 172.329 26.92C172.937 26.92 173.737 27.832 174.729 29.656C175.721 31.48 176.217 32.824 176.217 33.688C176.217 34.936 174.937 35.88 172.377 36.52C169.817 37.16 167.305 37.48 164.841 37.48C162.409 37.48 160.361 37.288 158.697 36.904C157.065 36.52 155.721 36.04 154.665 35.464C153.641 34.856 152.729 34.12 151.929 33.256C151.161 32.392 150.585 31.576 150.201 30.808C149.817 30.008 149.513 29.128 149.289 28.168C148.969 26.76 148.809 25.304 148.809 23.8C148.809 17.976 150.329 13.96 153.369 11.752C154.873 10.632 156.553 9.848 158.409 9.4C160.265 8.952 162.457 8.728 164.985 8.728C173.081 8.728 177.129 11.544 177.129 17.176C177.129 23.16 172.585 26.152 163.497 26.152H161.913ZM161.817 19.144V22.312C162.745 22.312 163.497 21.944 164.073 21.208C164.681 20.472 164.985 19.576 164.985 18.52C164.985 16.6 164.489 15.64 163.497 15.64C162.377 15.64 161.817 16.808 161.817 19.144ZM192.953 21.832V35.848C192.953 36.2 192.041 36.488 190.217 36.712C188.425 36.904 186.553 37 184.601 37C182.681 37 181.433 36.92 180.857 36.76C180.281 36.568 179.993 36.264 179.993 35.848V12.184C179.993 11.576 180.873 10.92 182.633 10.216C184.425 9.512 186.361 9.16 188.441 9.16C190.553 9.16 191.737 9.736 191.993 10.888L192.473 13.096H192.809C193.257 11.88 194.329 10.856 196.025 10.024C197.721 9.16 199.417 8.728 201.113 8.728C202.809 8.728 203.993 9 204.665 9.544C205.369 10.088 205.721 10.792 205.721 11.656C205.721 12.488 205.657 13.56 205.529 14.872C205.401 16.184 205.081 17.608 204.569 19.144C204.089 20.68 203.449 21.448 202.649 21.448C202.329 21.448 201.321 21.208 199.625 20.728C197.929 20.248 196.521 20.008 195.401 20.008C194.313 20.008 193.625 20.168 193.337 20.488C193.081 20.808 192.953 21.256 192.953 21.832ZM221.174 37.432C215.862 37.432 211.974 36.92 209.51 35.896C208.262 35.352 207.638 34.824 207.638 34.312C207.638 33 208.022 31.464 208.79 29.704C209.558 27.944 210.23 27.064 210.806 27.064C211.126 27.064 212.198 27.416 214.022 28.12C215.878 28.824 217.43 29.176 218.678 29.176C219.958 29.176 220.79 29.096 221.174 28.936C221.59 28.776 221.798 28.472 221.798 28.024C221.798 27.544 221.478 27.176 220.838 26.92C220.198 26.632 219.398 26.44 218.438 26.344C217.478 26.248 216.438 26.056 215.318 25.768C214.23 25.48 213.206 25.112 212.246 24.664C211.286 24.216 210.486 23.48 209.846 22.456C209.206 21.4 208.886 20.28 208.886 19.096C208.886 17.88 208.918 16.984 208.982 16.408C209.046 15.8 209.302 14.968 209.75 13.912C210.23 12.824 210.886 11.944 211.718 11.272C212.582 10.6 213.894 9.992 215.654 9.448C217.446 8.904 219.446 8.632 221.654 8.632C223.862 8.632 225.702 8.712 227.174 8.872C228.678 9 229.846 9.176 230.677 9.4C231.542 9.624 232.246 9.88 232.79 10.168C233.718 10.648 234.182 11.176 234.182 11.752C234.182 13 233.734 14.44 232.838 16.072C231.942 17.704 231.222 18.52 230.677 18.52C230.166 18.52 229.03 18.248 227.27 17.704C225.51 17.128 224.214 16.84 223.382 16.84C222.038 16.84 221.366 17.224 221.366 17.992C221.366 18.472 221.814 18.84 222.71 19.096C223.638 19.32 224.742 19.56 226.022 19.816C227.302 20.072 228.582 20.44 229.862 20.92C231.174 21.368 232.278 22.2 233.174 23.416C234.102 24.632 234.566 26.168 234.566 28.024C234.566 34.296 230.102 37.432 221.174 37.432Z" fill="white"/>
<path d="M10.5548 36.616L9.77455 30.6669L10.5548 36.616ZM0.95475 36.664L3.23925 31.1159H3.23925L0.95475 36.664ZM25.0028 3.592L22.6392 9.10687L22.6786 9.12375L22.7183 9.14007L25.0028 3.592ZM29.4188 7.24L24.0522 9.92328L24.0694 9.95768L24.087 9.99186L29.4188 7.24ZM28.7468 24.136L23.9851 20.4854L23.9658 20.5106L23.9468 20.536L28.7468 24.136ZM25.5788 26.872L27.7779 32.4545L27.7779 32.4544L25.5788 26.872ZM22.9388 27.784L24.3285 33.6208L24.4234 33.5982L24.5175 33.5726L22.9388 27.784ZM20.3948 28.168L20.938 34.1434L20.9464 34.1426L20.9548 34.1418L20.3948 28.168ZM14.6348 28.36L14.385 34.3548L14.5098 34.36H14.6348V28.36ZM13.4827 28.312L13.7325 22.3172L7.48275 22.0568V28.312H13.4827ZM13.5308 20.344H7.53075V26.344H13.5308V20.344ZM16.1228 20.104L18.6056 25.5662L18.8043 25.4759L18.9959 25.3714L16.1228 20.104ZM17.0348 18.664L11.3894 16.6317L11.3652 16.6989L11.3427 16.7666L17.0348 18.664ZM16.9868 12.088L11.3688 14.1947L11.4229 14.339L11.4843 14.4803L16.9868 12.088ZM16.0748 10.744L13.1609 15.9889L13.4933 16.1736L13.8464 16.3149L16.0748 10.744ZM13.5308 10.504V4.504H7.53075V10.504H13.5308ZM7.48275 35.608C7.48275 33.0864 9.02062 31.6276 9.63772 31.1522C10.2637 30.6699 10.7828 30.5039 10.7977 30.4988C10.8924 30.4662 10.6414 30.5533 9.77455 30.6669L11.335 42.5651C12.4201 42.4227 13.6331 42.2138 14.7038 41.8452C15.2067 41.6721 16.0918 41.3281 16.9618 40.6578C17.8229 39.9944 19.4827 38.3376 19.4827 35.608H7.48275ZM9.77455 30.6669C8.07901 30.8893 6.38762 31 4.69875 31V43C6.91388 43 9.12649 42.8547 11.335 42.5651L9.77455 30.6669ZM4.69875 31C3.81505 31 3.21134 30.9738 2.83506 30.94C2.64892 30.9233 2.58119 30.9101 2.60048 30.9138C2.61344 30.9162 2.67302 30.9276 2.76773 30.9534C2.85813 30.978 3.02477 31.0276 3.23925 31.1159L-1.32975 42.2121C-0.164516 42.6919 1.05767 42.8287 1.76244 42.892C2.63416 42.9702 3.63045 43 4.69875 43V31ZM3.23925 31.1159C3.63502 31.2789 4.40934 31.6819 5.09046 32.5633C5.83211 33.5231 6.13875 34.632 6.13875 35.608H-5.86125C-5.86125 37.064 -5.41861 38.5889 -4.40496 39.9007C-3.45184 41.1341 -2.26952 41.8251 -1.32975 42.2121L3.23925 31.1159ZM6.13875 35.608V4.744H-5.86125V35.608H6.13875ZM6.13875 4.744C6.13875 6.19975 5.54786 7.36491 4.91029 8.10875C4.35354 8.75828 3.81486 9.03815 3.68603 9.10256C3.45818 9.21649 3.6224 9.09415 4.58114 8.93436C6.37986 8.63458 9.43236 8.44 13.9627 8.44V-3.56C9.27714 -3.56 5.41764 -3.37058 2.60836 -2.90237C1.2631 -2.67816 -0.300677 -2.32049 -1.68053 -1.63057C-2.82693 -1.05737 -5.86125 0.817554 -5.86125 4.744H6.13875ZM13.9627 8.44C16.6312 8.44 18.718 8.53302 20.276 8.6956C21.0515 8.77652 21.6399 8.86903 22.0687 8.9593C22.5173 9.05375 22.6732 9.12144 22.6392 9.10687L27.3663 -1.92287C25.6211 -2.67079 23.5251 -3.03052 21.5215 -3.2396C19.3995 -3.46103 16.8623 -3.56 13.9627 -3.56V8.44ZM22.7183 9.14007C24.052 9.68927 24.1377 10.0943 24.0522 9.92328L34.7853 4.55672C33.1638 1.31367 30.3055 -0.713278 27.2872 -1.95607L22.7183 9.14007ZM24.087 9.99186C24.5345 10.8589 24.9548 12.3727 24.9548 14.872H36.9548C36.9548 11.1633 36.351 7.58915 34.7505 4.48814L24.087 9.99186ZM24.9548 14.872C24.9548 18.7009 24.2419 20.1504 23.9851 20.4854L33.5084 27.7866C36.1956 24.2816 36.9548 19.5551 36.9548 14.872H24.9548ZM23.9468 20.536C23.6133 20.9807 23.3718 21.2221 23.241 21.3351C23.1114 21.447 23.1535 21.3786 23.3796 21.2895L27.7779 32.4544C30.2889 31.4652 32.1614 29.5831 33.5468 27.736L23.9468 20.536ZM23.3796 21.2895C22.4285 21.6642 21.7719 21.8831 21.36 21.9954L24.5175 33.5726C25.5136 33.3009 26.617 32.9118 27.7779 32.4545L23.3796 21.2895ZM21.549 21.9472C21.2471 22.019 20.7003 22.113 19.8347 22.1942L20.9548 34.1418C22.1372 34.031 23.2864 33.869 24.3285 33.6208L21.549 21.9472ZM19.8515 22.1926C18.7072 22.2967 16.9943 22.36 14.6348 22.36V34.36C17.1392 34.36 19.2663 34.2953 20.938 34.1434L19.8515 22.1926ZM14.8845 22.3652L13.7325 22.3172L13.233 34.3068L14.385 34.3548L14.8845 22.3652ZM7.48275 28.312V35.608H19.4827V28.312H7.48275ZM13.5308 26.344H14.6828V14.344H13.5308V26.344ZM14.6828 26.344C15.7093 26.344 17.155 26.2256 18.6056 25.5662L13.6399 14.6418C14.0449 14.4577 14.3624 14.3906 14.5124 14.3656C14.667 14.3399 14.734 14.344 14.6828 14.344V26.344ZM18.9959 25.3714C21.5064 24.002 22.4091 21.5146 22.7269 20.5614L11.3427 16.7666C11.3092 16.8671 11.3536 16.6932 11.5458 16.3897C11.7247 16.1072 12.2349 15.3901 13.2496 14.8366L18.9959 25.3714ZM22.6801 20.6963C23.3066 18.956 23.4668 17.06 23.4668 15.352H11.4668C11.4668 15.8609 11.4402 16.2221 11.4091 16.46C11.3769 16.707 11.3501 16.7408 11.3894 16.6317L22.6801 20.6963ZM23.4668 15.352C23.4668 13.6396 23.3024 11.566 22.4892 9.69565L11.4843 14.4803C11.3719 14.2217 11.3813 14.1298 11.4106 14.329C11.4374 14.5114 11.4668 14.8403 11.4668 15.352H23.4668ZM22.6047 9.98126C22.3699 9.35516 22.0257 8.5705 21.5076 7.80699C21.0374 7.11405 20.0428 5.86904 18.3031 5.17314L13.8464 16.3149C12.4267 15.747 11.7441 14.7899 11.5779 14.545C11.3638 14.2295 11.3156 14.0528 11.3688 14.1947L22.6047 9.98126ZM18.9886 5.49905C17.6046 4.73019 16.1915 4.504 15.0188 4.504V16.504C14.678 16.504 13.9689 16.4378 13.1609 15.9889L18.9886 5.49905ZM15.0188 4.504H13.5308V16.504H15.0188V4.504ZM7.53075 10.504V20.344H19.5308V10.504H7.53075ZM36.0923 35.368L32.1875 39.9235L32.2278 39.9581L32.2687 39.9919L36.0923 35.368ZM34.3162 32.824L28.8014 35.1875L28.8296 35.2534L28.8594 35.3186L34.3162 32.824ZM34.6522 24.952L29.638 21.6569L29.6047 21.7076L29.5724 21.759L34.6522 24.952ZM40.8923 20.872L39.3741 15.0672L39.3267 15.0796L39.2795 15.0928L40.8923 20.872ZM49.3403 20.056V26.056H55.3403V20.056H49.3403ZM47.9963 17.272L51.1101 12.1433L51.065 12.1159L51.0195 12.0893L47.9963 17.272ZM43.3883 17.56L41.2991 11.9354L41.2722 11.9454L41.2454 11.9557L43.3883 17.56ZM40.6522 18.856L43.6046 24.0794L43.6891 24.0316L43.7719 23.9812L40.6522 18.856ZM36.8122 17.224L31.772 20.4792L31.7877 20.5034L31.8036 20.5276L36.8122 17.224ZM37.1003 11.416L34.1386 6.19788L34.1386 6.19788L37.1003 11.416ZM42.0923 9.592L43.5679 15.4077L43.5978 15.4001L43.6276 15.3922L42.0923 9.592ZM53.7083 9.256L52.3128 15.0915L52.386 15.109L52.4596 15.1246L53.7083 9.256ZM57.3563 10.456L54.5997 15.7853L54.6362 15.8042L54.673 15.8226L57.3563 10.456ZM59.7563 12.376L55.071 16.1242L55.1159 16.1802L55.162 16.2352L59.7563 12.376ZM61.2442 14.536L55.8777 17.2193L55.9303 17.3245L55.987 17.4275L61.2442 14.536ZM62.0123 17.032L56.0842 17.9583L56.099 18.0531L56.1168 18.1473L62.0123 17.032ZM59.7563 36.712L60.4312 42.6739L60.4794 42.6685L60.5276 42.6622L59.7563 36.712ZM51.4043 36.856L50.2276 42.7395L50.263 42.7466L50.2985 42.7532L51.4043 36.856ZM50.5403 36.52L55.3403 32.92L50.5403 36.52ZM50.3003 35.848L44.3585 36.6819L44.3827 36.8542L44.4168 37.0247L50.3003 35.848ZM49.9163 33.112L55.858 32.2781L55.1329 27.112H49.9163V33.112ZM49.5322 33.112V27.112H44.9717L43.7511 31.5061L49.5322 33.112ZM49.3883 23.848H55.3883V17.848H49.3883V23.848ZM47.3722 24.904L42.5198 21.375V21.375L47.3722 24.904ZM49.0042 30.184L52.909 34.7395L52.9322 34.7196L52.9553 34.6995L49.0042 30.184ZM42.9562 31.432C40.9528 31.432 40.1805 30.963 39.9158 30.7441L32.2687 39.9919C35.332 42.525 39.1357 43.432 42.9562 43.432V31.432ZM39.997 30.8125C40.1033 30.9036 40.1176 30.9423 40.064 30.8655C40.0097 30.7877 39.9062 30.6207 39.7731 30.3294L28.8594 35.3186C29.6005 36.9398 30.6492 38.605 32.1875 39.9235L39.997 30.8125ZM39.8311 30.4605C39.7368 30.2404 39.5962 29.7644 39.5962 28.888H27.5963C27.5963 31.0196 27.9357 33.1676 28.8014 35.1875L39.8311 30.4605ZM39.5962 28.888C39.5962 28.3551 39.7085 28.1826 39.7321 28.145L29.5724 21.759C28.188 23.9614 27.5963 26.4129 27.5963 28.888H39.5962ZM39.6665 28.2471C39.9653 27.7924 40.2082 27.6066 40.3555 27.5191L34.229 17.2009C32.3283 18.3294 30.8112 19.8716 29.638 21.6569L39.6665 28.2471ZM40.3555 27.5191C40.8457 27.2281 41.5399 26.9205 42.505 26.6512L39.2795 15.0928C37.4926 15.5915 35.7868 16.2759 34.229 17.2009L40.3555 27.5191ZM42.4104 26.6768C43.9228 26.2812 45.6924 26.056 47.7563 26.056V14.056C44.8281 14.056 42.0217 14.3748 39.3741 15.0672L42.4104 26.6768ZM47.7563 26.056H49.3403V14.056H47.7563V26.056ZM55.3403 20.056C55.3403 17.256 54.2631 14.0576 51.1101 12.1433L44.8824 22.4007C44.358 22.0823 43.8898 21.5829 43.6009 20.9845C43.3401 20.4441 43.3403 20.0643 43.3403 20.056H55.3403ZM51.0195 12.0893C49.2454 11.0544 47.3536 10.936 46.2202 10.936V22.936C46.3596 22.936 46.3175 22.9473 46.1489 22.9154C45.9957 22.8864 45.5401 22.7855 44.973 22.4547L51.0195 12.0893ZM46.2202 10.936C44.4562 10.936 42.7578 11.3937 41.2991 11.9354L45.4774 23.1846C45.8351 23.0517 46.0809 22.9837 46.2273 22.9514C46.3789 22.9181 46.365 22.936 46.2202 22.936V10.936ZM41.2454 11.9557C39.9278 12.4595 38.6655 13.0412 37.5326 13.7308L43.7719 23.9812C44.111 23.7748 44.6727 23.4925 45.5311 23.1643L41.2454 11.9557ZM37.6999 13.6326C37.4351 13.7823 37.3535 13.8136 37.4079 13.7908C37.4377 13.7783 37.5783 13.7199 37.8017 13.6581C37.918 13.626 38.0865 13.5845 38.2973 13.5499C38.5036 13.5159 38.8008 13.48 39.1642 13.48V25.48C40.5674 25.48 41.6971 25.0046 42.0486 24.8572C42.599 24.6264 43.1334 24.3457 43.6046 24.0794L37.6999 13.6326ZM39.1642 13.48C40.3289 13.48 41.1754 13.8553 41.5966 14.0882C42.0216 14.3232 42.2551 14.5451 42.2976 14.5859C42.3692 14.6546 42.2091 14.509 41.8209 13.9204L31.8036 20.5276C32.4074 21.443 33.1353 22.4254 33.9909 23.2461C34.6212 23.8507 36.4334 25.48 39.1642 25.48V13.48ZM41.8525 13.9688C41.5509 13.5019 41.4093 13.1857 41.3482 13.0141C41.2892 12.8485 41.3242 12.8725 41.3242 13.048H29.3242C29.3242 15.8704 30.4285 18.3989 31.772 20.4792L41.8525 13.9688ZM41.3242 13.048C41.3242 14.385 40.8514 15.3601 40.5423 15.8613C40.2332 16.3625 39.9286 16.6535 39.828 16.746C39.638 16.9206 39.6333 16.8774 40.0619 16.6341L34.1386 6.19788C33.3832 6.62662 32.4905 7.1914 31.7085 7.91004C31.2068 8.37109 29.3242 10.1434 29.3242 13.048H41.3242ZM40.0619 16.6341C40.5813 16.3393 41.6632 15.891 43.5679 15.4077L40.6166 3.77629C38.2333 4.381 35.9872 5.1487 34.1386 6.19788L40.0619 16.6341ZM43.6276 15.3922C45.3516 14.9359 46.9469 14.728 48.4282 14.728V2.728C45.8136 2.728 43.1849 3.09613 40.5569 3.79177L43.6276 15.3922ZM48.4282 14.728C50.1595 14.728 51.4261 14.8794 52.3128 15.0915L55.1037 3.42053C53.0464 2.92856 50.793 2.728 48.4282 2.728V14.728ZM52.4596 15.1246C53.6613 15.3803 54.3146 15.6378 54.5997 15.7853L60.1128 5.12669C58.5419 4.31416 56.7632 3.77168 54.9569 3.38736L52.4596 15.1246ZM54.673 15.8226C54.8943 15.9332 54.9992 16.0344 55.071 16.1242L64.4415 8.62783C63.2333 7.11757 61.7382 5.93877 60.0395 5.08944L54.673 15.8226ZM55.162 16.2352C55.6564 16.8237 55.8402 17.1443 55.8777 17.2193L66.6108 11.8527C66.0083 10.6477 65.2001 9.52827 64.3505 8.51685L55.162 16.2352ZM55.987 17.4275C55.9326 17.3287 55.9357 17.3075 55.9656 17.4045C55.995 17.5002 56.0404 17.6782 56.0842 17.9583L67.9403 16.1057C67.7141 14.6579 67.2984 13.0933 66.5015 11.6445L55.987 17.4275ZM56.1168 18.1473C56.2485 18.8434 56.3483 19.8999 56.3483 21.4H68.3483C68.3483 19.4441 68.224 17.5886 67.9077 15.9167L56.1168 18.1473ZM56.3483 21.4V35.848H68.3483V21.4H56.3483ZM56.3483 35.848C56.3483 33.196 58.0258 31.715 58.6149 31.2787C59.2479 30.8098 59.774 30.6455 59.8029 30.6359C59.9319 30.5929 59.7456 30.6632 58.9849 30.7618L60.5276 42.6622C61.4949 42.5368 62.6046 42.3511 63.5976 42.0201C64.0585 41.8665 64.9086 41.5502 65.7576 40.9213C66.5627 40.325 68.3483 38.676 68.3483 35.848H56.3483ZM59.0813 30.7501C57.608 30.9169 56.1373 31 54.6683 31V43C56.5912 43 58.5125 42.8911 60.4312 42.6739L59.0813 30.7501ZM54.6683 31C53.8837 31 53.2916 30.9885 52.8687 30.9698C52.6583 30.9605 52.5177 30.9507 52.4341 30.9432C52.3345 30.9342 52.3783 30.9341 52.51 30.9588L50.2985 42.7532C51.4584 42.9707 53.1255 43 54.6683 43V31ZM52.5809 30.9725C52.5092 30.9582 52.6929 30.9874 53.0029 31.108C53.164 31.1706 53.4664 31.2988 53.8282 31.525C54.1673 31.7369 54.7776 32.1698 55.3403 32.92L45.7402 40.12C46.8399 41.5862 48.2775 42.1458 48.6536 42.292C49.2516 42.5246 49.8193 42.6578 50.2276 42.7395L52.5809 30.9725ZM55.3403 32.92C55.7832 33.5106 55.9847 34.0307 56.0587 34.238C56.1451 34.48 56.178 34.6426 56.1837 34.6713L44.4168 37.0247C44.5108 37.4948 44.791 38.8543 45.7402 40.12L55.3403 32.92ZM56.242 35.0141L55.858 32.2781L43.9745 33.9459L44.3585 36.6819L56.242 35.0141ZM49.9163 27.112H49.5322V39.112H49.9163V27.112ZM43.7511 31.5061C43.7064 31.6672 43.682 31.6677 43.7388 31.5858C43.8024 31.494 43.8971 31.4009 43.9939 31.3373C44.1743 31.2188 43.9938 31.432 42.9562 31.432V43.432C45.5027 43.432 48.2102 42.9252 50.5826 41.3667C53.0623 39.7377 54.5824 37.3493 55.3134 34.7179L43.7511 31.5061ZM55.3883 29.464V23.848H43.3883V29.464H55.3883ZM49.3883 17.848C46.5344 17.848 44.0994 19.203 42.5198 21.375L52.2247 28.433C52.018 28.7171 51.6388 29.1156 51.0443 29.427C50.4403 29.7433 49.8463 29.848 49.3883 29.848V17.848ZM42.5198 21.375C41.2389 23.1362 40.6043 25.1797 40.6043 27.304H52.6043C52.6043 27.4352 52.5842 27.6313 52.5108 27.8607C52.4368 28.0917 52.331 28.2868 52.2247 28.433L42.5198 21.375ZM40.6043 27.304C40.6043 28.6268 40.7255 30.4545 41.5021 32.1628C41.9237 33.0905 42.6448 34.2168 43.8661 35.1124C45.1542 36.0571 46.6298 36.472 48.0443 36.472V24.472C48.9787 24.472 50.0343 24.7549 50.9624 25.4356C51.8237 26.0672 52.2448 26.7975 52.4264 27.1972C52.723 27.8495 52.6043 28.0932 52.6043 27.304H40.6043ZM48.0443 36.472C49.3112 36.472 51.2253 36.1827 52.909 34.7395L45.0995 25.6285C46.3352 24.5693 47.6093 24.472 48.0443 24.472V36.472ZM52.9553 34.6995C54.0609 33.7321 55.3883 31.9722 55.3883 29.464H43.3883C43.3883 27.4678 44.4596 26.1879 45.0532 25.6685L52.9553 34.6995ZM75.9352 36.712L76.5744 42.6779L76.6206 42.6729L76.6666 42.6673L75.9352 36.712ZM66.5752 36.76L64.6779 42.4521L64.8225 42.5003L64.9694 42.5411L66.5752 36.76ZM68.3512 10.216L66.1573 4.63149L66.1401 4.63826L66.1229 4.64514L68.3512 10.216ZM77.7113 10.888L83.5743 9.61342L83.5714 9.59991L83.5684 9.58641L77.7113 10.888ZM78.1913 13.096L72.3282 14.3706L73.3555 19.096H78.1913V13.096ZM78.5273 13.096V19.096H82.711L84.1573 15.1702L78.5273 13.096ZM81.7432 10.024L84.3858 15.4107L84.4265 15.3908L84.4668 15.3702L81.7432 10.024ZM90.3833 9.544L86.6081 14.2075L86.6608 14.2502L86.7146 14.2917L90.3833 9.544ZM90.2873 19.144L84.5952 17.2466L84.5773 17.3003L84.5604 17.3543L90.2873 19.144ZM85.3433 20.728L86.9772 14.9548L85.3433 20.728ZM79.0553 20.488L74.5955 16.4742L74.4789 16.6037L74.37 16.7398L79.0553 20.488ZM72.6712 21.832V35.848H84.6712V21.832H72.6712ZM72.6712 35.848C72.6712 33.0484 74.5235 31.5607 75.0537 31.1887C75.6755 30.7523 76.1789 30.607 76.1805 30.6065C76.2624 30.5806 76.0191 30.6566 75.2039 30.7567L76.6666 42.6673C77.6754 42.5434 78.8001 42.3634 79.794 42.0495C80.2516 41.905 81.097 41.6077 81.9468 41.0113C82.705 40.4793 84.6712 38.8236 84.6712 35.848H72.6712ZM75.2961 30.7461C73.733 30.9136 72.0751 31 70.3193 31V43C72.4674 43 74.5535 42.8944 76.5744 42.6779L75.2961 30.7461ZM70.3193 31C69.4275 31 68.775 30.981 68.3271 30.9523C68.1047 30.938 67.9742 30.9239 67.916 30.9163C67.835 30.9056 67.9521 30.9153 68.1811 30.9789L64.9694 42.5411C65.8904 42.7969 66.8681 42.8834 67.5594 42.9277C68.3595 42.979 69.291 43 70.3193 43V31ZM68.4726 31.0679C68.728 31.153 69.5121 31.4478 70.283 32.2615C71.187 33.2158 71.7113 34.5095 71.7113 35.848H59.7113C59.7113 37.6025 60.3795 39.2562 61.5715 40.5145C62.6304 41.6322 63.8465 42.175 64.6779 42.4521L68.4726 31.0679ZM71.7113 35.848V12.184H59.7113V35.848H71.7113ZM71.7113 12.184C71.7113 13.5489 71.2037 14.5679 70.8004 15.1472C70.4213 15.6917 70.0535 15.9747 69.9572 16.0465C69.7843 16.1754 69.8874 16.0637 70.5796 15.7869L66.1229 4.64514C65.0551 5.07227 63.8382 5.64058 62.7853 6.42552C61.9955 7.01426 59.7113 8.89132 59.7113 12.184H71.7113ZM70.5452 15.8005C71.5839 15.3924 72.7694 15.16 74.1592 15.16V3.16C71.3891 3.16 68.7026 3.63158 66.1573 4.63149L70.5452 15.8005ZM74.1592 15.16C74.7946 15.16 74.5805 15.2667 74.0065 14.9874C73.6675 14.8225 73.1849 14.5119 72.7359 13.9731C72.2731 13.4177 71.9871 12.788 71.8541 12.1896L83.5684 9.58641C82.994 7.00175 81.2767 5.17963 79.256 4.19659C77.498 3.34133 75.6359 3.16 74.1592 3.16V15.16ZM71.8482 12.1626L72.3282 14.3706L84.0543 11.8214L83.5743 9.61342L71.8482 12.1626ZM78.1913 19.096H78.5273V7.096H78.1913V19.096ZM84.1573 15.1702C84.0936 15.3431 84.0164 15.4839 83.9451 15.589C83.8753 15.6918 83.8219 15.7449 83.8116 15.7547C83.8026 15.7633 83.8348 15.731 83.9297 15.6674C84.0248 15.6037 84.1722 15.5155 84.3858 15.4107L79.1007 4.63726C76.649 5.83996 74.0793 7.81326 72.8972 11.0218L84.1573 15.1702ZM84.4668 15.3702C85.4235 14.8828 86.1925 14.728 86.8313 14.728V2.728C84.078 2.728 81.455 3.43716 79.0197 4.67776L84.4668 15.3702ZM86.8313 14.728C87.098 14.728 87.2993 14.7388 87.4431 14.7524C87.5886 14.7662 87.6514 14.7805 87.6479 14.7797C87.6461 14.7793 87.5415 14.7557 87.3684 14.6796C87.1938 14.6028 86.9187 14.4589 86.6081 14.2075L94.1584 4.88053C91.7869 2.96069 88.7756 2.728 86.8313 2.728V14.728ZM86.7146 14.2917C86.4461 14.0843 86.0859 13.7178 85.8087 13.1633C85.5286 12.6032 85.4393 12.063 85.4393 11.656H97.4393C97.4393 8.87016 96.1752 6.43699 94.0519 4.79629L86.7146 14.2917ZM85.4393 11.656C85.4393 12.2153 85.3942 13.0734 85.2756 14.2894L97.2189 15.4546C97.3563 14.0466 97.4393 12.7607 97.4393 11.656H85.4393ZM85.2756 14.2894C85.1998 15.0663 84.9959 16.0443 84.5952 17.2466L95.9794 21.0414C96.6026 19.1717 97.0387 17.3017 97.2189 15.4546L85.2756 14.2894ZM84.5604 17.3543C84.429 17.7746 84.441 17.5072 84.8379 17.0309C85.0654 16.7579 85.4752 16.3504 86.1137 16.0099C86.7846 15.6521 87.5621 15.448 88.3672 15.448V27.448C90.981 27.448 92.9064 26.0933 94.0566 24.7131C95.0935 23.4688 95.6655 22.0494 96.0141 20.9337L84.5604 17.3543ZM88.3672 15.448C88.6636 15.448 88.8771 15.473 88.9413 15.4809C89.0261 15.4912 89.0725 15.5 89.0653 15.4986C89.0483 15.4956 88.956 15.4776 88.761 15.4312C88.3758 15.3395 87.7917 15.1853 86.9772 14.9548L83.7093 26.5012C84.5908 26.7507 85.3587 26.9565 85.9815 27.1048C86.328 27.1873 87.3723 27.448 88.3672 27.448V15.448ZM86.9772 14.9548C85.0167 14.3999 83.0137 14.008 81.1192 14.008V26.008C81.4648 26.008 82.2778 26.0961 83.7093 26.5012L86.9772 14.9548ZM81.1192 14.008C80.3351 14.008 79.3888 14.0606 78.4282 14.284C77.5845 14.4802 75.9365 14.9842 74.5955 16.4742L83.515 24.5018C82.9608 25.1176 82.3845 25.4702 81.9942 25.6621C81.6047 25.8536 81.2954 25.9374 81.1463 25.972C80.8737 26.0354 80.8154 26.008 81.1192 26.008V14.008ZM74.37 16.7398C72.9766 18.4816 72.6712 20.4362 72.6712 21.832H84.6712C84.6712 22.0758 84.6219 23.1344 83.7405 24.2362L74.37 16.7398ZM112.7 36.568L116.82 40.9301V40.9301L112.7 36.568ZM103.676 37L102.419 42.8668L102.486 42.8812L102.554 42.894L103.676 37ZM99.8363 35.368L96.4923 40.3498L96.5154 40.3652L96.5386 40.3805L99.8363 35.368ZM96.3323 18.088H102.332V12.088H96.3323V18.088ZM93.0202 16.984L98.6872 15.0129L93.0202 16.984ZM93.2122 10.6L87.6791 8.27964L87.6599 8.32549L87.6414 8.37165L93.2122 10.6ZM96.3323 9.112V15.112H102.332V9.112H96.3323ZM99.2122 0.903998L97.4279 -4.82455L97.4144 -4.82033L97.4009 -4.81606L99.2122 0.903998ZM109.292 9.112H103.292V15.112H109.292V9.112ZM113.516 16.6L107.898 14.4933L107.88 14.5432L107.862 14.5935L113.516 16.6ZM109.292 18.088V12.088H103.292V18.088H109.292ZM110.396 28.744L107.621 34.0635L107.713 34.1118L107.808 34.1568L110.396 28.744ZM113.372 30.088L119.213 28.7138V28.7138L113.372 30.088ZM108.581 32.2059C109.071 31.7424 109.525 31.5145 109.75 31.4174C109.98 31.3177 110.108 31.2963 110.066 31.3049C110.033 31.3119 109.911 31.3337 109.678 31.3526C109.449 31.3711 109.148 31.384 108.764 31.384V43.384C110.007 43.384 111.294 43.3055 112.502 43.0551C113.58 42.8316 115.341 42.3269 116.82 40.9301L108.581 32.2059ZM108.764 31.384C106.927 31.384 105.639 31.2661 104.799 31.106L102.554 42.894C104.401 43.2459 106.505 43.384 108.764 43.384V31.384ZM104.933 31.1332C104.359 31.0101 103.766 30.7711 103.134 30.3555L96.5386 40.3805C98.3389 41.5649 100.306 42.4139 102.419 42.8668L104.933 31.1332ZM103.18 30.3862C103.304 30.4694 103.111 30.4321 102.857 29.7225C102.582 28.9533 102.332 27.6387 102.332 25.576H90.3323C90.3323 31.0336 91.5504 37.0326 96.4923 40.3498L103.18 30.3862ZM102.332 25.576V18.088H90.3323V25.576H102.332ZM96.3323 12.088H93.9323V24.088H96.3323V12.088ZM93.9323 12.088C96.1264 12.088 97.5082 13.3155 98.066 13.9907C98.3406 14.3231 98.4976 14.6057 98.5722 14.7527C98.6506 14.9072 98.6842 15.0043 98.6872 15.0129L87.3533 18.9551C87.5865 19.6258 88.0116 20.6614 88.8145 21.6333C89.6763 22.6765 91.3861 24.088 93.9323 24.088V12.088ZM98.6872 15.0129C98.7304 15.1369 98.7108 15.1276 98.6845 14.9202C98.6592 14.7213 98.6363 14.4089 98.6363 13.96H86.6363C86.6363 15.5375 86.7807 17.309 87.3533 18.9551L98.6872 15.0129ZM98.6363 13.96C98.6363 13.2677 98.7413 12.933 98.7831 12.8283L87.6414 8.37165C86.9152 10.187 86.6363 12.0923 86.6363 13.96H98.6363ZM98.7454 12.9204C98.7447 12.922 98.7353 12.9443 98.7152 12.9836C98.6952 13.0228 98.6616 13.0845 98.6117 13.1632C98.5159 13.3141 98.332 13.5718 98.0283 13.8571C97.3382 14.5054 96.207 15.112 94.7962 15.112V3.112C90.3409 3.112 88.3332 6.71989 87.6791 8.27964L98.7454 12.9204ZM94.7962 15.112H96.3323V3.112H94.7962V15.112ZM102.332 9.112V3.304H90.3323V9.112H102.332ZM102.332 3.304C102.332 4.06967 102.136 4.80426 101.801 5.42933C101.484 6.0212 101.114 6.3856 100.893 6.56933C100.521 6.87962 100.407 6.8194 101.024 6.62405L97.4009 -4.81606C96.0978 -4.40341 94.5435 -3.75962 93.2111 -2.64933C91.7489 -1.43082 90.3323 0.579724 90.3323 3.304H102.332ZM100.997 6.63255C102.429 6.18636 103.731 5.992 104.924 5.992V-6.008C102.405 -6.008 99.8995 -5.59436 97.4279 -4.82455L100.997 6.63255ZM104.924 5.992C105.421 5.992 105.718 6.02385 105.859 6.04711C106.017 6.07309 105.861 6.06883 105.541 5.91033C105.198 5.74094 104.572 5.34436 104.044 4.56067C103.488 3.73615 103.292 2.8556 103.292 2.152H115.292C115.292 0.728403 114.914 -0.782148 113.994 -2.14667C113.102 -3.47036 111.93 -4.31694 110.86 -4.84633C108.886 -5.82219 106.682 -6.008 104.924 -6.008V5.992ZM103.292 2.152V9.112H115.292V2.152H103.292ZM109.292 15.112H112.844V3.112H109.292V15.112ZM112.844 15.112C111.433 15.112 110.143 14.5385 109.232 13.662C108.461 12.9211 108.183 12.1855 108.111 11.9773C107.984 11.6093 108.092 11.6962 108.092 12.712H120.092C120.092 11.3278 119.993 9.61465 119.449 8.04674C118.925 6.53376 117.108 3.112 112.844 3.112V15.112ZM108.092 12.712C108.092 13.8465 107.946 14.3669 107.898 14.4933L119.134 18.7067C119.855 16.7851 120.092 14.7134 120.092 12.712H108.092ZM107.862 14.5935C107.826 14.6951 107.967 14.2107 108.523 13.6171C109.204 12.8887 110.453 12.088 112.124 12.088V24.088C116.936 24.088 118.728 19.8537 119.171 18.6065L107.862 14.5935ZM112.124 12.088H109.292V24.088H112.124V12.088ZM103.292 18.088V26.872H115.292V18.088H103.292ZM103.292 26.872C103.292 28.1685 103.575 29.6368 104.4 31.0359C105.233 32.4485 106.407 33.4302 107.621 34.0635L113.172 23.4245C113.65 23.6738 114.271 24.1515 114.736 24.9401C115.194 25.7152 115.292 26.4395 115.292 26.872H103.292ZM107.808 34.1568C108.983 34.719 110.542 35.272 112.316 35.272V23.272C112.684 23.272 112.93 23.3303 113.019 23.3548C113.109 23.3796 113.102 23.3871 112.985 23.3312L107.808 34.1568ZM112.316 35.272C111.671 35.272 110.492 35.1115 109.344 34.2237C108.175 33.3206 107.7 32.179 107.532 31.4622L119.213 28.7138C118.916 27.453 118.202 25.9034 116.681 24.7283C115.18 23.5685 113.538 23.272 112.316 23.272V35.272ZM107.532 31.4622C107.502 31.3345 107.517 31.3477 107.535 31.5771C107.551 31.788 107.564 32.1011 107.564 32.536H119.564C119.564 31.3336 119.504 29.9534 119.213 28.7138L107.532 31.4622ZM107.564 32.536C107.564 32.9423 107.55 33.2601 107.531 33.5003C107.51 33.7452 107.487 33.8677 107.481 33.8948C107.473 33.9324 107.501 33.7782 107.622 33.5133C107.741 33.2542 108.019 32.7365 108.581 32.2059L116.82 40.9301C118.43 39.4092 118.982 37.4957 119.215 36.4092C119.482 35.1617 119.564 33.8239 119.564 32.536H107.564ZM143.201 36.712L143.829 42.679L143.88 42.6736L143.932 42.6673L143.201 36.712ZM133.792 36.76L131.796 42.4179L131.989 42.4862L132.187 42.5411L133.792 36.76ZM132.785 17.752L126.918 19.0092L126.96 19.2064L127.015 19.4003L132.785 17.752ZM132.497 16.552L138.285 14.9733L138.217 14.7221L138.127 14.4778L132.497 16.552ZM127.217 36.712L127.856 42.6779L127.902 42.6729L127.948 42.6673L127.217 36.712ZM117.856 36.76L115.959 42.4521L116.104 42.5003L116.251 42.5411L117.856 36.76ZM119.729 10.168L117.686 4.52641L117.67 4.53213L117.654 4.53794L119.729 10.168ZM129.04 10.936L134.919 9.73362L134.912 9.70077L134.905 9.668L129.04 10.936ZM129.473 13.048L123.594 14.2504L124.576 19.048H129.473V13.048ZM129.809 13.048V19.048H133.517L135.175 15.7313L129.809 13.048ZM134.609 9.16L132.83 3.42961L132.795 3.4406L132.759 3.45202L134.609 9.16ZM144.208 11.656L139.004 14.642L139.033 14.6928L139.064 14.743L144.208 11.656ZM139.936 21.064V35.848H151.936V21.064H139.936ZM139.936 35.848C139.936 33.0484 141.789 31.5607 142.319 31.1887C142.941 30.7523 143.444 30.607 143.446 30.6065C143.528 30.5806 143.284 30.6566 142.469 30.7567L143.932 42.6673C144.941 42.5434 146.065 42.3634 147.059 42.0495C147.517 41.905 148.362 41.6077 149.212 41.0113C149.97 40.4793 151.936 38.8236 151.936 35.848H139.936ZM142.572 30.745C140.97 30.9137 139.292 31 137.536 31V43C139.685 43 141.783 42.8943 143.829 42.679L142.572 30.745ZM137.536 31C136.645 31 135.992 30.981 135.544 30.9523C135.322 30.938 135.191 30.9239 135.133 30.9163C135.052 30.9056 135.169 30.9153 135.398 30.9789L132.187 42.5411C133.108 42.7969 134.085 42.8834 134.777 42.9277C135.577 42.979 136.508 43 137.536 43V31ZM135.789 31.1021C136.097 31.2107 136.894 31.5406 137.652 32.3872C138.522 33.3592 138.977 34.612 138.977 35.848H126.977C126.977 37.5 127.567 39.1128 128.709 40.3888C129.739 41.5394 130.944 42.1173 131.796 42.4179L135.789 31.1021ZM138.977 35.848V20.584H126.977V35.848H138.977ZM138.977 20.584C138.977 19.3104 138.953 17.5007 138.554 16.1037L127.015 19.4003C126.975 19.2585 126.952 19.1521 126.941 19.0962C126.93 19.0376 126.925 19.0036 126.925 19.0008C126.925 18.9997 126.933 19.0603 126.942 19.2018C126.962 19.4886 126.977 19.9375 126.977 20.584H138.977ZM138.651 16.4948C138.538 15.9648 138.416 15.4545 138.285 14.9733L126.708 18.1307C126.769 18.3535 126.839 18.6432 126.918 19.0092L138.651 16.4948ZM138.127 14.4778C137.732 13.4075 136.999 12.1093 135.659 11.091C134.266 10.0322 132.695 9.64 131.296 9.64V21.64C130.474 21.64 129.391 21.3998 128.398 20.645C127.458 19.9307 127.037 19.0885 126.866 18.6262L138.127 14.4778ZM131.296 9.64C129.977 9.64 127.876 9.95523 126.124 11.6449C124.331 13.3738 123.952 15.5225 123.952 16.936H135.952C135.952 17.4855 135.798 18.9862 134.453 20.2831C133.149 21.5408 131.72 21.64 131.296 21.64V9.64ZM123.952 16.936V35.848H135.952V16.936H123.952ZM123.952 35.848C123.952 33.0484 125.805 31.5607 126.335 31.1887C126.957 30.7523 127.46 30.607 127.462 30.6065C127.544 30.5806 127.3 30.6566 126.485 30.7567L127.948 42.6673C128.957 42.5434 130.081 42.3634 131.075 42.0495C131.533 41.905 132.378 41.6077 133.228 41.0113C133.986 40.4793 135.952 38.8236 135.952 35.848H123.952ZM126.577 30.7461C125.014 30.9136 123.356 31 121.601 31V43C123.749 43 125.835 42.8944 127.856 42.6779L126.577 30.7461ZM121.601 31C120.709 31 120.056 30.981 119.608 30.9523C119.386 30.938 119.255 30.9239 119.197 30.9163C119.116 30.9056 119.233 30.9153 119.462 30.9789L116.251 42.5411C117.172 42.7969 118.149 42.8834 118.841 42.9277C119.641 42.979 120.572 43 121.601 43V31ZM119.754 31.0679C120.009 31.153 120.793 31.4478 121.564 32.2615C122.468 33.2158 122.993 34.5095 122.993 35.848H110.993C110.993 37.6025 111.661 39.2562 112.853 40.5145C113.912 41.6322 115.128 42.175 115.959 42.4521L119.754 31.0679ZM122.993 35.848V12.184H110.993V35.848H122.993ZM122.993 12.184C122.993 13.4485 122.546 14.4332 122.128 15.049C121.742 15.6185 121.356 15.9178 121.236 16.0063C121.026 16.1611 121.1 16.057 121.803 15.7981L117.654 4.53794C116.533 4.95105 115.239 5.51888 114.117 6.34566C113.167 7.04568 110.993 8.94041 110.993 12.184H122.993ZM121.771 15.8096C122.948 15.3836 124.207 15.16 125.585 15.16V3.16C122.866 3.16 120.221 3.60842 117.686 4.52641L121.771 15.8096ZM125.585 15.16C126.153 15.16 125.868 15.2622 125.242 14.9406C124.878 14.7536 124.405 14.4237 123.979 13.8865C123.545 13.3394 123.292 12.7427 123.176 12.204L134.905 9.668C134.368 7.1865 132.773 5.3191 130.727 4.26741C128.949 3.35383 127.064 3.16 125.585 3.16V15.16ZM123.162 12.1384L123.594 14.2504L135.351 11.8456L134.919 9.73362L123.162 12.1384ZM129.473 19.048H129.809V7.048H129.473V19.048ZM135.175 15.7313C135.273 15.5344 135.465 15.1895 136.458 14.868L132.759 3.45202C129.208 4.60251 126.2 6.84955 124.442 10.3647L135.175 15.7313ZM136.387 14.8904C136.659 14.806 137.073 14.728 137.68 14.728V2.728C136.048 2.728 134.414 2.93802 132.83 3.42961L136.387 14.8904ZM137.68 14.728C138.734 14.728 139.188 14.8928 139.281 14.9345C139.313 14.949 139.266 14.932 139.186 14.8607C139.103 14.7869 139.04 14.7046 139.004 14.642L149.413 8.66998C146.791 4.10057 142.023 2.728 137.68 2.728V14.728ZM139.064 14.743C139.339 15.2016 139.936 16.9478 139.936 21.064H151.936C151.936 16.4762 151.382 11.9504 149.353 8.56903L139.064 14.743ZM161.913 26.152V20.152H155.913V26.152H161.913ZM169.401 28.12L171.695 33.6641L171.736 33.6473L171.776 33.6299L169.401 28.12ZM174.729 29.656L169.458 32.5226V32.5226L174.729 29.656ZM172.377 36.52L173.833 42.3409L172.377 36.52ZM158.697 36.904L157.323 42.7445L157.336 42.7475L157.348 42.7503L158.697 36.904ZM154.665 35.464L151.602 40.6231L151.696 40.679L151.792 40.7314L154.665 35.464ZM151.929 33.256L147.445 37.2422L147.485 37.2877L147.527 37.3324L151.929 33.256ZM150.201 30.808L144.792 33.4044L144.813 33.448L144.835 33.4913L150.201 30.808ZM149.289 28.168L143.439 29.4977L143.442 29.5146L143.446 29.5314L149.289 28.168ZM153.369 11.752L156.895 16.6066L156.924 16.5856L156.953 16.5643L153.369 11.752ZM158.409 9.4L157.002 3.5675V3.5675L158.409 9.4ZM161.817 22.312H155.817V28.312H161.817V22.312ZM164.073 21.208L159.448 17.3867L159.397 17.4478L159.348 17.5101L164.073 21.208ZM155.913 26.152C155.913 28.0479 156.361 30.5837 158.316 32.6333C160.321 34.7358 162.898 35.272 164.889 35.272V23.272C164.896 23.272 165.985 23.2882 166.999 24.3507C167.962 25.3603 167.913 26.3361 167.913 26.152H155.913ZM164.889 35.272C167.208 35.272 169.572 34.5426 171.695 33.6641L167.107 22.5759C166.37 22.8808 165.807 23.0659 165.397 23.1705C164.974 23.2785 164.826 23.272 164.889 23.272V35.272ZM171.776 33.6299C172.695 33.2338 173.364 32.9509 173.801 32.7718C174.026 32.6795 174.146 32.6329 174.19 32.6164C174.219 32.6054 174.164 32.627 174.062 32.6591C174.015 32.674 173.888 32.7136 173.716 32.7554C173.629 32.7766 173.483 32.81 173.298 32.8406C173.203 32.8563 173.077 32.8747 172.928 32.8898C172.784 32.9044 172.578 32.92 172.329 32.92V20.92C171.552 20.92 170.943 21.08 170.886 21.094C170.688 21.142 170.528 21.191 170.442 21.2183C170.261 21.2755 170.099 21.3346 169.995 21.3736C169.771 21.4571 169.513 21.5605 169.25 21.6682C168.711 21.8891 167.963 22.2062 167.026 22.6101L171.776 33.6299ZM172.329 32.92C170.962 32.92 169.999 32.4116 169.559 32.1269C169.116 31.8393 168.892 31.5804 168.875 31.5606C168.847 31.5289 169.048 31.7672 169.458 32.5226L180 26.7894C179.419 25.7208 178.724 24.5911 177.896 23.6474C177.361 23.0378 175.452 20.92 172.329 20.92V32.92ZM169.458 32.5226C169.872 33.2827 170.102 33.7995 170.216 34.1093C170.272 34.2586 170.279 34.3052 170.27 34.2651C170.263 34.234 170.217 34.0261 170.217 33.688H182.217C182.217 32.2324 181.828 30.9132 181.474 29.9547C181.093 28.9205 180.579 27.8533 180 26.7894L169.458 32.5226ZM170.217 33.688C170.217 32.918 170.429 32.1692 170.796 31.5414C171.138 30.9561 171.52 30.6332 171.696 30.5032C171.868 30.3762 171.927 30.3715 171.769 30.4364C171.621 30.4977 171.35 30.5921 170.922 30.6991L173.833 42.3409C175.437 41.9397 177.267 41.3055 178.819 40.1608C180.527 38.9008 182.217 36.7298 182.217 33.688H170.217ZM170.922 30.6991C168.805 31.2285 166.781 31.48 164.841 31.48V43.48C167.829 43.48 170.83 43.0914 173.833 42.3409L170.922 30.6991ZM164.841 31.48C162.689 31.48 161.125 31.3066 160.047 31.0577L157.348 42.7503C159.597 43.2694 162.13 43.48 164.841 43.48V31.48ZM160.072 31.0635C158.774 30.7582 157.978 30.4366 157.538 30.1966L151.792 40.7314C153.464 41.6434 155.357 42.2818 157.323 42.7445L160.072 31.0635ZM157.729 30.3049C157.195 29.9881 156.735 29.6153 156.332 29.1796L147.527 37.3324C148.723 38.6247 150.088 39.7239 151.602 40.6231L157.729 30.3049ZM156.414 29.2698C155.883 28.6731 155.651 28.2911 155.568 28.1247L144.835 33.4913C145.52 34.8609 146.439 36.1109 147.445 37.2422L156.414 29.2698ZM155.611 28.2116C155.435 27.8463 155.268 27.3853 155.132 26.8046L143.446 29.5314C143.759 30.8707 144.2 32.1697 144.792 33.4044L155.611 28.2116ZM155.14 26.8383C154.923 25.8843 154.809 24.8752 154.809 23.8H142.809C142.809 25.7328 143.015 27.6357 143.439 29.4977L155.14 26.8383ZM154.809 23.8C154.809 18.8103 156.118 17.1712 156.895 16.6066L149.843 6.89737C144.541 10.7488 142.809 17.1417 142.809 23.8H154.809ZM156.953 16.5643C157.796 15.9365 158.733 15.4942 159.817 15.2325L157.002 3.5675C154.374 4.20184 151.951 5.32748 149.786 6.93974L156.953 16.5643ZM159.817 15.2325C161.091 14.9249 162.789 14.728 164.985 14.728V2.728C162.126 2.728 159.439 2.97906 157.002 3.5675L159.817 15.2325ZM164.985 14.728C168.523 14.728 170.108 15.3766 170.667 15.7654C170.874 15.9091 170.926 16.0029 170.959 16.0727C171.007 16.172 171.129 16.4863 171.129 17.176H183.129C183.129 12.719 181.404 8.61686 177.52 5.91457C174.031 3.48736 169.544 2.728 164.985 2.728V14.728ZM171.129 17.176C171.129 17.9077 170.994 18.2562 170.924 18.393C170.867 18.5067 170.758 18.6755 170.422 18.8968C169.587 19.4464 167.574 20.152 163.497 20.152V32.152C168.509 32.152 173.312 31.3616 177.021 28.9192C181.169 26.1883 183.129 21.9479 183.129 17.176H171.129ZM163.497 20.152H161.913V32.152H163.497V20.152ZM155.817 19.144V22.312H167.817V19.144H155.817ZM161.817 28.312C164.606 28.312 167.095 27.0829 168.798 24.9058L159.348 17.5101C159.554 17.2476 159.911 16.9057 160.44 16.6467C160.971 16.387 161.468 16.312 161.817 16.312V28.312ZM168.699 25.0293C170.291 23.1022 170.985 20.8128 170.985 18.52H158.985C158.985 18.4678 158.994 18.2967 159.076 18.0562C159.16 17.8079 159.292 17.5754 159.448 17.3867L168.699 25.0293ZM170.985 18.52C170.985 17.2383 170.852 15.3642 169.944 13.6059C169.444 12.6392 168.642 11.5791 167.401 10.7782C166.132 9.95923 164.756 9.64 163.497 9.64V21.64C162.735 21.64 161.793 21.4408 160.896 20.8618C160.026 20.3009 159.534 19.6008 159.283 19.1141C158.87 18.3158 158.985 17.8817 158.985 18.52H170.985ZM163.497 9.64C162.114 9.64 160.648 10.0213 159.337 10.9326C158.077 11.809 157.299 12.9386 156.827 13.922C155.961 15.7278 155.817 17.6878 155.817 19.144H167.817C167.817 18.7841 167.84 18.6026 167.847 18.5579C167.857 18.4958 167.831 18.7283 167.648 19.11C167.456 19.5094 167.028 20.201 166.187 20.7854C165.297 21.4047 164.32 21.64 163.497 21.64V9.64ZM190.217 36.712L190.856 42.6779L190.902 42.6729L190.948 42.6673L190.217 36.712ZM180.857 36.76L178.959 42.4521L179.104 42.5003L179.251 42.5411L180.857 36.76ZM182.633 10.216L180.439 4.63149L180.421 4.63826L180.404 4.64514L182.633 10.216ZM191.993 10.888L197.856 9.61342L197.853 9.59991L197.85 9.58641L191.993 10.888ZM192.473 13.096L186.609 14.3706L187.637 19.096H192.473V13.096ZM192.809 13.096V19.096H196.992L198.439 15.1702L192.809 13.096ZM196.025 10.024L198.667 15.4107L198.708 15.3908L198.748 15.3702L196.025 10.024ZM204.665 9.544L200.889 14.2075L200.942 14.2502L200.996 14.2917L204.665 9.544ZM204.568 19.144L198.876 17.2466L198.859 17.3003L198.842 17.3543L204.568 19.144ZM199.624 20.728L201.258 14.9548L199.624 20.728ZM193.337 20.488L188.877 16.4742L188.76 16.6037L188.651 16.7398L193.337 20.488ZM186.952 21.832V35.848H198.952V21.832H186.952ZM186.952 35.848C186.952 33.0484 188.805 31.5607 189.335 31.1887C189.957 30.7523 190.46 30.607 190.462 30.6065C190.544 30.5806 190.3 30.6566 189.485 30.7567L190.948 42.6673C191.957 42.5434 193.081 42.3634 194.075 42.0495C194.533 41.905 195.378 41.6077 196.228 41.0113C196.986 40.4793 198.952 38.8236 198.952 35.848H186.952ZM189.577 30.7461C188.014 30.9136 186.356 31 184.6 31V43C186.749 43 188.835 42.8944 190.856 42.6779L189.577 30.7461ZM184.6 31C183.709 31 183.056 30.981 182.608 30.9523C182.386 30.938 182.255 30.9239 182.197 30.9163C182.116 30.9056 182.233 30.9153 182.462 30.9789L179.251 42.5411C180.172 42.7969 181.149 42.8834 181.841 42.9277C182.641 42.979 183.572 43 184.6 43V31ZM182.754 31.0679C183.009 31.153 183.793 31.4478 184.564 32.2615C185.468 33.2158 185.992 34.5095 185.992 35.848H173.992C173.992 37.6025 174.661 39.2562 175.853 40.5145C176.912 41.6322 178.128 42.175 178.959 42.4521L182.754 31.0679ZM185.992 35.848V12.184H173.992V35.848H185.992ZM185.992 12.184C185.992 13.5489 185.485 14.5679 185.082 15.1472C184.703 15.6917 184.335 15.9747 184.238 16.0465C184.066 16.1754 184.169 16.0637 184.861 15.7869L180.404 4.64514C179.336 5.07227 178.119 5.64058 177.067 6.42552C176.277 7.01426 173.992 8.89132 173.992 12.184H185.992ZM184.826 15.8005C185.865 15.3924 187.051 15.16 188.441 15.16V3.16C185.67 3.16 182.984 3.63158 180.439 4.63149L184.826 15.8005ZM188.441 15.16C189.076 15.16 188.862 15.2667 188.288 14.9874C187.949 14.8225 187.466 14.5119 187.017 13.9731C186.554 13.4177 186.268 12.788 186.135 12.1896L197.85 9.58641C197.275 7.00175 195.558 5.17963 193.537 4.19659C191.779 3.34133 189.917 3.16 188.441 3.16V15.16ZM186.129 12.1626L186.609 14.3706L198.336 11.8214L197.856 9.61342L186.129 12.1626ZM192.473 19.096H192.809V7.096H192.473V19.096ZM198.439 15.1702C198.375 15.3431 198.298 15.4839 198.226 15.589C198.157 15.6918 198.103 15.7449 198.093 15.7547C198.084 15.7633 198.116 15.731 198.211 15.6674C198.306 15.6037 198.453 15.5155 198.667 15.4107L193.382 4.63726C190.93 5.83996 188.361 7.81326 187.178 11.0218L198.439 15.1702ZM198.748 15.3702C199.705 14.8828 200.474 14.728 201.113 14.728V2.728C198.359 2.728 195.736 3.43716 193.301 4.67776L198.748 15.3702ZM201.113 14.728C201.379 14.728 201.581 14.7388 201.724 14.7524C201.87 14.7662 201.933 14.7805 201.929 14.7797C201.927 14.7793 201.823 14.7557 201.65 14.6796C201.475 14.6028 201.2 14.4589 200.889 14.2075L208.44 4.88053C206.068 2.96069 203.057 2.728 201.113 2.728V14.728ZM200.996 14.2917C200.727 14.0843 200.367 13.7178 200.09 13.1633C199.81 12.6032 199.721 12.063 199.721 11.656H211.721C211.721 8.87016 210.456 6.43699 208.333 4.79629L200.996 14.2917ZM199.721 11.656C199.721 12.2153 199.675 13.0734 199.557 14.2894L211.5 15.4546C211.638 14.0466 211.721 12.7607 211.721 11.656H199.721ZM199.557 14.2894C199.481 15.0663 199.277 16.0443 198.876 17.2466L210.261 21.0414C210.884 19.1717 211.32 17.3017 211.5 15.4546L199.557 14.2894ZM198.842 17.3543C198.71 17.7746 198.722 17.5072 199.119 17.0309C199.347 16.7579 199.756 16.3504 200.395 16.0099C201.066 15.6521 201.843 15.448 202.648 15.448V27.448C205.262 27.448 207.188 26.0933 208.338 24.7131C209.375 23.4688 209.947 22.0494 210.295 20.9337L198.842 17.3543ZM202.648 15.448C202.945 15.448 203.158 15.473 203.223 15.4809C203.307 15.4912 203.354 15.5 203.347 15.4986C203.33 15.4956 203.237 15.4776 203.042 15.4312C202.657 15.3395 202.073 15.1853 201.258 14.9548L197.991 26.5012C198.872 26.7507 199.64 26.9565 200.263 27.1048C200.609 27.1873 201.654 27.448 202.648 27.448V15.448ZM201.258 14.9548C199.298 14.3999 197.295 14.008 195.4 14.008V26.008C195.746 26.008 196.559 26.0961 197.991 26.5012L201.258 14.9548ZM195.4 14.008C194.616 14.008 193.67 14.0606 192.709 14.284C191.866 14.4802 190.218 14.9842 188.877 16.4742L197.796 24.5018C197.242 25.1176 196.666 25.4702 196.275 25.6621C195.886 25.8536 195.577 25.9374 195.428 25.972C195.155 26.0354 195.097 26.008 195.4 26.008V14.008ZM188.651 16.7398C187.258 18.4816 186.952 20.4362 186.952 21.832H198.952C198.952 22.0758 198.903 23.1344 198.022 24.2362L188.651 16.7398ZM209.51 35.896L207.112 41.3962L207.159 41.4168L207.207 41.4366L209.51 35.896ZM208.79 29.704L203.29 27.3043L208.79 29.704ZM214.021 28.12L211.861 33.7175L211.877 33.7238L211.894 33.73L214.021 28.12ZM221.174 28.936L219.02 23.3359L218.942 23.3657L218.866 23.3975L221.174 28.936ZM220.837 26.92L218.375 32.3915L218.491 32.4437L218.609 32.4909L220.837 26.92ZM218.438 26.344L219.035 20.3738H219.035L218.438 26.344ZM215.318 25.768L213.782 31.5682L213.803 31.5737L213.823 31.579L215.318 25.768ZM212.245 24.664L209.708 30.1011V30.1011L212.245 24.664ZM209.846 22.456L204.714 25.5658L204.736 25.6011L204.758 25.636L209.846 22.456ZM208.982 16.408L214.945 17.0706L214.947 17.0534L214.949 17.0361L208.982 16.408ZM209.749 13.912L204.26 11.4902L204.243 11.5293L204.226 11.5687L209.749 13.912ZM211.717 11.272L208.034 6.53589L207.99 6.56972L207.947 6.60435L211.717 11.272ZM215.654 9.448L213.911 3.70672L213.896 3.71111L213.882 3.71558L215.654 9.448ZM227.174 8.872L226.525 14.8369L226.595 14.8444L226.665 14.8504L227.174 8.872ZM230.678 9.4L229.118 15.1937L229.145 15.201L229.172 15.208L230.678 9.4ZM232.79 10.168L229.982 15.4707L230.008 15.4841L230.033 15.4973L232.79 10.168ZM227.27 17.704L225.403 23.4064L225.45 23.4218L225.498 23.4364L227.27 17.704ZM222.71 19.096L221.061 24.8651L221.181 24.8993L221.302 24.9285L222.71 19.096ZM226.021 19.816L224.845 25.6995L226.021 19.816ZM229.861 20.92L227.755 26.538L227.838 26.5693L227.923 26.5981L229.861 20.92ZM233.174 23.416L228.343 26.9752L228.373 27.0159L228.404 27.056L233.174 23.416ZM221.174 31.432C216.025 31.432 213.132 30.9038 211.812 30.3554L207.207 41.4366C210.815 42.9362 215.698 43.432 221.174 43.432V31.432ZM211.907 30.3958C211.513 30.224 211.65 30.2316 211.981 30.5117C212.221 30.7151 213.637 31.9758 213.637 34.312H201.637C201.637 37.1602 203.365 38.9409 204.23 39.6723C205.185 40.4804 206.258 41.024 207.112 41.3962L211.907 30.3958ZM213.637 34.312C213.637 34.1164 213.711 33.4283 214.289 32.1037L203.29 27.3043C202.332 29.4997 201.637 31.8836 201.637 34.312H213.637ZM214.289 32.1037C214.599 31.3935 214.732 31.2424 214.638 31.3655C214.587 31.4325 214.325 31.7716 213.813 32.1325C213.283 32.5065 212.246 33.064 210.805 33.064V21.064C207.487 21.064 205.606 23.4217 205.101 24.0825C204.335 25.0856 203.748 26.2545 203.29 27.3043L214.289 32.1037ZM210.805 33.064C210.562 33.064 210.366 33.0479 210.24 33.0345C210.109 33.0206 210.005 33.0043 209.937 32.9925C209.805 32.9696 209.724 32.949 209.716 32.9469C209.701 32.9433 209.777 32.9625 209.978 33.0285C210.372 33.1579 210.986 33.3799 211.861 33.7175L216.182 22.5225C215.233 22.1561 214.399 21.8501 213.721 21.6274C213.386 21.5175 213.02 21.4047 212.657 21.3131C212.447 21.2598 211.692 21.064 210.805 21.064V33.064ZM211.894 33.73C214.076 34.5577 216.402 35.176 218.678 35.176V23.176C218.457 23.176 217.679 23.0903 216.149 22.51L211.894 33.73ZM218.678 35.176C219.42 35.176 220.157 35.1537 220.836 35.0885C221.374 35.0367 222.423 34.9155 223.481 34.4745L218.866 23.3975C219.084 23.3068 219.262 23.2507 219.379 23.2179C219.498 23.1841 219.589 23.1646 219.64 23.1546C219.692 23.1442 219.723 23.1399 219.727 23.1393C219.732 23.1386 219.719 23.1404 219.687 23.1435C219.62 23.15 219.503 23.1586 219.326 23.1653C219.152 23.1719 218.937 23.176 218.678 23.176V35.176ZM223.327 34.5361C224.428 34.1126 225.669 33.3268 226.593 31.9761C227.516 30.6278 227.798 29.1922 227.798 28.024H215.798C215.798 27.3038 215.975 26.2442 216.69 25.1999C217.406 24.1532 218.335 23.5994 219.02 23.3359L223.327 34.5361ZM227.798 28.024C227.798 24.0319 224.808 22.0462 223.066 21.3491L218.609 32.4909C218.387 32.4021 217.7 32.0957 217.03 31.3251C216.257 30.4364 215.798 29.2562 215.798 28.024H227.798ZM223.3 21.4485C221.894 20.8159 220.415 20.5119 219.035 20.3738L217.84 32.3142C218.095 32.3397 218.262 32.3715 218.357 32.3943C218.453 32.4174 218.45 32.425 218.375 32.3915L223.3 21.4485ZM219.035 20.3738C218.43 20.3133 217.693 20.1837 216.812 19.957L213.823 31.579C215.182 31.9283 216.525 32.1827 217.84 32.3142L219.035 20.3738ZM216.853 19.9678C216.088 19.7652 215.401 19.5154 214.783 19.2269L209.708 30.1011C211.01 30.7086 212.371 31.1948 213.782 31.5682L216.853 19.9678ZM214.783 19.2269C214.825 19.2467 214.867 19.2701 214.905 19.2957C214.942 19.3211 214.97 19.3442 214.988 19.3604C215.025 19.3942 215 19.3819 214.933 19.276L204.758 25.636C205.924 27.5016 207.556 29.0969 209.708 30.1011L214.783 19.2269ZM214.977 19.3462C214.879 19.1858 214.885 19.1353 214.885 19.096H202.885C202.885 21.4247 203.532 23.6142 204.714 25.5658L214.977 19.3462ZM214.885 19.096C214.885 17.9162 214.92 17.298 214.945 17.0706L203.018 15.7454C202.915 16.67 202.885 17.8438 202.885 19.096H214.885ZM214.949 17.0361C214.942 17.0956 214.936 17.1399 214.931 17.1674C214.926 17.1952 214.923 17.2103 214.923 17.2116C214.922 17.2122 214.931 17.1742 214.956 17.0925C215.008 16.9232 215.106 16.6497 215.273 16.2553L204.226 11.5687C203.711 12.7815 203.173 14.2716 203.014 15.7799L214.949 17.0361ZM215.239 16.3338C215.377 16.0214 215.48 15.9461 215.488 15.9396L207.947 6.60435C206.291 7.94194 205.082 9.62658 204.26 11.4902L215.239 16.3338ZM215.401 16.0081C215.381 16.0238 215.506 15.9258 215.872 15.7559C216.229 15.5904 216.736 15.3935 217.425 15.1804L213.882 3.71558C211.836 4.34782 209.73 5.21672 208.034 6.53589L215.401 16.0081ZM217.396 15.1893C218.533 14.8443 219.933 14.632 221.654 14.632V2.632C218.958 2.632 216.358 2.96371 213.911 3.70672L217.396 15.1893ZM221.654 14.632C223.739 14.632 225.345 14.7086 226.525 14.8369L227.822 2.90713C226.058 2.71539 223.984 2.632 221.654 2.632V14.632ZM226.665 14.8504C228.035 14.967 228.793 15.1063 229.118 15.1937L232.237 3.6063C230.898 3.24568 229.32 3.03296 227.682 2.89361L226.665 14.8504ZM229.172 15.208C229.453 15.281 229.66 15.3467 229.803 15.3988C229.949 15.4518 230 15.4802 229.982 15.4707L235.597 4.86527C234.501 4.28514 233.316 3.88573 232.183 3.59202L229.172 15.208ZM230.033 15.4973C230.126 15.5453 229.766 15.3851 229.327 14.8847C228.818 14.3056 228.182 13.2255 228.182 11.752H240.182C240.182 7.54236 236.817 5.49624 235.546 4.83869L230.033 15.4973ZM228.182 11.752C228.182 11.6611 228.197 11.7267 228.116 11.9856C228.035 12.2456 227.876 12.6419 227.578 13.1844L238.097 18.9596C239.258 16.8447 240.182 14.3858 240.182 11.752H228.182ZM227.578 13.1844C227.215 13.8448 227.059 14.0143 227.126 13.9383C227.163 13.8965 227.405 13.6228 227.864 13.3262C228.318 13.0332 229.296 12.52 230.678 12.52V24.52C233.76 24.52 235.633 22.435 236.125 21.8777C236.912 20.9857 237.563 19.9312 238.097 18.9596L227.578 13.1844ZM230.678 12.52C231.016 12.52 231.211 12.5586 231.154 12.5491C231.132 12.5455 231.034 12.5276 230.839 12.4809C230.447 12.3871 229.859 12.2244 229.041 11.9716L225.498 23.4364C226.44 23.7276 227.3 23.9729 228.044 24.1511C228.639 24.2934 229.652 24.52 230.678 24.52V12.52ZM229.136 12.0016C227.327 11.4098 225.244 10.84 223.382 10.84V22.84C223.18 22.84 223.235 22.8151 223.676 22.9131C224.076 23.0019 224.642 23.1574 225.403 23.4064L229.136 12.0016ZM223.382 10.84C222.335 10.84 220.579 10.9551 218.893 11.9185C216.705 13.1685 215.365 15.4341 215.365 17.992H227.365C227.365 18.6988 227.202 19.606 226.674 20.5112C226.147 21.4141 225.444 21.9958 224.846 22.3375C223.832 22.9169 223.084 22.84 223.382 22.84V10.84ZM215.365 17.992C215.365 20.4024 216.6 22.2021 217.893 23.2644C219.021 24.1912 220.247 24.6325 221.061 24.8651L224.358 13.3269C224.362 13.328 224.471 13.3587 224.648 13.4409C224.819 13.5204 225.14 13.6875 225.51 13.9916C225.888 14.3022 226.369 14.7989 226.755 15.5283C227.155 16.2869 227.365 17.1361 227.365 17.992H215.365ZM221.302 24.9285C222.328 25.1763 223.513 25.4332 224.845 25.6995L227.198 13.9325C225.97 13.6868 224.947 13.4637 224.117 13.2635L221.302 24.9285ZM224.845 25.6995C225.794 25.8892 226.763 26.166 227.755 26.538L231.968 15.302C230.4 14.714 228.809 14.2547 227.198 13.9325L224.845 25.6995ZM227.923 26.5981C227.973 26.6154 228.104 26.6512 228.343 26.9752L238.004 19.8568C236.451 17.7488 234.374 16.1206 231.8 15.2419L227.923 26.5981ZM228.404 27.056C228.411 27.0649 228.439 27.1012 228.474 27.2151C228.512 27.3403 228.566 27.5938 228.566 28.024H240.566C240.566 25.1408 239.828 22.2457 237.943 19.776L228.404 27.056ZM228.566 28.024C228.566 29.543 228.144 29.9067 227.768 30.1704C227.006 30.706 225.119 31.432 221.174 31.432V43.432C226.156 43.432 230.965 42.59 234.667 39.9896C238.755 37.1173 240.566 32.777 240.566 28.024H228.566Z" fill="url(#paint0_linear_33_117)" mask="url(#path-1-outside-1_33_117)"/>
<defs>
<linearGradient id="paint0_linear_33_117" x1="117" y1="-2.4375" x2="117" y2="13.125" gradientUnits="userSpaceOnUse">
<stop stop-color="#F79630"/>
<stop offset="1" stop-color="#F66532"/>
</linearGradient>
</defs>
</svg>
