<svg width="24" height="24" viewBox="0 0 24 24" fill="none" xmlns="http://www.w3.org/2000/svg">
<path d="M19.4728 22.1385L16.4576 19.123C16.1114 19.3449 15.7467 19.5372 15.3633 19.7C14.98 19.8629 14.5832 19.9994 14.1728 20.1095V18.5595C14.387 18.4827 14.5953 18.4042 14.7978 18.324C15.0005 18.2439 15.1922 18.1487 15.3728 18.0385L11.7883 14.4538V18.7883L7.49984 14.5H3.78834V9.50004H6.83459L1.99609 4.66154L3.04984 3.60779L20.5266 21.0845L19.4728 22.1385ZM18.9843 16.7328L17.9093 15.6578C18.2568 15.1155 18.5223 14.5337 18.7056 13.9125C18.8889 13.2914 18.9806 12.6455 18.9806 11.975C18.9806 10.4597 18.5399 9.0982 17.6586 7.89054C16.7771 6.6827 15.6152 5.84937 14.1728 5.39054V3.84054C16.0408 4.3392 17.5591 5.33854 18.7276 6.83854C19.8963 8.33854 20.4806 10.0507 20.4806 11.975C20.4806 12.852 20.3502 13.694 20.0893 14.501C19.8283 15.308 19.46 16.052 18.9843 16.7328ZM15.9228 13.6713L14.1728 11.9213V8.29629C14.8472 8.66295 15.3683 9.17929 15.7363 9.84529C16.1043 10.5113 16.2883 11.2295 16.2883 12C16.2883 12.2949 16.2578 12.5824 16.1968 12.8625C16.136 13.1427 16.0447 13.4123 15.9228 13.6713ZM11.7883 9.53654L9.63059 7.36929L11.7883 5.21179V9.53654ZM10.2883 15.15V12.9538L8.33459 11H5.28834V13H8.13834L10.2883 15.15Z" fill="#553216"/>
</svg>
