<svg width="24" height="24" viewBox="0 0 24 24" fill="none" xmlns="http://www.w3.org/2000/svg">
<path d="M14.0383 20.1095V18.5595C15.4806 18.1006 16.6425 17.2673 17.5238 16.0595C18.4053 14.8518 18.8461 13.4903 18.8461 11.975C18.8461 10.4596 18.4053 9.09812 17.5238 7.89045C16.6425 6.68262 15.4806 5.84929 14.0383 5.39045V3.84045C15.8998 4.33912 17.4165 5.33845 18.5883 6.83845C19.76 8.33845 20.3458 10.0506 20.3458 11.975C20.3458 13.8993 19.76 15.6115 18.5883 17.1115C17.4165 18.6115 15.8998 19.6108 14.0383 20.1095ZM3.65381 14.5V9.49995H7.36531L11.6536 5.2117V18.7882L7.36531 14.5H3.65381ZM14.0383 15.6537V8.2962C14.7126 8.66287 15.2338 9.1792 15.6018 9.8452C15.9696 10.5112 16.1536 11.2295 16.1536 12C16.1536 12.7601 15.968 13.4675 15.5968 14.122C15.2256 14.7765 14.7061 15.287 14.0383 15.6537ZM10.1536 8.84995L8.00356 11H5.15356V13H8.00356L10.1536 15.15V8.84995Z" fill="#F44433"/>
</svg>
