<svg width="56" height="56" viewBox="0 0 56 56" fill="none" xmlns="http://www.w3.org/2000/svg">
<g clip-path="url(#clip0_36_243)">
<path d="M46.4872 5.18135C46.9056 4.77705 47.1921 4.25291 47.3082 3.67913C47.4305 3.08863 47.4007 2.4762 47.2216 1.90076C47.0426 1.32532 46.7203 0.806221 46.2859 0.393402C46.1913 0.637997 46.0706 0.788831 45.978 1.03139C45.8379 1.37252 45.7242 1.72417 45.6379 2.08315C45.3944 3.15529 45.7848 4.33953 46.4872 5.18135Z" fill="#7FC785"/>
<path d="M50.0391 15.491C49.0671 13.5587 49.0732 11.1861 49.9123 9.19066C50.7957 7.19001 52.3559 5.57503 54.3115 4.63712C53.8386 5.3016 53.7983 6.13934 53.909 6.95058C54.0558 7.75681 54.3361 8.53211 54.7382 9.24365C54.3981 9.31499 54.2511 9.65131 54.1586 9.99578C53.8167 11.2535 53.8624 12.5869 54.2894 13.8176C52.7559 14.0173 51.2426 14.5024 50.0391 15.491Z" fill="#2C8546"/>
<path d="M48.2381 7.95952C47.7326 7.42041 47.3481 6.77703 47.1108 6.07343C46.8736 5.36983 46.7893 4.62262 46.8636 3.88294C47.0293 2.39698 47.7137 1.01989 48.7935 0C48.6205 0.531994 48.7653 1.08641 49.0068 1.58987C49.2664 2.0844 49.6066 2.53096 50.0131 2.91068C49.8118 3.0289 49.7816 3.28165 49.7897 3.52217C49.8248 4.41225 50.1282 5.27009 50.659 5.98034C49.7072 6.43285 48.8197 7.06879 48.2381 7.95952Z" fill="#2C8546"/>
<path d="M50.5342 18.634C51.6924 18.2959 52.7206 17.6066 53.4805 16.6589C54.2682 15.6852 54.7949 14.5222 55.0095 13.2822C55.2242 12.0422 55.1197 10.7671 54.706 9.57996C54.3035 9.9387 53.9353 10.1018 53.5328 10.4605C52.95 10.9533 52.4051 11.4902 51.9027 12.0667C50.4517 13.8298 50.0472 16.398 50.5342 18.634Z" fill="#7FC785"/>
<path d="M44.9678 42.533C45.2053 41.7177 46.1149 40.5212 47.9442 40.5538C47.9825 39.7263 48.6244 38.8417 49.4817 38.4829C48.4896 38.7887 47.417 38.4177 46.9581 37.6574C46.5399 37.9499 46.0332 38.0834 45.5273 38.0345C45.0538 38.0026 44.5996 37.8327 44.2192 37.5453C43.8167 38.1996 42.9413 38.6541 42.1605 38.6786C42.0921 39.2208 41.7037 39.6713 41.1965 39.9811C40.7484 40.2362 40.2656 40.423 39.7637 40.5355L40.1782 40.5233C40.5042 40.509 40.8443 40.4927 41.1844 40.4682C41.5246 40.4438 41.8828 40.4112 42.2349 40.3765C42.5871 40.3419 42.9393 40.297 43.2874 40.2481C43.6356 40.1992 43.9777 40.1462 44.3098 40.0911C44.6418 40.0361 44.9618 39.975 45.2657 39.9138C45.5695 39.8527 45.8694 39.7915 46.125 39.7304C46.3806 39.6692 46.6321 39.6101 46.8454 39.549C47.0587 39.4878 47.2479 39.4307 47.3948 39.3757C47.5417 39.3207 47.6625 39.2758 47.741 39.2412L47.8637 39.1882L47.751 39.2595C47.6766 39.3023 47.5659 39.3676 47.419 39.4389C47.0156 39.6351 46.5969 39.7974 46.1672 39.924C45.9016 40.0076 45.6158 40.0891 45.312 40.1686C45.0081 40.2481 44.6821 40.3255 44.348 40.3948C44.181 40.4315 44.0099 40.4642 43.8389 40.4947C43.6678 40.5253 43.4907 40.5579 43.3136 40.5844C42.9614 40.6415 42.6032 40.6863 42.247 40.7251C41.5728 40.7944 40.9027 40.831 40.2748 40.8331C40.8283 41.0756 41.3193 41.4438 41.7097 41.9093C41.7419 41.946 41.8043 41.999 41.756 42.0234C42.893 41.7116 44.1447 41.8828 44.9678 42.533Z" fill="#2D8A48"/>
<path d="M45.2656 31.9461C46.0706 30.0261 47.8154 28.5646 49.7916 27.9633C51.797 27.3914 53.9382 27.5641 55.8289 28.4505C55.0521 28.5055 54.4202 28.9927 53.8929 29.5797C53.392 30.1875 52.996 30.8766 52.7217 31.618C52.4601 31.4141 52.118 31.5079 51.8161 31.6465C50.6856 32.1657 49.739 33.0228 49.1033 34.1027C48.0146 33.0774 46.7246 32.2417 45.2656 31.9461Z" fill="#45D16E"/>
<path d="M29.3916 39.8445C30.5023 40.066 31.6532 39.938 32.69 39.4776C33.76 39.0075 34.6924 38.2663 35.3973 37.3252C36.1023 36.3841 36.5561 35.275 36.7148 34.1047C36.2258 34.229 35.8495 34.2045 35.3625 34.3289C34.6667 34.4872 33.9838 34.6991 33.3199 34.9628C31.3618 35.7985 29.935 37.7654 29.3916 39.8445Z" fill="#00AB32"/>
<path d="M50.2223 21.5855C49.1416 21.2818 47.5599 20.1016 47.7048 17.7005C47.1124 17.6532 46.5445 17.4408 46.0639 17.0868C45.5834 16.7328 45.2089 16.2511 44.9819 15.6948C45.3422 16.9953 44.7807 18.4078 43.7262 19.0172C44.1287 19.5248 44.2233 20.2524 44.1609 20.8904C44.0899 21.5289 43.8352 22.1321 43.4283 22.625C44.2937 23.1366 44.8612 24.2923 44.8531 25.3176C45.5837 25.4012 46.1733 25.9067 46.5657 26.5671C46.8858 27.1526 47.1133 27.7854 47.2399 28.4423C47.2399 28.265 47.2399 28.0836 47.2399 27.9001C47.2399 27.47 47.2399 27.0257 47.2198 26.5711C47.1996 26.1166 47.1795 25.658 47.1493 25.1953C47.1191 24.7326 47.0809 24.2699 47.0346 23.8154C46.9883 23.3608 46.932 22.9104 46.8756 22.4742C46.8193 22.038 46.7529 21.6201 46.6865 21.2206C46.6201 20.8211 46.5516 20.444 46.4852 20.0955C46.4188 19.7469 46.3484 19.431 46.284 19.1518C46.2196 18.8725 46.1431 18.63 46.0827 18.4343C46.0224 18.2386 45.96 18.0817 45.9197 17.9777L45.8553 17.8187L45.9439 17.9655C45.9982 18.0633 46.0807 18.208 46.1693 18.3976C46.4112 18.9267 46.6085 19.4756 46.7589 20.0384C46.8575 20.3849 46.9602 20.76 47.0427 21.1595C47.1252 21.559 47.2238 21.9748 47.2983 22.4212C47.3405 22.6393 47.3727 22.8635 47.4069 23.0897C47.4411 23.316 47.4733 23.5443 47.4995 23.7746C47.5579 24.2373 47.6001 24.7081 47.6323 25.177C47.6896 26.0379 47.703 26.9012 47.6726 27.7635C48.0409 27.0246 48.5651 26.3768 49.2081 25.8659C49.2604 25.8251 49.3348 25.7436 49.367 25.8068C49.0008 24.3188 49.3047 22.6739 50.2223 21.5855Z" fill="#39AD5B"/>
<path d="M50.7475 10.2241C49.6246 10.2465 47.7752 9.57589 47.2318 7.23593C46.6522 7.36323 46.0491 7.32591 45.4891 7.12809C44.9291 6.93027 44.4339 6.57964 44.0582 6.11487C44.7726 7.25427 44.6358 8.76465 43.7986 9.66353C44.3279 10.0304 44.6237 10.699 44.7444 11.3309C44.8549 11.9594 44.7814 12.607 44.5331 13.1939C45.5051 13.4323 46.3765 14.374 46.6603 15.3565C47.3847 15.226 48.0911 15.5379 48.6546 16.0577C49.1279 16.5244 49.5259 17.0637 49.8339 17.6557C49.7856 17.4845 49.7353 17.3112 49.6829 17.1359C49.5622 16.7282 49.4294 16.3002 49.2805 15.8701C49.1315 15.44 48.9826 15.0039 48.8236 14.5697C48.6646 14.1355 48.4956 13.7055 48.3205 13.2815C48.1454 12.8575 47.9663 12.4458 47.7892 12.0443C47.6121 11.6427 47.429 11.2616 47.2539 10.8987C47.0789 10.5359 46.9038 10.1935 46.7408 9.87959C46.5778 9.5657 46.4228 9.28237 46.2759 9.03574C46.129 8.78911 45.9921 8.57712 45.8734 8.40591C45.7547 8.23469 45.6581 8.10628 45.5876 8.01863L45.481 7.8841L45.6078 8.00029C45.6883 8.07774 45.809 8.19189 45.9479 8.34883C46.3301 8.78429 46.6748 9.25208 46.9782 9.7471C47.1795 10.0508 47.3666 10.383 47.5679 10.7377C47.7691 11.0924 47.9704 11.4735 48.1716 11.873C48.2742 12.0769 48.3728 12.2807 48.4654 12.4845C48.558 12.6884 48.6667 12.9024 48.7492 13.1164C48.9363 13.5404 49.1094 13.9786 49.2724 14.4189C49.5721 15.2268 49.83 16.0501 50.0452 16.8852C50.1877 16.0704 50.5066 15.2978 50.979 14.6227C51.0152 14.5677 51.0635 14.4657 51.1118 14.5187C50.3511 13.1979 50.17 11.5367 50.7475 10.2241Z" fill="#39AD5B"/>
<path d="M46.3907 3.46508C45.8554 3.6893 44.8391 3.71987 44.1408 2.69461C43.8854 2.8666 43.5882 2.96388 43.2818 2.97575C42.9753 2.98761 42.6716 2.91361 42.4041 2.76187C42.6695 2.95667 42.8651 3.23367 42.9613 3.55103C43.0575 3.86838 43.0491 4.20883 42.9373 4.52092C43.2622 4.62093 43.5366 4.84348 43.7041 5.1426C43.874 5.4244 43.9593 5.75017 43.9496 6.08021C44.2209 6.0597 44.4929 6.10718 44.7418 6.21845C44.9906 6.32972 45.2086 6.50136 45.3764 6.7182C45.5424 6.62586 45.7273 6.57376 45.9166 6.56598C46.1058 6.5582 46.2943 6.59495 46.4672 6.67335C46.7817 6.80914 47.0736 6.99341 47.3325 7.21962L47.1635 6.99744C47.0286 6.82215 46.8857 6.64278 46.7368 6.46341C46.5879 6.28404 46.4329 6.09244 46.286 5.91103C46.1391 5.72963 45.9661 5.55637 45.8051 5.38515C45.6441 5.21394 45.4791 5.04884 45.3181 4.88985C45.1571 4.73086 44.9981 4.58207 44.8471 4.43939C44.6962 4.29671 44.5473 4.16829 44.4104 4.04804C44.2736 3.92778 44.1448 3.81975 44.0281 3.73006C43.9114 3.64038 43.8067 3.56292 43.7182 3.50381C43.6296 3.4447 43.5592 3.39986 43.5169 3.37132L43.4405 3.32648L43.523 3.35705C43.5753 3.37948 43.6538 3.41209 43.7504 3.46101C44.0158 3.59739 44.269 3.75698 44.507 3.93797C44.656 4.04804 44.8129 4.17033 44.9759 4.30282C45.139 4.43531 45.308 4.58003 45.477 4.73494C45.5636 4.81036 45.6481 4.89189 45.7326 4.97138C45.8171 5.05087 45.9017 5.13648 45.9862 5.22209C46.1552 5.39127 46.3202 5.5686 46.4812 5.75001C46.7693 6.08411 47.04 6.43313 47.2923 6.79565C47.209 6.37545 47.2186 5.94178 47.3204 5.5258C47.3204 5.49318 47.3325 5.43407 47.3647 5.45038C47.0619 5.21821 46.8164 4.91811 46.6474 4.57364C46.4784 4.22918 46.3905 3.84973 46.3907 3.46508Z" fill="#39AD5B"/>
<path d="M53.732 26.0331C53.5731 25.1688 53.8468 23.6585 55.5432 22.9471C55.3755 22.5157 55.3285 22.0459 55.4073 21.5892C55.4861 21.1325 55.6878 20.7066 55.99 20.3585C55.6268 20.6902 55.1669 20.8933 54.6797 20.937C54.1925 20.9808 53.7045 20.8628 53.2893 20.601C53.0427 21.0486 52.6367 21.3839 52.1543 21.5386C51.6948 21.7018 51.1983 21.7258 50.7255 21.6079C50.6671 22.3866 50.0674 23.1774 49.3631 23.5178C49.4442 23.7929 49.4614 24.0832 49.4132 24.3662C49.365 24.6491 49.2528 24.9168 49.0853 25.1484C48.7922 25.5714 48.4357 25.9455 48.0288 26.2573L48.4011 26.0779C48.6949 25.9311 49.0048 25.7762 49.3047 25.6132C49.6045 25.4501 49.9084 25.2769 50.2244 25.0995C50.5403 24.9222 50.8281 24.7387 51.132 24.5512C51.4359 24.3637 51.7176 24.1741 51.9953 23.9866C52.273 23.7991 52.5407 23.6116 52.8003 23.4302C53.0599 23.2488 53.2853 23.0735 53.5026 22.9084C53.72 22.7433 53.9051 22.5884 54.0782 22.4436C54.2513 22.2989 54.3881 22.1685 54.5028 22.0564C54.6175 21.9443 54.7041 21.8525 54.7584 21.7873L54.8469 21.6874L54.7745 21.7995C54.7262 21.8709 54.6558 21.9789 54.5551 22.1053C54.2753 22.455 53.9663 22.7796 53.6314 23.0755C53.4302 23.261 53.2008 23.4546 52.9593 23.6523C52.7178 23.8501 52.4562 24.06 52.1805 24.2638C52.0456 24.3657 51.9027 24.4677 51.7599 24.5655C51.617 24.6633 51.4701 24.7693 51.3212 24.8631C51.0233 25.0669 50.7174 25.2483 50.4055 25.4297C49.8352 25.7617 49.2481 26.0631 48.6466 26.3327C49.2747 26.3432 49.8929 26.4928 50.4578 26.7709C50.5021 26.7933 50.5846 26.8178 50.5524 26.8606C51.4379 26.0901 52.6655 25.7518 53.732 26.0331Z" fill="#39AD5B"/>
<path d="M55.1809 20.2076C54.7785 19.4331 54.5913 17.9084 56 16.716C55.7119 16.3557 55.5278 15.9216 55.4681 15.4619C55.4084 15.0021 55.4755 14.5346 55.6619 14.1111C55.4124 14.5373 55.033 14.8698 54.5808 15.0588C54.1286 15.2477 53.628 15.2828 53.1544 15.1588C53.0519 15.6607 52.764 16.104 52.3494 16.398C51.9595 16.6928 51.4929 16.8657 51.0071 16.8954C51.1822 17.6577 50.8421 18.5912 50.2706 19.1375C50.4273 19.3745 50.5283 19.6447 50.5656 19.9274C50.6029 20.2102 50.5757 20.4978 50.4859 20.7681C50.3311 21.2601 50.1009 21.7244 49.8037 22.144L50.1056 21.8607C50.3451 21.6324 50.5886 21.3919 50.8321 21.1452C51.0756 20.8986 51.3171 20.6377 51.5586 20.3768C51.8 20.1159 52.0335 19.8468 52.2629 19.5778C52.4923 19.3087 52.7097 19.0417 52.921 18.7767C53.1323 18.5118 53.3235 18.2549 53.5247 18.0063C53.7259 17.7576 53.8829 17.5171 54.0399 17.2949C54.1969 17.0727 54.3357 16.8648 54.4544 16.6834C54.5732 16.502 54.6678 16.3267 54.7422 16.1861C54.8167 16.0454 54.873 15.9292 54.9093 15.8518C54.9455 15.7743 54.9636 15.7295 54.9636 15.7295C54.9636 15.7295 54.9515 15.7743 54.9274 15.8579C54.9032 15.9415 54.867 16.0617 54.8086 16.2166C54.6409 16.6345 54.439 17.0375 54.2049 17.4213C54.064 17.6597 53.9071 17.9125 53.734 18.1754C53.5609 18.4384 53.3738 18.7156 53.1705 18.9908C53.0699 19.1294 52.9693 19.268 52.8566 19.3984C52.7439 19.5289 52.6392 19.6777 52.5265 19.8061C52.3011 20.0853 52.0617 20.3564 51.8202 20.6214C51.3613 21.1208 50.8804 21.5936 50.4115 22.0156C51.016 21.8322 51.6531 21.7869 52.277 21.8831C52.3253 21.8831 52.4118 21.8831 52.3937 21.9402C53.0176 20.9618 54.0862 20.2606 55.1809 20.2076Z" fill="#43CC6B"/>
<path d="M34.155 39.6244C34.7284 40.8798 35.6673 41.9275 36.8457 42.6268C38.0566 43.3526 39.4318 43.7502 40.8385 43.7813C42.2453 43.8124 43.6362 43.4758 44.8773 42.8041C44.4104 42.4087 44.1689 42.0194 43.702 41.624C43.0577 41.0478 42.3708 40.5225 41.6473 40.0524C39.4437 38.7072 36.5438 38.6888 34.155 39.6244Z" fill="#00AB31"/>
<path d="M49.9084 21.5835C50.3395 20.7993 50.5235 19.9002 50.4356 19.0071C50.3468 18.0864 50.0256 17.2044 49.503 16.4458C48.9803 15.6873 48.2737 15.0777 47.4512 14.6757C47.425 15.0833 47.3163 15.3524 47.2882 15.7519C47.2355 16.3142 47.2261 16.8799 47.26 17.4437C47.4009 19.1192 48.4997 20.6703 49.9084 21.5835Z" fill="#00942A"/>
<path d="M35.5234 39.231C36.6608 39.9964 38.002 40.3911 39.3672 40.3622C40.7736 40.3377 42.15 39.9468 43.364 39.2271C44.5779 38.5073 45.5883 37.4831 46.298 36.253C45.6943 36.1634 45.2918 35.9616 44.6881 35.8698C43.8408 35.722 42.9838 35.6389 42.1242 35.6212C39.5624 35.6395 37.075 37.1662 35.5234 39.231Z" fill="#00C439"/>
<path d="M29.7659 39.9974C30.1514 41.0743 30.8538 42.0056 31.7783 42.6655C32.7285 43.3496 33.8367 43.7743 34.996 43.8985C36.1553 44.0228 37.3267 43.8424 38.3972 43.3748C38.039 43.0161 37.8659 42.6777 37.5077 42.319C37.0152 41.7972 36.4837 41.3147 35.9179 40.8759C34.2113 39.6121 31.7964 39.392 29.7659 39.9974Z" fill="#00C439"/>
<path d="M34.479 39.3248C35.2188 39.2741 35.9391 39.0623 36.5907 38.7039C37.2422 38.3454 37.8097 37.8487 38.2544 37.2477C39.1351 36.027 39.5569 34.5279 39.4437 33.0203C39.2123 33.534 38.7293 33.8458 38.2101 34.0537C37.6815 34.2407 37.1258 34.3365 36.5659 34.3371C36.6404 34.5674 36.4874 34.7733 36.3184 34.9485C35.6896 35.5844 34.8844 36.011 34.0101 36.1715C34.4126 37.1723 34.6501 38.2587 34.479 39.3248Z" fill="#00C238"/>
<path d="M40.1119 36.6097C40.7635 36.2516 41.331 35.7552 41.7756 35.1543C42.2202 34.5534 42.5314 33.8623 42.6878 33.1283C42.9877 31.6465 42.7558 30.1048 42.0337 28.7807C42.0337 29.3473 41.7238 29.8345 41.3374 30.2421C40.9339 30.6355 40.4679 30.9572 39.9589 31.194C40.1219 31.3713 40.0676 31.6241 39.9851 31.8524C39.6764 32.697 39.1203 33.426 38.3912 33.9416C39.1721 34.6774 39.8281 35.5682 40.1119 36.6097Z" fill="#40C265"/>
<path d="M42.9856 34.0761C43.2917 33.392 43.74 32.7829 44.2999 32.2904C44.8598 31.798 45.518 31.4337 46.2296 31.2225C47.6676 30.8124 49.203 30.9367 50.5584 31.5731C50.0009 31.6118 49.5522 31.9604 49.1698 32.3884C48.8111 32.8237 48.5274 33.3171 48.3306 33.8478C48.1435 33.695 47.9 33.7684 47.6826 33.8682C46.8727 34.2401 46.1944 34.8539 45.7386 35.6273C44.9558 34.8874 44.0321 34.2881 42.9856 34.0761Z" fill="#39AD5B"/>
<path d="M43.5591 33.4524C44.2402 32.9318 44.8023 32.2684 45.2069 31.5075C45.6115 30.7465 45.8492 29.9061 45.9036 29.0436C45.9962 27.3045 45.4707 25.5893 44.4224 24.2088C44.521 24.8508 44.2494 25.4603 43.8771 25.9902C43.485 26.5089 43.0086 26.9563 42.4683 27.3131C42.6837 27.4884 42.6696 27.7839 42.6092 28.0571C42.3992 29.0701 41.8896 29.9944 41.1482 30.7068C42.1625 31.4162 43.066 32.3171 43.5591 33.4524Z" fill="#44CF6D"/>
<path d="M40.1521 37.3476C40.4582 36.6635 40.9065 36.0544 41.4664 35.5619C42.0263 35.0694 42.6845 34.7052 43.3961 34.494C44.8333 34.0843 46.3677 34.2079 47.7229 34.8425C47.1654 34.8813 46.7167 35.2319 46.3363 35.6579C45.9766 36.0924 45.6928 36.586 45.4971 37.1173C45.31 36.9664 45.0665 37.0378 44.8471 37.1377C44.0376 37.5104 43.36 38.1249 42.9051 38.8987C42.1223 38.1568 41.1986 37.5596 40.1521 37.3476Z" fill="#48DB73"/>
<path d="M44.4607 0.531997C45.155 2.08925 45.5072 3.79326 46.3504 5.27102C47.3525 6.98298 48.1298 8.82004 48.6627 10.7357C49.5783 14.2008 50.3974 17.9064 49.852 21.506C49.2604 25.393 47.0145 28.8704 44.5976 31.8605C42.3839 34.6061 39.5665 37.1601 36.25 38.4055C33.0039 39.6285 28.4659 40.299 25.413 38.2526C25.1071 38.0488 24.8455 38.5604 25.1494 38.7642C27.9185 40.6231 31.7723 40.2685 34.8352 39.4695C38.3329 38.5583 41.3032 36.3794 43.7544 33.7459C46.3705 30.9433 48.7854 27.5047 49.9366 23.8093C51.0655 20.2117 50.5946 16.449 49.7796 12.8412C49.2785 10.6215 48.6607 8.48133 47.6263 6.44712C47.097 5.40351 46.451 4.43329 45.9861 3.35707C45.5595 2.37665 45.1812 1.36158 44.6016 0.464734C44.5553 0.393394 44.4225 0.446389 44.4607 0.531997Z" fill="#6F3400"/>
<path d="M36.3929 38.3036C36.2953 38.4942 36.2557 38.7098 36.279 38.9232C36.3023 39.1367 36.3875 39.3383 36.5239 39.5027C36.6603 39.6671 36.8418 39.7869 37.0453 39.8469C37.2489 39.9069 37.4654 39.9044 37.6676 39.8399C37.8698 39.7753 38.0486 39.6515 38.1813 39.4841C38.3141 39.3167 38.3949 39.1132 38.4136 38.8993C38.4322 38.6854 38.3878 38.4707 38.2861 38.2823C38.1843 38.0939 38.0298 37.9403 37.8419 37.8409C37.5891 37.7077 37.2945 37.6817 37.0228 37.7684C36.7511 37.8552 36.5245 38.0477 36.3929 38.3036Z" fill="#ED5816"/>
<path d="M36.6968 39.2819C36.9496 39.4145 37.244 39.4403 37.5156 39.3536C37.7871 39.2669 38.0137 39.0747 38.1457 38.8192C38.237 38.6425 38.2774 38.4433 38.2625 38.2444C38.3465 38.3852 38.3978 38.5435 38.4126 38.7074C38.4274 38.8712 38.4053 39.0363 38.3479 39.1902C38.2905 39.3441 38.1993 39.4828 38.0813 39.5958C37.9633 39.7088 37.8214 39.7932 37.6665 39.8426C37.5116 39.892 37.3476 39.9051 37.1869 39.881C37.0262 39.8568 36.8731 39.796 36.739 39.7032C36.6049 39.6103 36.4934 39.4878 36.4129 39.3449C36.3324 39.202 36.2849 39.0425 36.2742 38.8784C36.3759 39.0496 36.5221 39.1892 36.6968 39.2819Z" fill="#D95015"/>
<path d="M37.3528 38.0121C37.3302 38.0632 37.3277 38.1212 37.3459 38.1742C37.364 38.2271 37.4014 38.2711 37.4504 38.2971C37.4994 38.3231 37.5564 38.3292 37.6097 38.3141C37.663 38.299 37.7086 38.2639 37.7372 38.2159C37.7526 38.1902 37.7625 38.1616 37.7666 38.1318C37.7706 38.102 37.7685 38.0718 37.7605 38.0428C37.7526 38.0139 37.7388 37.9869 37.7201 37.9636C37.7015 37.9402 37.6783 37.921 37.652 37.907C37.6257 37.8931 37.5969 37.8848 37.5673 37.8825C37.5378 37.8803 37.508 37.8842 37.48 37.8941C37.452 37.9039 37.4262 37.9195 37.4044 37.9398C37.3825 37.9601 37.365 37.9847 37.3528 38.0121Z" fill="#ED8253"/>
<path d="M36.9704 38.0039C36.9611 38.0229 36.9576 38.0442 36.9602 38.0652C36.9628 38.0862 36.9714 38.106 36.985 38.1221C36.9986 38.1382 37.0166 38.1498 37.0367 38.1557C37.0568 38.1615 37.0781 38.1612 37.0981 38.1548C37.118 38.1485 37.1356 38.1363 37.1488 38.1199C37.162 38.1034 37.1701 38.0834 37.1722 38.0624C37.1742 38.0413 37.1701 38.0201 37.1603 38.0014C37.1506 37.9826 37.1356 37.9672 37.1173 37.9571C37.1047 37.9501 37.0908 37.9457 37.0765 37.9443C37.0621 37.9428 37.0477 37.9444 37.034 37.9488C37.0202 37.9531 37.0075 37.9603 36.9966 37.9698C36.9857 37.9792 36.9768 37.9909 36.9704 38.0039Z" fill="#ED8253"/>
<path d="M33.1811 37.5045C33.0305 37.7974 32.9691 38.1288 33.0045 38.457C33.04 38.7852 33.1707 39.0953 33.3801 39.3483C33.5896 39.6012 33.8684 39.7856 34.1813 39.8781C34.4942 39.9705 34.8271 39.967 35.138 39.8678C35.4489 39.7686 35.7238 39.5783 35.9279 39.3209C36.132 39.0635 36.2562 38.7506 36.2848 38.4218C36.3133 38.0929 36.245 37.7628 36.0883 37.4733C35.9317 37.1838 35.6938 36.9478 35.4048 36.7952C35.2129 36.6936 35.003 36.6313 34.7873 36.612C34.5716 36.5926 34.3542 36.6166 34.1476 36.6825C33.941 36.7484 33.7493 36.8549 33.5834 36.996C33.4176 37.137 33.2809 37.3099 33.1811 37.5045Z" fill="#D14D13"/>
<path d="M33.6479 39.0088C34.0345 39.2109 34.4844 39.2497 34.8992 39.1167C35.314 38.9838 35.66 38.69 35.8616 38.2995C36.0026 38.0284 36.0654 37.7225 36.0427 37.4169C36.1761 37.6326 36.259 37.8764 36.285 38.1295C36.3111 38.3827 36.2795 38.6385 36.1928 38.8774C36.1061 39.1163 35.9666 39.332 35.7849 39.5078C35.6032 39.6836 35.3841 39.815 35.1445 39.8918C34.905 39.9686 34.6512 39.9888 34.4027 39.9509C34.1542 39.913 33.9175 39.818 33.7109 39.6732C33.5043 39.5283 33.3331 39.3375 33.2106 39.1153C33.088 38.8931 33.0173 38.6454 33.0039 38.3912C33.1588 38.6528 33.3815 38.8664 33.6479 39.0088Z" fill="#BD4612"/>
<path d="M34.6541 37.0602C34.6307 37.0998 34.6156 37.1438 34.6097 37.1895C34.6037 37.2352 34.6071 37.2816 34.6195 37.326C34.6319 37.3704 34.6531 37.4117 34.6819 37.4474C34.7106 37.4832 34.7463 37.5126 34.7867 37.5339C34.827 37.5552 34.8713 37.5679 34.9167 37.5712C34.9621 37.5745 35.0077 37.5684 35.0507 37.5533C35.0937 37.5381 35.1331 37.5142 35.1667 37.4831C35.2002 37.4519 35.2271 37.4141 35.2457 37.3721C35.2806 37.2933 35.2844 37.204 35.2564 37.1225C35.2284 37.041 35.1707 36.9734 35.0951 36.9336C35.0195 36.8937 34.9317 36.8847 34.8498 36.9082C34.7678 36.9317 34.6978 36.9861 34.6541 37.0602Z" fill="#D17249"/>
<path d="M34.0665 37.0459C34.0511 37.0756 34.0448 37.1092 34.0483 37.1424C34.0518 37.1757 34.065 37.2072 34.0861 37.2329C34.1073 37.2586 34.1355 37.2773 34.1672 37.2868C34.1989 37.2962 34.2327 37.2959 34.2642 37.286C34.2958 37.276 34.3237 37.2567 34.3444 37.2307C34.3651 37.2047 34.3778 37.173 34.3808 37.1396C34.3837 37.1063 34.3768 37.0728 34.361 37.0435C34.3452 37.0141 34.3211 36.9901 34.2918 36.9746C34.2526 36.9538 34.2068 36.9496 34.1646 36.963C34.1223 36.9764 34.087 37.0062 34.0665 37.0459Z" fill="#D17249"/>
<path d="M34.3784 38.4177C34.2268 38.7119 34.1648 39.045 34.2001 39.3748C34.2354 39.7047 34.3666 40.0166 34.5769 40.271C34.7873 40.5254 35.0674 40.7109 35.3818 40.804C35.6963 40.8971 36.0309 40.8937 36.3434 40.7942C36.656 40.6947 36.9323 40.5035 37.1376 40.2449C37.3428 39.9862 37.4677 39.6718 37.4965 39.3412C37.5253 39.0107 37.4566 38.6789 37.2992 38.3879C37.1418 38.0969 36.9027 37.8597 36.6122 37.7063C36.4195 37.6043 36.2087 37.5417 35.9921 37.5222C35.7754 37.5028 35.5571 37.5268 35.3496 37.5928C35.1422 37.6589 34.9496 37.7658 34.7829 37.9073C34.6163 38.0489 34.4788 38.2223 34.3784 38.4177Z" fill="#FF5F18"/>
<path d="M34.8473 39.924C35.0399 40.0257 35.2505 40.0881 35.4669 40.1074C35.6833 40.1267 35.9014 40.1026 36.1087 40.0366C36.3159 39.9705 36.5083 39.8637 36.6748 39.7224C36.8413 39.581 36.9787 39.4078 37.0791 39.2126C37.2203 38.9401 37.2838 38.633 37.2622 38.326C37.3923 38.5431 37.4719 38.7873 37.4951 39.0401C37.5183 39.2929 37.4845 39.5478 37.3961 39.7854C37.3078 40.0231 37.1673 40.2373 36.9852 40.4119C36.8032 40.5864 36.5843 40.7168 36.3452 40.7931C36.1061 40.8695 35.853 40.8897 35.605 40.8524C35.357 40.8152 35.1207 40.7213 34.9138 40.5779C34.7069 40.4345 34.5349 40.2453 34.4107 40.0247C34.2866 39.8041 34.2136 39.5578 34.1973 39.3044C34.3529 39.5681 34.578 39.7827 34.8473 39.924Z" fill="#EB5717"/>
<path d="M35.8596 37.9672C35.8289 38.0265 35.8163 38.0937 35.8233 38.1602C35.8303 38.2268 35.8566 38.2897 35.899 38.3411C35.9413 38.3925 35.9978 38.43 36.0612 38.4489C36.1245 38.4678 36.192 38.4673 36.2551 38.4473C36.3182 38.4273 36.374 38.3889 36.4155 38.3368C36.457 38.2847 36.4823 38.2213 36.4882 38.1546C36.4941 38.088 36.4804 38.021 36.4487 37.9623C36.4171 37.9035 36.3689 37.8556 36.3104 37.8246C36.2318 37.7835 36.1405 37.7755 36.0561 37.8022C35.9717 37.8289 35.9011 37.8882 35.8596 37.9672Z" fill="#FF8C59"/>
<path d="M35.2679 37.955C35.2531 37.9848 35.2473 38.0183 35.2512 38.0513C35.2551 38.0844 35.2686 38.1156 35.29 38.1409C35.3113 38.1663 35.3396 38.1847 35.3712 38.1938C35.4028 38.2029 35.4364 38.2024 35.4677 38.1923C35.4991 38.1822 35.5268 38.1629 35.5473 38.137C35.5679 38.111 35.5805 38.0794 35.5834 38.0462C35.5863 38.0131 35.5795 37.9797 35.5639 37.9505C35.5482 37.9212 35.5243 37.8972 35.4953 37.8816C35.4555 37.8609 35.4092 37.857 35.3666 37.8707C35.324 37.8845 35.2885 37.9148 35.2679 37.955Z" fill="#FF8C59"/>
<path d="M31.9092 39.4246C32.1819 40.1851 32.6785 40.8425 33.332 41.308C34.0024 41.791 34.7844 42.0909 35.6025 42.1788C36.4207 42.2666 37.2473 42.1394 38.0028 41.8094C37.7493 41.5546 37.6285 41.3162 37.375 41.0634C37.0274 40.6947 36.6519 40.3539 36.252 40.0443C35.0405 39.1535 33.3461 38.9986 31.9092 39.4246Z" fill="#7FC785"/>
<path d="M46.7831 30.0587C47.5643 30.2139 48.3737 30.1244 49.1034 29.8018C49.8584 29.4705 50.5165 28.9478 51.0141 28.2842C51.5118 27.6205 51.8324 26.8382 51.945 26.0127C51.5988 26.1003 51.3412 26.082 50.9891 26.1696C50.4983 26.2812 50.0166 26.4304 49.5482 26.616C48.1737 27.2051 47.1654 28.5931 46.7831 30.0587Z" fill="#7FC785"/>
<path d="M48.8116 11.4267C49.4522 10.9435 49.9306 10.2724 50.182 9.50454C50.4444 8.71443 50.5015 7.8692 50.3478 7.05026C50.1941 6.23131 49.8349 5.46624 49.3046 4.8287C49.1376 5.14668 48.9464 5.3342 48.7794 5.64402C48.5329 6.08817 48.319 6.55007 48.1394 7.02598C47.6524 8.46705 47.9945 10.1548 48.8116 11.4267Z" fill="#7FC785"/>
<path d="M47.1151 28.8357C47.0175 29.0263 46.9778 29.242 47.0011 29.4554C47.0245 29.6688 47.1097 29.8705 47.2461 30.0348C47.3825 30.1992 47.5639 30.319 47.7675 30.379C47.971 30.439 48.1876 30.4366 48.3898 30.372C48.592 30.3075 48.7707 30.1837 48.9035 30.0162C49.0363 29.8488 49.1171 29.6453 49.1357 29.4314C49.1544 29.2175 49.11 29.0028 49.0083 28.8145C48.9065 28.6261 48.7519 28.4725 48.564 28.373C48.4389 28.3068 48.3022 28.2663 48.1616 28.2537C48.021 28.2411 47.8793 28.2568 47.7447 28.2998C47.6101 28.3427 47.4852 28.4122 47.3772 28.5042C47.2691 28.5961 47.1801 28.7088 47.1151 28.8357Z" fill="#ED5816"/>
<path d="M47.419 29.812C47.6714 29.9453 47.9659 29.9717 48.2375 29.8853C48.5092 29.799 48.7359 29.6069 48.8679 29.3514C48.959 29.1746 48.9995 28.9755 48.9846 28.7766C49.0686 28.9174 49.12 29.0757 49.1348 29.2395C49.1496 29.4033 49.1274 29.5684 49.0701 29.7223C49.0127 29.8762 48.9215 30.0149 48.8035 30.128C48.6854 30.241 48.5436 30.3254 48.3887 30.3748C48.2337 30.4242 48.0697 30.4373 47.9091 30.4131C47.7484 30.389 47.5953 30.3281 47.4612 30.2353C47.3271 30.1424 47.2156 30.0199 47.1351 29.8771C47.0545 29.7342 47.0071 29.5746 46.9963 29.4105C47.0982 29.5811 47.2444 29.72 47.419 29.812Z" fill="#D95015"/>
<path d="M48.0751 28.5361C48.0551 28.5747 48.0469 28.6185 48.0516 28.6618C48.0562 28.7052 48.0734 28.7462 48.1011 28.7796C48.1288 28.813 48.1656 28.8374 48.207 28.8495C48.2483 28.8617 48.2923 28.8612 48.3334 28.848C48.3744 28.8348 48.4107 28.8095 48.4375 28.7755C48.4644 28.7414 48.4806 28.7 48.4842 28.6565C48.4878 28.613 48.4786 28.5695 48.4577 28.5313C48.4368 28.4932 48.4052 28.4622 48.3669 28.4423C48.3417 28.4289 48.3141 28.4207 48.2857 28.4181C48.2574 28.4156 48.2288 28.4188 48.2017 28.4275C48.1745 28.4362 48.1494 28.4503 48.1276 28.4689C48.1059 28.4876 48.088 28.5104 48.0751 28.5361Z" fill="#ED8253"/>
<path d="M47.6946 28.5361C47.6861 28.5489 47.6803 28.5634 47.6777 28.5786C47.675 28.5939 47.6756 28.6095 47.6793 28.6245C47.683 28.6395 47.6898 28.6535 47.6993 28.6657C47.7087 28.6779 47.7206 28.6879 47.7341 28.6951C47.7476 28.7023 47.7625 28.7065 47.7777 28.7075C47.7929 28.7085 47.8082 28.7062 47.8225 28.7008C47.8369 28.6955 47.8499 28.6871 47.8608 28.6762C47.8717 28.6654 47.8802 28.6524 47.8858 28.638C47.8994 28.6123 47.9023 28.5822 47.894 28.5543C47.8857 28.5264 47.8669 28.503 47.8415 28.4892C47.8158 28.4762 47.7861 28.4738 47.7587 28.4825C47.7313 28.4913 47.7083 28.5105 47.6946 28.5361Z" fill="#ED8253"/>
<path d="M45.1007 28.9437C44.9495 29.238 44.8878 29.5711 44.9234 29.9009C44.9591 30.2308 45.0905 30.5424 45.3011 30.7966C45.5116 31.0508 45.7919 31.236 46.1064 31.3288C46.4209 31.4217 46.7555 31.418 47.0679 31.3182C47.3803 31.2184 47.6565 31.027 47.8615 30.7683C48.0665 30.5095 48.1912 30.195 48.2197 29.8645C48.2483 29.534 48.1794 29.2023 48.0218 28.9114C47.8643 28.6205 47.6251 28.3835 47.3345 28.2303C46.9449 28.0249 46.4907 27.9847 46.0717 28.1185C45.6528 28.2522 45.3035 28.5491 45.1007 28.9437Z" fill="#FF5F18"/>
<path d="M45.5696 30.4561C45.7622 30.5579 45.9728 30.6202 46.1892 30.6395C46.4056 30.6588 46.6237 30.6348 46.8309 30.5687C47.0382 30.5026 47.2306 30.3959 47.3971 30.2545C47.5636 30.1131 47.701 29.9399 47.8014 29.7448C47.9426 29.4722 48.006 29.1652 47.9845 28.8581C48.1146 29.0753 48.1943 29.3196 48.2175 29.5725C48.2407 29.8255 48.2068 30.0804 48.1184 30.3182C48.03 30.5559 47.8894 30.7701 47.7072 30.9447C47.525 31.1193 47.306 31.2496 47.0667 31.3258C46.8274 31.402 46.5742 31.4221 46.3262 31.3846C46.0781 31.3471 45.8417 31.253 45.6349 31.1093C45.428 30.9656 45.2561 30.7762 45.1322 30.5553C45.0083 30.3345 44.9356 30.088 44.9196 29.8345C45.0745 30.0993 45.2997 30.3147 45.5696 30.4561Z" fill="#EB5717"/>
<path d="M46.5818 28.4994C46.5511 28.5587 46.5385 28.6258 46.5455 28.6924C46.5525 28.7589 46.5788 28.8219 46.6212 28.8733C46.6635 28.9247 46.7199 28.9622 46.7833 28.9811C46.8467 29 46.9142 28.9994 46.9773 28.9794C47.0404 28.9595 47.0962 28.921 47.1377 28.8689C47.1791 28.8168 47.2045 28.7534 47.2104 28.6868C47.2163 28.6201 47.2025 28.5532 47.1709 28.4944C47.1392 28.4357 47.0911 28.3877 47.0326 28.3567C46.9938 28.3358 46.9513 28.323 46.9075 28.3189C46.8638 28.3147 46.8197 28.3195 46.7778 28.3327C46.7358 28.346 46.6969 28.3676 46.6633 28.3962C46.6296 28.4248 46.6019 28.4599 46.5818 28.4994Z" fill="#FF8C59"/>
<path d="M45.9902 28.4851C45.9801 28.5049 45.974 28.5265 45.9721 28.5487C45.9703 28.5709 45.9728 28.5933 45.9796 28.6145C45.9863 28.6357 45.9971 28.6554 46.0114 28.6723C46.0256 28.6893 46.043 28.7033 46.0626 28.7134C46.082 28.724 46.1032 28.7305 46.1252 28.7327C46.1471 28.7348 46.1692 28.7325 46.1902 28.7258C46.2112 28.7192 46.2306 28.7083 46.2474 28.694C46.2642 28.6796 46.278 28.6619 46.288 28.6421C46.308 28.6022 46.3118 28.5561 46.2987 28.5134C46.2855 28.4707 46.2564 28.435 46.2176 28.4138C46.178 28.3934 46.1321 28.3895 46.0896 28.4028C46.0472 28.4161 46.0115 28.4456 45.9902 28.4851Z" fill="#FF8C59"/>
<path d="M49.3046 10.7622C49.2067 10.9527 49.1667 11.1683 49.1897 11.3818C49.2127 11.5953 49.2976 11.7971 49.4338 11.9617C49.57 12.1263 49.7513 12.2464 49.9548 12.3067C50.1583 12.367 50.3749 12.3648 50.5772 12.3005C50.7795 12.2362 50.9585 12.1126 51.0915 11.9453C51.2244 11.778 51.3055 11.5746 51.3243 11.3606C51.3432 11.1467 51.2991 10.932 51.1975 10.7434C51.0959 10.5549 50.9414 10.4011 50.7536 10.3015C50.5011 10.1682 50.2067 10.1418 49.935 10.2282C49.6633 10.3146 49.4366 10.5066 49.3046 10.7622Z" fill="#ED5816"/>
<path d="M49.6004 11.7406C49.7695 11.8302 49.9591 11.8726 50.1497 11.8633C50.3403 11.854 50.525 11.7933 50.6847 11.6876C50.8445 11.5819 50.9735 11.4349 51.0585 11.2618C51.1434 11.0888 51.1813 10.8959 51.1681 10.7031C51.2521 10.8439 51.3034 11.0022 51.3182 11.166C51.333 11.3298 51.3109 11.4949 51.2535 11.6488C51.1961 11.8027 51.105 11.9414 50.9869 12.0544C50.8689 12.1675 50.7271 12.2519 50.5721 12.3012C50.4172 12.3506 50.2532 12.3638 50.0925 12.3396C49.9319 12.3154 49.7787 12.2546 49.6446 12.1618C49.5106 12.0689 49.3991 11.9464 49.3185 11.8035C49.238 11.6607 49.1906 11.5011 49.1798 11.337C49.2801 11.5086 49.4258 11.6484 49.6004 11.7406Z" fill="#D95015"/>
<path d="M50.2566 10.4707C50.2299 10.5226 50.2246 10.5831 50.242 10.6389C50.2594 10.6947 50.2979 10.7413 50.3491 10.7683C50.4004 10.7953 50.4601 10.8006 50.5152 10.783C50.5703 10.7655 50.6163 10.7264 50.643 10.6745C50.6562 10.6488 50.6643 10.6208 50.6668 10.5919C50.6693 10.563 50.6661 10.534 50.6575 10.5063C50.6489 10.4787 50.635 10.453 50.6167 10.4308C50.5983 10.4086 50.5758 10.3903 50.5504 10.3769C50.525 10.3636 50.4973 10.3554 50.4688 10.3528C50.4403 10.3503 50.4116 10.3535 50.3843 10.3622C50.357 10.3709 50.3317 10.385 50.3098 10.4036C50.2879 10.4222 50.2698 10.445 50.2566 10.4707Z" fill="#ED8253"/>
<path d="M49.8741 10.4626C49.8613 10.4886 49.8589 10.5187 49.8675 10.5464C49.8762 10.5742 49.8951 10.5975 49.9204 10.6113C49.9462 10.6239 49.9757 10.626 50.003 10.6173C50.0303 10.6086 50.0533 10.5897 50.0673 10.5645C50.0807 10.5374 50.0829 10.5061 50.0734 10.4775C50.064 10.4488 50.0437 10.4251 50.017 10.4116C49.9903 10.3981 49.9594 10.3959 49.9311 10.4054C49.9028 10.415 49.8794 10.4355 49.8661 10.4626H49.8741Z" fill="#ED8253"/>
<path d="M47.2922 10.8763C47.141 11.1702 47.0793 11.5028 47.1147 11.8322C47.1502 12.1616 47.2813 12.473 47.4915 12.7269C47.7016 12.9809 47.9814 13.166 48.2955 13.2589C48.6095 13.3518 48.9437 13.3483 49.2558 13.2488C49.5678 13.1493 49.8438 12.9584 50.0487 12.7001C50.2536 12.4418 50.3783 12.1277 50.407 11.7976C50.4358 11.4676 50.3672 11.1363 50.21 10.8456C50.0528 10.555 49.8141 10.3181 49.524 10.1649C49.1348 9.96002 48.6813 9.91984 48.2629 10.0532C47.8445 10.1866 47.4954 10.4826 47.2922 10.8763Z" fill="#FF5F18"/>
<path d="M47.7511 12.3846C48.0115 12.5228 48.3036 12.5881 48.5972 12.5738C48.8908 12.5595 49.1753 12.4661 49.4214 12.3032C49.6675 12.1404 49.8663 11.914 49.9971 11.6474C50.128 11.3808 50.1863 11.0836 50.166 10.7866C50.2962 11.0038 50.3758 11.2481 50.399 11.501C50.4223 11.754 50.3884 12.0089 50.2999 12.2467C50.2115 12.4844 50.0709 12.6986 49.8887 12.8732C49.7065 13.0478 49.4875 13.1781 49.2482 13.2543C49.009 13.3305 48.7557 13.3506 48.5077 13.3131C48.2596 13.2756 48.0232 13.1815 47.8164 13.0378C47.6095 12.8941 47.4376 12.7047 47.3137 12.4838C47.1898 12.263 47.1171 12.0165 47.1011 11.763C47.2577 12.0264 47.4825 12.2413 47.7511 12.3846Z" fill="#EB5717"/>
<path d="M48.7633 10.4279C48.733 10.4873 48.7207 10.5545 48.728 10.621C48.7354 10.6874 48.762 10.7502 48.8045 10.8014C48.8471 10.8525 48.9037 10.8898 48.9671 10.9084C49.0305 10.927 49.098 10.9261 49.161 10.9059C49.2239 10.8857 49.2795 10.8471 49.3208 10.7948C49.3621 10.7426 49.3872 10.6792 49.3928 10.6125C49.3985 10.5459 49.3846 10.479 49.3528 10.4204C49.321 10.3618 49.2727 10.314 49.2141 10.2832C49.1751 10.2626 49.1325 10.2501 49.0888 10.2463C49.045 10.2425 49.001 10.2474 48.9591 10.2608C48.9172 10.2743 48.8784 10.296 48.8448 10.3246C48.8112 10.3533 48.7835 10.3884 48.7633 10.4279Z" fill="#FF8C59"/>
<path d="M48.1736 10.4136C48.1583 10.4433 48.152 10.4768 48.1555 10.5101C48.159 10.5434 48.1722 10.5749 48.1933 10.6006C48.2145 10.6263 48.2427 10.645 48.2744 10.6545C48.3061 10.6639 48.3399 10.6636 48.3714 10.6537C48.4029 10.6437 48.4308 10.6244 48.4516 10.5984C48.4723 10.5723 48.485 10.5407 48.4879 10.5073C48.4909 10.474 48.484 10.4405 48.4682 10.4111C48.4524 10.3818 48.4283 10.3578 48.399 10.3423C48.3598 10.3215 48.314 10.3173 48.2718 10.3307C48.2295 10.3441 48.1942 10.3739 48.1736 10.4136Z" fill="#FF8C59"/>
<path d="M9.51678 5.28528C9.09695 4.88125 8.81025 4.356 8.6957 3.78102C8.57419 3.19 8.60498 2.57725 8.78509 2.00177C8.9652 1.4263 9.28857 0.907486 9.72406 0.4953C9.81663 0.739895 9.93737 0.890729 10.0299 1.13532C10.171 1.4756 10.2854 1.82659 10.3721 2.18504C10.6035 3.26126 10.2131 4.44143 9.51678 5.28528Z" fill="#7FC785"/>
<path d="M5.96081 15.5888C6.93081 13.6545 6.92678 11.2819 6.08559 9.28645C5.20226 7.28581 3.64202 5.67082 1.68641 4.73291C2.16134 5.39739 2.20159 6.23513 2.08889 7.04637C1.94496 7.85472 1.66592 8.63227 1.26379 9.34556C1.6039 9.4169 1.7508 9.75322 1.84539 10.0977C2.18747 11.3555 2.14112 12.6892 1.71257 13.9195C3.24202 14.1192 4.75738 14.6044 5.96081 15.5888Z" fill="#2C8546"/>
<path d="M7.7619 8.06145C8.26749 7.52247 8.65193 6.87905 8.88884 6.17537C9.12575 5.4717 9.20951 4.72443 9.13438 3.98487C8.97026 2.49888 8.28637 1.12148 7.20647 0.101929C7.37954 0.633923 7.23263 1.18834 6.99114 1.6918C6.73181 2.18708 6.3916 2.63434 5.98492 3.01465C6.18616 3.13083 6.21836 3.38358 6.2083 3.62613C6.17348 4.51657 5.87085 5.37497 5.34094 6.08635C6.29484 6.53681 7.18031 7.17072 7.7619 8.06145Z" fill="#2C8546"/>
<path d="M5.46571 18.736C4.30668 18.3985 3.27769 17.7091 2.51749 16.7609C1.73199 15.7871 1.20673 14.6252 0.992121 13.3866C0.777509 12.1481 0.880745 10.8745 1.29192 9.68799C1.69441 10.0467 2.06268 10.2098 2.46718 10.5685C3.04929 11.0613 3.59354 11.5983 4.09524 12.1747C5.54621 13.9317 5.95272 16.5101 5.46571 18.736Z" fill="#7FC785"/>
<path d="M11.0302 42.6349C10.7927 41.8196 9.8831 40.6231 8.05581 40.6578C8.01556 39.8282 7.37561 38.9436 6.51831 38.5849C7.51044 38.8906 8.58307 38.5196 9.0419 37.7593C9.45785 38.0501 9.96145 38.1836 10.4647 38.1364C10.9381 38.1055 11.3924 37.9363 11.7728 37.6493C12.1753 38.3015 13.0527 38.7561 13.8335 38.7826C13.9019 39.3227 14.2903 39.7732 14.7955 40.083C15.2436 40.3385 15.7264 40.526 16.2283 40.6394L15.8258 40.6252C15.4978 40.6129 15.1597 40.5946 14.8196 40.5701C14.4795 40.5457 14.1233 40.5151 13.7711 40.4784C13.4189 40.4417 13.0648 40.3989 12.7186 40.35C12.3725 40.3011 12.0284 40.2481 11.6963 40.1931C11.3643 40.138 11.0443 40.0769 10.7384 40.0157C10.4325 39.9546 10.1467 39.8934 9.88109 39.8343C9.61545 39.7752 9.37395 39.712 9.16064 39.6509C8.94732 39.5897 8.75815 39.5327 8.61124 39.4776C8.46433 39.4226 8.34359 39.3777 8.26309 39.3431L8.14234 39.2921L8.25504 39.3614C8.3295 39.4042 8.44019 39.4695 8.58508 39.5408C8.98918 39.737 9.4085 39.8993 9.83883 40.0259C10.1025 40.1095 10.3902 40.191 10.6941 40.2705C10.998 40.35 11.322 40.4275 11.6561 40.4968C11.8231 40.5335 11.9941 40.5661 12.1672 40.5966C12.3403 40.6272 12.5134 40.6598 12.6904 40.6863C13.0426 40.7434 13.4008 40.7882 13.759 40.827C14.4312 40.8963 15.1013 40.933 15.7312 40.935C15.1757 41.1779 14.6822 41.546 14.2883 42.0112C14.2581 42.0479 14.1937 42.1009 14.244 42.1254C13.107 41.8135 11.8553 41.9888 11.0302 42.6349Z" fill="#2D8A48"/>
<path d="M10.7343 32.0481C9.92937 30.128 8.18459 28.6665 6.20637 28.0652C4.2008 27.4932 2.05934 27.6667 0.169067 28.5544C0.947879 28.6074 1.57777 29.0946 2.10704 29.6816C2.60796 30.2894 3.00394 30.9785 3.27828 31.7199C3.53989 31.5161 3.88201 31.6098 4.18387 31.7484C5.31399 32.2682 6.26045 33.1251 6.89664 34.2046C7.98335 33.1793 9.27332 32.3436 10.7343 32.0481Z" fill="#45D16E"/>
<path d="M26.6065 39.9505C25.4958 40.1717 24.3449 40.0437 23.3081 39.5836C22.2383 39.1137 21.3061 38.3727 20.6012 37.432C19.8962 36.4913 19.4423 35.3826 19.2832 34.2127C19.7722 34.337 20.1465 34.3126 20.6356 34.4349C21.3323 34.5903 22.0165 34.7988 22.6822 35.0586C24.6383 35.9004 26.0651 37.8674 26.6065 39.9505Z" fill="#00AB32"/>
<path d="M5.77563 21.6874C6.85631 21.3837 8.43809 20.2035 8.2952 17.8024C8.88647 17.756 9.4536 17.5452 9.93406 17.193C10.4145 16.8409 10.7896 16.3613 11.018 15.8069C10.6578 17.1053 11.2193 18.5179 12.2738 19.1294C11.8713 19.6349 11.7747 20.3625 11.8391 21.0005C11.9115 21.6345 12.1654 22.2332 12.5696 22.7229C11.7063 23.2345 11.1388 24.3902 11.1448 25.4154C10.4143 25.499 9.82666 26.0045 9.43223 26.6649C9.11298 27.2509 8.88555 27.8835 8.75806 28.5401C8.75806 28.3628 8.75806 28.1814 8.75806 27.998C8.75806 27.5679 8.75806 27.1235 8.77819 26.671C8.79831 26.2185 8.81642 25.7558 8.84661 25.2931C8.8768 24.8305 8.91704 24.3698 8.96333 23.9132C9.00962 23.4566 9.06395 23.0082 9.12231 22.5741C9.18067 22.1399 9.24507 21.718 9.30947 21.3185C9.37387 20.919 9.4443 20.5419 9.51071 20.1933C9.57712 19.8448 9.64756 19.5289 9.71196 19.2496C9.77635 18.9704 9.85283 18.7278 9.9132 18.5321C9.97357 18.3365 10.036 18.1816 10.0762 18.0756L10.1406 17.9166L10.0521 18.0633C9.99772 18.1612 9.91521 18.3059 9.82666 18.4975C9.58306 19.0226 9.38509 19.5682 9.23501 20.1281C9.13841 20.4746 9.03377 20.8497 8.95126 21.2492C8.86875 21.6487 8.77014 22.0645 8.69568 22.5109C8.65543 22.729 8.62122 22.9532 8.587 23.1794C8.55279 23.4057 8.52059 23.634 8.49443 23.8663C8.43607 24.327 8.39582 24.7978 8.36161 25.2667C8.30438 26.1276 8.29094 26.9909 8.32136 27.8532C7.95421 27.1142 7.42979 26.4667 6.78588 25.9576C6.73557 25.9148 6.66111 25.8333 6.62891 25.8965C6.99718 24.4208 6.70135 22.7759 5.77563 21.6874Z" fill="#39AD5B"/>
<path d="M5.25243 10.326C6.37336 10.3505 8.22279 9.67985 8.76614 7.33786C9.34576 7.46515 9.94882 7.42784 10.5088 7.23002C11.0688 7.0322 11.564 6.68157 11.9398 6.2168C11.2274 7.3562 11.3642 8.86658 12.2014 9.76546C11.6721 10.1324 11.3743 10.803 11.2535 11.4328C11.1418 12.0604 11.2117 12.7074 11.4548 13.2958C10.4928 13.5343 9.62143 14.4719 9.33768 15.4584C8.61521 15.328 7.90683 15.6398 7.34335 16.1596C6.87014 16.6268 6.47281 17.1668 6.16608 17.7596L6.315 17.2378C6.43776 16.8302 6.57058 16.4021 6.71749 15.9721C6.86439 15.542 7.01331 15.1078 7.1723 14.6737C7.33128 14.2395 7.50234 13.8074 7.6754 13.3834C7.84847 12.9595 8.02959 12.5477 8.2087 12.1462C8.38781 11.7446 8.56893 11.3635 8.74401 11.0007C8.91909 10.6379 9.09417 10.2954 9.25517 9.98152C9.41616 9.66762 9.57514 9.3843 9.72205 9.13767C9.86896 8.89104 10.0038 8.67905 10.1245 8.50987C10.2453 8.3407 10.3419 8.20821 10.4103 8.12056L10.517 7.98603L10.3902 8.10222C10.3117 8.17967 10.1889 8.29382 10.0521 8.45076C9.66986 8.88621 9.32515 9.35401 9.02172 9.84903C8.83054 10.1527 8.63131 10.485 8.43208 10.8396C8.23285 11.1943 8.02959 11.5755 7.82835 11.975C7.72773 12.1788 7.62711 12.3826 7.53453 12.5865C7.44196 12.7903 7.34335 12.9941 7.25279 13.2163C7.06564 13.6423 6.89257 14.0785 6.72755 14.5188C6.42876 15.327 6.17083 16.1502 5.95477 16.9851C5.813 16.1705 5.49479 15.3978 5.02302 14.7226C4.98478 14.6676 4.93849 14.5656 4.88818 14.6186C5.64687 13.2999 5.83604 11.6387 5.25243 10.326Z" fill="#39AD5B"/>
<path d="M9.60939 3.55682C10.1447 3.78103 11.161 3.81161 11.8573 2.78635C12.113 2.95829 12.4106 3.05554 12.7173 3.0674C13.0241 3.07927 13.3281 3.0053 13.596 2.85361C13.3305 3.04835 13.1347 3.32524 13.0382 3.64253C12.9416 3.95983 12.9495 4.30032 13.0607 4.61265C12.7366 4.71397 12.4625 4.93617 12.294 5.23433C12.1247 5.51631 12.0401 5.8421 12.0505 6.17195C11.7789 6.15145 11.5066 6.19893 11.2574 6.31018C11.0082 6.42144 10.7899 6.59307 10.6216 6.80993C10.4556 6.7176 10.2707 6.6655 10.0815 6.65772C9.89223 6.64994 9.70377 6.68669 9.53091 6.76509C9.217 6.90092 8.92577 7.08519 8.66757 7.31135L8.8346 7.08918C8.97145 6.91389 9.11433 6.73452 9.26124 6.55515C9.40815 6.37578 9.56512 6.19437 9.72209 6.01704C9.87906 5.83971 10.0421 5.66237 10.2051 5.49116C10.3681 5.31994 10.5311 5.15484 10.6921 4.99789C10.8531 4.84094 11.01 4.68807 11.163 4.54743C11.3159 4.40679 11.4709 4.28041 11.5997 4.15404C11.7285 4.02767 11.8633 3.92575 11.98 3.83607C12.0968 3.74638 12.2014 3.66893 12.29 3.60982C12.3785 3.55071 12.4509 3.50586 12.4912 3.47733L12.5677 3.43248L12.4852 3.46306C12.4308 3.48548 12.3523 3.51809 12.2557 3.56701C11.9905 3.70385 11.7374 3.86342 11.4991 4.04397C11.3501 4.15404 11.1932 4.27634 11.0302 4.40883C10.8672 4.54131 10.7082 4.68807 10.5391 4.84094C10.4546 4.91636 10.3701 4.99789 10.2856 5.07739C10.201 5.15688 10.1145 5.24249 10.032 5.32809C9.86296 5.49727 9.69794 5.6746 9.53694 5.85601C9.24217 6.1883 8.96475 6.53596 8.70581 6.89758C8.78909 6.47738 8.77947 6.04371 8.67763 5.62772C8.67763 5.59511 8.66556 5.53804 8.63135 5.55231C8.93588 5.31919 9.18276 5.01758 9.35249 4.67128C9.52223 4.32497 9.61017 3.94345 9.60939 3.55682Z" fill="#39AD5B"/>
<path d="M2.27406 26.135C2.43103 25.2728 2.15734 23.7604 0.462874 23.051C0.631205 22.6194 0.678565 22.1491 0.599731 21.692C0.520897 21.2348 0.318932 20.8086 0.0161133 20.4604C0.379815 20.792 0.840035 20.9949 1.32748 21.0387C1.81493 21.0824 2.30321 20.9646 2.71881 20.7029C2.96494 21.1509 3.37108 21.4864 3.85382 21.6405C4.31335 21.8037 4.80984 21.8277 5.28265 21.7098C5.34101 22.4885 5.94072 23.2793 6.64507 23.6217C6.56312 23.8967 6.54555 24.1872 6.59375 24.4703C6.64196 24.7533 6.75461 25.0211 6.92279 25.2524C7.21491 25.6762 7.57151 26.0505 7.97931 26.3612L7.605 26.1818C7.31119 26.0351 7.00127 25.8802 6.70343 25.7191C6.40559 25.5581 6.08964 25.3808 5.78174 25.2035C5.47383 25.0261 5.17801 24.8427 4.87614 24.6552C4.57428 24.4676 4.29052 24.2781 4.01079 24.0906C3.73107 23.903 3.46744 23.7155 3.21588 23.5341C2.96433 23.3527 2.72887 23.1774 2.51354 23.0123C2.29821 22.8472 2.11106 22.6923 1.93598 22.5476C1.76089 22.4028 1.62606 22.2724 1.51336 22.1603C1.40067 22.0482 1.31212 21.9565 1.25577 21.8912L1.16924 21.7914L1.23967 21.9035C1.28797 21.9748 1.35841 22.0828 1.46104 22.2092C1.74027 22.5594 2.04936 22.8841 2.38475 23.1794C2.58599 23.3649 2.8134 23.5586 3.0569 23.7563C3.30041 23.954 3.558 24.1639 3.8337 24.3678C3.97055 24.4697 4.11142 24.5716 4.25631 24.6694C4.40121 24.7673 4.5461 24.8733 4.69502 24.967C4.99085 25.1708 5.29875 25.3523 5.61068 25.5337C6.18074 25.866 6.76786 26.1675 7.36955 26.4366C6.74143 26.4467 6.12315 26.5963 5.55836 26.8749C5.51207 26.8973 5.42956 26.9217 5.46377 26.9666C4.56019 26.2002 3.3326 25.8537 2.27406 26.135Z" fill="#39AD5B"/>
<path d="M0.819061 20.3095C1.22356 19.535 1.4087 18.0103 0 16.82C0.287772 16.459 0.471453 16.0245 0.53076 15.5645C0.590067 15.1044 0.522693 14.6367 0.336076 14.213C0.585578 14.6392 0.964978 14.9718 1.41719 15.1607C1.8694 15.3497 2.36997 15.3847 2.84357 15.2607C2.94681 15.7623 3.2346 16.2054 3.64854 16.5C4.03869 16.7945 4.50517 16.9673 4.99084 16.9973C4.81777 17.7596 5.15586 18.6952 5.7294 19.2394C5.57181 19.476 5.47037 19.7463 5.43302 20.0292C5.39566 20.3121 5.4234 20.5999 5.51407 20.8701C5.6693 21.3625 5.89948 21.8274 6.19628 22.248L5.89241 21.9626C5.65494 21.7343 5.41144 21.4938 5.16793 21.2472C4.92443 21.0005 4.68092 20.7396 4.44144 20.4787C4.20196 20.2178 3.9645 19.9488 3.73709 19.6797C3.50969 19.4107 3.29033 19.1436 3.07902 18.8807C2.86772 18.6178 2.67654 18.3569 2.47529 18.1082C2.27405 17.8595 2.11708 17.619 1.9581 17.3968C1.79912 17.1746 1.66227 16.9667 1.55561 16.7853C1.44895 16.6039 1.34028 16.4286 1.26582 16.288C1.19136 16.1474 1.13703 16.0312 1.1008 15.9537L1.04647 15.8314L1.08068 15.9598C1.10684 16.0434 1.14306 16.1637 1.20142 16.3186C1.36747 16.7372 1.56949 17.1403 1.80515 17.5232C1.94602 17.7617 2.10299 18.0165 2.27606 18.2794C2.44913 18.5423 2.63629 18.8175 2.83954 19.0947C2.93815 19.2333 3.04079 19.3719 3.15147 19.5024C3.26216 19.6328 3.36881 19.7816 3.48352 19.91C3.70892 20.1893 3.94638 20.4604 4.18989 20.7254C4.63563 21.2142 5.10581 21.6795 5.59859 22.1195C4.99408 21.9362 4.35693 21.8909 3.73307 21.9871C3.68275 21.9871 3.59823 21.9871 3.61634 22.0441C2.98041 21.0637 1.91181 20.3625 0.819061 20.3095Z" fill="#43CC6B"/>
<path d="M21.8449 39.7263C21.2716 40.9817 20.3327 42.0294 19.1543 42.7287C17.9439 43.454 16.5693 43.8512 15.1632 43.8819C13.7571 43.9126 12.3669 43.5758 11.1267 42.904C11.5916 42.5086 11.8351 42.1192 12.3 41.7238C12.9447 41.1479 13.6323 40.6232 14.3567 40.1543C16.5462 38.8091 19.4542 38.7907 21.8449 39.7263Z" fill="#00AB31"/>
<path d="M6.09963 21.6854C5.66764 20.9014 5.48294 20.0024 5.57036 19.109C5.65771 18.1884 5.97737 17.3062 6.49862 16.5469C7.01987 15.7876 7.72518 15.177 8.54675 14.7735C8.57493 15.1812 8.6836 15.4502 8.70976 15.8497C8.76207 16.4128 8.77216 16.979 8.73995 17.5436C8.59908 19.2211 7.49626 20.7743 6.09963 21.6854Z" fill="#00942A"/>
<path d="M20.4745 39.339C19.3375 40.105 17.996 40.4998 16.6308 40.4703C15.2238 40.4451 13.8469 40.0532 12.633 39.3324C11.419 38.6116 10.4089 37.5862 9.69995 36.355C10.3037 36.2653 10.7062 36.0635 11.3099 35.9738C12.1609 35.8233 13.0221 35.7401 13.8858 35.7251C16.4376 35.7414 18.9169 37.2681 20.4745 39.339Z" fill="#00C439"/>
<path d="M26.2341 40.0993C25.8472 41.1755 25.1451 42.1064 24.2217 42.7674C23.2716 43.4517 22.1635 43.8766 21.0042 44.0012C19.8449 44.1258 18.6735 43.9459 17.6028 43.4788C17.959 43.118 18.1341 42.7797 18.4903 42.4209C18.9824 41.897 19.5132 41.4118 20.0781 40.9697C21.7947 39.7141 24.1955 39.4939 26.2341 40.0993Z" fill="#00C439"/>
<path d="M21.5189 39.4267C20.7793 39.3764 20.0592 39.1648 19.4079 38.8063C18.7566 38.4478 18.1896 37.9509 17.7456 37.3496C16.861 36.1306 16.4375 34.6306 16.5522 33.1222C16.7837 33.6359 17.2667 33.9477 17.7859 34.1556C18.3138 34.3457 18.8697 34.4442 19.43 34.4471C19.3556 34.6774 19.5065 34.8853 19.6755 35.0586C20.3041 35.6947 21.1094 36.1214 21.9838 36.2816C21.5793 37.2742 21.3479 38.3606 21.5189 39.4267Z" fill="#00C238"/>
<path d="M15.8982 36.7117C15.2437 36.3542 14.6735 35.8573 14.2267 35.2552C13.78 34.6532 13.4673 33.9603 13.3102 33.2241C13.0097 31.7427 13.2424 30.2013 13.9663 28.8785C13.9663 29.4431 14.2742 29.9303 14.6626 30.3379C15.0651 30.7316 15.5305 31.0535 16.0391 31.2898C15.8781 31.4692 15.9304 31.7199 16.0129 31.9482C16.3213 32.7935 16.8774 33.5232 17.6067 34.0395C16.8279 34.7814 16.1719 35.6701 15.8982 36.7117Z" fill="#40C265"/>
<path d="M13.0124 34.1781C12.7061 33.4945 12.2579 32.8858 11.6985 32.3933C11.139 31.9009 10.4814 31.5363 9.77039 31.3244C8.3298 30.9134 6.79156 31.0377 5.43359 31.675C5.99104 31.7138 6.43981 32.0623 6.82016 32.4903C7.18025 32.9246 7.4641 33.4183 7.65935 33.9498C7.8465 33.7989 8.09202 33.8703 8.30936 33.9701C9.12215 34.3387 9.80406 34.9504 10.2634 35.7231C11.0422 34.9893 11.966 34.39 13.0124 34.1781Z" fill="#39AD5B"/>
<path d="M12.4408 33.5564C11.7598 33.0357 11.1978 32.3722 10.7932 31.6113C10.3885 30.8504 10.1509 30.01 10.0963 29.1476C10.0041 27.4088 10.5287 25.694 11.5755 24.3127C11.4789 24.9548 11.7506 25.5643 12.1229 26.0942C12.5149 26.6129 12.9913 27.0602 13.5316 27.4171C13.3162 27.5924 13.3303 27.8879 13.3907 28.161C13.5991 29.1747 14.109 30.0994 14.8517 30.8108C13.8374 31.5181 12.9399 32.419 12.4408 33.5564Z" fill="#44CF6D"/>
<path d="M15.8479 37.4495C15.5418 36.7654 15.0935 36.1563 14.5337 35.6638C13.9738 35.1713 13.3155 34.8071 12.6039 34.5959C11.1659 34.1858 9.63051 34.3101 8.27515 34.9465C8.83259 34.9852 9.28136 35.3338 9.66373 35.7618C10.0217 36.1976 10.3053 36.6909 10.5029 37.2212C10.6901 37.0704 10.9336 37.1417 11.1509 37.2416C11.9606 37.6149 12.6387 38.2292 13.0949 39.0027C13.8858 38.2587 14.8015 37.6615 15.8479 37.4495Z" fill="#48DB73"/>
<path d="M11.5393 0.633915C10.845 2.19117 10.4928 3.89518 9.64759 5.37498C8.64598 7.08647 7.86868 8.92278 7.3353 10.8376C6.41965 14.3027 5.60058 18.0083 6.14797 21.6079C6.73761 25.495 8.9855 28.9723 11.4024 31.9624C13.6161 34.708 16.4335 37.262 19.748 38.5074C22.9941 39.7304 27.5341 40.401 30.587 38.3545C30.8929 38.1507 31.1545 38.6643 30.8506 38.8682C28.0815 40.7251 24.2257 40.3704 21.1627 39.5714C17.6671 38.6603 14.6907 36.4854 12.2436 33.8479C9.62747 31.0452 7.22462 27.6066 6.06344 23.9132C4.93246 20.3136 5.40538 16.5509 6.22041 12.9432C6.72151 10.7235 7.33933 8.58325 8.37171 6.54904C8.90098 5.50339 9.54697 4.53724 10.0139 3.4651C10.4385 2.48468 10.8188 1.46961 11.3964 0.572766C11.4447 0.501426 11.5775 0.554421 11.5393 0.64003V0.633915Z" fill="#6F3400"/>
<path d="M19.6072 38.4055C19.7057 38.5963 19.7462 38.8124 19.7234 39.0265C19.7007 39.2406 19.6157 39.4431 19.4793 39.6083C19.3429 39.7735 19.1612 39.894 18.9572 39.9545C18.7532 40.0151 18.536 40.013 18.3331 39.9485C18.1303 39.884 17.9509 39.76 17.8176 39.5922C17.6843 39.4244 17.6032 39.2204 17.5845 39.0059C17.5658 38.7914 17.6103 38.5761 17.7124 38.3872C17.8145 38.1983 17.9697 38.0444 18.1582 37.9448C18.4107 37.8115 18.7051 37.7852 18.9768 37.8715C19.2485 37.9579 19.4752 38.1499 19.6072 38.4055Z" fill="#ED5816"/>
<path d="M19.3033 39.3839C19.1342 39.4728 18.9447 39.5147 18.7544 39.5051C18.564 39.4954 18.3796 39.4347 18.2201 39.3291C18.0606 39.2236 17.9316 39.0769 17.8465 38.9042C17.7613 38.7315 17.7231 38.539 17.7356 38.3464C17.6508 38.4871 17.5988 38.6456 17.5835 38.8097C17.5682 38.9738 17.5899 39.1393 17.6471 39.2937C17.7043 39.448 17.7954 39.5872 17.9135 39.7006C18.0317 39.814 18.1738 39.8987 18.329 39.9482C18.4843 39.9978 18.6486 40.0109 18.8096 39.9866C18.9706 39.9622 19.124 39.9011 19.2582 39.8079C19.3924 39.7146 19.5039 39.5916 19.5843 39.4482C19.6646 39.3048 19.7116 39.1448 19.7219 38.9803C19.6215 39.1511 19.4767 39.2907 19.3033 39.3839Z" fill="#D95015"/>
<path d="M18.6473 38.116C18.667 38.1547 18.675 38.1983 18.6703 38.2416C18.6656 38.2848 18.6483 38.3257 18.6206 38.3589C18.593 38.3922 18.5563 38.4165 18.515 38.4287C18.4738 38.4408 18.4299 38.4403 18.389 38.4273C18.348 38.4142 18.3118 38.3891 18.2849 38.3552C18.258 38.3213 18.2416 38.2801 18.2378 38.2368C18.234 38.1934 18.2429 38.1499 18.2635 38.1118C18.2841 38.0736 18.3154 38.0425 18.3535 38.0223C18.4048 37.9957 18.4644 37.9906 18.5193 38.0081C18.5743 38.0257 18.6203 38.0644 18.6473 38.116Z" fill="#ED8253"/>
<path d="M19.0296 38.116C19.0395 38.1353 19.0435 38.1572 19.0411 38.1788C19.0388 38.2004 19.0301 38.2208 19.0163 38.2375C19.0025 38.2541 18.9841 38.2663 18.9635 38.2723C18.9429 38.2784 18.921 38.2782 18.9005 38.2716C18.88 38.2651 18.8619 38.2526 18.8484 38.2356C18.835 38.2187 18.8268 38.1981 18.8249 38.1764C18.823 38.1547 18.8275 38.133 18.8378 38.1139C18.8481 38.0948 18.8637 38.0792 18.8827 38.0692C18.8954 38.0624 18.9093 38.0583 18.9235 38.057C18.9378 38.0557 18.9521 38.0573 18.9658 38.0617C18.9794 38.066 18.9921 38.0731 19.0031 38.0824C19.014 38.0917 19.023 38.1032 19.0296 38.116Z" fill="#ED8253"/>
<path d="M22.817 37.6105C22.9686 37.9034 23.0309 38.2354 22.996 38.5642C22.9611 38.893 22.8305 39.2039 22.6209 39.4575C22.4113 39.711 22.132 39.8958 21.8185 39.9883C21.505 40.0809 21.1715 40.077 20.8601 39.9773C20.5488 39.8775 20.2738 39.6864 20.0699 39.428C19.866 39.1697 19.7425 38.8559 19.715 38.5263C19.6875 38.1968 19.7572 37.8664 19.9154 37.5771C20.0735 37.2877 20.313 37.0525 20.6033 36.9012C20.99 36.6992 21.4399 36.6603 21.8547 36.7933C22.2695 36.9262 22.6155 37.22 22.817 37.6105Z" fill="#D14D13"/>
<path d="M22.3521 39.1107C22.0929 39.2486 21.8021 39.3139 21.5097 39.2999C21.2173 39.2859 20.9339 39.1931 20.6887 39.031C20.4436 38.869 20.2456 38.6435 20.1153 38.378C19.9849 38.1126 19.9269 37.8166 19.9472 37.5209C19.818 37.737 19.739 37.98 19.7162 38.2315C19.6933 38.4831 19.7272 38.7366 19.8152 38.973C19.9032 39.2093 20.0432 39.4223 20.2244 39.5959C20.4056 39.7694 20.6234 39.899 20.8613 39.9748C21.0992 40.0507 21.3511 40.0707 21.5977 40.0336C21.8444 39.9964 22.0796 39.9029 22.2854 39.7602C22.4912 39.6175 22.6623 39.4292 22.7857 39.2097C22.9092 38.9902 22.9818 38.7452 22.9981 38.4931C22.8428 38.7552 22.6193 38.9689 22.3521 39.1107Z" fill="#BD4612"/>
<path d="M21.3438 37.1621C21.3641 37.2013 21.3765 37.2442 21.3803 37.2883C21.3842 37.3323 21.3794 37.3767 21.3664 37.4189C21.3533 37.4611 21.3321 37.5003 21.3041 37.5342C21.2761 37.5682 21.2417 37.5962 21.203 37.6167C21.1643 37.6371 21.1219 37.6497 21.0784 37.6536C21.0349 37.6575 20.9911 37.6527 20.9494 37.6394C20.9077 37.6262 20.8691 37.6048 20.8356 37.5764C20.8021 37.548 20.7744 37.5132 20.7542 37.474C20.734 37.4348 20.7216 37.3919 20.7177 37.3478C20.7139 37.3038 20.7186 37.2594 20.7317 37.2172C20.7448 37.1749 20.7659 37.1358 20.794 37.1018C20.822 37.0679 20.8564 37.0399 20.8951 37.0194C20.9338 36.999 20.9761 36.9864 21.0196 36.9825C21.0631 36.9786 21.107 36.9834 21.1486 36.9966C21.1903 37.0099 21.229 37.0313 21.2625 37.0597C21.296 37.0881 21.3236 37.1229 21.3438 37.1621Z" fill="#D17249"/>
<path d="M21.9356 37.1499C21.9457 37.1694 21.9519 37.1908 21.9539 37.2127C21.9558 37.2347 21.9534 37.2568 21.9469 37.2779C21.9403 37.2989 21.9297 37.3184 21.9157 37.3353C21.9017 37.3521 21.8845 37.366 21.8652 37.3761C21.8359 37.3919 21.8026 37.3985 21.7696 37.395C21.7367 37.3916 21.7054 37.3783 21.68 37.3568C21.6545 37.3353 21.6359 37.3066 21.6265 37.2744C21.6172 37.2422 21.6175 37.2079 21.6275 37.1759C21.6375 37.1438 21.6566 37.1155 21.6825 37.0946C21.7084 37.0736 21.7399 37.0609 21.7729 37.0581C21.806 37.0554 21.8391 37.0626 21.868 37.0789C21.897 37.0953 21.9205 37.12 21.9356 37.1499Z" fill="#D17249"/>
<path d="M21.6196 38.5237C21.7708 38.8176 21.8326 39.1502 21.7971 39.4796C21.7616 39.809 21.6305 40.1204 21.4204 40.3743C21.2102 40.6283 20.9304 40.8134 20.6164 40.9063C20.3023 40.9992 19.9681 40.9957 19.6561 40.8962C19.344 40.7967 19.0681 40.6058 18.8631 40.3475C18.6582 40.0892 18.5335 39.7751 18.5048 39.445C18.4761 39.1149 18.5447 38.7836 18.7018 38.493C18.859 38.2024 19.0977 37.9655 19.3878 37.8123C19.5805 37.7106 19.791 37.6483 20.0075 37.629C20.2239 37.6097 20.442 37.6337 20.6492 37.6998C20.8565 37.7658 21.0488 37.8726 21.2153 38.014C21.3818 38.1553 21.5192 38.3285 21.6196 38.5237Z" fill="#FF5F18"/>
<path d="M21.1506 40.028C20.8901 40.1662 20.5978 40.2315 20.304 40.2172C20.0102 40.2028 19.7255 40.1092 19.4793 39.9461C19.2332 39.783 19.0345 39.5563 18.9038 39.2894C18.773 39.0225 18.715 38.7251 18.7357 38.4279C18.6057 38.645 18.526 38.8892 18.5028 39.142C18.4796 39.3948 18.5135 39.6497 18.6018 39.8874C18.6901 40.125 18.8306 40.3392 19.0127 40.5138C19.1947 40.6883 19.4136 40.8187 19.6527 40.895C19.8918 40.9714 20.1449 40.9917 20.3929 40.9544C20.6409 40.9171 20.8773 40.8232 21.0842 40.6798C21.2911 40.5364 21.4631 40.3472 21.5872 40.1266C21.7113 39.906 21.7843 39.6597 21.8007 39.4063C21.6439 39.6695 21.4191 39.8845 21.1506 40.028Z" fill="#EB5717"/>
<path d="M20.1404 38.0712C20.1708 38.1306 20.183 38.1978 20.1757 38.2643C20.1684 38.3308 20.1417 38.3935 20.0992 38.4447C20.0566 38.4959 20.0001 38.5331 19.9366 38.5517C19.8732 38.5703 19.8057 38.5694 19.7428 38.5492C19.6798 38.529 19.6242 38.4904 19.5829 38.4381C19.5416 38.3859 19.5166 38.3225 19.5109 38.2558C19.5052 38.1892 19.5191 38.1223 19.551 38.0637C19.5828 38.0051 19.631 37.9573 19.6896 37.9265C19.7286 37.906 19.7712 37.8934 19.8149 37.8896C19.8587 37.8858 19.9028 37.8907 19.9446 37.9041C19.9865 37.9176 20.0254 37.9393 20.0589 37.9679C20.0925 37.9966 20.1202 38.0317 20.1404 38.0712Z" fill="#FF8C59"/>
<path d="M20.7281 38.0569C20.7473 38.0965 20.7505 38.1422 20.737 38.1841C20.7234 38.226 20.6943 38.261 20.6557 38.2814C20.6171 38.3019 20.5721 38.3063 20.5304 38.2937C20.4887 38.2811 20.4534 38.2524 20.4323 38.2139C20.4116 38.1738 20.4075 38.1272 20.4207 38.084C20.4338 38.0409 20.4633 38.0048 20.5027 37.9835C20.5222 37.9733 20.5436 37.9671 20.5655 37.9653C20.5874 37.9634 20.6095 37.966 20.6304 37.9728C20.6514 37.9796 20.6708 37.9906 20.6875 38.005C20.7043 38.0194 20.7181 38.0371 20.7281 38.0569Z" fill="#FF8C59"/>
<path d="M24.0908 39.5265C23.8174 40.2867 23.3209 40.9439 22.6681 41.4099C21.9976 41.8928 21.2156 42.1925 20.3975 42.2804C19.5794 42.3682 18.7527 42.2411 17.9972 41.9113C18.2487 41.6586 18.3715 41.4181 18.6231 41.1653C18.9716 40.7975 19.347 40.4569 19.746 40.1462C20.9595 39.2554 22.652 39.1005 24.0908 39.5265Z" fill="#7FC785"/>
<path d="M9.217 30.1667C8.4332 30.3241 7.6206 30.2344 6.88862 29.9099C6.1341 29.5781 5.47658 29.0553 4.97927 28.3917C4.48197 27.728 4.16164 26.946 4.04907 26.1207C4.3932 26.2083 4.6528 26.19 5.00297 26.2776C5.49227 26.3872 5.97263 26.5344 6.43984 26.7179C7.82641 27.3131 8.83263 28.6951 9.217 30.1667Z" fill="#7FC785"/>
<path d="M7.18643 11.5286C6.54635 11.0448 6.06804 10.374 5.81596 9.60648C5.55303 8.81704 5.49528 7.97232 5.64825 7.15371C5.80122 6.3351 6.15978 5.57019 6.68936 4.93268C6.85639 5.25065 7.04556 5.43817 7.21259 5.74799C7.46027 6.19232 7.67291 6.65578 7.84852 7.13403C8.3476 8.57103 8.00549 10.2587 7.18643 11.5286Z" fill="#7FC785"/>
<path d="M8.88485 28.9437C8.98315 29.1352 9.02306 29.3519 8.9995 29.5663C8.97594 29.7808 8.88998 29.9833 8.75254 30.1482C8.6151 30.313 8.43238 30.4328 8.22759 30.4923C8.0228 30.5517 7.80518 30.5482 7.60237 30.4821C7.39957 30.416 7.22073 30.2904 7.08857 30.1212C6.95641 29.9519 6.87691 29.7467 6.86014 29.5316C6.84338 29.3165 6.89012 29.1012 6.99443 28.913C7.09873 28.7249 7.2559 28.5724 7.44596 28.4749C7.69833 28.3449 7.99123 28.3212 8.26078 28.409C8.53033 28.4968 8.75467 28.689 8.88485 28.9437Z" fill="#ED5816"/>
<path d="M8.58106 29.916C8.41194 30.005 8.2225 30.0468 8.03215 30.0372C7.84181 30.0276 7.65742 29.9669 7.49787 29.8613C7.33833 29.7557 7.20938 29.609 7.12424 29.4363C7.03911 29.2636 7.00084 29.0711 7.01338 28.8785C6.92937 29.0193 6.87802 29.1776 6.86323 29.3414C6.84843 29.5053 6.87056 29.6704 6.92795 29.8243C6.98534 29.9782 7.07649 30.1169 7.19453 30.2299C7.31256 30.3429 7.4544 30.4273 7.60933 30.4767C7.76427 30.5261 7.92826 30.5392 8.08892 30.515C8.24959 30.4909 8.40275 30.4301 8.53683 30.3372C8.67091 30.2444 8.78242 30.1219 8.86294 29.979C8.94346 29.8361 8.9909 29.6766 9.00166 29.5124C8.90075 29.6835 8.75522 29.8232 8.58106 29.916Z" fill="#D95015"/>
<path d="M7.92494 28.6461C7.93815 28.6718 7.94624 28.6999 7.94874 28.7288C7.95124 28.7576 7.9481 28.7867 7.9395 28.8144C7.93091 28.842 7.91702 28.8676 7.89864 28.8898C7.88026 28.912 7.85774 28.9304 7.83236 28.9437C7.80699 28.9571 7.77927 28.9653 7.75077 28.9678C7.72228 28.9704 7.69357 28.9672 7.66628 28.9585C7.639 28.9498 7.61368 28.9357 7.59176 28.9171C7.56985 28.8985 7.55176 28.8757 7.53855 28.85C7.51186 28.7981 7.50662 28.7376 7.52398 28.6818C7.54134 28.626 7.57988 28.5794 7.63112 28.5524C7.68236 28.5254 7.7421 28.52 7.7972 28.5376C7.8523 28.5552 7.89825 28.5942 7.92494 28.6461Z" fill="#ED8253"/>
<path d="M8.30733 28.636C8.31397 28.6488 8.31804 28.6628 8.3193 28.6773C8.32057 28.6917 8.31901 28.7063 8.31471 28.7201C8.31041 28.7339 8.30345 28.7467 8.29424 28.7578C8.28503 28.7689 8.27375 28.7781 8.26104 28.7848C8.24842 28.7918 8.23454 28.7961 8.22022 28.7975C8.2059 28.799 8.19144 28.7974 8.17771 28.7931C8.16399 28.7887 8.15128 28.7815 8.14035 28.772C8.12943 28.7626 8.12051 28.7509 8.11413 28.7379C8.10126 28.7118 8.09889 28.6817 8.10753 28.654C8.11617 28.6262 8.13514 28.6029 8.16042 28.5891C8.18621 28.5765 8.21574 28.5744 8.24302 28.5831C8.2703 28.5918 8.29329 28.6107 8.30733 28.636Z" fill="#ED8253"/>
<path d="M10.8973 29.0518C11.0472 29.3462 11.1075 29.6789 11.0708 30.008C11.034 30.3371 10.9018 30.6478 10.6907 30.9009C10.4797 31.1539 10.1994 31.3379 9.88515 31.4296C9.57093 31.5213 9.23691 31.5166 8.92531 31.4162C8.6137 31.3157 8.33848 31.124 8.13442 30.8652C7.93036 30.6063 7.80662 30.2921 7.77882 29.9621C7.75102 29.6321 7.82041 29.3011 7.97824 29.011C8.13606 28.7209 8.37523 28.4847 8.66553 28.3323C8.85866 28.2308 9.06965 28.169 9.28642 28.1502C9.50319 28.1315 9.72148 28.1563 9.92879 28.2231C10.1361 28.2899 10.3284 28.3975 10.4945 28.5397C10.6607 28.6819 10.7976 28.8559 10.8973 29.0518Z" fill="#FF5F18"/>
<path d="M10.4285 30.558C10.1681 30.6969 9.8759 30.7627 9.58201 30.7487C9.28813 30.7347 9.00328 30.6414 8.75697 30.4784C8.51066 30.3154 8.31186 30.0887 8.18115 29.8217C8.05044 29.5548 7.99257 29.2573 8.01355 28.96C7.88349 29.1771 7.80386 29.4213 7.78066 29.6741C7.75746 29.927 7.7913 30.1818 7.87963 30.4195C7.96795 30.6571 8.10846 30.8713 8.29052 31.0459C8.47257 31.2205 8.69143 31.3508 8.93054 31.4272C9.16964 31.5035 9.42275 31.5238 9.67074 31.4865C9.91872 31.4492 10.1551 31.3553 10.362 31.2119C10.5689 31.0685 10.7409 30.8793 10.865 30.6587C10.9891 30.4381 11.0621 30.1918 11.0785 29.9384C10.9227 30.202 10.6977 30.4165 10.4285 30.558Z" fill="#EB5717"/>
<path d="M9.41815 28.6013C9.44883 28.6606 9.46146 28.7277 9.45445 28.7943C9.44744 28.8608 9.4211 28.9238 9.37876 28.9752C9.33642 29.0266 9.27999 29.0641 9.2166 29.083C9.1532 29.1019 9.0857 29.1013 9.02263 29.0814C8.95956 29.0614 8.90375 29.0229 8.86226 28.9708C8.82077 28.9187 8.79547 28.8554 8.78955 28.7887C8.78363 28.722 8.79737 28.6551 8.82902 28.5963C8.86067 28.5376 8.90881 28.4897 8.96736 28.4586C9.04593 28.4176 9.13729 28.4095 9.22167 28.4362C9.30605 28.4629 9.37664 28.5223 9.41815 28.6013Z" fill="#FF8C59"/>
<path d="M10.0078 28.587C10.0284 28.6271 10.0326 28.6737 10.0194 28.7169C10.0062 28.76 9.97671 28.7961 9.93735 28.8174C9.90811 28.8327 9.87504 28.8389 9.84232 28.8352C9.80959 28.8316 9.77866 28.8182 9.75342 28.7968C9.72817 28.7754 9.70973 28.7469 9.70042 28.7149C9.69111 28.6829 9.69134 28.6489 9.70108 28.617C9.71082 28.5852 9.72964 28.5569 9.75517 28.5359C9.7807 28.5148 9.81181 28.5019 9.84458 28.4987C9.87735 28.4955 9.91033 28.5021 9.93937 28.5179C9.96841 28.5336 9.99221 28.5576 10.0078 28.587Z" fill="#FF8C59"/>
<path d="M6.70135 10.8641C6.7988 11.0555 6.83802 11.2718 6.81406 11.4857C6.7901 11.6997 6.70403 11.9016 6.56674 12.066C6.42945 12.2304 6.24711 12.3498 6.04278 12.4092C5.83846 12.4686 5.62132 12.4653 5.41885 12.3997C5.21638 12.3341 5.03766 12.2092 4.90531 12.0407C4.77296 11.8722 4.69292 11.6677 4.67532 11.4532C4.65772 11.2386 4.70334 11.0236 4.80642 10.8353C4.9095 10.647 5.06541 10.4938 5.25441 10.3953C5.50769 10.2632 5.80237 10.2384 6.07369 10.3263C6.34501 10.4143 6.57077 10.6077 6.70135 10.8641Z" fill="#ED5816"/>
<path d="M6.39747 11.8425C6.22826 11.9323 6.03845 11.9747 5.84765 11.9653C5.65686 11.9559 5.472 11.8951 5.31218 11.7891C5.15236 11.6831 5.02338 11.5358 4.93858 11.3625C4.85377 11.1891 4.81621 10.9959 4.82978 10.8029C4.74577 10.9438 4.69443 11.102 4.67963 11.2659C4.66483 11.4297 4.68696 11.5948 4.74436 11.7487C4.80175 11.9026 4.8929 12.0413 5.01093 12.1543C5.12897 12.2673 5.2708 12.3517 5.42574 12.4011C5.58067 12.4505 5.74466 12.4636 5.90533 12.4395C6.066 12.4153 6.21915 12.3545 6.35323 12.2617C6.48732 12.1688 6.59882 12.0463 6.67935 11.9034C6.75987 11.7605 6.8073 11.601 6.81807 11.4369C6.71736 11.6087 6.57183 11.749 6.39747 11.8425Z" fill="#D95015"/>
<path d="M5.74145 10.5747C5.76141 10.6133 5.7696 10.6571 5.76497 10.7004C5.76033 10.7438 5.74308 10.7848 5.71541 10.8182C5.68774 10.8516 5.65089 10.876 5.60955 10.8881C5.5682 10.9003 5.52421 10.8998 5.48316 10.8866C5.44212 10.8734 5.40587 10.8481 5.37901 10.8141C5.35215 10.78 5.33589 10.7386 5.3323 10.6951C5.32871 10.6516 5.33794 10.6081 5.35884 10.5699C5.37973 10.5318 5.41133 10.5008 5.44964 10.4809C5.47485 10.4675 5.50243 10.4593 5.53079 10.4567C5.55915 10.4542 5.58772 10.4574 5.61486 10.4661C5.642 10.4748 5.66716 10.4889 5.68889 10.5075C5.71061 10.5262 5.72848 10.549 5.74145 10.5747Z" fill="#ED8253"/>
<path d="M6.12385 10.5645C6.1324 10.5773 6.13818 10.5918 6.14082 10.607C6.14346 10.6223 6.1429 10.6379 6.13918 10.6529C6.13546 10.6679 6.12865 10.6819 6.11921 10.6941C6.10978 10.7062 6.09791 10.7162 6.0844 10.7235C6.07088 10.7307 6.05602 10.7349 6.04078 10.7359C6.02554 10.7369 6.01027 10.7346 5.99595 10.7292C5.98163 10.7238 5.9686 10.7155 5.95769 10.7046C5.94679 10.6938 5.93826 10.6808 5.93267 10.6664C5.92412 10.6536 5.91834 10.6391 5.9157 10.6238C5.91306 10.6086 5.91362 10.593 5.91734 10.578C5.92106 10.563 5.92787 10.5489 5.9373 10.5368C5.94674 10.5246 5.95861 10.5146 5.97212 10.5074C5.98563 10.5002 6.0005 10.4959 6.01574 10.4949C6.03098 10.494 6.04625 10.4962 6.06057 10.5016C6.07489 10.507 6.08792 10.5154 6.09882 10.5262C6.10973 10.537 6.11825 10.5501 6.12385 10.5645Z" fill="#ED8253"/>
<path d="M8.71587 10.9782C8.86767 11.2724 8.9299 11.6056 8.89467 11.9356C8.85943 12.2656 8.72833 12.5776 8.51795 12.8321C8.30756 13.0867 8.02736 13.2722 7.7128 13.3654C7.39824 13.4585 7.06347 13.4551 6.75086 13.3554C6.43824 13.2558 6.16184 13.0644 5.95664 12.8056C5.75144 12.5468 5.62666 12.2321 5.5981 11.9015C5.56954 11.5708 5.63848 11.239 5.79619 10.948C5.9539 10.657 6.1933 10.42 6.48408 10.2669C6.87336 10.0625 7.32671 10.0226 7.74496 10.1559C8.1632 10.2892 8.5123 10.5849 8.71587 10.9782Z" fill="#FF5F18"/>
<path d="M8.251 12.4866C7.99053 12.624 7.69862 12.6888 7.40527 12.6742C7.11192 12.6595 6.8277 12.5661 6.58182 12.4034C6.33593 12.2407 6.13725 12.0146 6.00619 11.7484C5.87513 11.4821 5.81642 11.1854 5.83608 10.8885C5.70593 11.1057 5.62625 11.35 5.60304 11.6029C5.57984 11.8559 5.61372 12.1109 5.70214 12.3486C5.79056 12.5863 5.93118 12.8006 6.11339 12.9751C6.2956 13.1497 6.51461 13.28 6.75387 13.3562C6.99312 13.4325 7.24636 13.4526 7.49442 13.4151C7.74248 13.3776 7.97887 13.2834 8.18572 13.1397C8.39256 12.9961 8.56445 12.8066 8.68837 12.5858C8.81229 12.3649 8.88501 12.1184 8.90102 11.8649C8.74553 12.1292 8.52045 12.3445 8.251 12.4866Z" fill="#EB5717"/>
<path d="M7.24474 10.5298C7.2756 10.5885 7.28872 10.6551 7.28244 10.7212C7.27617 10.7874 7.25079 10.8503 7.20947 10.9019C7.16815 10.9536 7.11272 10.9917 7.05011 11.0117C6.98749 11.0316 6.92046 11.0324 6.85739 11.014C6.79433 10.9956 6.73801 10.9588 6.69547 10.9082C6.65294 10.8575 6.62608 10.7953 6.61824 10.7293C6.6104 10.6633 6.62193 10.5964 6.65139 10.537C6.68085 10.4776 6.72694 10.4283 6.7839 10.3953C6.82278 10.3731 6.86564 10.3589 6.90999 10.3536C6.95434 10.3484 6.99928 10.3521 7.04218 10.3646C7.08509 10.3772 7.1251 10.3982 7.15988 10.4266C7.19466 10.4549 7.22351 10.49 7.24474 10.5298Z" fill="#FF8C59"/>
<path d="M7.82632 10.5155C7.84166 10.5452 7.84798 10.5788 7.84447 10.612C7.84097 10.6453 7.8278 10.6768 7.80663 10.7025C7.78546 10.7282 7.75724 10.7469 7.72555 10.7564C7.69385 10.7658 7.6601 10.7655 7.62856 10.7556C7.59703 10.7456 7.56912 10.7263 7.54838 10.7003C7.52763 10.6743 7.51498 10.6426 7.51202 10.6092C7.50907 10.5759 7.51593 10.5424 7.53176 10.513C7.54758 10.4837 7.57166 10.4597 7.60093 10.4442C7.64026 10.4239 7.68585 10.4201 7.72796 10.4334C7.77008 10.4467 7.80537 10.4762 7.82632 10.5155Z" fill="#FF8C59"/>
<path d="M28.9428 40.0728C28.8845 39.551 28.1821 39.5082 27.7857 39.3635C26.4957 38.8906 25.3346 38.1262 24.1633 37.4149C22.6681 36.5058 21.0501 35.6456 19.3053 35.6232C18.5506 35.611 17.7618 35.7781 17.1782 36.2632C16.5946 36.7483 16.2746 37.5147 16.1558 38.2771C16.0394 39.0222 16.0891 39.7843 16.3012 40.5075C16.5133 41.2306 16.8825 41.8966 17.3816 42.4565C17.8808 43.0165 18.4974 43.4562 19.1861 43.7434C19.8748 44.0307 20.6183 44.1583 21.362 44.1168C22.2739 44.0383 23.1622 43.7822 23.9782 43.3626C24.8398 42.9495 25.6504 42.435 26.3931 41.8298C26.8439 41.4609 27.2886 41.0491 27.8441 40.8779C28.2546 40.7536 29.0113 40.6863 28.9428 40.0728ZM26.9304 40.2644C26.6869 40.6272 26.2583 40.8045 25.8538 40.9554C24.2579 41.5546 22.5212 42.0805 20.877 41.6382C20.2343 41.4906 19.6598 41.1271 19.2469 40.6068C18.8585 40.0748 18.7418 39.3125 19.0698 38.7418C19.2586 38.4383 19.5259 38.1929 19.8426 38.0325C20.4024 37.7245 21.045 37.6066 21.6759 37.6962C22.112 37.7823 22.5367 37.9191 22.9418 38.1038L25.6002 39.1821C26.057 39.3594 27.4516 39.5 26.9344 40.2644H26.9304Z" fill="#DE5215"/>
<path d="M28.1439 40.8779C28.6993 41.0491 29.1501 41.4609 29.5969 41.8298C30.3396 42.435 31.1502 42.9495 32.0118 43.3626C32.8277 43.7825 33.716 44.0386 34.6279 44.1168C35.3724 44.1594 36.1169 44.0327 36.8068 43.746C37.4967 43.4593 38.1145 43.0199 38.6148 42.4599C39.1152 41.8999 39.4855 41.2336 39.6986 40.5098C39.9117 39.7861 39.9621 39.0232 39.8462 38.2771C39.7254 37.5147 39.4115 36.7524 38.8218 36.2632C38.2322 35.774 37.4494 35.611 36.6947 35.6232C34.9519 35.6456 33.3339 36.5058 31.8387 37.4149C30.6675 38.1262 29.5063 38.8906 28.2163 39.3635C27.8138 39.5082 27.1195 39.551 27.0612 40.0728C26.9847 40.6863 27.7394 40.7536 28.1439 40.8779ZM30.3877 39.1759L33.0462 38.0977C33.4505 37.9129 33.8746 37.7762 34.31 37.69C34.9415 37.6005 35.5848 37.7184 36.1453 38.0264C36.4618 38.1864 36.7286 38.4318 36.9161 38.7357C37.2441 39.3064 37.1173 40.0687 36.741 40.6007C36.3274 41.1211 35.7522 41.4846 35.1089 41.6321C33.4648 42.0744 31.73 41.5485 30.1342 40.9493C29.7317 40.7984 29.299 40.6211 29.0555 40.2583C28.5443 39.5 29.939 39.3594 30.3877 39.1759Z" fill="#DE5215"/>
<path d="M27.9949 41.414C27.5301 45.1278 25.419 48.5052 22.6157 50.945C19.8124 53.3849 16.361 54.9564 12.8111 56C13.3927 55.576 13.8475 54.8871 14.3184 54.3388C13.8909 54.4988 13.4291 54.5416 12.98 54.4629C12.5309 54.3841 12.1102 54.1866 11.7606 53.8904C13.5718 54.1717 15.4212 53.7558 17.0734 52.9752C18.7257 52.1945 20.1927 51.0653 21.5813 49.8709C22.8632 48.7681 24.1029 47.59 25.0527 46.1856C26.0065 44.7315 26.6975 43.1172 27.0934 41.4181C27.1537 41.1735 27.2362 40.8963 27.4636 40.7923C27.691 40.6884 28.174 41.2387 27.9949 41.414Z" fill="#DE5215"/>
<path d="M28.001 41.414C28.4659 45.1278 30.5769 48.5052 33.3782 50.945C36.1795 53.3849 39.6349 54.9564 43.1828 56C42.6012 55.576 42.1464 54.8871 41.6755 54.3388C42.103 54.499 42.5648 54.5419 43.014 54.4632C43.4632 54.3844 43.8838 54.1868 44.2333 53.8904C42.4221 54.1717 40.5727 53.7558 38.9205 52.9752C37.2683 52.1945 35.8032 51.0653 34.4146 49.8709C33.1327 48.7681 31.893 47.59 30.9412 46.1856C29.9882 44.731 29.2973 43.1169 28.9006 41.4181C28.8402 41.1735 28.7597 40.8963 28.5323 40.7923C28.3049 40.6884 27.8239 41.2387 28.001 41.414Z" fill="#DE5215"/>
<path d="M26.4132 39.1515C26.4031 39.4898 26.7513 39.7304 26.8298 40.0606C26.8507 40.2788 26.8426 40.4988 26.8056 40.7149C26.7963 40.9511 26.8565 41.1849 26.9784 41.3865C27.1004 41.5881 27.2787 41.7485 27.4908 41.8474C27.7029 41.9463 27.9391 41.9792 28.1697 41.9419C28.4002 41.9047 28.6147 41.799 28.7858 41.6382C28.9555 41.4678 29.0921 41.2666 29.1883 41.0451C29.3763 40.6392 29.5032 40.207 29.5647 39.763C29.6288 39.4674 29.5874 39.1583 29.4479 38.8906C29.0374 38.2608 26.4434 38.116 26.4132 39.1515Z" fill="#FF5F18"/>
</g>
<defs>
<clipPath id="clip0_36_243">
<rect width="56" height="56" fill="white"/>
</clipPath>
</defs>
</svg>
